<?xml version="1.0" encoding="UTF-8"?>
<svg version="1.1" xmlns="http://www.w3.org/2000/svg" width="1024" height="1024">
<path d="M0 0 C337.92 0 675.84 0 1024 0 C1024 337.92 1024 675.84 1024 1024 C686.08 1024 348.16 1024 0 1024 C0 686.08 0 348.16 0 0 Z " fill="#EEDECE" transform="translate(0,0)"/>
<path d="M0 0 C0.96550781 0.50402344 1.93101562 1.00804687 2.92578125 1.52734375 C9.71577296 5.25634293 14.78103081 9.27920685 20 15 C20.33 9.39 20.66 3.78 21 -2 C38.16 -2 55.32 -2 73 -2 C73 60.7 73 123.4 73 188 C55.84 188 38.68 188 21 188 C20.67 181.73 20.34 175.46 20 169 C18.535625 170.52625 17.07125 172.0525 15.5625 173.625 C7.63136343 181.51164212 -0.47743354 186.23389714 -11 190 C-12.03543945 190.39384888 -12.03543945 190.39384888 -13.09179688 190.7956543 C-20.5681232 193.38390925 -27.76761378 193.50108464 -35.625 193.4375 C-36.6237767 193.43144241 -36.6237767 193.43144241 -37.64273071 193.42526245 C-60.9592274 193.22674224 -81.44950806 185.4071129 -99 170 C-100.09828125 169.05060547 -100.09828125 169.05060547 -101.21875 168.08203125 C-114.92693209 155.32580625 -124.62406166 137.06699296 -129 119 C-129.17587646 118.3095459 -129.35175293 117.6190918 -129.53295898 116.90771484 C-131.26468082 109.41257017 -131.34617368 102.04201551 -131.3125 94.375 C-131.31034485 93.71014587 -131.3081897 93.04529175 -131.30596924 92.36029053 C-131.15934195 64.18835708 -121.97422144 39.49117394 -102.3125 18.875 C-76.14659883 -6.3321506 -33.30684865 -17.8619029 0 0 Z " fill="#0C0E24" transform="translate(403,473)"/>
<path d="M0 0 C17.82 0 35.64 0 54 0 C54.33 49.83 54.66 99.66 55 151 C57.97 147.37 60.94 143.74 64 140 C68.5 135 68.5 135 70.76171875 132.515625 C73.80758587 129.09234677 76.67526477 125.53684698 79.55859375 121.9765625 C82.78194794 118.04664907 86.09225165 114.19555393 89.40844727 110.34399414 C93.71945294 105.3358314 97.98367214 100.28987451 102.234375 95.23046875 C102.67606018 94.73229645 103.11774536 94.23412415 103.57281494 93.72085571 C105.08267326 91.96697038 105.08267326 91.96697038 106.46966553 89.74667358 C109.32831517 85.77919323 111.48332038 83.35915495 116.34393311 82.20814514 C120.47770376 81.9585049 124.52128399 81.98557165 128.65625 82.12109375 C130.16935419 82.13790491 131.68250777 82.15070425 133.19567871 82.15968323 C137.15570172 82.19385447 141.11269701 82.28207774 145.0715332 82.38201904 C149.12018884 82.47451497 153.16933965 82.51528135 157.21875 82.56054688 C165.14721441 82.65672724 173.07322938 82.81008021 181 83 C177.88417554 87.2382545 174.80834588 91.41675977 171.16015625 95.21875 C170.48919922 95.92386719 169.81824219 96.62898438 169.12695312 97.35546875 C168.44568359 98.06316406 167.76441406 98.77085937 167.0625 99.5 C162.51020206 104.25587359 158.04642907 109.05058976 153.73510742 114.02636719 C150.78101521 117.38655876 147.69938467 120.62520957 144.625 123.875 C137.20140113 131.75892045 129.93326406 139.75617906 122.82421875 147.92578125 C119.95736798 151.18551949 117.03411516 154.39410784 114.11328125 157.60546875 C111.99127508 160.00988609 109.98279012 162.48011097 108 165 C109.45804808 169.20352159 111.63652958 172.56989251 114.25 176.125 C114.68401123 176.7240918 115.11802246 177.32318359 115.56518555 177.94042969 C117.03633212 179.96559779 118.51682442 181.98362629 120 184 C120.5377002 184.7312207 121.07540039 185.46244141 121.62939453 186.21582031 C123.95550419 189.3760978 126.28375264 192.53477062 128.61645508 195.69018555 C132.59676569 201.07783367 136.53009204 206.49682058 140.4375 211.9375 C145.66210123 219.20609367 151.01229296 226.37346813 156.40063477 233.52124023 C161.17619932 239.86869714 165.85192467 246.28214052 170.47924805 252.73828125 C174.38191066 258.17616671 178.3928126 263.51853693 182.48828125 268.8125 C184 271 184 271 184 273 C175.81159053 273.32561035 167.62591687 273.57370286 159.43261814 273.72537041 C155.62697576 273.79820273 151.8257842 273.89677193 148.02270508 274.05615234 C123.52445605 275.05602304 123.52445605 275.05602304 117.81732178 271.72671509 C114.10534277 268.11807409 112.66531728 263.80798914 111 259 C109.37707198 256.38871734 109.37707198 256.38871734 107.59375 254.15234375 C107.08263672 253.45246338 106.57152344 252.75258301 106.04492188 252.03149414 C105.53509766 251.34047607 105.02527344 250.64945801 104.5 249.9375 C103.37406738 248.39390901 102.24907067 246.84963492 101.125 245.3046875 C100.58875 244.56831055 100.0525 243.83193359 99.5 243.07324219 C95.91007731 238.1113894 92.45811836 233.05417299 89 228 C87.92327516 226.43092227 86.84644446 224.86191719 85.76953125 223.29296875 C84.61698503 221.61211798 83.46464088 219.93112864 82.3125 218.25 C81.77753906 217.46955322 81.24257813 216.68910645 80.69140625 215.88500977 C80.170625 215.12373779 79.64984375 214.36246582 79.11328125 213.578125 C78.59975098 212.83111328 78.0862207 212.08410156 77.55712891 211.31445312 C76.47099947 209.70007448 75.41274162 208.06674488 74.37646484 206.41992188 C73.85391113 205.59556641 73.33135742 204.77121094 72.79296875 203.921875 C72.32785889 203.1700293 71.86274902 202.41818359 71.38354492 201.64355469 C70.9269751 201.10118164 70.47040527 200.55880859 70 200 C66.98170556 199.65468062 66.98170556 199.65468062 65.3515625 201.57421875 C64.49691406 202.62029297 64.49691406 202.62029297 63.625 203.6875 C61.6266152 206.11019938 60.0216705 207.9849463 57.42456055 209.7890625 C53.84015925 213.38836869 54.35968365 217.90731643 54.28105164 222.71443176 C54.28498428 224.00105209 54.28891693 225.28767242 54.29296875 226.61328125 C54.27984529 227.95137271 54.26453906 229.2894444 54.24714661 230.62748718 C54.20735758 234.13744594 54.19711029 237.64688579 54.19311523 241.15704346 C54.183772 244.74352451 54.14662115 248.32971151 54.11132812 251.91601562 C54.04419738 258.94440113 54.02332469 265.97078622 54 273 C36.18 273 18.36 273 0 273 C0 182.91 0 92.82 0 0 Z " fill="#0C0E24" transform="translate(504,388)"/>
<path d="M0 0 C17.82 0 35.64 0 54 0 C54 62.7 54 125.4 54 190 C36.18 190 18.36 190 0 190 C0 127.3 0 64.6 0 0 Z " fill="#0B0D24" transform="translate(695,471)"/>
<path d="M0 0 C10.08189318 8.45637055 16.13170469 19.10579002 19.25 31.8125 C20.57920873 47.31418099 17.64284448 61.04034925 8.2109375 73.5078125 C-0.1821527 83.44309596 -11.75895162 90.13725532 -24.75 91.8125 C-41.25018277 92.82508667 -53.54230275 89.71724576 -66.74609375 79.2265625 C-76.45993393 70.35646345 -82.13720883 57.1450082 -82.98828125 44.18359375 C-83.28187277 28.62324328 -79.30177622 15.86150587 -68.625 4.125 C-49.56547283 -13.57008675 -21.11204216 -15.43363082 0 0 Z " fill="#F1DFCE" transform="translate(405.75,525.1875)"/>
<path d="M0 0 C7.94227571 6.21216009 13.59660319 13.82970459 15 24 C15.89540442 35.35749819 14.26369657 44.22981152 6.8046875 53.03515625 C-0.16996 60.62876597 -8.47633371 65.01261284 -18.9465332 65.64648438 C-28.76637512 65.84262436 -36.31158705 62.87303678 -43.875 56.625 C-44.926875 55.325625 -44.926875 55.325625 -46 54 C-46.50015625 53.40316406 -47.0003125 52.80632812 -47.515625 52.19140625 C-55.08921399 42.761185 -56.08147736 33.72986979 -55 22 C-54.09760459 18.65419547 -52.81966357 15.93555482 -51 13 C-50.443125 11.989375 -49.88625 10.97875 -49.3125 9.9375 C-36.87459968 -5.861995 -17.8645815 -10.0780558 0 0 Z " fill="#CC124E" transform="translate(741,386)"/>
<path d="M0 0 C4.89874169 2.27441578 8.19057117 5.07587864 10.38378906 10.13623047 C12.59275606 16.23672151 13.06491742 21.75753698 13.015625 28.21484375 C13.0455957 29.60219727 13.0455957 29.60219727 13.07617188 31.01757812 C13.06982495 40.07464284 10.30020886 48.16808804 4.578125 55.27734375 C-1.21481987 59.47722878 -7.4254576 60.14814248 -14.421875 59.27734375 C-20.46605272 57.32676252 -24.98404046 54.55933396 -28.484375 49.21875 C-31.27945409 43.43060705 -31.77679226 38.34689172 -31.734375 32.02734375 C-31.72809082 30.76144409 -31.72809082 30.76144409 -31.72167969 29.4699707 C-31.55261509 20.14174175 -29.96287395 11.63911902 -22.97265625 4.875 C-16.11722577 -1.08248996 -8.87333185 -2.64768773 0 0 Z " fill="#69CDAA" transform="translate(210.421875,898.72265625)"/>
<path d="M0 0 C1.051875 -0.00515625 2.10375 -0.0103125 3.1875 -0.015625 C6 0.25 6 0.25 9 2.25 C9.95168683 5.10506049 10.1900946 7.15937282 10.31640625 10.13671875 C10.35830078 11.07451172 10.40019531 12.01230469 10.44335938 12.97851562 C10.48267578 13.95498047 10.52199219 14.93144531 10.5625 15.9375 C10.60568359 16.92556641 10.64886719 17.91363281 10.69335938 18.93164062 C10.79941654 21.37095546 10.90147714 23.81037113 11 26.25 C12.97909398 26.27686553 14.95828971 26.29633375 16.9375 26.3125 C18.03964844 26.32410156 19.14179688 26.33570313 20.27734375 26.34765625 C22.91447634 26.56262571 22.91447634 26.56262571 24 25.25 C24.15764405 23.47130274 24.25100677 21.68681524 24.31640625 19.90234375 C24.37924805 18.28295898 24.37924805 18.28295898 24.44335938 16.63085938 C24.48267578 15.49455078 24.52199219 14.35824219 24.5625 13.1875 C24.60568359 12.04732422 24.64886719 10.90714844 24.69335938 9.73242188 C24.79982839 6.90507805 24.90184207 4.07764262 25 1.25 C27.84838121 -0.1741906 30.32787908 0.08004492 33.5 0.0625 C34.6653125 0.04832031 35.830625 0.03414062 37.03125 0.01953125 C40 0.25 40 0.25 42 2.25 C42.25396729 4.44444275 42.25396729 4.44444275 42.25878906 7.20288086 C42.26509338 8.23412582 42.27139771 9.26537079 42.27789307 10.3278656 C42.2738446 11.44556839 42.26979614 12.56327118 42.265625 13.71484375 C42.26849518 15.43121788 42.26849518 15.43121788 42.27142334 17.18226624 C42.27278632 19.60580668 42.26908203 22.02935439 42.26074219 24.45288086 C42.2500543 28.16862364 42.26062889 31.88388182 42.2734375 35.59960938 C42.27211573 37.9505219 42.26955299 40.30143413 42.265625 42.65234375 C42.26967346 43.76802231 42.27372192 44.88370087 42.27789307 46.03318787 C42.27158875 47.06758499 42.26528442 48.10198212 42.25878906 49.16772461 C42.25719788 50.07880478 42.25560669 50.98988495 42.25396729 51.92857361 C42 54.25 42 54.25 40 57.25 C37.22808898 57.49849576 34.70112612 57.57683409 31.9375 57.5 C30.81891602 57.49226562 30.81891602 57.49226562 29.67773438 57.484375 C24.15410426 57.40410426 24.15410426 57.40410426 23 56.25 C22.84344973 54.76361008 22.74933057 53.27050873 22.68359375 51.77734375 C22.64169922 50.87822266 22.59980469 49.97910156 22.55664062 49.05273438 C22.51732422 48.10720703 22.47800781 47.16167969 22.4375 46.1875 C22.39431641 45.23810547 22.35113281 44.28871094 22.30664062 43.31054688 C22.20020868 40.95721824 22.09956846 38.60362901 22 36.25 C17.71 35.92 13.42 35.59 9 35.25 C9.01160156 36.82652344 9.02320313 38.40304687 9.03515625 40.02734375 C9.04453243 42.08072799 9.05363282 44.1341135 9.0625 46.1875 C9.07087891 47.22841797 9.07925781 48.26933594 9.08789062 49.34179688 C9.09272461 50.82583008 9.09272461 50.82583008 9.09765625 52.33984375 C9.10551147 53.71450806 9.10551147 53.71450806 9.11352539 55.11694336 C9 57.25 9 57.25 8 58.25 C5.8778002 58.37569503 3.75088655 58.42576773 1.625 58.4375 C-0.11910156 58.45876953 -0.11910156 58.45876953 -1.8984375 58.48046875 C-5 58.25 -5 58.25 -8 56.25 C-8.41891479 53.97290039 -8.41891479 53.97290039 -8.47998047 51.09765625 C-8.52419632 49.48588501 -8.52419632 49.48588501 -8.56930542 47.84155273 C-8.58510651 46.67696533 -8.60090759 45.51237793 -8.6171875 44.3125 C-8.64225372 43.12148682 -8.66731995 41.93047363 -8.69314575 40.70336914 C-8.74218915 38.18160936 -8.78371477 35.65969401 -8.81835938 33.13769531 C-8.87477418 29.26549998 -8.96309505 25.3949422 -9.0546875 21.5234375 C-9.09827882 19.07815855 -9.14000832 16.63284556 -9.1796875 14.1875 C-9.20763397 13.0229126 -9.23558044 11.8583252 -9.26437378 10.65844727 C-9.27493805 9.58393311 -9.28550232 8.50941895 -9.29638672 7.40234375 C-9.31176483 6.45351318 -9.32714294 5.50468262 -9.34298706 4.52709961 C-9.22980133 3.77565674 -9.1166156 3.02421387 -9 2.25 C-5.53767506 -0.05821663 -4.08201684 -0.02000989 0 0 Z " fill="#67CDAA" transform="translate(363,898.75)"/>
<path d="M0 0 C0.7734375 -0.00515625 1.546875 -0.0103125 2.34375 -0.015625 C4.5 0.25 4.5 0.25 7.5 2.25 C7.5 3.57 7.5 4.89 7.5 6.25 C8.386875 5.425 9.27375 4.6 10.1875 3.75 C15.34686131 0.03610392 21.40830184 0.32467876 27.5 1.25 C30.3984375 2.65625 30.3984375 2.65625 32.5 4.25 C32.5 4.91 32.5 5.57 32.5 6.25 C33.2425 5.755 33.985 5.26 34.75 4.75 C39.66314321 2.31101722 45.1762489 2.43727049 50.5 3.25 C53.98242391 5.77646441 55.15226822 7.20680465 56.5 11.25 C56.9359574 15.71925625 57.10578848 20.20255679 57.3125 24.6875 C57.38919922 25.92822266 57.46589844 27.16894531 57.54492188 28.44726562 C57.62516602 30.23487305 57.62516602 30.23487305 57.70703125 32.05859375 C57.7635083 33.14970459 57.81998535 34.24081543 57.87817383 35.36499023 C57.40704833 38.95910905 56.31953404 40.05753554 53.5 42.25 C50.59215119 42.95882303 48.557461 42.58971789 45.5 42.25 C42.82568511 40.43836733 42.54079641 39.37238923 41.5 36.25 C41.37569532 34.68246728 41.29909752 33.11086663 41.25390625 31.5390625 C41.22103516 30.62382813 41.18816406 29.70859375 41.15429688 28.765625 C41.09335063 26.84646674 41.03602846 24.9271898 40.98242188 23.0078125 C40.75716931 16.41058795 40.75716931 16.41058795 38.5 10.25 C36.11522671 11.96153709 34.6697593 13.33188697 34.12451172 16.28076172 C33.98879629 18.75408512 33.93937799 21.21043711 33.9375 23.6875 C33.87787136 34.87212864 33.87787136 34.87212864 29.5 39.25 C28.02351124 39.34823996 26.54224583 39.37973519 25.0625 39.375 C24.25941406 39.37757813 23.45632813 39.38015625 22.62890625 39.3828125 C20.5 39.25 20.5 39.25 18.5 38.25 C17.3992924 34.9478772 17.29372928 32.30916721 17.18359375 28.83203125 C17.14169922 27.57841797 17.09980469 26.32480469 17.05664062 25.03320312 C17.01732422 23.72287109 16.97800781 22.41253906 16.9375 21.0625 C16.89429008 19.72720022 16.850675 18.39191348 16.80664062 17.05664062 C16.70043498 13.78786703 16.59839003 10.51901667 16.5 7.25 C11.67299511 11.82946618 10.41437794 14.36133566 10.21875 20.94140625 C10.18136719 22.05064453 10.14398437 23.15988281 10.10546875 24.30273438 C10.03503897 26.64648085 9.96472686 28.99023087 9.89453125 31.33398438 C9.85714844 32.44193359 9.81976562 33.54988281 9.78125 34.69140625 C9.73581055 36.21809937 9.73581055 36.21809937 9.68945312 37.77563477 C9.5 40.25 9.5 40.25 8.5 42.25 C5.38370851 43.28876383 3.1405571 43.38361625 -0.125 43.375 C-1.10726563 43.37757813 -2.08953125 43.38015625 -3.1015625 43.3828125 C-5.5 43.25 -5.5 43.25 -6.5 42.25 C-6.69755244 39.31817691 -6.83306007 36.408428 -6.921875 33.47265625 C-6.94977112 32.59097275 -6.97766724 31.70928925 -7.00640869 30.80088806 C-7.06290188 28.93220136 -7.11650759 27.06342551 -7.16748047 25.19458008 C-7.24956688 22.32762709 -7.35305553 19.4619344 -7.45703125 16.59570312 C-7.50914146 14.7838919 -7.55996564 12.97204314 -7.609375 11.16015625 C-7.64359558 10.2986647 -7.67781616 9.43717316 -7.71307373 8.54957581 C-7.76464844 6.13305664 -7.76464844 6.13305664 -7.5 2.25 C-4.377998 0.16866533 -3.56733011 -0.0237822 0 0 Z " fill="#68CDAA" transform="translate(504.5,913.75)"/>
<path d="M0 0 C5.1013239 0.01541185 9.90641087 0.39760863 14.9609375 1.1328125 C16.44044638 1.10591234 17.91972581 1.06332727 19.3984375 1.0078125 C25.59179428 0.95505818 30.11339285 2.56641595 34.8359375 6.5703125 C40.07521265 12.88826194 39.65304494 19.16043562 38.9609375 27.1328125 C37.52589403 33.16515092 34.91117192 36.87447724 29.7421875 40.2578125 C26.13068417 42.03188431 22.82649259 42.2697246 18.8359375 42.2578125 C17.53269531 42.26167969 17.53269531 42.26167969 16.203125 42.265625 C13.9609375 42.1328125 13.9609375 42.1328125 11.9609375 41.1328125 C12.11820313 41.67808594 12.27546875 42.22335937 12.4375 42.78515625 C13.42463747 47.21254146 13.5629291 51.63887517 12.9609375 56.1328125 C10.29775554 59.04566777 7.69226244 59.32788825 3.8984375 59.6328125 C-0.0390625 59.1328125 -0.0390625 59.1328125 -2.265625 57.15234375 C-4.60591292 53.1676685 -4.51114678 49.79905187 -4.3515625 45.3203125 C-4.33536865 44.43827148 -4.3191748 43.55623047 -4.30249023 42.64746094 C-4.23637605 39.47505078 -4.13663643 36.30440863 -4.0390625 33.1328125 C-3.98666583 31.04544402 -3.9376306 28.95801036 -3.8886261 26.87055969 C-3.80100745 23.20775498 -3.70211728 19.54528178 -3.6015625 15.8828125 C-3.58227692 15.15847015 -3.56299133 14.43412781 -3.54312134 13.68783569 C-3.48603399 11.62241024 -3.42194079 9.55732976 -3.35546875 7.4921875 C-3.31881104 6.29045898 -3.28215332 5.08873047 -3.24438477 3.85058594 C-2.96808602 0.19332361 -2.96808602 0.19332361 0 0 Z " fill="#68CDAA" transform="translate(764.0390625,898.8671875)"/>
<path d="M0 0 C2.75 -0.36328125 2.75 -0.36328125 6 -0.3125 C7.60875 -0.30669922 7.60875 -0.30669922 9.25 -0.30078125 C12 0 12 0 14 2 C14.19691387 5.87263936 14.11193 9.30043753 13.5 13.125 C12.7327639 19.07107976 12.92526519 25.01291124 13 31 C14.97536745 30.65213292 14.97536745 30.65213292 17 30 C18.25050267 27.49899467 18.15799146 25.71048757 18.2109375 22.9140625 C18.23929688 21.90085937 18.26765625 20.88765625 18.296875 19.84375 C18.34876455 17.7059005 18.39309297 15.5678535 18.4296875 13.4296875 C18.460625 12.41390625 18.4915625 11.398125 18.5234375 10.3515625 C18.54325684 9.42166504 18.56307617 8.49176758 18.58349609 7.53369141 C19.07215851 4.56104278 19.91988264 3.15623816 22 1 C24.62890625 0.5390625 24.62890625 0.5390625 27.5625 0.625 C28.53316406 0.63789062 29.50382813 0.65078125 30.50390625 0.6640625 C33 1 33 1 35 3 C35.22273254 5.09159851 35.22273254 5.09159851 35.18286133 7.70581055 C35.17237259 8.68410324 35.16188385 9.66239594 35.15107727 10.67033386 C35.12829208 11.73174088 35.1055069 12.79314789 35.08203125 13.88671875 C35.05516487 15.5222747 35.05516487 15.5222747 35.02775574 17.19087219 C34.98649211 19.50356704 34.93989479 21.81617183 34.88842773 24.12866211 C34.81318539 27.65537482 34.76393132 31.18179795 34.71679688 34.70898438 C34.67346189 36.95576033 34.62858917 39.20250727 34.58203125 41.44921875 C34.56936722 42.50050461 34.55670319 43.55179047 34.5436554 44.63493347 C34.34715518 52.07627201 33.54988295 57.20727106 28.375 62.875 C24.21898166 65.49175229 20.90483882 66.45708175 16 66 C12.13081914 64.06540957 9.00150387 61.89181308 7 58 C6.46537867 53.8757783 6.69598135 51.6080373 8.5625 47.875 C11.01234953 44.98543389 13.35222274 43.10777983 16.51171875 41.078125 C18.16483068 40.05532293 18.16483068 40.05532293 19 38 C18.175 38.495 17.35 38.99 16.5 39.5 C12.07929734 41.39458685 9.77916512 41.53101835 5 41 C0.39628553 38.44238085 -1.47301137 34.90559643 -3 30 C-3.328125 26.203125 -3.328125 26.203125 -3.25 22.25 C-3.23759277 21.55624268 -3.22518555 20.86248535 -3.21240234 20.14770508 C-2.84917088 4.27375632 -2.84917088 4.27375632 0 0 Z " fill="#68CDAA" transform="translate(653,912)"/>
<path d="M0 0 C1.45599609 0.00773438 1.45599609 0.00773438 2.94140625 0.015625 C3.90949219 0.01046875 4.87757813 0.0053125 5.875 0 C8.50390625 0.265625 8.50390625 0.265625 11.50390625 2.265625 C11.50390625 3.255625 11.50390625 4.245625 11.50390625 5.265625 C12.24833984 4.8325 12.24833984 4.8325 13.0078125 4.390625 C17.65877577 1.84892211 21.08340564 0.46258787 26.50390625 1.265625 C30.64900467 3.29753599 33.66543598 5.77996645 35.80859375 9.94921875 C37.78382886 16.52963685 37.73177838 24.52303785 34.87890625 30.828125 C32.35860095 35.0226331 28.89190674 38.07162475 24.50390625 40.265625 C23.02722288 40.3608949 21.54615168 40.39548459 20.06640625 40.390625 C18.89271484 40.39449219 18.89271484 40.39449219 17.6953125 40.3984375 C15.50390625 40.265625 15.50390625 40.265625 12.50390625 39.265625 C12.52710938 40.31363281 12.5503125 41.36164062 12.57421875 42.44140625 C12.59297928 43.82030537 12.61117918 45.1992122 12.62890625 46.578125 C12.65404297 47.61356445 12.65404297 47.61356445 12.6796875 48.66992188 C12.71608419 52.43697896 12.64769489 54.04994204 10.50390625 57.265625 C8.04296875 57.6640625 8.04296875 57.6640625 5.12890625 57.640625 C4.17242187 57.64835938 3.2159375 57.65609375 2.23046875 57.6640625 C-0.96495081 57.19711007 -2.18420832 56.49396361 -4.49609375 54.265625 C-4.99057007 51.94419861 -4.99057007 51.94419861 -4.98193359 49.18334961 C-4.98808685 48.14895248 -4.99424011 47.11455536 -5.00057983 46.04881287 C-4.9862088 44.93313431 -4.97183777 43.81745575 -4.95703125 42.66796875 C-4.95611481 41.5227626 -4.95519836 40.37755646 -4.95425415 39.19764709 C-4.94820937 36.77584694 -4.93243735 34.35405456 -4.90771484 31.93237305 C-4.8712045 28.21440255 -4.86669539 24.49742789 -4.8671875 20.77929688 C-4.85735701 18.42967884 -4.8457003 16.08006759 -4.83203125 13.73046875 C-4.8298056 12.61276596 -4.82757996 11.49506317 -4.82528687 10.3434906 C-4.81252716 9.31224564 -4.79976746 8.28100067 -4.78662109 7.21850586 C-4.7789975 6.30822128 -4.7713739 5.39793671 -4.76351929 4.46006775 C-4.35920505 1.1423425 -3.26766293 0.34773252 0 0 Z " fill="#68CDAA" transform="translate(231.49609375,913.734375)"/>
<path d="M0 0 C1.12148438 0.00644531 2.24296875 0.01289062 3.3984375 0.01953125 C6.625 0.1875 6.625 0.1875 9.3203125 0.7421875 C11.82480137 1.37568542 11.82480137 1.37568542 15.125 0.5 C18.625 0.1875 18.625 0.1875 21.29077148 1.68530273 C24.33785452 4.95165082 24.42116116 7.64467175 24.47265625 11.91015625 C24.50956825 13.02299232 24.50956825 13.02299232 24.54722595 14.15830994 C24.59306516 15.72218073 24.6267917 17.28644767 24.64916992 18.85083008 C24.68745448 21.24715063 24.77355182 23.6383957 24.86523438 26.03320312 C24.90390261 27.55461748 24.93980452 29.07610519 24.97265625 30.59765625 C24.9994899 31.31333267 25.02632355 32.02900909 25.05397034 32.76637268 C25.07445499 36.03442682 25.06713435 37.72268168 22.7644043 40.14355469 C20.12894379 41.42955596 18.2936995 41.49021182 15.375 41.375 C14.03695312 41.33439453 14.03695312 41.33439453 12.671875 41.29296875 C11.99640625 41.25816406 11.3209375 41.22335937 10.625 41.1875 C9.965 39.2075 9.305 37.2275 8.625 35.1875 C8.15449219 35.60902344 7.68398438 36.03054688 7.19921875 36.46484375 C6.57660156 37.01269531 5.95398438 37.56054688 5.3125 38.125 C4.69761719 38.67027344 4.08273437 39.21554687 3.44921875 39.77734375 C-0.24666384 42.63433222 -3.86723298 42.56951415 -8.375 42.1875 C-13.47916765 39.88562047 -15.69752814 36.87616762 -17.6796875 31.8125 C-19.67553288 24.27762306 -19.13577537 17.09618698 -15.5859375 10.16015625 C-11.54946369 3.5846102 -8.03099785 -0.10107663 0 0 Z " fill="#69CDAA" transform="translate(427.375,914.8125)"/>
<path d="M0 0 C4.81026222 3.2615424 7.6652754 7.32215929 8.76953125 13.0546875 C9.94053743 30.79255158 9.94053743 30.79255158 4.76953125 37.0546875 C0.67560778 41.28756921 -3.02064302 43.1912861 -8.91796875 43.3671875 C-14.86902511 43.28911242 -19.41697852 41.73215658 -23.765625 37.59375 C-28.66537337 31.96546762 -29.73906139 27.69837284 -29.61328125 20.3671875 C-28.86026929 13.85132888 -26.71585502 7.38807494 -21.8671875 2.8359375 C-15.51726911 -1.45378514 -7.28699376 -3.08835813 0 0 Z " fill="#6ACDAB" transform="translate(593.23046875,914.9453125)"/>
<path d="M0 0 C1.17755859 -0.00773438 1.17755859 -0.00773438 2.37890625 -0.015625 C4.4375 0.25 4.4375 0.25 6.4375 2.25 C6.83514263 4.23821313 7.17525349 6.23944339 7.4375 8.25 C7.93378906 7.816875 8.43007813 7.38375 8.94140625 6.9375 C12.35969067 4.13541486 14.63836413 2.38778205 19.0625 1.625 C23.26448179 2.40314478 25.29563623 3.32235422 28.4375 6.25 C32.07987217 13.29580315 31.97496632 21.06647549 32.125 28.8125 C32.15916016 30.01197266 32.19332031 31.21144531 32.22851562 32.44726562 C32.31034454 35.38141684 32.3797063 38.31529364 32.4375 41.25 C28.49971594 43.76191978 26.18143916 44.95654413 21.4375 44.25 C19.13474444 42.3829009 17.75926129 40.89352259 16.4375 38.25 C16.29621483 36.47319327 16.21155137 34.69171327 16.15625 32.91015625 C16.11886719 31.84732422 16.08148437 30.78449219 16.04296875 29.68945312 C16.00816406 28.57505859 15.97335937 27.46066406 15.9375 26.3125 C15.86865248 24.11575411 15.79591247 21.91912579 15.71875 19.72265625 C15.68845703 18.74562744 15.65816406 17.76859863 15.62695312 16.76196289 C15.53063063 14.12275056 15.53063063 14.12275056 14.4375 11.25 C13.4475 11.25 12.4575 11.25 11.4375 11.25 C8.24519551 18.48589018 8.18143082 25.83864308 7.875 33.625 C7.83181641 34.64722656 7.78863281 35.66945313 7.74414062 36.72265625 C7.63862208 39.23165288 7.53650787 41.74073943 7.4375 44.25 C4.71207733 45.61271133 2.47662726 45.41923601 -0.5625 45.4375 C-1.635 45.45167969 -2.7075 45.46585938 -3.8125 45.48046875 C-6.5625 45.25 -6.5625 45.25 -8.5625 43.25 C-8.70411132 40.18408667 -8.72379614 37.21837986 -8.64453125 34.15625 C-8.62662033 33.2537854 -8.60870941 32.3513208 -8.59025574 31.42150879 C-8.54902452 29.51151776 -8.50243396 27.6016361 -8.45092773 25.69189453 C-8.37531281 22.76212023 -8.32632241 19.83269953 -8.27929688 16.90234375 C-8.23599399 15.04944062 -8.19112476 13.1965733 -8.14453125 11.34375 C-8.13186722 10.46352173 -8.11920319 9.58329346 -8.1061554 8.6763916 C-8.02661133 6.20898438 -8.02661133 6.20898438 -7.5625 2.25 C-4.42838698 0.16059132 -3.58799528 -0.02364412 0 0 Z " fill="#68CDAA" transform="translate(614.5625,912.75)"/>
<path d="M0 0 C1.21236328 0.02707031 1.21236328 0.02707031 2.44921875 0.0546875 C3.37154297 0.08949219 3.37154297 0.08949219 4.3125 0.125 C5.3025 2.765 6.2925 5.405 7.3125 8.125 C8.116875 7.320625 8.92125 6.51625 9.75 5.6875 C13.59344515 2.50734444 17.37332008 1.69127273 22.3125 2.125 C26.72948986 4.0881066 28.87690397 6.27526072 30.69238281 10.74853516 C32.11629309 16.20536298 31.90094732 21.95611835 32 27.5625 C32.03416016 28.86638672 32.06832031 30.17027344 32.10351562 31.51367188 C32.18566153 34.71736198 32.2549241 37.92078979 32.3125 41.125 C28.37471594 43.63691978 26.05643916 44.83154413 21.3125 44.125 C19.00974444 42.2579009 17.63426129 40.76852259 16.3125 38.125 C16.17121483 36.34819327 16.08655137 34.56671327 16.03125 32.78515625 C15.99386719 31.72232422 15.95648438 30.65949219 15.91796875 29.56445312 C15.88316406 28.45005859 15.84835937 27.33566406 15.8125 26.1875 C15.74365248 23.99075411 15.67091247 21.79412579 15.59375 19.59765625 C15.56345703 18.62062744 15.53316406 17.64359863 15.50195312 16.63696289 C15.40563063 13.99775056 15.40563063 13.99775056 14.3125 11.125 C13.3225 11.125 12.3325 11.125 11.3125 11.125 C8.00308577 18.4057113 8.07786708 26.19906504 7.75 34.0625 C7.70681641 35.03251953 7.66363281 36.00253906 7.61914062 37.00195312 C7.51387907 39.37618601 7.41174293 41.75050921 7.3125 44.125 C4.58707733 45.48771133 2.35162726 45.29423601 -0.6875 45.3125 C-1.76 45.32667969 -2.8325 45.34085938 -3.9375 45.35546875 C-6.6875 45.125 -6.6875 45.125 -8.6875 43.125 C-8.82911132 40.05908667 -8.84879614 37.09337986 -8.76953125 34.03125 C-8.75162033 33.1287854 -8.73370941 32.2263208 -8.71525574 31.29650879 C-8.67402452 29.38651776 -8.62743396 27.4766361 -8.57592773 25.56689453 C-8.50031281 22.63712023 -8.45132241 19.70769953 -8.40429688 16.77734375 C-8.36099399 14.92444062 -8.31612476 13.0715733 -8.26953125 11.21875 C-8.25686722 10.33852173 -8.24420319 9.45829346 -8.2311554 8.5513916 C-8.15161133 6.08398438 -8.15161133 6.08398438 -7.6875 2.125 C-4.48369983 -0.01086678 -3.66810033 -0.10632175 0 0 Z " fill="#68CDAA" transform="translate(316.6875,912.875)"/>
<path d="M0 0 C4.08816751 1.579925 6.68260942 3.66127447 8.7265625 7.50390625 C9.04109887 10.86583593 8.96178936 14.13885533 8.7265625 17.50390625 C7.0765625 17.83390625 5.4265625 18.16390625 3.7265625 18.50390625 C3.4171875 17.41078125 3.1078125 16.31765625 2.7890625 15.19140625 C2.14318353 12.94982631 1.4642508 10.71697115 0.7265625 8.50390625 C-2.13464006 7.07330497 -4.11354335 7.11698044 -7.2734375 7.50390625 C-13.87450484 14.8122308 -12.72505467 27.3521491 -12.38720703 36.57177734 C-12.06041052 42.12170777 -11.25312664 47.34332215 -7.2734375 51.50390625 C-3.29470177 51.21971084 -1.04041123 50.54217798 1.8515625 47.87890625 C4.7265625 45.50390625 4.7265625 45.50390625 7.1015625 45.69140625 C7.6378125 45.95953125 8.1740625 46.22765625 8.7265625 46.50390625 C8.23726928 50.7444475 5.76263827 53.68863599 2.7265625 56.50390625 C-2.73480952 59.71647803 -8.06919625 60.53470495 -14.2734375 59.50390625 C-21.09903442 56.72134583 -26.21941645 51.54862281 -29.0859375 44.75390625 C-32.09898856 34.61283725 -31.70824755 21.11583361 -27.2734375 11.50390625 C-21.2163459 0.43404919 -12.21356343 -2.66515903 0 0 Z " fill="#68CDAA" transform="translate(836.2734375,898.49609375)"/>
<path d="M0 0 C1.33278992 0.00303635 1.33278992 0.00303635 2.69250488 0.00613403 C3.5987561 0.00517731 4.50500732 0.00422058 5.4387207 0.00323486 C7.35876535 0.002553 9.27881229 0.00440771 11.19885254 0.00857544 C14.14861192 0.01392361 17.09821902 0.00863066 20.04797363 0.00222778 C21.90865105 0.00288856 23.76932838 0.00416972 25.63000488 0.00613403 C26.51853149 0.0041098 27.40705811 0.00208557 28.32250977 0 C34.546305 0.02399665 34.546305 0.02399665 35.66125488 1.13894653 C35.84875488 3.57644653 35.84875488 3.57644653 35.66125488 6.13894653 C33.66125488 8.13894653 33.66125488 8.13894653 30.84094238 8.33425903 C29.75039551 8.31105591 28.65984863 8.28785278 27.53625488 8.26394653 C26.44055176 8.24589966 25.34484863 8.22785278 24.21594238 8.20925903 C23.37289551 8.18605591 22.52984863 8.16285278 21.66125488 8.13894653 C21.66569611 8.72110428 21.67013733 9.30326202 21.67471313 9.90306091 C21.71890638 15.95358835 21.7491046 22.00407006 21.77111816 28.05471802 C21.78118546 30.31385154 21.79484026 32.57297201 21.81213379 34.83206177 C21.83634996 38.07631653 21.84773064 41.32039924 21.85656738 44.56472778 C21.86688995 45.57731155 21.87721252 46.58989532 21.8878479 47.63316345 C21.88799896 48.5739122 21.88815002 49.51466095 21.88830566 50.48391724 C21.89274689 51.31220535 21.89718811 52.14049347 21.90176392 52.99388123 C21.66125488 55.13894653 21.66125488 55.13894653 19.66125488 58.13894653 C16.87524265 59.06761728 15.05059399 59.30236871 12.16125488 59.32644653 C11.38781738 59.34062622 10.61437988 59.35480591 9.81750488 59.36941528 C7.66125488 59.13894653 7.66125488 59.13894653 4.66125488 57.13894653 C4.30049133 55.03820801 4.30049133 55.03820801 4.32067871 52.41384888 C4.3209053 51.43298309 4.3211319 50.45211731 4.32136536 49.44152832 C4.33684921 48.38003571 4.35233307 47.31854309 4.36828613 46.22488403 C4.37253098 45.14010773 4.37677582 44.05533142 4.38114929 42.93768311 C4.39798188 39.46285486 4.43564299 35.98860035 4.47375488 32.51394653 C4.48879577 30.16239239 4.50248521 27.81082919 4.51477051 25.45925903 C4.54790035 19.6856248 4.59814506 13.91232664 4.66125488 8.13894653 C3.87879395 8.1505481 3.09633301 8.16214966 2.29016113 8.17410278 C1.27824707 8.18312622 0.26633301 8.19214966 -0.77624512 8.20144653 C-1.78558105 8.2130481 -2.79491699 8.22464966 -3.83483887 8.23660278 C-6.33874512 8.13894653 -6.33874512 8.13894653 -7.33874512 7.13894653 C-7.46374512 4.13894653 -7.46374512 4.13894653 -7.33874512 1.13894653 C-5.41617337 -0.78362522 -2.55789404 0.00986229 0 0 Z " fill="#69CDAA" transform="translate(722.3387451171875,897.8610534667969)"/>
<path d="M0 0 C4.32625381 2.20394062 7.64014223 4.73410327 10 9 C10.72574325 13.43585128 11.01140665 17.82224781 9.08203125 21.9765625 C6.33480397 25.58618799 3.35011594 27.07444342 -1 28 C-2.32 28 -3.64 28 -5 28 C-4.01 30.64 -3.02 33.28 -2 36 C1.63 36 5.26 36 9 36 C9.495 38.475 9.495 38.475 10 41 C3.13007283 45.31054254 -2.95471134 46.1349783 -11 45 C-16.07932896 43.25874505 -18.97264245 40.61242125 -21.4375 35.875 C-24.70887602 28.33469831 -25.21573662 21.45656692 -22.25 13.6875 C-19.63659986 7.86881467 -16.79487212 3.78123641 -10.9921875 0.73046875 C-7.30456233 -0.62166048 -3.84523894 -0.69466908 0 0 Z " fill="#69CDAA" transform="translate(295,913)"/>
<path d="M0 0 C2.87324242 2.13964861 3.73537758 2.80753096 5 6 C6.43484627 17.91605661 6.43484627 17.91605661 3.6875 21.90625 C0.85941987 23.7392649 -1.73971187 23.29109715 -5 23 C-5.99 22.34 -6.98 21.68 -8 21 C-8.51171875 18.1796875 -8.51171875 18.1796875 -8.6875 14.875 C-8.75324219 13.77929688 -8.81898438 12.68359375 -8.88671875 11.5546875 C-8.92410156 10.71164062 -8.96148437 9.86859375 -9 9 C-10.99863756 9.57944932 -10.99863756 9.57944932 -13 11 C-14.71234701 15.14927849 -15.25592171 18.73736231 -15.30859375 23.203125 C-15.33373047 24.3478125 -15.35886719 25.4925 -15.38476562 26.671875 C-15.42015131 29.07285928 -15.4513481 31.47390867 -15.47851562 33.875 C-15.50494141 35.01453125 -15.53136719 36.1540625 -15.55859375 37.328125 C-15.57877563 38.88901855 -15.57877563 38.88901855 -15.59936523 40.48144531 C-15.73157471 41.31256836 -15.86378418 42.14369141 -16 43 C-19.29804927 45.19869951 -20.63068003 45.34908812 -24.5 45.4375 C-25.93859375 45.49744141 -25.93859375 45.49744141 -27.40625 45.55859375 C-30 45 -30 45 -31.64160156 42.82910156 C-33.16285186 39.66083261 -33.36080371 37.67043165 -33.328125 34.17578125 C-33.32296875 33.06396484 -33.3178125 31.95214844 -33.3125 30.80664062 C-33.291875 29.65357422 -33.27125 28.50050781 -33.25 27.3125 C-33.24226563 25.6119043 -33.24226563 25.6119043 -33.234375 23.87695312 C-33.06403031 5.40520118 -33.06403031 5.40520118 -30.67285156 2.24731445 C-27.89877518 0.17890286 -25.33565703 0.70739851 -22 1 C-18.61968411 2.18767855 -18.06783183 2.89825225 -16 6 C-15.60167969 5.57847656 -15.20335937 5.15695312 -14.79296875 4.72265625 C-14.26316406 4.17480469 -13.73335938 3.62695312 -13.1875 3.0625 C-12.66542969 2.51722656 -12.14335937 1.97195313 -11.60546875 1.41015625 C-7.94609051 -1.80404216 -4.43886278 -1.14798175 0 0 Z " fill="#68CDAA" transform="translate(489,913)"/>
<path d="M0 0 C5.44736842 0.60526316 5.44736842 0.60526316 7.75 2.25 C11.29057452 7.20680433 11.38606599 12.12395772 11.375 18 C11.37411377 18.83926025 11.37322754 19.67852051 11.37231445 20.54321289 C11.2128941 29.01029468 10.03576798 38.55681768 4 45 C0.8125 45.25 0.8125 45.25 -2 45 C-8.30731262 34.21653004 -8.30295172 22.60356634 -5.77734375 10.41796875 C-4.51995246 6.5067868 -2.45397197 3.26884052 0 0 Z " fill="#F2E2CA" transform="translate(206,905)"/>
<path d="M0 0 C0.99 0.33 1.98 0.66 3 1 C3.03101335 16.41665733 3.05112085 31.8333156 3.0625 47.25 C3.06335602 48.4014513 3.06421204 49.5529026 3.06509399 50.73924637 C3.08732478 84.64189274 2.94269233 118.53763665 2.5 152.4375 C2.48206327 153.81193016 2.48206327 153.81193016 2.46376419 155.21412659 C2.32016797 166.14291587 2.16622972 177.07153148 2 188 C3.32 188 4.64 188 6 188 C6 188.66 6 189.32 6 190 C4.02 190 2.04 190 0 190 C0 127.3 0 64.6 0 0 Z " fill="#201822" transform="translate(695,471)"/>
<path d="M0 0 C0.66 0 1.32 0 2 0 C2 62.7 2 125.4 2 190 C1.34 190 0.68 190 0 190 C-1.03369157 185.77324841 -1.12400253 181.69914576 -1.08229065 177.37541199 C-1.07744696 176.23581802 -1.07744696 176.23581802 -1.07250541 175.07320195 C-1.06045876 172.53206654 -1.04108009 169.99104067 -1.02172852 167.44995117 C-1.01158271 165.62657914 -1.00188937 163.80320455 -0.99261475 161.97982788 C-0.96616397 157.0318993 -0.93337827 152.08403051 -0.89946485 147.13614821 C-0.86509192 141.96450998 -0.83653166 136.79283975 -0.80735779 131.62117004 C-0.75123333 121.8287937 -0.6898728 112.03645743 -0.62663645 102.24412471 C-0.55489615 91.09551401 -0.48898486 79.94687125 -0.42356598 68.79822195 C-0.28886856 45.86543968 -0.14684192 22.93270749 0 0 Z " fill="#333039" transform="translate(747,471)"/>
<path d="M0 0 C3.68097812 0.60097602 4.77684909 1.62177293 7.0625 4.5 C9.50865974 9.39231949 8.79483707 16.18147995 7.19140625 21.2578125 C6.00787177 23.67144675 4.91463411 25.55111261 3.0625 27.5 C-0.50894694 28.58959398 -2.5477474 29.1948763 -5.9375 27.5 C-6.0246747 23.75014675 -6.07795003 20.00055445 -6.125 16.25 C-6.15013672 15.18652344 -6.17527344 14.12304688 -6.20117188 13.02734375 C-6.21083984 12.00253906 -6.22050781 10.97773437 -6.23046875 9.921875 C-6.2461792 8.97924805 -6.26188965 8.03662109 -6.27807617 7.06542969 C-5.70981105 2.78490644 -4.28831701 0.7299263 0 0 Z " fill="#E8DFCC" transform="translate(780.9375,906.5)"/>
<path d="M0 0 C2.86977519 0.2265612 4.50950471 0.54337224 6.640625 2.52734375 C8.58614209 6.06617225 8.43580272 9.44309088 8.375 13.375 C8.38660156 14.1175 8.39820313 14.86 8.41015625 15.625 C8.38467446 20.4325635 7.73988598 23.88697768 5 28 C1.8125 28.875 1.8125 28.875 -1 29 C-4.76402798 24.25405168 -5.19936446 20.70750142 -5.3125 14.6875 C-5.34988281 13.39199219 -5.38726563 12.09648438 -5.42578125 10.76171875 C-4.90744645 6.18230212 -3.26223671 3.26223671 0 0 Z " fill="#EFE0CB" transform="translate(588,922)"/>
<path d="M0 0 C2.66838757 0.26683876 3.76395175 0.74614763 5.60546875 2.7265625 C8.14106259 6.86021969 7.59344476 11.31557432 7 16 C5.95800283 19.18231567 4.60522239 22.0667623 3 25 C2.67 25.66 2.34 26.32 2 27 C0.35 27 -1.3 27 -3 27 C-6.33823879 21.60540612 -5.57769158 15.0963453 -5 9 C-3.91019889 5.6418346 -2.54674471 2.54674471 0 0 Z " fill="#EEE2CB" transform="translate(430,921)"/>
<path d="M0 0 C0.495 0.99 0.495 0.99 1 2 C-0.98 2 -2.96 2 -5 2 C-5 1.34 -5 0.68 -5 0 C-6.134375 -0.144375 -7.26875 -0.28875 -8.4375 -0.4375 C-12 -1 -12 -1 -13 -2 C-23.0865384 -2.51142168 -23.0865384 -2.51142168 -33 -1 C-33.29777344 -0.35933594 -33.59554687 0.28132813 -33.90234375 0.94140625 C-35.34016754 3.63796546 -36.51173144 3.78856685 -39.375 4.6875 C-42.27408128 5.8489909 -43.6756842 6.49325657 -45.375 9.1484375 C-46.01946967 10.70422757 -46.61510494 12.28160218 -47.1484375 13.87890625 C-48 16 -48 16 -49.5234375 17.50390625 C-52.50079615 20.52064795 -52.62740932 24.93343884 -53 29 C-52.87510912 33.36157385 -52.50260326 37.66674483 -52 42 C-51.07767578 42.09474609 -51.07767578 42.09474609 -50.13671875 42.19140625 C-48 43 -48 43 -46.76953125 45.21484375 C-46.29580078 46.56255859 -46.29580078 46.56255859 -45.8125 47.9375 C-45.32716797 49.28134766 -45.32716797 49.28134766 -44.83203125 50.65234375 C-44.55746094 51.42707031 -44.28289063 52.20179688 -44 53 C-43.67 53.66 -43.34 54.32 -43 55 C-46.5198582 53.56767675 -48.06793624 51.91637039 -50.125 48.75 C-50.62257813 48.00234375 -51.12015625 47.2546875 -51.6328125 46.484375 C-54.56232958 41.16102396 -55.38932252 36.20725411 -55.375 30.1875 C-55.37258301 29.12909912 -55.37258301 29.12909912 -55.37011719 28.04931641 C-55.23272454 22.19127115 -54.06023779 17.9368993 -51 13 C-50.443125 11.989375 -49.88625 10.97875 -49.3125 9.9375 C-36.63299456 -6.1688988 -18.23267151 -9.5961429 0 0 Z " fill="#B82A51" transform="translate(741,386)"/>
<path d="M0 0 C2.70813058 4.06219588 2.52980034 7.23179698 2 12 C0.96637171 15.54101046 -0.3582828 18.3582828 -3 21 C-5.625 21.125 -5.625 21.125 -8 21 C-11.10324423 15.95722813 -11.78377208 11.77516273 -11 6 C-8.46103248 -0.46282643 -6.78377845 -1.69594461 0 0 Z " fill="#EFE2C9" transform="translate(255,924)"/>
<path d="M0 0 C17.16 0 34.32 0 52 0 C51.33333333 1.33333333 50.66666667 2.66666667 50 4 C50.99 4.33 51.98 4.66 53 5 C30.56 5 8.12 5 -15 5 C-15 4.67 -15 4.34 -15 4 C-7.08 3.67 0.84 3.34 9 3 C9 2.67 9 2.34 9 2 C6.03 1.67 3.06 1.34 0 1 C0 0.67 0 0.34 0 0 Z " fill="#D9CDC2" transform="translate(632,466)"/>
<path d="M0 0 C19.8 0 39.6 0 60 0 C53.25 9 53.25 9 50.125 12.5 C49.52945313 13.1703125 48.93390625 13.840625 48.3203125 14.53125 C47.88460937 15.0159375 47.44890625 15.500625 47 16 C46.41796875 14.140625 46.41796875 14.140625 46 12 C47.3125 9.75 47.3125 9.75 49 8 C49.66 8 50.32 8 51 8 C51.66 6.35 52.32 4.7 53 3 C49.50651972 2.18073942 46.50414015 1.94212726 42.9296875 2.19140625 C41.95902344 2.25013916 40.98835937 2.30887207 39.98828125 2.36938477 C38.96089844 2.43311279 37.93351563 2.49684082 36.875 2.5625 C26.03845204 3.14385632 15.72767164 2.5307173 5 1 C4.67 1.66 4.34 2.32 4 3 C2.68 2.34 1.36 1.68 0 1 C0 0.67 0 0.34 0 0 Z " fill="#150F19" transform="translate(625,471)"/>
<path d="M0 0 C0.66 0 1.32 0 2 0 C2.495 2.475 2.495 2.475 3 5 C2.34 5 1.68 5 1 5 C1 5.66 1 6.32 1 7 C-4.87245308 8.26605037 -10.69564463 8.1618013 -16.671875 8.16796875 C-17.79064026 8.17129715 -18.90940552 8.17462555 -20.06207275 8.17805481 C-22.41881907 8.18310466 -24.7755725 8.18546374 -27.13232422 8.18530273 C-30.75109418 8.18750066 -34.36956472 8.2057082 -37.98828125 8.22460938 C-40.27864479 8.22754133 -42.56900978 8.22952745 -44.859375 8.23046875 C-45.94579285 8.23765427 -47.03221069 8.24483978 -48.15155029 8.25224304 C-49.15309143 8.24916641 -50.15463257 8.24608978 -51.18652344 8.24291992 C-52.51173004 8.24505745 -52.51173004 8.24505745 -53.8637085 8.24723816 C-56 8 -56 8 -58 6 C-57.34 6 -56.68 6 -56 6 C-55.67 5.34 -55.34 4.68 -55 4 C-36.85 4.33 -18.7 4.66 0 5 C0 3.35 0 1.7 0 0 Z " fill="#DBD0CD" transform="translate(749,656)"/>
<path d="M0 0 C2.04119788 1.61594832 4.04072937 3.2856382 6 5 C6 5.66 6 6.32 6 7 C19.86 7 33.72 7 48 7 C48 6.34 48 5.68 48 5 C48.66 5 49.32 5 50 5 C50.495 6.98 50.495 6.98 51 9 C34.17 9 17.34 9 0 9 C0 6.03 0 3.06 0 0 Z " fill="#15111D" transform="translate(424,652)"/>
<path d="M0 0 C7.45113057 7.04836676 10.02629887 13.74087806 10.3125 23.875 C10.15451638 32.21653527 8.19895425 39.41465795 3 46 C2.67 46 2.34 46 2 46 C2 44.35 2 42.7 2 41 C2.99 40.505 2.99 40.505 4 40 C6.84485597 34.63854066 7.28941452 29.76376678 7.3125 23.75 C7.31781738 23.05253662 7.32313477 22.35507324 7.32861328 21.63647461 C7.27702589 17.87919287 6.8973789 15.23979322 5 12 C4.875 9.25 4.875 9.25 5 7 C3.68 6.67 2.36 6.34 1 6 C0.67 4.02 0.34 2.04 0 0 Z " fill="#B0284E" transform="translate(746,392)"/>
<path d="M0 0 C1.9375 0.375 1.9375 0.375 4 1 C5.42662219 3.85324437 5.31033868 5.83454549 5 9 C3.25 11.875 3.25 11.875 1 14 C-0.32 14 -1.64 14 -3 14 C-3.32374517 8.49633208 -3.53286034 4.56327794 0 0 Z " fill="#EBE1C8" transform="translate(292,921)"/>
<path d="M0 0 C1.65 0 3.3 0 5 0 C5 0.66 5 1.32 5 2 C4.34 2 3.68 2 3 2 C3.309375 3.010625 3.61875 4.02125 3.9375 5.0625 C4 9 4 9 2.68359375 10.8125 C1.45725214 11.99911132 0.20317074 13.15758724 -1.07421875 14.2890625 C-3.70892336 16.62983455 -5.7936106 19.25872832 -8 22 C-8.93423645 18.98968256 -9.04449911 18.13349732 -8 15 C-7.34 15 -6.68 15 -6 15 C-6 14.34 -6 13.68 -6 13 C-5.01 12.67 -4.02 12.34 -3 12 C-3.33 11.01 -3.66 10.02 -4 9 C-3.01 8.34 -2.02 7.68 -1 7 C-1 5.68 -1 4.36 -1 3 C-0.34 3 0.32 3 1 3 C0.67 2.01 0.34 1.02 0 0 Z M0 5 C0 5.66 0 6.32 0 7 C0.66 7 1.32 7 2 7 C2 6.34 2 5.68 2 5 C1.34 5 0.68 5 0 5 Z " fill="#141424" transform="translate(666,480)"/>
<path d="M0 0 C0.11710798 5.97250691 -0.07012374 10.72622272 -3 16 C-3.33 14.68 -3.66 13.36 -4 12 C-4.598125 11.87625 -5.19625 11.7525 -5.8125 11.625 C-8 11 -8 11 -11 9 C-9.35687553 7.49703315 -7.71042916 5.99769719 -6.0625 4.5 C-5.14597656 3.6646875 -4.22945313 2.829375 -3.28515625 1.96875 C-1 0 -1 0 0 0 Z " fill="#EBDEC8" transform="translate(421,644)"/>
<path d="M0 0 C2.91319598 1.45659799 3.01711259 3.3461589 4.0625 6.375 C4.40410156 7.35210938 4.74570312 8.32921875 5.09765625 9.3359375 C6.63548201 13.87618497 7.18292607 17.66689022 7.1875 22.4375 C7.20167969 23.75621094 7.21585937 25.07492187 7.23046875 26.43359375 C7.02228903 29.6550867 6.72168766 31.33920999 5 34 C4.92652344 32.54980469 4.92652344 32.54980469 4.8515625 31.0703125 C4.31115741 21.65981009 3.6179651 12.78648667 0 4 C0 2.68 0 1.36 0 0 Z " fill="#DBD3CA" transform="translate(418,542)"/>
<path d="M0 0 C1.67542976 0.28604898 3.34385343 0.61781233 5 1 C5 1.66 5 2.32 5 3 C6.32 3.33 7.64 3.66 9 4 C7.75803878 5.15454162 6.50607155 6.29832562 5.25 7.4375 C4.20585938 8.39462891 4.20585938 8.39462891 3.140625 9.37109375 C1.01207275 10.99081325 -0.39023405 11.58267256 -3 12 C-2.67 11.01 -2.34 10.02 -2 9 C-1.34 9 -0.68 9 0 9 C-0.185625 7.700625 -0.37125 6.40125 -0.5625 5.0625 C-0.87890625 2.84765625 -0.87890625 2.84765625 -1 1 C-0.67 0.67 -0.34 0.34 0 0 Z " fill="#BB204E" transform="translate(739,435)"/>
<path d="M0 0 C0.99 0.33 1.98 0.66 3 1 C3 1.66 3 2.32 3 3 C-15.48 3 -33.96 3 -53 3 C-53 2.67 -53 2.34 -53 2 C-52.02614098 1.9845388 -52.02614098 1.9845388 -51.03260803 1.96876526 C-44.30100948 1.86093864 -37.5695513 1.74632219 -30.83813477 1.62768555 C-28.32286504 1.58425994 -25.80756437 1.54259071 -23.29223633 1.50268555 C-19.68561456 1.44516707 -16.07914969 1.38142033 -12.47265625 1.31640625 C-11.34038101 1.29969376 -10.20810577 1.28298126 -9.04151917 1.26576233 C-8.00051559 1.24581711 -6.95951202 1.22587189 -5.88696289 1.20532227 C-4.96540909 1.18977798 -4.04385529 1.1742337 -3.09437561 1.15821838 C-1.01249529 1.22977244 -1.01249529 1.22977244 0 0 Z " fill="#1D171D" transform="translate(685,658)"/>
<path d="M0 0 C1.7325 0.7425 1.7325 0.7425 3.5 1.5 C12.02429106 4.37305199 22.27070108 3.68341068 31 2 C30.01 2.495 30.01 2.495 29 3 C29 3.66 29 4.32 29 5 C20.09237709 7.7272722 10.4447269 6.49436975 2 3 C1.67 3.66 1.34 4.32 1 5 C0.67 3.35 0.34 1.7 0 0 Z " fill="#FDD4D5" transform="translate(703,447)"/>
<path d="M0 0 C0.027193 1.58323688 0.04648306 3.16661062 0.0625 4.75 C0.07410156 5.63171875 0.08570313 6.5134375 0.09765625 7.421875 C0.00826198 9.7818838 -0.33087179 11.74498524 -1 14 C-4.875 13.125 -4.875 13.125 -6 12 C-6.375 8.75 -6.375 8.75 -6 5 C-1.85106383 0 -1.85106383 0 0 0 Z " fill="#EBDFCA" transform="translate(672,958)"/>
<path d="M0 0 C0.25 2.25 0.25 2.25 0 5 C-1.875 7.0625 -1.875 7.0625 -4 9 C-4.4640625 10.051875 -4.4640625 10.051875 -4.9375 11.125 C-6.42234691 13.74531808 -8.2056545 14.11757511 -11 15 C-11.30859375 12.83203125 -11.30859375 12.83203125 -11 10 C-8.84765625 7.32421875 -8.84765625 7.32421875 -6.0625 4.6875 C-5.14597656 3.80449219 -4.22945313 2.92148437 -3.28515625 2.01171875 C-1 0 -1 0 0 0 Z " fill="#0F1221" transform="translate(307,487)"/>
<path d="M0 0 C0.66 0.33 1.32 0.66 2 1 C-1.52771223 10.40066331 -1.52771223 10.40066331 -7 13 C-8.36984198 14.29579647 -9.7151049 15.61992749 -11 17 C-11.65795898 15.20214844 -11.65795898 15.20214844 -12 13 C-11.01196289 11.35253906 -11.01196289 11.35253906 -9.47265625 9.765625 C-8.65571289 8.90517578 -8.65571289 8.90517578 -7.82226562 8.02734375 C-7.24154297 7.44082031 -6.66082031 6.85429687 -6.0625 6.25 C-5.48564453 5.64800781 -4.90878906 5.04601562 -4.31445312 4.42578125 C-2.88741195 2.93977143 -1.44510595 1.46844834 0 0 Z " fill="#1A1926" transform="translate(612,477)"/>
<path d="M0 0 C1.65 0.33 3.3 0.66 5 1 C5 1.33 5 1.66 5 2 C12.26 2.33 19.52 2.66 27 3 C27 3.33 27 3.66 27 4 C22.13902775 4.95990763 17.49438488 5.18313936 12.5625 5.1875 C11.47485352 5.20586914 11.47485352 5.20586914 10.36523438 5.22460938 C5.53611817 5.23762586 1.58361106 4.52787035 -3 3 C-2.01 2.67 -1.02 2.34 0 2 C0 1.34 0 0.68 0 0 Z " fill="#DACECD" transform="translate(360,612)"/>
<path d="M0 0 C3 1 3 1 4 2 C4.66 1.34 5.32 0.68 6 0 C8.125 0.375 8.125 0.375 10 1 C8.52444734 2.83624331 7.04446569 4.6689285 5.5625 6.5 C4.73878906 7.5209375 3.91507813 8.541875 3.06640625 9.59375 C2.38449219 10.3878125 1.70257812 11.181875 1 12 C0.67 12 0.34 12 0 12 C0 8.04 0 4.08 0 0 Z " fill="#DFD6CE" transform="translate(558,528)"/>
<path d="M0 0 C0.66 0 1.32 0 2 0 C1.96519531 1.25554687 1.93039062 2.51109375 1.89453125 3.8046875 C1.58139691 16.67831806 1.58139691 16.67831806 5 29 C4.34 29.33 3.68 29.66 3 30 C2.67 27.69 2.34 25.38 2 23 C1.34 23 0.68 23 0 23 C-1.0736045 19.50652504 -1.1334911 16.267683 -1.125 12.625 C-1.12757813 11.52414062 -1.13015625 10.42328125 -1.1328125 9.2890625 C-1.00444337 6.11003884 -0.59426995 3.12227545 0 0 Z " fill="#FDC1C8" transform="translate(685,405)"/>
<path d="M0 0 C1.5625 1.5625 1.5625 1.5625 3 4 C2.92630834 8.12673287 2.62661572 10.25945415 -0.0625 13.4375 C-1.0215625 14.2109375 -1.0215625 14.2109375 -2 15 C-2 14.01 -2 13.02 -2 12 C-2.66 11.67 -3.32 11.34 -4 11 C-4.33 11.66 -4.66 12.32 -5 13 C-4.39254603 8.14036821 -2.27241033 4.2594482 0 0 Z " fill="#161621" transform="translate(421,585)"/>
<path d="M0 0 C0 3 0 3 0 3 Z M-2 3 C-0.4375 4.75 -0.4375 4.75 1 7 C0.6875 9.25 0.6875 9.25 0 11 C-3.875 12 -3.875 12 -5 12 C-6.66821323 12.32550502 -8.33499557 12.65846063 -10 13 C-9.04367001 11.70684939 -8.08486149 10.41553147 -7.125 9.125 C-6.59132813 8.40570312 -6.05765625 7.68640625 -5.5078125 6.9453125 C-4 5 -4 5 -2 3 Z " fill="#191726" transform="translate(573,522)"/>
<path d="M0 0 C0.66 0 1.32 0 2 0 C3.04819354 7.45067301 2.91318843 13.7109102 1 21 C-1 19 -1 19 -1.13525391 17.02880859 C-1.08288574 16.24328613 -1.03051758 15.45776367 -0.9765625 14.6484375 C-0.925 13.79765625 -0.8734375 12.946875 -0.8203125 12.0703125 C-0.75585938 11.18085938 -0.69140625 10.29140625 -0.625 9.375 C-0.56828125 8.4778125 -0.5115625 7.580625 -0.453125 6.65625 C-0.31145247 4.43671376 -0.1600296 2.21827598 0 0 Z " fill="#F9CACE" transform="translate(756,407)"/>
<path d="M0 0 C0 3 0 3 -1 6 C-1.99 6.495 -1.99 6.495 -3 7 C-3 7.99 -3 8.98 -3 10 C-3.66 10 -4.32 10 -5 10 C-5 10.66 -5 11.32 -5 12 C-7.97 11.505 -7.97 11.505 -11 11 C-7.6189962 6.86378916 -4.33409466 3.18683431 0 0 Z " fill="#E0D5D1" transform="translate(345,523)"/>
<path d="M0 0 C1 2 1 2 0.1875 5.0625 C-1 8 -1 8 -3 9 C-3 9.99 -3 10.98 -3 12 C-4 14.1875 -4 14.1875 -5 16 C-5.33 15.01 -5.66 14.02 -6 13 C-5.67 12.34 -5.34 11.68 -5 11 C-5.99 10.67 -6.98 10.34 -8 10 C-7.04367001 8.70684939 -6.08486149 7.41553147 -5.125 6.125 C-4.59132813 5.40570312 -4.05765625 4.68640625 -3.5078125 3.9453125 C-2 2 -2 2 0 0 Z " fill="#DBD0C9" transform="translate(643,517)"/>
<path d="M0 0 C0 0.66 0 1.32 0 2 C-3.5755877 3.64079435 -6.16266359 4.2170145 -10.08203125 3.9765625 C-11.01337891 3.925 -11.94472656 3.8734375 -12.90429688 3.8203125 C-13.86400391 3.75585938 -14.82371094 3.69140625 -15.8125 3.625 C-16.79154297 3.56828125 -17.77058594 3.5115625 -18.77929688 3.453125 C-21.18699413 3.31218662 -23.59356337 3.16083172 -26 3 C-26 2.67 -26 2.34 -26 2 C-24.91460937 1.93941406 -23.82921875 1.87882813 -22.7109375 1.81640625 C-21.26561514 1.73193936 -19.82030318 1.64729449 -18.375 1.5625 C-17.66214844 1.52318359 -16.94929688 1.48386719 -16.21484375 1.44335938 C-10.76831488 1.11856637 -5.4443826 0 0 0 Z " fill="#EEE2DC" transform="translate(386,665)"/>
<path d="M0 0 C1.65 0 3.3 0 5 0 C3.54240698 5.34450773 -0.09048458 8.33943957 -4 12 C-4.66 12.66 -5.32 13.32 -6 14 C-5.45276317 10.62537285 -4.9451 8.91765 -3 6 C-2.34 6 -1.68 6 -1 6 C-0.67 4.02 -0.34 2.04 0 0 Z " fill="#211D2A" transform="translate(677,473)"/>
<path d="M0 0 C3.96 0.33 7.92 0.66 12 1 C12.33 2.32 12.66 3.64 13 5 C14.65 5.33 16.3 5.66 18 6 C17.67 6.99 17.34 7.98 17 9 C15.78763672 8.38511719 15.78763672 8.38511719 14.55078125 7.7578125 C13.48214844 7.21898437 12.41351563 6.68015625 11.3125 6.125 C10.25675781 5.59132813 9.20101563 5.05765625 8.11328125 4.5078125 C5.44004095 3.21311895 2.7728867 2.05976746 0 1 C0 0.67 0 0.34 0 0 Z " fill="#29262B" transform="translate(387,516)"/>
<path d="M0 0 C0.33 0.66 0.66 1.32 1 2 C4.02934491 2.65772428 4.02934491 2.65772428 7 3 C7 3.66 7 4.32 7 5 C15.415 4.505 15.415 4.505 24 4 C21.52429003 6.47570997 19.98008009 6.30718971 16.58984375 6.37890625 C15.87957031 6.37761719 15.16929687 6.37632812 14.4375 6.375 C13.35855469 6.37693359 13.35855469 6.37693359 12.2578125 6.37890625 C6.49672955 6.26472262 1.94133903 5.07461095 -3 2 C-2.01 1.34 -1.02 0.68 0 0 Z " fill="#BD3A5C" transform="translate(706,445)"/>
<path d="M0 0 C0.33 0 0.66 0 1 0 C1 5.94 1 11.88 1 18 C-0.98 16.35 -2.96 14.7 -5 13 C-4.34 12.01 -3.68 11.02 -3 10 C-2.34 10 -1.68 10 -1 10 C-0.67 6.7 -0.34 3.4 0 0 Z " fill="#C5C0BC" transform="translate(423,471)"/>
<path d="M0 0 C2.75 0.125 2.75 0.125 6 1 C8.4375 3.75 8.4375 3.75 10 7 C9.75 9.875 9.75 9.875 9 12 C5.81994972 8.11327187 2.89445553 4.10047867 0 0 Z " fill="#DED4CD" transform="translate(641,596)"/>
<path d="M0 0 C0.33 0 0.66 0 1 0 C1.12117188 0.56847656 1.24234375 1.13695312 1.3671875 1.72265625 C2.41322054 6.54245464 3.59204484 11.2732934 5 16 C4.34 16.66 3.68 17.32 3 18 C2.67 16.68 2.34 15.36 2 14 C1.34 14 0.68 14 0 14 C0.020625 13.113125 0.04125 12.22625 0.0625 11.3125 C0.10448881 8.08292905 0.10448881 8.08292905 -0.5625 5.3125 C-1 3 -1 3 0 0 Z " fill="#211F2A" transform="translate(323,573)"/>
<path d="M0 0 C1.65 0 3.3 0 5 0 C4.01 1.485 4.01 1.485 3 3 C3 4.99750448 3.00355875 6.99555281 3.0625 8.9921875 C2.98046331 11.62761608 2.1706342 13.65873161 1 16 C0.67 16 0.34 16 0 16 C0 10.72 0 5.44 0 0 Z " fill="#130C17" transform="translate(424,471)"/>
<path d="M0 0 C4.54075781 4.14010271 7.71842138 8.82390176 11 14 C10.01 14 9.02 14 8 14 C7.67 13.01 7.34 12.02 7 11 C6.34 11 5.68 11 5 11 C3.96210419 9.35666496 2.96432076 7.68756133 2 6 C1.34 5.34 0.68 4.68 0 4 C0 2.68 0 1.36 0 0 Z " fill="#14131B" transform="translate(672,639)"/>
<path d="M0 0 C4.875 1.75 4.875 1.75 6 4 C6.66 3.34 7.32 2.68 8 2 C8.33 4.31 8.66 6.62 9 9 C8.01 9.33 7.02 9.66 6 10 C4.99421411 8.71283353 3.99553202 7.42011342 3 6.125 C2.443125 5.40570312 1.88625 4.68640625 1.3125 3.9453125 C0 2 0 2 0 0 Z " fill="#1C1B25" transform="translate(606,633)"/>
<path d="M0 0 C0.66 0 1.32 0 2 0 C2 2.97 2 5.94 2 9 C2.66 9.33 3.32 9.66 4 10 C3.34 10.66 2.68 11.32 2 12 C-0.31 8.7 -2.62 5.4 -5 2 C-4.34 1.67 -3.68 1.34 -3 1 C-2.01 1.66 -1.02 2.32 0 3 C0 2.01 0 1.02 0 0 Z " fill="#DFD3CE" transform="translate(621,560)"/>
<path d="M0 0 C1.8871875 -0.02126953 1.8871875 -0.02126953 3.8125 -0.04296875 C7 0.1875 7 0.1875 9 2.1875 C6.56304285 2.40931406 4.126474 2.61541119 1.6875 2.8125 C0.65206055 2.90917969 0.65206055 2.90917969 -0.40429688 3.0078125 C-4.2559972 3.30552847 -5.68854416 3.39513723 -9 1.1875 C-6.02958551 -0.29770725 -3.30235553 0.0169178 0 0 Z " fill="#DED1CE" transform="translate(373,514.8125)"/>
<path d="M0 0 C2 1.25 2 1.25 4 3 C4 4.32 4 5.64 4 7 C2.02 7.99 0.04 8.98 -2 10 C-2.66 9.34 -3.32 8.68 -4 8 C-4 7.01 -4 6.02 -4 5 C-2.68 4.67 -1.36 4.34 0 4 C0 2.68 0 1.36 0 0 Z " fill="#C31C4F" transform="translate(742,388)"/>
<path d="M0 0 C0.33 1.32 0.66 2.64 1 4 C-0.1875 5.5625 -0.1875 5.5625 -2 7 C-2.9590625 7.86625 -2.9590625 7.86625 -3.9375 8.75 C-4.9584375 9.36875 -4.9584375 9.36875 -6 10 C-7.32 9.67 -8.64 9.34 -10 9 C-6.7 6.03 -3.4 3.06 0 0 Z " fill="#D2CBC3" transform="translate(420,644)"/>
<path d="M0 0 C1.32 0.99 2.64 1.98 4 3 C2.4169423 7.2742558 -0.50568404 9.26531794 -4 12 C-4.33 11.01 -4.66 10.02 -5 9 C-4.34 9 -3.68 9 -3 9 C-1.35173889 6.03312999 -0.55728913 3.34373475 0 0 Z " fill="#DBD1CC" transform="translate(410,594)"/>
<path d="M0 0 C-1.13499394 3.29148243 -1.99283376 3.9959869 -5.125 5.75 C-6.548125 6.36875 -6.548125 6.36875 -8 7 C-8.66 6.34 -9.32 5.68 -10 5 C-9.34 5 -8.68 5 -8 5 C-7.71125 4.360625 -7.4225 3.72125 -7.125 3.0625 C-5.228943 -0.41360449 -4.0216034 0 0 0 Z " fill="#1B1726" transform="translate(411,651)"/>
<path d="M0 0 C0.33 0.66 0.66 1.32 1 2 C3.02463255 2.65213292 3.02463255 2.65213292 5 3 C4.07456291 4.34173403 3.13422595 5.67320159 2.1875 7 C1.66542969 7.7425 1.14335938 8.485 0.60546875 9.25 C0.07566406 9.8275 -0.45414063 10.405 -1 11 C-1.99 11 -2.98 11 -4 11 C-3.34 10.34 -2.68 9.68 -2 9 C-1.32348793 6.80295489 -1.32348793 6.80295489 -0.875 4.375 C-0.70742188 3.55773437 -0.53984375 2.74046875 -0.3671875 1.8984375 C-0.24601563 1.27195312 -0.12484375 0.64546875 0 0 Z " fill="#E1D6CF" transform="translate(577,509)"/>
<path d="M0 0 C1.9375 2.0625 1.9375 2.0625 3 4 C-1.96916636 3.48594831 -6.29026351 2.76615118 -11 1 C-7.22804193 -1.56493149 -4.30808167 -1.09660261 0 0 Z " fill="#302B38" transform="translate(347,661)"/>
<path d="M0 0 C1.32 0.66 2.64 1.32 4 2 C1.92856799 6.03384128 0.03384128 7.92856799 -4 10 C-4 9.01 -4 8.02 -4 7 C-3.34 7 -2.68 7 -2 7 C-1.34 4.69 -0.68 2.38 0 0 Z " fill="#E3D9D0" transform="translate(602,481)"/>
<path d="M0 0 C-0.99 0.495 -0.99 0.495 -2 1 C-2 1.66 -2 2.32 -2 3 C-3.28745036 3.38922918 -4.58019597 3.76098036 -5.875 4.125 C-6.95394531 4.43824219 -6.95394531 4.43824219 -8.0546875 4.7578125 C-8.69664062 4.83773437 -9.33859375 4.91765625 -10 5 C-10.66 4.34 -11.32 3.68 -12 3 C-4.71428571 -0.42857143 -4.71428571 -0.42857143 0 0 Z " fill="#14121D" transform="translate(397,659)"/>
<path d="M0 0 C0.99 0 1.98 0 3 0 C3.33 0.99 3.66 1.98 4 3 C1.03 5.475 1.03 5.475 -2 8 C-2.6875 6.25 -2.6875 6.25 -3 4 C-1.75 1.75 -1.75 1.75 0 0 Z " fill="#1B1927" transform="translate(619,538)"/>
<path d="M0 0 C2.25 0.0625 2.25 0.0625 5 1 C6.67849824 3.2308475 7.75999263 5.47405906 9 8 C8.01 8.495 8.01 8.495 7 9 C7 8.34 7 7.68 7 7 C6.21625 6.773125 5.4325 6.54625 4.625 6.3125 C2 5 2 5 0.6875 2.375 C0.460625 1.59125 0.23375 0.8075 0 0 Z " fill="#DFD4CB" transform="translate(593,620)"/>
<path d="M0 0 C0.33 0.99 0.66 1.98 1 3 C1.99 3.33 2.98 3.66 4 4 C1.03 6.475 1.03 6.475 -2 9 C-2 8.01 -2 7.02 -2 6 C-2.66 5.67 -3.32 5.34 -4 5 C-2.68 3.35 -1.36 1.7 0 0 Z " fill="#181729" transform="translate(564,588)"/>
<path d="M0 0 C3.3 1.65 6.6 3.3 10 5 C9.67 5.66 9.34 6.32 9 7 C4.16743695 6.58578031 2.17320782 4.53586014 -1 1 C-0.67 0.67 -0.34 0.34 0 0 Z " fill="#16121D" transform="translate(402,473)"/>
<path d="M0 0 C2.0625 1.625 2.0625 1.625 4 4 C3.75 7.25 3.75 7.25 3 10 C2.01 10 1.02 10 0 10 C-1.125 2.25 -1.125 2.25 0 0 Z " fill="#191825" transform="translate(274,582)"/>
<path d="M0 0 C0.66 0 1.32 0 2 0 C2.33 0.99 2.66 1.98 3 3 C1.59554165 5.2636564 -0.1967913 7.0208685 -2 9 C-2.93423645 5.98968256 -3.04449911 5.13349732 -2 2 C-1.34 2 -0.68 2 0 2 C0 1.34 0 0.68 0 0 Z " fill="#1D1C2C" transform="translate(660,493)"/>
<path d="M0 0 C0.3125 2.3125 0.3125 2.3125 0 5 C-2.3125 6.875 -2.3125 6.875 -5 8 C-5.99 7.67 -6.98 7.34 -8 7 C-6.8572081 5.83035398 -5.71068285 4.66435444 -4.5625 3.5 C-3.92441406 2.8503125 -3.28632813 2.200625 -2.62890625 1.53125 C-1 0 -1 0 0 0 Z " fill="#1B1C25" transform="translate(307,487)"/>
<path d="M0 0 C1 2 1 2 0.875 4.375 C-0.26735106 7.80205319 -2.08114387 8.97925345 -5 11 C-4.25 4.375 -4.25 4.375 -2 1 C-1.34 0.67 -0.68 0.34 0 0 Z " fill="#F1E4D8" transform="translate(690,465)"/>
<path d="M0 0 C2.5 1.625 2.5 1.625 5 4 C5.3125 7.25 5.3125 7.25 5 10 C4.34 10 3.68 10 3 10 C0 3.375 0 3.375 0 0 Z " fill="#ECE2DB" transform="translate(326,581)"/>
<path d="M0 0 C1.33176248 3.99528745 0.41870859 6.09855137 -1 10 C-1.99 10.66 -2.98 11.32 -4 12 C-4 8.13209997 -3.72629646 6.98680587 -2 3.75 C-1.62875 3.04359375 -1.2575 2.3371875 -0.875 1.609375 C-0.58625 1.07828125 -0.2975 0.5471875 0 0 Z " fill="#231F28" transform="translate(286,511)"/>
<path d="M0 0 C0.66 0.99 1.32 1.98 2 3 C1.02433888 4.16959987 0.044375 5.33561177 -0.9375 6.5 C-1.48277344 7.1496875 -2.02804687 7.799375 -2.58984375 8.46875 C-3.05519531 8.9740625 -3.52054688 9.479375 -4 10 C-4.33 10 -4.66 10 -5 10 C-5.3125 7.8125 -5.3125 7.8125 -5 5 C-2.5 2.1875 -2.5 2.1875 0 0 Z " fill="#DAD1CC" transform="translate(592,496)"/>
<path d="M0 0 C1.65 1.65 3.3 3.3 5 5 C4.67 5.66 4.34 6.32 4 7 C3.01 7 2.02 7 1 7 C0.67 5.68 0.34 4.36 0 3 C-0.66 3 -1.32 3 -2 3 C-2.33 3.99 -2.66 4.98 -3 6 C-3 4.68 -3 3.36 -3 2 C-2.01 2 -1.02 2 0 2 C0 1.34 0 0.68 0 0 Z " fill="#121727" transform="translate(419,485)"/>
<path d="M0 0 C2.97 0 5.94 0 9 0 C9 0.66 9 1.32 9 2 C7.25181409 2.22304441 5.50129677 2.4278645 3.75 2.625 C2.77546875 2.74101562 1.8009375 2.85703125 0.796875 2.9765625 C-2.13429393 3.00112537 -3.54528964 2.5312717 -6 1 C-4.02 1 -2.04 1 0 1 C0 0.67 0 0.34 0 0 Z " fill="#0D0A18" transform="translate(357,466)"/>
<path d="M0 0 C-1 2 -2 4 -3 6 C-3.66 6 -4.32 6 -5 6 C-5 6.66 -5 7.32 -5 8 C-5.66 7.67 -6.32 7.34 -7 7 C-7 4 -7 4 -5.1875 1.8125 C-3 0 -3 0 0 0 Z " fill="#D9CFCA" transform="translate(631,534)"/>
<path d="M0 0 C0.66 0 1.32 0 2 0 C0.55746343 3.36591866 -1.33264727 5.51047079 -4 8 C-5.32 7.34 -6.64 6.68 -8 6 C-7.67 5.34 -7.34 4.68 -7 4 C-6.34 4 -5.68 4 -5 4 C-3.32254318 3.36096883 -1.65438613 2.69658363 0 2 C0 1.34 0 0.68 0 0 Z " fill="#1C1B28" transform="translate(648,509)"/>
<path d="M0 0 C1.32 0 2.64 0 4 0 C3.4409112 3.24271506 2.5867822 4.93057424 0 7 C-0.66 7 -1.32 7 -2 7 C-1.125 2.25 -1.125 2.25 0 0 Z " fill="#D7CFC9" transform="translate(328,542)"/>
<path d="M0 0 C0.66 1.32 1.32 2.64 2 4 C0.37660195 5.70884005 -1.29319053 7.37446717 -3 9 C-3.66 9 -4.32 9 -5 9 C-3.50163895 5.88801935 -1.80066242 2.9465385 0 0 Z " fill="#25212D" transform="translate(292,502)"/>
<path d="M0 0 C1.98 0.99 3.96 1.98 6 3 C6 3.66 6 4.32 6 5 C6.66 5 7.32 5 8 5 C7.67 6.32 7.34 7.64 7 9 C4.36 6.69 1.72 4.38 -1 2 C-0.67 1.34 -0.34 0.68 0 0 Z " fill="#F5BABF" transform="translate(740,384)"/>
<path d="M0 0 C0.33 0 0.66 0 1 0 C1 6.6 1 13.2 1 20 C0.67 20 0.34 20 0 20 C-0.16781295 17.39590255 -0.33429651 14.7917318 -0.5 12.1875 C-0.54769531 11.44951172 -0.59539062 10.71152344 -0.64453125 9.95117188 C-0.83390613 6.96175412 -1 3.99625426 -1 1 C-0.67 0.67 -0.34 0.34 0 0 Z " fill="#C5BCBC" transform="translate(423,641)"/>
<path d="M0 0 C0.66 0.66 1.32 1.32 2 2 C1.9765625 4.8203125 1.9765625 4.8203125 1.625 8.125 C1.51414062 9.22070312 1.40328125 10.31640625 1.2890625 11.4453125 C1.19367188 12.28835938 1.09828125 13.13140625 1 14 C0.67 14 0.34 14 0 14 C-0.19532961 12.2300132 -0.38098882 10.45895721 -0.5625 8.6875 C-0.66691406 7.70136719 -0.77132813 6.71523438 -0.87890625 5.69921875 C-1 3 -1 3 0 0 Z " fill="#D6CCC6" transform="translate(325,549)"/>
<path d="M0 0 C1.9375 0.3125 1.9375 0.3125 4 1 C4.33 1.99 4.66 2.98 5 4 C2.625 4.625 2.625 4.625 0 5 C-0.66 4.34 -1.32 3.68 -2 3 C-1.34 2.01 -0.68 1.02 0 0 Z " fill="#D1C7C7" transform="translate(571,587)"/>
<path d="M0 0 C1.65 1.65 3.3 3.3 5 5 C4.34 5.66 3.68 6.32 3 7 C3 6.34 3 5.68 3 5 C2.34 5 1.68 5 1 5 C1 5.66 1 6.32 1 7 C0.34 7 -0.32 7 -1 7 C-0.67 4.69 -0.34 2.38 0 0 Z " fill="#191824" transform="translate(614,560)"/>
<path d="M0 0 C1.65 0.33 3.3 0.66 5 1 C3.25 5.875 3.25 5.875 1 7 C0.34 6.34 -0.32 5.68 -1 5 C-0.625 2.375 -0.625 2.375 0 0 Z " fill="#161725" transform="translate(331,529)"/>
<path d="M0 0 C0.99 0.66 1.98 1.32 3 2 C2.60196439 4.88575819 2.20990931 5.82189513 -0.0625 7.75 C-1.0215625 8.36875 -1.0215625 8.36875 -2 9 C-1.41196203 5.97580475 -0.77321882 2.98241547 0 0 Z " fill="#D8CFC9" transform="translate(610,472)"/>
<path d="M0 0 C0.33 0 0.66 0 1 0 C1 1.65 1 3.3 1 5 C0.01 5.495 0.01 5.495 -1 6 C-1.33 6.99 -1.66 7.98 -2 9 C-3.32 8.67 -4.64 8.34 -6 8 C-5.02471263 6.66382648 -4.04466681 5.3311249 -3.0625 4 C-2.24458984 2.88625 -2.24458984 2.88625 -1.41015625 1.75 C-0.94480469 1.1725 -0.47945312 0.595 0 0 Z " fill="#F9C4C9" transform="translate(752,432)"/>
<path d="M0 0 C4.875 4.75 4.875 4.75 6 7 C5.34 7.66 4.68 8.32 4 9 C3.67 8.01 3.34 7.02 3 6 C2.01 5.67 1.02 5.34 0 5 C-0.75 3 -0.75 3 -1 1 C-0.67 0.67 -0.34 0.34 0 0 Z " fill="#1E1C27" transform="translate(658,620)"/>
<path d="M0 0 C0.33 0 0.66 0 1 0 C3 5.625 3 5.625 3 9 C2.01 9.99 1.02 10.98 0 12 C0 8.04 0 4.08 0 0 Z " fill="#E3DEDF" transform="translate(558,528)"/>
<path d="M0 0 C0 0.66 0 1.32 0 2 C-0.99 2 -1.98 2 -3 2 C-2.67 2.99 -2.34 3.98 -2 5 C-2.66 5.66 -3.32 6.32 -4 7 C-5.32 5.68 -6.64 4.36 -8 3 C-2.25 0 -2.25 0 0 0 Z " fill="#2A262F" transform="translate(330,473)"/>
<path d="M0 0 C-0.66 0 -1.32 0 -2 0 C-2 0.66 -2 1.32 -2 2 C-6.62 2 -11.24 2 -16 2 C-16 1.67 -16 1.34 -16 1 C-14.95199219 0.90912109 -14.95199219 0.90912109 -13.8828125 0.81640625 C-12.97273437 0.73261719 -12.06265625 0.64882813 -11.125 0.5625 C-10.22007812 0.48128906 -9.31515625 0.40007812 -8.3828125 0.31640625 C-1.84090909 -0.55227273 -1.84090909 -0.55227273 0 0 Z " fill="#F7B3BF" transform="translate(734,450)"/>
<path d="M0 0 C0.33 0 0.66 0 1 0 C1 2.31 1 4.62 1 7 C0.01 7.495 0.01 7.495 -1 8 C-1.99 5.69 -2.98 3.38 -4 1 C-2.68 1.33 -1.36 1.66 0 2 C0 1.34 0 0.68 0 0 Z " fill="#1E1D25" transform="translate(285,610)"/>
<path d="M0 0 C0.99 0 1.98 0 3 0 C3.33 0.66 3.66 1.32 4 2 C5.32 1.67 6.64 1.34 8 1 C8.33 1.99 8.66 2.98 9 4 C6.75 4.75 6.75 4.75 4 5 C1.6875 3.125 1.6875 3.125 0 1 C0 0.67 0 0.34 0 0 Z " fill="#D9CFC1" transform="translate(350,609)"/>
<path d="M0 0 C2 2 2 2 2.125 5.625 C2.08375 6.73875 2.0425 7.8525 2 9 C0.68 7.35 -0.64 5.7 -2 4 C-1.34 2.68 -0.68 1.36 0 0 Z " fill="#DDD3D3" transform="translate(613,551)"/>
<path d="M0 0 C2.125 0.9375 2.125 0.9375 4 2 C0.93882432 4.62386487 0.26826873 5 -4 5 C-4 4.34 -4 3.68 -4 3 C-3.34 3 -2.68 3 -2 3 C-2 2.34 -2 1.68 -2 1 C-1.34 0.67 -0.68 0.34 0 0 Z " fill="#F8CBCE" transform="translate(736,447)"/>
<path d="M0 0 C2.45234885 0.98093954 3.7809268 1.68703828 5.3125 3.875 C6.1132654 6.35009306 5.86325845 7.58287634 5 10 C2 4.25 2 4.25 2 2 C1.34 2 0.68 2 0 2 C0 1.34 0 0.68 0 0 Z " fill="#E3D5CF" transform="translate(617,652)"/>
<path d="M0 0 C0.66 0.99 1.32 1.98 2 3 C0.3125 4.5625 0.3125 4.5625 -2 6 C-4.75 5.6875 -4.75 5.6875 -7 5 C-4.702779 3.25728062 -2.40133271 1.60088848 0 0 Z " fill="#DDD3CB" transform="translate(409,654)"/>
<path d="M0 0 C1.32 1.65 2.64 3.3 4 5 C3.01 6.485 3.01 6.485 2 8 C0.4375 6.8125 0.4375 6.8125 -1 5 C-0.6875 2.3125 -0.6875 2.3125 0 0 Z " fill="#DDD1CB" transform="translate(588,608)"/>
<path d="M0 0 C2.02045442 0.60183749 4.02111039 1.27306096 6 2 C6.33 2.66 6.66 3.32 7 4 C6.67 4.66 6.34 5.32 6 6 C3.37812506 4.95125002 2.20628639 4.35068687 0.75 1.875 C0.5025 1.25625 0.255 0.6375 0 0 Z " fill="#141018" transform="translate(582,599)"/>
<path d="M0 0 C1.32 1.32 2.64 2.64 4 4 C2.10646634 5.89353366 0.15473199 7.4198632 -2 9 C-2.66 8.34 -3.32 7.68 -4 7 C-2.625 5.5 -2.625 5.5 -1 4 C-0.34 4 0.32 4 1 4 C0.67 2.68 0.34 1.36 0 0 Z " fill="#1F1F32" transform="translate(637,591)"/>
<path d="M0 0 C0.33 0.66 0.66 1.32 1 2 C1.66 2.33 2.32 2.66 3 3 C1.68 4.32 0.36 5.64 -1 7 C-1.66 5.68 -2.32 4.36 -3 3 C-2.01 2.01 -1.02 1.02 0 0 Z " fill="#D9CFCB" transform="translate(634,527)"/>
<path d="M0 0 C0.66 0.33 1.32 0.66 2 1 C1.1875 2.9375 1.1875 2.9375 0 5 C-0.99 5.33 -1.98 5.66 -3 6 C-3 5.34 -3 4.68 -3 4 C-3.66 4 -4.32 4 -5 4 C-5 3.34 -5 2.68 -5 2 C-3.35 2 -1.7 2 0 2 C0 1.34 0 0.68 0 0 Z " fill="#181825" transform="translate(343,521)"/>
<path d="M0 0 C1.12588014 0.95729916 2.2506715 1.91587895 3.375 2.875 C4.00148438 3.40867187 4.62796875 3.94234375 5.2734375 4.4921875 C6.55836651 5.61432007 7.79371975 6.79371975 9 8 C5.23293356 7.47679633 2.72611199 6.72611199 0 4 C0 2.68 0 1.36 0 0 Z " fill="#F8C4C7" transform="translate(694,439)"/>
<path d="M0 0 C1.65 0.33 3.3 0.66 5 1 C4.67 1.99 4.34 2.98 4 4 C1.69 3.67 -0.62 3.34 -3 3 C-2.01 2.67 -1.02 2.34 0 2 C0 1.34 0 0.68 0 0 Z " fill="#D3CCC1" transform="translate(360,612)"/>
<path d="M0 0 C0.66 0 1.32 0 2 0 C2 0.66 2 1.32 2 2 C2.99 2 3.98 2 5 2 C5.33 2.99 5.66 3.98 6 5 C5.01 6.485 5.01 6.485 4 8 C0 2.25 0 2.25 0 0 Z " fill="#28202F" transform="translate(589,608)"/>
<path d="M0 0 C1.231394 2.46278801 1.07159196 4.2795055 1 7 C-1.97 6.505 -1.97 6.505 -5 6 C-3.35 4.02 -1.7 2.04 0 0 Z " fill="#D7CCCA" transform="translate(619,544)"/>
<path d="M0 0 C0.66 0.33 1.32 0.66 2 1 C-1.96 4.465 -1.96 4.465 -6 8 C-6.66 7.67 -7.32 7.34 -8 7 C-5.36 4.69 -2.72 2.38 0 0 Z " fill="#16131E" transform="translate(587,508)"/>
<path d="M0 0 C0.33 0.66 0.66 1.32 1 2 C0.2884375 2.928125 0.2884375 2.928125 -0.4375 3.875 C-2.02417441 5.90705546 -2.02417441 5.90705546 -3 8 C-3.99 8 -4.98 8 -6 8 C-4.55746343 4.63408134 -2.66735273 2.48952921 0 0 Z " fill="#D9D0CC" transform="translate(668,490)"/>
<path d="M0 0 C-0.33 0.99 -0.66 1.98 -1 3 C-3.31 3 -5.62 3 -8 3 C-8 2.34 -8 1.68 -8 1 C-5.29120665 -0.35439668 -2.99066732 -0.06501451 0 0 Z " fill="#1E1B27" transform="translate(632,658)"/>
<path d="M0 0 C2 4 2 4 2 6 C2.66 6 3.32 6 4 6 C4 6.66 4 7.32 4 8 C2.68 8.33 1.36 8.66 0 9 C0 6.03 0 3.06 0 0 Z " fill="#160F16" transform="translate(424,652)"/>
<path d="M0 0 C0.66 0 1.32 0 2 0 C2 0.66 2 1.32 2 2 C3.32 2.66 4.64 3.32 6 4 C5.34 4.66 4.68 5.32 4 6 C2.35 4.68 0.7 3.36 -1 2 C-0.67 1.34 -0.34 0.68 0 0 Z " fill="#25222A" transform="translate(315,648)"/>
<path d="M0 0 C3.41158256 1.13719419 4.11854601 2.04342944 6 5 C6 5.66 6 6.32 6 7 C5.01 7.33 4.02 7.66 3 8 C1.92474806 5.34771188 0.90543849 2.71631546 0 0 Z " fill="#DBD1CC" transform="translate(576,593)"/>
<path d="M0 0 C2.0625 2.3125 2.0625 2.3125 4 5 C3.67 5.99 3.34 6.98 3 8 C2.34 8 1.68 8 1 8 C0.26919734 6.02253397 -0.39421747 4.01927511 -1 2 C-0.67 1.34 -0.34 0.68 0 0 Z " fill="#1D1C2C" transform="translate(610,553)"/>
<path d="M0 0 C0.33 0.99 0.66 1.98 1 3 C-0.9375 5.6875 -0.9375 5.6875 -3 8 C-3.75 6.25 -3.75 6.25 -4 4 C-2.0625 1.75 -2.0625 1.75 0 0 Z " fill="#E5D7CA" transform="translate(288,505)"/>
<path d="M0 0 C0.66 0.99 1.32 1.98 2 3 C1.67 3.99 1.34 4.98 1 6 C1 5.34 1 4.68 1 4 C0.01 4.66 -0.98 5.32 -2 6 C-2.99 5.67 -3.98 5.34 -5 5 C-3.35 3.35 -1.7 1.7 0 0 Z " fill="#D3CBC7" transform="translate(677,480)"/>
<path d="M0 0 C0.66 1.32 1.32 2.64 2 4 C0.69593116 6.01920337 -0.63823419 8.01924973 -2 10 C-2.33 10 -2.66 10 -3 10 C-3 8.35 -3 6.7 -3 5 C-2.34 4.67 -1.68 4.34 -1 4 C-0.34786708 1.97536745 -0.34786708 1.97536745 0 0 Z " fill="#B62F55" transform="translate(751,428)"/>
<path d="M0 0 C1.32 0.33 2.64 0.66 4 1 C1.36 2.98 -1.28 4.96 -4 7 C-2.92598892 4.08482708 -2.22189824 2.22189824 0 0 Z " fill="#FABDC5" transform="translate(698,386)"/>
<path d="M0 0 C1.65 1.65 3.3 3.3 5 5 C4.67 5.99 4.34 6.98 4 8 C2 6.25 2 6.25 0 4 C0 2.68 0 1.36 0 0 Z " fill="#1D1724" transform="translate(672,639)"/>
<path d="M0 0 C0.598125 0.309375 1.19625 0.61875 1.8125 0.9375 C4.08956772 2.10209704 4.08956772 2.10209704 7 3 C6.34 4.32 5.68 5.64 5 7 C3.35 4.69 1.7 2.38 0 0 Z " fill="#1F191F" transform="translate(293,630)"/>
<path d="M0 0 C1.485 0.99 1.485 0.99 3 2 C2.67 3.32 2.34 4.64 2 6 C1.01 6 0.02 6 -1 6 C-1.042721 4.33388095 -1.04063832 2.66617115 -1 1 C-0.67 0.67 -0.34 0.34 0 0 Z " fill="#E9DED9" transform="translate(601,628)"/>
<path d="M0 0 C0 0.66 0 1.32 0 2 C-2.31 2.66 -4.62 3.32 -7 4 C-7.66 3.34 -8.32 2.68 -9 2 C-2.25 0 -2.25 0 0 0 Z " fill="#E4D7D5" transform="translate(395,611)"/>
<path d="M0 0 C2.31 0.66 4.62 1.32 7 2 C7 2.66 7 3.32 7 4 C7.66 4.33 8.32 4.66 9 5 C4.68607774 4.5206753 2.83430453 3.2542015 0 0 Z " fill="#E1D6CE" transform="translate(343,606)"/>
<path d="M0 0 C1.875 0.3125 1.875 0.3125 4 1 C4.66 1.99 5.32 2.98 6 4 C3.69 3.67 1.38 3.34 -1 3 C-0.67 2.01 -0.34 1.02 0 0 Z " fill="#171625" transform="translate(638,596)"/>
<path d="M0 0 C1.32 1.32 2.64 2.64 4 4 C3.01 4.495 3.01 4.495 2 5 C2 5.66 2 6.32 2 7 C1.01 6.67 0.02 6.34 -1 6 C-0.67 4.02 -0.34 2.04 0 0 Z " fill="#1C1C2A" transform="translate(626,576)"/>
<path d="M0 0 C0.66 0.33 1.32 0.66 2 1 C0.84826645 3.46800047 -0.04783565 5.04783565 -2 7 C-2.66 6.34 -3.32 5.68 -4 5 C-2.68 3.35 -1.36 1.7 0 0 Z " fill="#24222A" transform="translate(595,496)"/>
<path d="M0 0 C0.33 1.32 0.66 2.64 1 4 C-1.35438733 5.42944945 -2.48032433 6.08661261 -5.25 5.625 C-5.8275 5.41875 -6.405 5.2125 -7 5 C-6.030625 4.360625 -5.06125 3.72125 -4.0625 3.0625 C-1.23963731 1.3034741 -1.23963731 1.3034741 0 0 Z " fill="#F9C0C6" transform="translate(745,441)"/>
<path d="M0 0 C2.18975773 3.28463659 2.99806563 6.20696275 4 10 C3.01 10.495 3.01 10.495 2 11 C0.80712589 7.12315913 0 4.08378077 0 0 Z " fill="#F8B6C2" transform="translate(686,424)"/>
<path d="M0 0 C0.66 0 1.32 0 2 0 C2.25 2.3125 2.25 2.3125 2 5 C0 6.8125 0 6.8125 -2 8 C-1.33333333 5.33333333 -0.66666667 2.66666667 0 0 Z " fill="#BB1B4D" transform="translate(692,396)"/>
</svg>
