<?xml version="1.0" encoding="UTF-8"?>
<svg version="1.1" xmlns="http://www.w3.org/2000/svg" width="1024" height="1024">
<path d="M0 0 C337.92 0 675.84 0 1024 0 C1024 337.92 1024 675.84 1024 1024 C686.08 1024 348.16 1024 0 1024 C0 686.08 0 348.16 0 0 Z " fill="#F8F8F8" transform="translate(0,0)"/>
<path d="M0 0 C4.13231228 1.37743743 7.16363601 2.48338423 10.8359375 4.5390625 C12.17168823 5.27950806 12.17168823 5.27950806 13.53442383 6.03491211 C14.47181396 6.55964111 15.4092041 7.08437012 16.375 7.625 C22.80082808 11.17676681 29.22252191 14.69886566 35.8125 17.9375 C50.6344292 25.24010585 65.2704129 32.9165899 79.75 40.875 C93.05777866 48.12034616 106.54146512 55.03868886 120 62 C120 90.05 120 118.1 120 147 C93.49906425 160.82657517 93.49906425 160.82657517 80.5 167.5 C79.03187288 168.25450249 77.56377483 169.00906156 76.09570312 169.76367188 C67.98379212 173.93227472 59.86787095 178.09301707 51.75 182.25 C50.02278154 183.13475603 48.29556798 184.0195216 46.56835938 184.90429688 C43.29948658 186.57876473 40.02987307 188.25177298 36.75976562 189.92382812 C35.22516478 190.70944864 33.69065837 191.49525363 32.15625 192.28125 C31.41266235 192.66180542 30.66907471 193.04236084 29.9029541 193.43444824 C25.8396112 195.52025807 21.79321983 197.63448124 17.76171875 199.78125 C16.89784546 200.24043823 16.03397217 200.69962646 15.1439209 201.17272949 C13.48238656 202.05785781 11.82285233 202.94675419 10.16564941 203.83996582 C9.04241272 204.43835266 9.04241272 204.43835266 7.89648438 205.04882812 C7.23918335 205.40207153 6.58188232 205.75531494 5.90466309 206.1192627 C4 207 4 207 0 208 C0 189.52 0 171.04 0 152 C15.70731707 143.02439024 15.70731707 143.02439024 21.375 140.25 C22.7201525 139.58614092 24.06519717 138.92206335 25.41015625 138.2578125 C26.13348145 137.90235352 26.85680664 137.54689453 27.60205078 137.18066406 C44.35999555 128.92965399 61.00946007 120.4928022 77.4375 111.6015625 C78.13480225 111.22547852 78.83210449 110.84939453 79.55053711 110.46191406 C80.85558382 109.75689429 82.1586169 109.04812936 83.45922852 108.33496094 C87.77793234 106 87.77793234 106 90 106 C87.2906968 103.08288645 84.78890545 101.1387802 81.24609375 99.3359375 C80.31909668 98.85890381 79.39209961 98.38187012 78.43701172 97.89038086 C77.44717285 97.39030518 76.45733398 96.89022949 75.4375 96.375 C73.34486591 95.30114398 71.25242055 94.22692009 69.16015625 93.15234375 C68.11746582 92.6197998 67.07477539 92.08725586 66.00048828 91.53857422 C61.77428229 89.37148307 57.57351385 87.15763071 53.375 84.9375 C48.43404641 82.33145628 43.49007885 79.73141554 38.5390625 77.14453125 C22.87499524 68.95952975 22.87499524 68.95952975 16.9375 65.6875 C11.36440245 62.65404184 5.6752998 59.8376499 0 57 C0 38.19 0 19.38 0 0 Z " fill="#E2383B" transform="translate(218,408)"/>
<path d="M0 0 C8.79148898 4.28523695 17.45193727 8.74585162 26 13.5 C34.54890586 18.25387702 43.21101865 22.70877412 52 27 C52.66 27.33 53.32 27.66 54 28 C54 56.05 54 84.1 54 113 C27.49906425 126.82657517 27.49906425 126.82657517 14.5 133.5 C13.03187288 134.25450249 11.56377483 135.00906156 10.09570312 135.76367188 C1.98379212 139.93227472 -6.13212905 144.09301707 -14.25 148.25 C-15.97721846 149.13475603 -17.70443202 150.0195216 -19.43164062 150.90429688 C-22.70051342 152.57876473 -25.97012693 154.25177298 -29.24023438 155.92382812 C-30.77483522 156.70944864 -32.30934163 157.49525363 -33.84375 158.28125 C-34.58733765 158.66180542 -35.33092529 159.04236084 -36.0970459 159.43444824 C-40.1603888 161.52025807 -44.20678017 163.63448124 -48.23828125 165.78125 C-49.10215454 166.24043823 -49.96602783 166.69962646 -50.8560791 167.17272949 C-52.51761344 168.05785781 -54.17714767 168.94675419 -55.83435059 169.83996582 C-56.95758728 170.43835266 -56.95758728 170.43835266 -58.10351562 171.04882812 C-58.76081665 171.40207153 -59.41811768 171.75531494 -60.09533691 172.1192627 C-62 173 -62 173 -66 174 C-66 155.52 -66 137.04 -66 118 C-50.29268293 109.02439024 -50.29268293 109.02439024 -44.625 106.25 C-43.2798475 105.58614092 -41.93480283 104.92206335 -40.58984375 104.2578125 C-39.86651855 103.90235352 -39.14319336 103.54689453 -38.39794922 103.18066406 C-21.64000445 94.92965399 -4.99053993 86.4928022 11.4375 77.6015625 C12.13480225 77.22547852 12.83210449 76.84939453 13.55053711 76.46191406 C14.85558382 75.75689429 16.1586169 75.04812936 17.45922852 74.33496094 C21.77793234 72 21.77793234 72 24 72 C20.93320535 68.57590889 17.88283477 66.72657315 13.75 64.75 C12.67234375 64.22921875 11.5946875 63.7084375 10.484375 63.171875 C9.66453125 62.78515625 8.8446875 62.3984375 8 62 C11.63852314 61.04207023 15.27091669 60.50199198 19 60 C18.67 61.65 18.34 63.3 18 65 C20.31 65.33 22.62 65.66 25 66 C25 66.99 25 67.98 25 69 C26.32 69 27.64 69 29 69 C29.99 70.485 29.99 70.485 31 72 C32.485 72.99 32.485 72.99 34 74 C35.25390625 76.22265625 35.25390625 76.22265625 36.5625 79.0625 C39.23799081 84.58154009 42.12647853 89.9348372 45.1875 95.25 C45.61554932 96.01320557 46.04359863 96.77641113 46.48461914 97.56274414 C47.1013147 98.62223267 47.1013147 98.62223267 47.73046875 99.703125 C48.09551514 100.33895508 48.46056152 100.97478516 48.83666992 101.62988281 C49.22056885 102.08202148 49.60446777 102.53416016 50 103 C50.99 103 51.98 103 53 103 C52.67 79.9 52.34 56.8 52 33 C50.02 36.3 48.04 39.6 46 43 C45.34 42.67 44.68 42.34 44 42 C44.0721875 41.30132812 44.144375 40.60265625 44.21875 39.8828125 C44.3115625 38.97273438 44.404375 38.06265625 44.5 37.125 C44.5928125 36.22007812 44.685625 35.31515625 44.78125 34.3828125 C45.03047295 32.06686789 45.03047295 32.06686789 45 30 C43.68 30 42.36 30 41 30 C39.68 30 38.36 30 37 30 C36.4465236 27.92446352 36 26.15634036 36 24 C35.505 23.01 35.505 23.01 35 22 C32.52391899 21.25475806 32.52391899 21.25475806 30 21 C29.505 21.495 29.505 21.495 29 22 C26.30917128 21.82364548 23.67148554 21.38164079 21 21 C20.45627049 17.94152152 20 15.11227195 20 12 C19.071875 11.87625 18.14375 11.7525 17.1875 11.625 C14 11 14 11 11 9 C11 8.34 11 7.68 11 7 C9.9171875 7.0928125 9.9171875 7.0928125 8.8125 7.1875 C5.38531116 6.95902074 3.69892801 6.09916623 1 4 C0.359375 1.890625 0.359375 1.890625 0 0 Z " fill="#C02E3A" transform="translate(284,442)"/>
<path d="M0 0 C4.95 0 9.9 0 15 0 C15 25.08 15 50.16 15 76 C10.38 76 5.76 76 1 76 C1 73.36 1 70.72 1 68 C0.34 68 -0.32 68 -1 68 C-1.20625 68.5775 -1.4125 69.155 -1.625 69.75 C-3.76200574 73.24691848 -6.98915031 75.36564948 -10.89453125 76.59765625 C-17.75357294 77.90838221 -23.84499286 77.43260013 -30 74 C-35.70931052 70.08184572 -38.40666783 65.68502969 -40.58984375 59.265625 C-42.13119493 50.75149468 -42.62571601 38.60159332 -38 31 C-33.89182377 25.77225323 -29.530934 21.7415824 -23 20 C-15.67982413 19.20014676 -9.03342484 19.37437429 -3 24 C-2.34 24.99 -1.68 25.98 -1 27 C-0.67 18.09 -0.34 9.18 0 0 Z " fill="#0A0A0A" transform="translate(411,481)"/>
<path d="M0 0 C3.44166231 1.86791074 5.5405296 4.09932278 7.765625 7.2421875 C8.31992187 6.74847656 8.87421875 6.25476563 9.4453125 5.74609375 C10.16976562 5.10542969 10.89421875 4.46476562 11.640625 3.8046875 C12.35992188 3.16660156 13.07921875 2.52851563 13.8203125 1.87109375 C17.83471974 -1.49036774 21.57009162 -1.08777565 26.6484375 -1.0390625 C32.33757341 -0.525757 36.04922618 1.61612546 40.140625 5.4921875 C43.86075704 11.78779557 44.05138947 18.44136775 43.9609375 25.5546875 C43.9581076 26.40901367 43.95527771 27.26333984 43.95236206 28.14355469 C43.94126379 30.84324803 43.91617927 33.54259627 43.890625 36.2421875 C43.88058179 38.08463059 43.8714583 39.92707893 43.86328125 41.76953125 C43.8413585 46.26054744 43.80690146 50.75130918 43.765625 55.2421875 C38.815625 55.2421875 33.865625 55.2421875 28.765625 55.2421875 C28.7562793 54.11723877 28.74693359 52.99229004 28.73730469 51.83325195 C28.69735245 47.64893381 28.63157948 43.46534687 28.55810547 39.28149414 C28.52992611 37.47267061 28.50869645 35.66372464 28.49462891 33.85473633 C28.47315686 31.25017756 28.42648689 28.64708616 28.375 26.04296875 C28.37377136 25.23757156 28.37254272 24.43217438 28.37127686 23.60237122 C28.24139097 18.59357214 27.56199728 15.85691305 23.765625 12.2421875 C20.06562005 11.14374853 16.68025426 11.74969482 13.328125 13.5546875 C9.97819342 17.17261361 10.54971388 21.76815332 10.44921875 26.41015625 C10.42843765 27.20496902 10.40765656 27.9997818 10.38624573 28.81867981 C10.32090413 31.35559513 10.26193692 33.89261323 10.203125 36.4296875 C10.15992514 38.15040122 10.11631037 39.87110458 10.07226562 41.59179688 C9.96523852 45.80848863 9.86392776 50.0252837 9.765625 54.2421875 C5.145625 54.2421875 0.525625 54.2421875 -4.234375 54.2421875 C-4.24895752 53.17782471 -4.26354004 52.11346191 -4.27856445 51.0168457 C-4.3366728 47.05622281 -4.41390445 43.09616102 -4.49682617 39.13598633 C-4.53001669 37.42416512 -4.55806689 35.71223602 -4.58081055 34.00024414 C-4.61446532 31.53485271 -4.66678474 29.07044469 -4.72265625 26.60546875 C-4.72904617 25.84381912 -4.7354361 25.08216949 -4.74201965 24.29743958 C-4.8656199 19.79925194 -5.44157947 16.81824983 -8.234375 13.2421875 C-11.36144459 11.6786527 -14.81419943 11.84260263 -18.234375 12.2421875 C-21.95434857 14.72216988 -22.1731197 15.96811621 -23.234375 20.2421875 C-23.46113128 22.94624741 -23.60459735 25.56056931 -23.6484375 28.265625 C-23.66780365 29.01180084 -23.6871698 29.75797668 -23.7071228 30.52676392 C-23.76649565 32.89012527 -23.8131328 35.25353647 -23.859375 37.6171875 C-23.89759384 39.22788482 -23.9366478 40.83856256 -23.9765625 42.44921875 C-24.07216176 46.38004766 -24.156347 50.31097213 -24.234375 54.2421875 C-28.854375 54.2421875 -33.474375 54.2421875 -38.234375 54.2421875 C-38.234375 36.4221875 -38.234375 18.6021875 -38.234375 0.2421875 C-33.614375 0.2421875 -28.994375 0.2421875 -24.234375 0.2421875 C-23.904375 2.5521875 -23.574375 4.8621875 -23.234375 7.2421875 C-22.491875 6.2934375 -21.749375 5.3446875 -20.984375 4.3671875 C-15.97230803 -2.0371203 -7.43207699 -2.52066947 0 0 Z " fill="#070707" transform="translate(595.234375,501.7578125)"/>
<path d="M0 0 C5.64949171 3.36864102 7.89362824 7.64180219 9.8605957 13.72436523 C10.97177602 18.22212108 10.97270291 22.63841869 10.9375 27.25 C10.9674707 28.63735352 10.9674707 28.63735352 10.99804688 30.05273438 C10.99149615 39.40061462 8.00557396 48.40392588 1.5 55.3125 C-3.81567047 59.33166548 -10.11697748 59.17051936 -16.5 58.3125 C-22.28152813 56.39322222 -27.46881268 53.76863718 -30.5 48.3125 C-35.64288906 36.54449185 -34.40471018 23.27909025 -30.5 11.3125 C-24.6100433 -0.2570578 -12.26428564 -5.72795262 0 0 Z " fill="#69CEAB" transform="translate(212.5,899.6875)"/>
<path d="M0 0 C1.56041016 -0.04253906 1.56041016 -0.04253906 3.15234375 -0.0859375 C6.0625 0.375 6.0625 0.375 8.39453125 1.6953125 C11.10101504 6.043434 10.74239934 10.60324338 10.8125 15.625 C10.84214844 16.65625 10.87179687 17.6875 10.90234375 18.75 C10.97294778 21.29174495 11.02569009 23.83257783 11.0625 26.375 C13.04159398 26.40186553 15.02078971 26.42133375 17 26.4375 C18.10214844 26.44910156 19.20429688 26.46070313 20.33984375 26.47265625 C22.97697634 26.68762571 22.97697634 26.68762571 24.0625 25.375 C24.11315885 23.68956122 24.09806007 22.00204827 24.0546875 20.31640625 C24.03792969 19.29095703 24.02117187 18.26550781 24.00390625 17.20898438 C23.95971117 15.03172663 23.90765413 12.85461397 23.84765625 10.67773438 C23.83347656 9.65099609 23.81929688 8.62425781 23.8046875 7.56640625 C23.7826123 6.61967041 23.76053711 5.67293457 23.73779297 4.69750977 C23.84494629 3.93108154 23.95209961 3.16465332 24.0625 2.375 C27.64532235 -0.01354824 29.37643033 0.10601198 33.625 0.125 C34.78128906 0.11984375 35.93757813 0.1146875 37.12890625 0.109375 C40.0625 0.375 40.0625 0.375 42.0625 2.375 C42.31646729 4.56944275 42.31646729 4.56944275 42.32128906 7.32788086 C42.32759338 8.35912582 42.33389771 9.39037079 42.34039307 10.4528656 C42.3363446 11.57056839 42.33229614 12.68827118 42.328125 13.83984375 C42.33099518 15.55621788 42.33099518 15.55621788 42.33392334 17.30726624 C42.33528632 19.73080668 42.33158203 22.15435439 42.32324219 24.57788086 C42.3125543 28.29362364 42.32312889 32.00888182 42.3359375 35.72460938 C42.33461573 38.0755219 42.33205299 40.42643413 42.328125 42.77734375 C42.33217346 43.89302231 42.33622192 45.00870087 42.34039307 46.15818787 C42.33408875 47.19258499 42.32778442 48.22698212 42.32128906 49.29272461 C42.31969788 50.20380478 42.31810669 51.11488495 42.31646729 52.05357361 C42.0625 54.375 42.0625 54.375 40.0625 57.375 C37.29058898 57.62349576 34.76362612 57.70183409 32 57.625 C30.88141602 57.61726562 30.88141602 57.61726562 29.74023438 57.609375 C24.21660426 57.52910426 24.21660426 57.52910426 23.0625 56.375 C22.90594973 54.88861008 22.81183057 53.39550873 22.74609375 51.90234375 C22.70419922 51.00322266 22.66230469 50.10410156 22.61914062 49.17773438 C22.57982422 48.23220703 22.54050781 47.28667969 22.5 46.3125 C22.45681641 45.36310547 22.41363281 44.41371094 22.36914062 43.43554688 C22.26270868 41.08221824 22.16206846 38.72862901 22.0625 36.375 C17.7725 36.045 13.4825 35.715 9.0625 35.375 C9.07410156 36.95152344 9.08570313 38.52804687 9.09765625 40.15234375 C9.10703243 42.20572799 9.11613282 44.2591135 9.125 46.3125 C9.13337891 47.35341797 9.14175781 48.39433594 9.15039062 49.46679688 C9.15522461 50.95083008 9.15522461 50.95083008 9.16015625 52.46484375 C9.16801147 53.83950806 9.16801147 53.83950806 9.17602539 55.24194336 C9.0625 57.375 9.0625 57.375 8.0625 58.375 C5.9403002 58.50069503 3.81338655 58.55076773 1.6875 58.5625 C-0.05660156 58.58376953 -0.05660156 58.58376953 -1.8359375 58.60546875 C-4.9375 58.375 -4.9375 58.375 -7.9375 56.375 C-8.35641479 54.09790039 -8.35641479 54.09790039 -8.41748047 51.22265625 C-8.46169632 49.61088501 -8.46169632 49.61088501 -8.50680542 47.96655273 C-8.52260651 46.80196533 -8.53840759 45.63737793 -8.5546875 44.4375 C-8.57975372 43.24648682 -8.60481995 42.05547363 -8.63064575 40.82836914 C-8.67968915 38.30660936 -8.72121477 35.78469401 -8.75585938 33.26269531 C-8.81227418 29.39049998 -8.90059505 25.5199422 -8.9921875 21.6484375 C-9.03577882 19.20315855 -9.07750832 16.75784556 -9.1171875 14.3125 C-9.14513397 13.1479126 -9.17308044 11.9833252 -9.20187378 10.78344727 C-9.21243805 9.70893311 -9.22300232 8.63441895 -9.23388672 7.52734375 C-9.24926483 6.57851318 -9.26464294 5.62968262 -9.28048706 4.65209961 C-9.16730133 3.90065674 -9.0541156 3.14921387 -8.9375 2.375 C-5.51828453 0.09552302 -4.03439823 0.04986895 0 0 Z " fill="#67CDAB" transform="translate(362.9375,898.625)"/>
<path d="M0 0 C5.15449532 3.35100373 7.0873175 7.27763292 8.73046875 13.125 C9.15373231 16.3055565 9.21761431 19.45031053 9.2421875 22.65625 C9.2601387 23.53277222 9.2780899 24.40929443 9.29658508 25.31237793 C9.35031384 28.08320453 9.38446248 30.85386265 9.41796875 33.625 C9.45117496 35.51564826 9.48566763 37.40627439 9.52148438 39.296875 C9.6060183 43.90612765 9.67300666 48.5153336 9.73046875 53.125 C4.78046875 53.125 -0.16953125 53.125 -5.26953125 53.125 C-5.26953125 50.815 -5.26953125 48.505 -5.26953125 46.125 C-5.92953125 46.125 -6.58953125 46.125 -7.26953125 46.125 C-7.49640625 46.723125 -7.72328125 47.32125 -7.95703125 47.9375 C-9.94619963 51.25278063 -12.89694303 52.43870589 -16.26953125 54.125 C-24.24975228 55.02950138 -30.01301143 54.63999415 -36.5625 49.828125 C-40.01534727 46.38317898 -40.63919442 43.17725902 -40.83203125 38.375 C-40.72829389 32.71094006 -39.39235257 29.84748128 -35.58203125 25.74609375 C-29.75565478 21.66172511 -23.34839431 20.62218775 -16.39453125 20 C-11.17291654 19.68374531 -11.17291654 19.68374531 -6.26953125 18.125 C-6.53346626 14.69269552 -6.53346626 14.69269552 -7.26953125 11.125 C-11.49107881 8.31063496 -15.30929093 8.44195051 -20.26953125 9.125 C-22.84590596 11.01015223 -23.86620553 12.31834857 -25.26953125 15.125 C-29.88953125 15.125 -34.50953125 15.125 -39.26953125 15.125 C-38.13343638 8.3084308 -36.37770539 4.43620641 -30.83203125 0.3125 C-21.22751783 -4.13837207 -9.55143516 -5.16100061 0 0 Z " fill="#0B0B0B" transform="translate(688.26953125,503.875)"/>
<path d="M0 0 C3.98663013 3.18742362 5.71410556 7.14984313 7 12 C7.31571705 15.1837176 7.3714024 18.35696488 7.4140625 21.5546875 C7.43342865 22.45623566 7.4527948 23.35778381 7.4727478 24.28665161 C7.53224296 27.14933996 7.57880817 30.01206918 7.625 32.875 C7.66320747 34.82293363 7.7022608 36.77085086 7.7421875 38.71875 C7.83791965 43.47903258 7.92206116 48.2393942 8 53 C3.38 53 -1.24 53 -6 53 C-6.66 51.02 -7.32 49.04 -8 47 C-8.556875 47.598125 -9.11375 48.19625 -9.6875 48.8125 C-13.87095152 52.76981901 -17.07239986 54.42021507 -22.875 54.375 C-29.66763341 54.18330605 -33.65448214 53.03958074 -38.875 48.5 C-42.43252072 44.31468151 -42.5219098 40.1756286 -42.47265625 34.86328125 C-41.66563228 29.97445012 -38.89563614 26.91313884 -35 24 C-29.14585002 20.85638119 -23.62976406 20.30179035 -17.0625 19.8125 C-16.09248047 19.73064453 -15.12246094 19.64878906 -14.12304688 19.56445312 C-11.74935563 19.3656711 -9.37533877 19.17780724 -7 19 C-7.268125 17.72125 -7.53625 16.4425 -7.8125 15.125 C-7.96332031 14.40570312 -8.11414063 13.68640625 -8.26953125 12.9453125 C-8.92308838 10.62953451 -8.92308838 10.62953451 -12 9 C-14.41150258 8.68337561 -14.41150258 8.68337561 -17 8.75 C-18.299375 8.74226562 -18.299375 8.74226562 -19.625 8.734375 C-22.265795 8.84585448 -22.265795 8.84585448 -25 11 C-25.33 12.32 -25.66 13.64 -26 15 C-30.62 15 -35.24 15 -40 15 C-40 8.75398581 -39.77696721 7.57211821 -36 3 C-26.19684888 -4.8425209 -11.20651584 -5.58235024 0 0 Z " fill="#070707" transform="translate(477,504)"/>
<path d="M0 0 C4.95 0 9.9 0 15 0 C15.33 13.2 15.66 26.4 16 40 C24.52935786 31.1994383 24.52935786 31.1994383 28 24.875 C29.76804373 22.4624895 30.98120215 21.19868461 33.96044922 20.61767578 C39.00326943 20.2233812 43.97156221 20.54184088 49 21 C49 23 49 23 46.9296875 25.1875 C45.95439127 26.12631726 44.97769726 27.06368348 44 28 C41.67909508 30.30577157 39.39772366 32.64682594 37.125 35 C36.51914062 35.60328125 35.91328125 36.2065625 35.2890625 36.828125 C31.93692879 40.1608152 31.93692879 40.1608152 30.8671875 44.5625 C32.29732381 47.63975883 34.01547906 50.24372092 36 53 C36.81127415 54.14187292 37.62246962 55.28380175 38.43359375 56.42578125 C38.85366699 57.01053223 39.27374023 57.5952832 39.70654297 58.19775391 C41.84651152 61.1794919 43.95758429 64.18096178 46.0625 67.1875 C46.81660156 68.25355469 47.57070313 69.31960938 48.34765625 70.41796875 C50 73 50 73 50 75 C44.68220563 75.83131773 39.22727563 76.64249818 34 75 C29.90273402 71.8750881 27.43666852 67.26012234 25.00976562 62.79980469 C24.00634346 61.01130657 22.90334262 59.34790816 21.734375 57.6640625 C20 55 20 55 20 53 C16.85029055 54.90662003 16.85029055 54.90662003 15.45410156 58.17651367 C15.4331543 58.99869385 15.41220703 59.82087402 15.390625 60.66796875 C15.35839844 61.56064453 15.32617188 62.45332031 15.29296875 63.37304688 C15.27169922 64.76620117 15.27169922 64.76620117 15.25 66.1875 C15.22035156 67.12787109 15.19070313 68.06824219 15.16015625 69.03710938 C15.08948108 71.35761078 15.04247372 73.67881113 15 76 C10.05 76 5.1 76 0 76 C0 50.92 0 25.84 0 0 Z " fill="#0B0B0B" transform="translate(708,481)"/>
<path d="M0 0 C0.7734375 -0.00515625 1.546875 -0.0103125 2.34375 -0.015625 C4.5 0.25 4.5 0.25 7.5 2.25 C7.5 3.57 7.5 4.89 7.5 6.25 C8.386875 5.425 9.27375 4.6 10.1875 3.75 C15.34686131 0.03610392 21.40830184 0.32467876 27.5 1.25 C30.3984375 2.65625 30.3984375 2.65625 32.5 4.25 C32.5 4.91 32.5 5.57 32.5 6.25 C32.99628906 5.96125 33.49257813 5.6725 34.00390625 5.375 C38.67623758 2.82161969 42.05375768 1.54400563 47.5 2.25 C51.34616512 3.58136485 53.02552379 4.45870919 55.13110352 7.97021484 C57.42156472 13.45800792 57.24165216 18.99334738 57.4375 24.875 C57.50517578 26.1021875 57.57285156 27.329375 57.64257812 28.59375 C57.68705078 29.77195312 57.73152344 30.95015625 57.77734375 32.1640625 C57.82109131 33.2360791 57.86483887 34.3080957 57.90991211 35.41259766 C57.39792408 38.95656722 56.2800352 40.07506156 53.5 42.25 C50.59215119 42.95882303 48.557461 42.58971789 45.5 42.25 C42.82568511 40.43836733 42.54079641 39.37238923 41.5 36.25 C41.37569532 34.68246728 41.29909752 33.11086663 41.25390625 31.5390625 C41.22103516 30.62382813 41.18816406 29.70859375 41.15429688 28.765625 C41.09335063 26.84646674 41.03602846 24.9271898 40.98242188 23.0078125 C40.75716931 16.41058795 40.75716931 16.41058795 38.5 10.25 C36.11522671 11.96153709 34.6697593 13.33188697 34.12451172 16.28076172 C33.98879629 18.75408512 33.93937799 21.21043711 33.9375 23.6875 C33.87787136 34.87212864 33.87787136 34.87212864 29.5 39.25 C28.02351124 39.34823996 26.54224583 39.37973519 25.0625 39.375 C24.25941406 39.37757813 23.45632813 39.38015625 22.62890625 39.3828125 C20.5 39.25 20.5 39.25 18.5 38.25 C17.3992924 34.9478772 17.29372928 32.30916721 17.18359375 28.83203125 C17.14169922 27.57841797 17.09980469 26.32480469 17.05664062 25.03320312 C17.01732422 23.72287109 16.97800781 22.41253906 16.9375 21.0625 C16.89429008 19.72720022 16.850675 18.39191348 16.80664062 17.05664062 C16.70043498 13.78786703 16.59839003 10.51901667 16.5 7.25 C11.67299511 11.82946618 10.41437794 14.36133566 10.21875 20.94140625 C10.18136719 22.05064453 10.14398437 23.15988281 10.10546875 24.30273438 C10.03503897 26.64648085 9.96472686 28.99023087 9.89453125 31.33398438 C9.85714844 32.44193359 9.81976562 33.54988281 9.78125 34.69140625 C9.73581055 36.21809937 9.73581055 36.21809937 9.68945312 37.77563477 C9.5 40.25 9.5 40.25 8.5 42.25 C5.38370851 43.28876383 3.1405571 43.38361625 -0.125 43.375 C-1.10726563 43.37757813 -2.08953125 43.38015625 -3.1015625 43.3828125 C-5.5 43.25 -5.5 43.25 -6.5 42.25 C-6.69755244 39.31817691 -6.83306007 36.408428 -6.921875 33.47265625 C-6.94977112 32.59097275 -6.97766724 31.70928925 -7.00640869 30.80088806 C-7.06290188 28.93220136 -7.11650759 27.06342551 -7.16748047 25.19458008 C-7.24956688 22.32762709 -7.35305553 19.4619344 -7.45703125 16.59570312 C-7.50914146 14.7838919 -7.55996564 12.97204314 -7.609375 11.16015625 C-7.64359558 10.2986647 -7.67781616 9.43717316 -7.71307373 8.54957581 C-7.76464844 6.13305664 -7.76464844 6.13305664 -7.5 2.25 C-4.377998 0.16866533 -3.56733011 -0.0237822 0 0 Z " fill="#68CDAB" transform="translate(504.5,913.75)"/>
<path d="M0 0 C5.1013239 0.01541185 9.90641087 0.39760863 14.9609375 1.1328125 C16.44044638 1.10591234 17.91972581 1.06332727 19.3984375 1.0078125 C25.59179428 0.95505818 30.11339285 2.56641595 34.8359375 6.5703125 C40.07521265 12.88826194 39.65304494 19.16043562 38.9609375 27.1328125 C37.52589403 33.16515092 34.91117192 36.87447724 29.7421875 40.2578125 C26.13068417 42.03188431 22.82649259 42.2697246 18.8359375 42.2578125 C17.53269531 42.26167969 17.53269531 42.26167969 16.203125 42.265625 C13.9609375 42.1328125 13.9609375 42.1328125 11.9609375 41.1328125 C12.2909375 41.7928125 12.6209375 42.4528125 12.9609375 43.1328125 C13.16042298 45.27300671 13.27366015 47.42174385 13.3359375 49.5703125 C13.38492188 50.72402344 13.43390625 51.87773438 13.484375 53.06640625 C12.9609375 56.1328125 12.9609375 56.1328125 10.69140625 58.01171875 C6.61141848 59.68690686 4.37053408 59.69276127 -0.0390625 59.1328125 C-3.30176005 56.23072889 -3.99452634 54.54671275 -4.46484375 50.17578125 C-4.4487096 48.55693164 -4.40921085 46.93821579 -4.3515625 45.3203125 C-4.33536865 44.43827148 -4.3191748 43.55623047 -4.30249023 42.64746094 C-4.23637605 39.47505078 -4.13663643 36.30440863 -4.0390625 33.1328125 C-3.98666583 31.04544402 -3.9376306 28.95801036 -3.8886261 26.87055969 C-3.80100745 23.20775498 -3.70211728 19.54528178 -3.6015625 15.8828125 C-3.58227692 15.15847015 -3.56299133 14.43412781 -3.54312134 13.68783569 C-3.48603399 11.62241024 -3.42194079 9.55732976 -3.35546875 7.4921875 C-3.31881104 6.29045898 -3.28215332 5.08873047 -3.24438477 3.85058594 C-2.96808602 0.19332361 -2.96808602 0.19332361 0 0 Z " fill="#69CDAB" transform="translate(764.0390625,898.8671875)"/>
<path d="M0 0 C1.08152344 -0.01417969 2.16304687 -0.02835938 3.27734375 -0.04296875 C6.0625 0.1875 6.0625 0.1875 8.0625 2.1875 C8.0390625 5.171875 8.0390625 5.171875 7.6875 8.9375 C7.05576742 16.3774009 6.95891382 23.71778516 7.0625 31.1875 C9.04741642 30.92073796 9.04741642 30.92073796 11.0625 30.1875 C12.0352784 27.26916481 12.21271849 25.26668424 12.2734375 22.22265625 C12.31597656 20.77536133 12.31597656 20.77536133 12.359375 19.29882812 C12.41135355 17.27036515 12.45565605 15.24169058 12.4921875 13.21289062 C12.53859375 11.76366211 12.53859375 11.76366211 12.5859375 10.28515625 C12.60575684 9.40351807 12.62557617 8.52187988 12.64599609 7.61352539 C13.14426532 4.7112386 14.03893134 3.30476639 16.0625 1.1875 C18.69140625 0.7265625 18.69140625 0.7265625 21.625 0.8125 C22.59566406 0.82539062 23.56632813 0.83828125 24.56640625 0.8515625 C27.0625 1.1875 27.0625 1.1875 29.0625 3.1875 C29.28523254 5.3237915 29.28523254 5.3237915 29.24536133 8.00097656 C29.23487259 9.0025177 29.22438385 10.00405884 29.21357727 11.03594971 C29.19079208 12.12236755 29.1680069 13.2087854 29.14453125 14.328125 C29.11766487 16.00053253 29.11766487 16.00053253 29.09025574 17.70672607 C29.04899444 20.07069345 29.00239763 22.4345727 28.95092773 24.79833984 C28.87560572 28.40846831 28.82640873 32.01831307 28.77929688 35.62890625 C28.73596905 37.92450981 28.6910971 40.22008484 28.64453125 42.515625 C28.63186722 43.59394592 28.61920319 44.67226685 28.6061554 45.78326416 C28.41922602 53.00527146 27.51075936 57.56436497 22.4375 63 C18.690872 65.8705508 14.72382348 66.62188857 10.0625 66.1875 C6.19331914 64.25290957 3.06400387 62.07931308 1.0625 58.1875 C0.40714494 53.84577272 0.78836064 51.10644821 3.1875 47.5 C5.69609903 44.3033281 8.5990847 42.31277757 12.0625 40.1875 C12.3925 39.5275 12.7225 38.8675 13.0625 38.1875 C12.2375 38.6825 11.4125 39.1775 10.5625 39.6875 C6.49274806 41.4316794 3.41774058 42.10713247 -0.9375 41.1875 C-5.80047013 38.12562992 -7.58779054 35.6853991 -8.9375 30.1875 C-9.21618494 26.72467587 -9.21684376 23.28484547 -9.1875 19.8125 C-9.19523438 18.905 -9.20296875 17.9975 -9.2109375 17.0625 C-9.16192301 0.05447041 -9.16192301 0.05447041 0 0 Z " fill="#69CDAB" transform="translate(658.9375,911.8125)"/>
<path d="M0 0 C4.76070413 2.95163656 8.33689107 6.5731732 10.125 11.9375 C10.21110514 13.36468637 10.24271828 14.79556648 10.23852539 16.2253418 C10.23844986 17.08600754 10.23837433 17.94667328 10.23829651 18.8334198 C10.23313522 19.75850845 10.22797394 20.68359711 10.22265625 21.63671875 C10.2212413 22.58690384 10.21982635 23.53708893 10.21836853 24.5160675 C10.21276875 27.55241029 10.20021632 30.58867948 10.1875 33.625 C10.18248497 35.68294164 10.17792207 37.74088444 10.17382812 39.79882812 C10.1627994 44.84508046 10.14553493 49.89127775 10.125 54.9375 C5.175 54.9375 0.225 54.9375 -4.875 54.9375 C-4.904729 53.188927 -4.904729 53.188927 -4.93505859 51.4050293 C-5.01108959 47.08303095 -5.09981076 42.76137038 -5.19238281 38.43969727 C-5.23068294 36.56867132 -5.265534 34.69757147 -5.296875 32.82641602 C-5.34250324 30.13791481 -5.40050088 27.44992277 -5.4609375 24.76171875 C-5.47248871 23.92412521 -5.48403992 23.08653168 -5.49594116 22.22355652 C-5.59546457 18.31376963 -5.6597302 16.2604047 -7.875 12.9375 C-12.3155267 11.45732443 -16.7910511 11.27941087 -21.25 12.6875 C-23.38455336 14.32946412 -23.91416114 15.38845999 -24.875 17.9375 C-25.1115356 20.7940386 -25.24718519 23.56260746 -25.2890625 26.421875 C-25.30842865 27.23746887 -25.3277948 28.05306274 -25.3477478 28.89337158 C-25.40739575 31.49130892 -25.45386942 34.08929093 -25.5 36.6875 C-25.53819342 38.45184194 -25.57724595 40.21616551 -25.6171875 41.98046875 C-25.71308505 46.29932946 -25.79717047 50.61827744 -25.875 54.9375 C-30.495 54.9375 -35.115 54.9375 -39.875 54.9375 C-39.875 37.1175 -39.875 19.2975 -39.875 0.9375 C-35.585 0.9375 -31.295 0.9375 -26.875 0.9375 C-26.545 3.2475 -26.215 5.5575 -25.875 7.9375 C-25.33875 7.009375 -24.8025 6.08125 -24.25 5.125 C-18.6437396 -2.39919159 -8.5688997 -3.07258987 0 0 Z " fill="#0A0A0A" transform="translate(535.875,502.0625)"/>
<path d="M0 0 C4.62 0 9.24 0 14 0 C14.01458252 1.06436279 14.02916504 2.12872559 14.04418945 3.2253418 C14.1022978 7.18596469 14.17952945 11.14602648 14.26245117 15.10620117 C14.29564169 16.81802238 14.32369189 18.52995148 14.34643555 20.24194336 C14.38009032 22.70733479 14.43240974 25.17174281 14.48828125 27.63671875 C14.49467117 28.39836838 14.5010611 29.16001801 14.50764465 29.94474792 C14.6312449 34.44293556 15.20720447 37.42393767 18 41 C21.69153519 42.8457676 25.97021939 42.48175083 30 42 C33.09799981 39.80873184 33.80352112 38.58943664 35 35 C35.15346953 32.34393699 35.25717898 29.70904905 35.31640625 27.05078125 C35.33718735 26.27816452 35.35796844 25.50554779 35.37937927 24.70951843 C35.44471038 22.2439352 35.50368315 19.77824639 35.5625 17.3125 C35.60570087 15.63996309 35.64931566 13.96743681 35.69335938 12.29492188 C35.8003749 8.1967225 35.90168857 4.09841704 36 0 C40.62 0 45.24 0 50 0 C50 17.82 50 35.64 50 54 C45.71 54 41.42 54 37 54 C36.505 50.535 36.505 50.535 36 47 C35.319375 47.928125 34.63875 48.85625 33.9375 49.8125 C30.38088496 54.00316341 26.74010006 55.63137667 21.38671875 56.3515625 C14.60069659 56.70822756 10.17667383 55.42439857 5 51 C-0.30766633 45.51541146 -0.28089781 38.62420838 -0.1953125 31.4453125 C-0.1924826 30.54376434 -0.18965271 29.64221619 -0.18673706 28.71334839 C-0.17559439 25.85042724 -0.1505008 22.98782566 -0.125 20.125 C-0.11496255 18.17708787 -0.10583804 16.22917081 -0.09765625 14.28125 C-0.07567443 9.5207113 -0.0411855 4.76040973 0 0 Z " fill="#060606" transform="translate(761,502)"/>
<path d="M0 0 C1.45599609 0.00773438 1.45599609 0.00773438 2.94140625 0.015625 C3.90949219 0.01046875 4.87757813 0.0053125 5.875 0 C8.50390625 0.265625 8.50390625 0.265625 11.50390625 2.265625 C11.50390625 3.255625 11.50390625 4.245625 11.50390625 5.265625 C11.97699219 4.96527344 12.45007813 4.66492188 12.9375 4.35546875 C17.655964 1.64212201 21.05860005 0.72102358 26.4609375 1.66015625 C30.77079074 2.93745501 32.86965044 5.19309997 35.109375 8.98046875 C37.71353497 15.11519854 37.57653318 22.36901982 35.8125 28.77734375 C33.67447304 33.47384649 30.69408011 36.32358803 26.50390625 39.265625 C23.82746668 40.15777152 22.25006247 40.40102711 19.50390625 40.390625 C18.48296875 40.39449219 18.48296875 40.39449219 17.44140625 40.3984375 C15.50390625 40.265625 15.50390625 40.265625 12.50390625 39.265625 C12.52710938 40.31363281 12.5503125 41.36164062 12.57421875 42.44140625 C12.59297928 43.82030537 12.61117918 45.1992122 12.62890625 46.578125 C12.65404297 47.61356445 12.65404297 47.61356445 12.6796875 48.66992188 C12.71608419 52.43697896 12.64769489 54.04994204 10.50390625 57.265625 C8.04296875 57.6640625 8.04296875 57.6640625 5.12890625 57.640625 C4.17242187 57.64835938 3.2159375 57.65609375 2.23046875 57.6640625 C-0.96495081 57.19711007 -2.18420832 56.49396361 -4.49609375 54.265625 C-4.99057007 51.94419861 -4.99057007 51.94419861 -4.98193359 49.18334961 C-4.98808685 48.14895248 -4.99424011 47.11455536 -5.00057983 46.04881287 C-4.9862088 44.93313431 -4.97183777 43.81745575 -4.95703125 42.66796875 C-4.95611481 41.5227626 -4.95519836 40.37755646 -4.95425415 39.19764709 C-4.94820937 36.77584694 -4.93243735 34.35405456 -4.90771484 31.93237305 C-4.8712045 28.21440255 -4.86669539 24.49742789 -4.8671875 20.77929688 C-4.85735701 18.42967884 -4.8457003 16.08006759 -4.83203125 13.73046875 C-4.8298056 12.61276596 -4.82757996 11.49506317 -4.82528687 10.3434906 C-4.81252716 9.31224564 -4.79976746 8.28100067 -4.78662109 7.21850586 C-4.7789975 6.30822128 -4.7713739 5.39793671 -4.76351929 4.46006775 C-4.35920505 1.1423425 -3.26766293 0.34773252 0 0 Z " fill="#68CDAB" transform="translate(231.49609375,913.734375)"/>
<path d="M0 0 C1.12148438 0.00644531 2.24296875 0.01289062 3.3984375 0.01953125 C6.625 0.1875 6.625 0.1875 9.3203125 0.7421875 C11.82480137 1.37568542 11.82480137 1.37568542 15.125 0.5 C18.625 0.1875 18.625 0.1875 21.29077148 1.68530273 C24.33785452 4.95165082 24.42116116 7.64467175 24.47265625 11.91015625 C24.50956825 13.02299232 24.50956825 13.02299232 24.54722595 14.15830994 C24.59306516 15.72218073 24.6267917 17.28644767 24.64916992 18.85083008 C24.68745448 21.24715063 24.77355182 23.6383957 24.86523438 26.03320312 C24.90390261 27.55461748 24.93980452 29.07610519 24.97265625 30.59765625 C24.9994899 31.31333267 25.02632355 32.02900909 25.05397034 32.76637268 C25.07445499 36.03442682 25.06713435 37.72268168 22.7644043 40.14355469 C20.12894379 41.42955596 18.2936995 41.49021182 15.375 41.375 C14.03695312 41.33439453 14.03695312 41.33439453 12.671875 41.29296875 C11.99640625 41.25816406 11.3209375 41.22335937 10.625 41.1875 C9.965 39.2075 9.305 37.2275 8.625 35.1875 C8.15449219 35.60902344 7.68398438 36.03054688 7.19921875 36.46484375 C6.57660156 37.01269531 5.95398438 37.56054688 5.3125 38.125 C4.69761719 38.67027344 4.08273437 39.21554687 3.44921875 39.77734375 C-0.24666384 42.63433222 -3.86723298 42.56951415 -8.375 42.1875 C-12.77293364 39.90395754 -15.2485753 37.66418358 -17.375 33.1875 C-19.73927668 25.51192572 -19.23146797 17.28316083 -15.5859375 10.16015625 C-11.54946369 3.5846102 -8.03099785 -0.10107663 0 0 Z " fill="#69CEAB" transform="translate(427.375,914.8125)"/>
<path d="M0 0 C4.81026222 3.2615424 7.6652754 7.32215929 8.76953125 13.0546875 C9.94053743 30.79255158 9.94053743 30.79255158 4.76953125 37.0546875 C0.67560778 41.28756921 -3.02064302 43.1912861 -8.91796875 43.3671875 C-15.69431041 43.28816311 -20.01480235 40.93318727 -25.10546875 36.6171875 C-29.30986292 31.54718276 -29.72417029 26.73983341 -29.61328125 20.33203125 C-28.85379883 13.82993178 -26.70521377 7.37808448 -21.8671875 2.8359375 C-15.51726911 -1.45378514 -7.28699376 -3.08835813 0 0 Z " fill="#6ACEAC" transform="translate(593.23046875,914.9453125)"/>
<path d="M0 0 C1.17755859 -0.00773438 1.17755859 -0.00773438 2.37890625 -0.015625 C4.4375 0.25 4.4375 0.25 6.4375 2.25 C6.83514263 4.23821313 7.17525349 6.23944339 7.4375 8.25 C7.93378906 7.816875 8.43007813 7.38375 8.94140625 6.9375 C12.35969067 4.13541486 14.63836413 2.38778205 19.0625 1.625 C23.18644619 2.38869374 25.29492438 3.46453525 28.4375 6.25 C31.12205746 11.4195435 31.94501666 15.72345444 32.125 21.5 C32.15480957 22.24072754 32.18461914 22.98145508 32.21533203 23.74462891 C32.27161529 25.22503929 32.32189742 26.7056919 32.36572266 28.18652344 C32.42965385 30.02443665 32.5452244 31.86038852 32.66796875 33.6953125 C32.79679318 36.30661853 32.86955639 38.67239083 32.4375 41.25 C29.78651601 43.9789541 28.09045457 44.15672078 24.375 44.6875 C20.75941101 44.14900802 19.67733735 43.07053592 17.4375 40.25 C16.16164014 37.69828028 16.24483799 35.76405589 16.15625 32.91015625 C16.11886719 31.84732422 16.08148437 30.78449219 16.04296875 29.68945312 C16.00816406 28.57505859 15.97335937 27.46066406 15.9375 26.3125 C15.86865248 24.11575411 15.79591247 21.91912579 15.71875 19.72265625 C15.68845703 18.74562744 15.65816406 17.76859863 15.62695312 16.76196289 C15.53063063 14.12275056 15.53063063 14.12275056 14.4375 11.25 C13.4475 11.25 12.4575 11.25 11.4375 11.25 C8.12808577 18.5307113 8.20286708 26.32406504 7.875 34.1875 C7.83181641 35.15751953 7.78863281 36.12753906 7.74414062 37.12695312 C7.63887907 39.50118601 7.53674293 41.87550921 7.4375 44.25 C4.71207733 45.61271133 2.47662726 45.41923601 -0.5625 45.4375 C-1.635 45.45167969 -2.7075 45.46585938 -3.8125 45.48046875 C-6.5625 45.25 -6.5625 45.25 -8.5625 43.25 C-8.70411132 40.18408667 -8.72379614 37.21837986 -8.64453125 34.15625 C-8.62662033 33.2537854 -8.60870941 32.3513208 -8.59025574 31.42150879 C-8.54902452 29.51151776 -8.50243396 27.6016361 -8.45092773 25.69189453 C-8.37531281 22.76212023 -8.32632241 19.83269953 -8.27929688 16.90234375 C-8.23599399 15.04944062 -8.19112476 13.1965733 -8.14453125 11.34375 C-8.13186722 10.46352173 -8.11920319 9.58329346 -8.1061554 8.6763916 C-8.02661133 6.20898438 -8.02661133 6.20898438 -7.5625 2.25 C-4.42838698 0.16059132 -3.58799528 -0.02364412 0 0 Z " fill="#68CDAB" transform="translate(614.5625,912.75)"/>
<path d="M0 0 C1.17755859 -0.00773438 1.17755859 -0.00773438 2.37890625 -0.015625 C4.4375 0.25 4.4375 0.25 6.4375 2.25 C6.83514263 4.23821313 7.17525349 6.23944339 7.4375 8.25 C7.93378906 7.816875 8.43007813 7.38375 8.94140625 6.9375 C12.35969067 4.13541486 14.63836413 2.38778205 19.0625 1.625 C23.18644619 2.38869374 25.29492438 3.46453525 28.4375 6.25 C31.12205746 11.4195435 31.94501666 15.72345444 32.125 21.5 C32.15480957 22.24072754 32.18461914 22.98145508 32.21533203 23.74462891 C32.27161529 25.22503929 32.32189742 26.7056919 32.36572266 28.18652344 C32.42965385 30.02443665 32.5452244 31.86038852 32.66796875 33.6953125 C32.79679318 36.30661853 32.86955639 38.67239083 32.4375 41.25 C29.78651601 43.9789541 28.09045457 44.15672078 24.375 44.6875 C20.75941101 44.14900802 19.67733735 43.07053592 17.4375 40.25 C16.16164014 37.69828028 16.24483799 35.76405589 16.15625 32.91015625 C16.11886719 31.84732422 16.08148438 30.78449219 16.04296875 29.68945312 C16.00816406 28.57505859 15.97335937 27.46066406 15.9375 26.3125 C15.86865248 24.11575411 15.79591247 21.91912579 15.71875 19.72265625 C15.68845703 18.74562744 15.65816406 17.76859863 15.62695312 16.76196289 C15.53063063 14.12275056 15.53063063 14.12275056 14.4375 11.25 C13.4475 11.25 12.4575 11.25 11.4375 11.25 C8.12808577 18.5307113 8.20286708 26.32406504 7.875 34.1875 C7.83181641 35.15751953 7.78863281 36.12753906 7.74414062 37.12695312 C7.63887907 39.50118601 7.53674293 41.87550921 7.4375 44.25 C4.71207733 45.61271133 2.47662726 45.41923601 -0.5625 45.4375 C-1.635 45.45167969 -2.7075 45.46585938 -3.8125 45.48046875 C-6.5625 45.25 -6.5625 45.25 -8.5625 43.25 C-8.70411132 40.18408667 -8.72379614 37.21837986 -8.64453125 34.15625 C-8.62662033 33.2537854 -8.60870941 32.3513208 -8.59025574 31.42150879 C-8.54902452 29.51151776 -8.50243396 27.6016361 -8.45092773 25.69189453 C-8.37531281 22.76212023 -8.32632241 19.83269953 -8.27929688 16.90234375 C-8.23599399 15.04944062 -8.19112476 13.1965733 -8.14453125 11.34375 C-8.13186722 10.46352173 -8.11920319 9.58329346 -8.1061554 8.6763916 C-8.02661133 6.20898438 -8.02661133 6.20898438 -7.5625 2.25 C-4.42838698 0.16059132 -3.58799528 -0.02364412 0 0 Z " fill="#68CDAB" transform="translate(316.5625,912.75)"/>
<path d="M0 0 C4.08816751 1.579925 6.68260942 3.66127447 8.7265625 7.50390625 C9.04109887 10.86583593 8.96178936 14.13885533 8.7265625 17.50390625 C7.0765625 17.83390625 5.4265625 18.16390625 3.7265625 18.50390625 C3.4171875 17.41078125 3.1078125 16.31765625 2.7890625 15.19140625 C2.14318353 12.94982631 1.4642508 10.71697115 0.7265625 8.50390625 C-2.13464006 7.07330497 -4.11354335 7.11698044 -7.2734375 7.50390625 C-13.98080352 14.92991863 -12.83772948 28.0434752 -12.43896484 37.41748047 C-12.0262299 42.61988873 -11.0253554 47.75198835 -7.2734375 51.50390625 C-3.25075757 51.41248171 -1.05217709 50.52469943 1.8515625 47.87890625 C4.7265625 45.50390625 4.7265625 45.50390625 7.1015625 45.69140625 C7.6378125 45.95953125 8.1740625 46.22765625 8.7265625 46.50390625 C8.23726928 50.7444475 5.76263827 53.68863599 2.7265625 56.50390625 C-2.7769308 59.74125525 -8.03012187 60.39005428 -14.2734375 59.50390625 C-20.63118155 57.40134523 -25.06666001 52.36991494 -28.3125 46.68359375 C-32.32441404 37.12249019 -31.72414541 23.07722119 -28.18359375 13.4765625 C-22.51428967 1.18901502 -13.14428604 -2.86825486 0 0 Z " fill="#69CDAB" transform="translate(836.2734375,898.49609375)"/>
<path d="M0 0 C1.33278992 0.00303635 1.33278992 0.00303635 2.69250488 0.00613403 C3.5987561 0.00517731 4.50500732 0.00422058 5.4387207 0.00323486 C7.35876535 0.002553 9.27881229 0.00440771 11.19885254 0.00857544 C14.14861192 0.01392361 17.09821902 0.00863066 20.04797363 0.00222778 C21.90865105 0.00288856 23.76932838 0.00416972 25.63000488 0.00613403 C26.51853149 0.0041098 27.40705811 0.00208557 28.32250977 0 C34.546305 0.02399665 34.546305 0.02399665 35.66125488 1.13894653 C35.84875488 3.57644653 35.84875488 3.57644653 35.66125488 6.13894653 C33.66125488 8.13894653 33.66125488 8.13894653 30.84094238 8.33425903 C29.75039551 8.31105591 28.65984863 8.28785278 27.53625488 8.26394653 C26.44055176 8.24589966 25.34484863 8.22785278 24.21594238 8.20925903 C23.37289551 8.18605591 22.52984863 8.16285278 21.66125488 8.13894653 C21.66569611 8.72110428 21.67013733 9.30326202 21.67471313 9.90306091 C21.71890638 15.95358835 21.7491046 22.00407006 21.77111816 28.05471802 C21.78118546 30.31385154 21.79484026 32.57297201 21.81213379 34.83206177 C21.83634996 38.07631653 21.84773064 41.32039924 21.85656738 44.56472778 C21.86688995 45.57731155 21.87721252 46.58989532 21.8878479 47.63316345 C21.88799896 48.5739122 21.88815002 49.51466095 21.88830566 50.48391724 C21.89274689 51.31220535 21.89718811 52.14049347 21.90176392 52.99388123 C21.66125488 55.13894653 21.66125488 55.13894653 19.66125488 58.13894653 C16.87524265 59.06761728 15.05059399 59.30236871 12.16125488 59.32644653 C11.38781738 59.34062622 10.61437988 59.35480591 9.81750488 59.36941528 C7.66125488 59.13894653 7.66125488 59.13894653 4.66125488 57.13894653 C4.30049133 55.03820801 4.30049133 55.03820801 4.32067871 52.41384888 C4.3209053 51.43298309 4.3211319 50.45211731 4.32136536 49.44152832 C4.33684921 48.38003571 4.35233307 47.31854309 4.36828613 46.22488403 C4.37253098 45.14010773 4.37677582 44.05533142 4.38114929 42.93768311 C4.39798188 39.46285486 4.43564299 35.98860035 4.47375488 32.51394653 C4.48879577 30.16239239 4.50248521 27.81082919 4.51477051 25.45925903 C4.54790035 19.6856248 4.59814506 13.91232664 4.66125488 8.13894653 C3.87879395 8.1505481 3.09633301 8.16214966 2.29016113 8.17410278 C1.27824707 8.18312622 0.26633301 8.19214966 -0.77624512 8.20144653 C-1.78558105 8.2130481 -2.79491699 8.22464966 -3.83483887 8.23660278 C-6.33874512 8.13894653 -6.33874512 8.13894653 -7.33874512 7.13894653 C-7.46374512 4.13894653 -7.46374512 4.13894653 -7.33874512 1.13894653 C-5.41617337 -0.78362522 -2.55789404 0.00986229 0 0 Z " fill="#69CEAC" transform="translate(722.3387451171875,897.8610534667969)"/>
<path d="M0 0 C4.324855 2.20322802 7.60172751 4.75690252 10 9 C10.81656649 13.97438976 10.52819475 17.83797156 8.4375 22.4375 C5.50636391 25.51895076 3.03150784 26.7041582 -1 28 C-2.32 28 -3.64 28 -5 28 C-4.01 30.64 -3.02 33.28 -2 36 C1.63 36 5.26 36 9 36 C9.495 38.475 9.495 38.475 10 41 C3.13007283 45.31054254 -2.95471134 46.1349783 -11 45 C-16.07932896 43.25874505 -18.97264245 40.61242125 -21.4375 35.875 C-24.70887602 28.33469831 -25.21573662 21.45656692 -22.25 13.6875 C-19.63659986 7.86881467 -16.79487212 3.78123641 -10.9921875 0.73046875 C-7.30456233 -0.62166048 -3.84523894 -0.69466908 0 0 Z " fill="#69CEAB" transform="translate(295,913)"/>
<path d="M0 0 C4.0310441 1.05157672 5.89544582 2.83973778 8.875 5.75 C10.35194068 8.70388136 10.08430797 11.40161882 10.125 14.6875 C10.15078125 15.93402344 10.1765625 17.18054688 10.203125 18.46484375 C9.875 21.75 9.875 21.75 8.57421875 23.6640625 C5.65527009 25.52950555 3.22306714 25.16116614 -0.125 24.75 C-2.5625 23.4375 -2.5625 23.4375 -4.125 20.75 C-4.44896453 17.05892873 -4.35432784 13.44472631 -4.125 9.75 C-8.0876587 13.31639283 -9.89883829 16.31311271 -10.39624023 21.67260742 C-10.40856689 22.72295166 -10.42089355 23.7732959 -10.43359375 24.85546875 C-10.45873047 26.00337891 -10.48386719 27.15128906 -10.50976562 28.33398438 C-10.54509255 30.74799066 -10.57630342 33.16206048 -10.60351562 35.57617188 C-10.62994141 36.72021484 -10.65636719 37.86425781 -10.68359375 39.04296875 C-10.69704834 40.0899292 -10.71050293 41.13688965 -10.72436523 42.21557617 C-10.85657471 43.05193604 -10.98878418 43.8882959 -11.125 44.75 C-14.42304927 46.94869951 -15.75568003 47.09908812 -19.625 47.1875 C-21.06359375 47.24744141 -21.06359375 47.24744141 -22.53125 47.30859375 C-25.125 46.75 -25.125 46.75 -26.953125 44.875 C-28.6573595 40.33037467 -28.48374808 36.12388962 -28.375 31.3125 C-28.36186768 30.33563232 -28.34873535 29.35876465 -28.33520508 28.35229492 C-28.28673162 25.48384851 -28.21172353 22.61752127 -28.125 19.75 C-28.10421387 18.97591797 -28.08342773 18.20183594 -28.06201172 17.40429688 C-27.72346426 6.58080921 -27.72346426 6.58080921 -25.796875 3.90625 C-22.99579625 1.96905535 -20.41583592 2.46133018 -17.125 2.75 C-13.74468411 3.93767855 -13.19283183 4.64825225 -11.125 7.75 C-10.61710937 7.2446875 -10.10921875 6.739375 -9.5859375 6.21875 C-4.01899745 0.96455939 -4.01899745 0.96455939 0 0 Z " fill="#69CEAB" transform="translate(484.125,911.25)"/>
<path d="M0 0 C0.33 0 0.66 0 1 0 C1 23.43 1 46.86 1 71 C0.34 71 -0.32 71 -1 71 C-1.33 71.66 -1.66 72.32 -2 73 C-4.23307245 69.04385828 -6.46072951 65.08469178 -8.6875 61.125 C-9.31333984 60.01640625 -9.93917969 58.9078125 -10.58398438 57.765625 C-11.82083235 55.5639061 -13.04801334 53.35672679 -14.26513672 51.14404297 C-15.37141503 49.13916652 -16.50103405 47.14687204 -17.66064453 45.17236328 C-21.1831009 38.88167062 -21.1831009 38.88167062 -20.28125 34.5390625 C-19.6934375 33.57742188 -19.105625 32.61578125 -18.5 31.625 C-17.9328125 30.64789063 -17.365625 29.67078125 -16.78125 28.6640625 C-15.71571626 27.07043529 -14.61535451 25.49812 -13.44921875 23.9765625 C-11.76406904 21.67821815 -10.55923729 19.31086579 -9.3125 16.75 C-8.87550781 15.85796875 -8.43851562 14.9659375 -7.98828125 14.046875 C-7.66214844 13.37140625 -7.33601563 12.6959375 -7 12 C-6.34 12 -5.68 12 -5 12 C-4.9175 11.13375 -4.835 10.2675 -4.75 9.375 C-3.89052416 5.50735871 -2.38645712 3.13222497 0 0 Z " fill="#F36340" transform="translate(336,474)"/>
<path d="M0 0 C0.66 0.66 1.32 1.32 2 2 C4.89223503 2.46396693 4.89223503 2.46396693 8.125 2.625 C9.76855469 2.73714844 9.76855469 2.73714844 11.4453125 2.8515625 C12.70988281 2.92503906 12.70988281 2.92503906 14 3 C14 3.33 14 3.66 14 4 C9.38 4 4.76 4 0 4 C0.04438515 9.67479409 0.11446046 15.34850005 0.20751953 21.02270508 C0.23560372 22.94969993 0.2568802 24.87680729 0.27099609 26.80395508 C0.29260057 29.58733198 0.33933811 32.3693739 0.390625 35.15234375 C0.39185364 36.00271713 0.39308228 36.85309052 0.39434814 37.72923279 C0.54048166 43.80746923 1.90069549 48.73307699 5 54 C7.04549127 56.0458605 7.04549127 56.0458605 9 57 C8.67 57.99 8.34 58.98 8 60 C6.68 59.34 5.36 58.68 4 58 C3.67 58.99 3.34 59.98 3 61 C2.34 60.67 1.68 60.34 1 60 C1 59.01 1 58.02 1 57 C0.18335395 53.88318775 0.18335395 53.88318775 -1 51 C-1.66 50.67 -2.32 50.34 -3 50 C-2.67 52.97 -2.34 55.94 -2 59 C-6.95 59 -11.9 59 -17 59 C-17.33 59.99 -17.66 60.98 -18 62 C-19.98 61.34 -21.96 60.68 -24 60 C-23.42655063 57.13275314 -23.1385485 56.1385485 -21 54 C-20.34 54.99 -19.68 55.98 -19 57 C-16.22737745 57.38394667 -13.65676472 57.60342248 -10.875 57.6875 C-10.12089844 57.72166016 -9.36679687 57.75582031 -8.58984375 57.79101562 C-6.72708799 57.87354278 -4.86356674 57.93844711 -3 58 C-3.43828125 57.34257813 -3.8765625 56.68515625 -4.328125 56.0078125 C-5.69471331 53.95793003 -7.05760875 51.90558354 -8.41796875 49.8515625 C-10.32388097 46.98851288 -12.27381654 44.15909963 -14.23828125 41.3359375 C-14.78774414 40.53655762 -15.33720703 39.73717773 -15.90332031 38.91357422 C-17.00076176 37.31714894 -18.10806945 35.72745699 -19.22558594 34.14501953 C-19.98210449 33.03682861 -19.98210449 33.03682861 -20.75390625 31.90625 C-21.43948608 30.92108398 -21.43948608 30.92108398 -22.13891602 29.91601562 C-23 28 -23 28 -22.80175781 25.94702148 C-21.92970111 23.82928331 -20.99942396 22.58926152 -19.41796875 20.94140625 C-18.89783203 20.39033203 -18.37769531 19.83925781 -17.84179688 19.27148438 C-17.29587891 18.70751953 -16.74996094 18.14355469 -16.1875 17.5625 C-15.11693689 16.44028125 -14.04789846 15.31660583 -12.98046875 14.19140625 C-12.46919434 13.65531738 -11.95791992 13.11922852 -11.43115234 12.56689453 C-10.12651203 11.13851147 -8.9253933 9.61730226 -7.73828125 8.08984375 C-7.16464844 7.40019531 -6.59101562 6.71054687 -6 6 C-5.34 6 -4.68 6 -4 6 C-3.566875 5.071875 -3.566875 5.071875 -3.125 4.125 C-2 2 -2 2 0 0 Z " fill="#F5F5F5" transform="translate(761,498)"/>
<path d="M0 0 C3.91755659 1.94718789 6.4397018 4.93760198 8 9 C8.30078125 12.2421875 8.30078125 12.2421875 8.3125 15.875 C8.32925781 17.06867187 8.34601563 18.26234375 8.36328125 19.4921875 C7.89389058 24.02458342 6.39876279 27.30982829 3.5 30.8125 C-0.11547478 33.67475087 -4.6160425 33.46418374 -9 33 C-13.58513086 31.12426465 -15.53979281 28.21749804 -18 24 C-19.94207252 18.17378245 -19.89139928 12.15605141 -17.25 6.5625 C-13.44904504 -0.66233105 -7.53646859 -1.17791405 0 0 Z " fill="#F4F4F4" transform="translate(403,513)"/>
<path d="M0 0 C5.44736842 0.60526316 5.44736842 0.60526316 7.75 2.25 C11.382708 7.3357912 11.30615058 12.29970874 11.25 18.3125 C11.25773437 19.12912109 11.26546875 19.94574219 11.2734375 20.78710938 C11.25110942 27.79254325 10.2609963 34.15697658 6.9375 40.4375 C6.59589844 41.09621094 6.25429687 41.75492188 5.90234375 42.43359375 C5 44 5 44 4 45 C2.00041636 45.04080783 -0.00045254 45.04254356 -2 45 C-8.30731262 34.21653004 -8.30295172 22.60356634 -5.77734375 10.41796875 C-4.51995246 6.5067868 -2.45397197 3.26884052 0 0 Z " fill="#F5F8F7" transform="translate(206,905)"/>
<path d="M0 0 C-0.66 1.32 -1.32 2.64 -2 4 C-0.68 4.66 0.64 5.32 2 6 C0 8 -2 10 -4 12 C-4.26077823 14.99894961 -4.43731576 17.18003295 -3 19.875 C0.1949565 21.67216303 3.46455222 21.41957649 7 21 C9.88214887 20.11785113 9.88214887 20.11785113 12 19 C12 19.66 12 20.32 12 21 C12.66 21 13.32 21 14 21 C14 25.73899834 13.22727238 26.68550404 10 30 C4.23704795 32.85650656 -1.71570302 32.86065933 -8 32 C-12.16072006 30.1976065 -15.69508765 27.99973582 -18.203125 24.15625 C-19.91133809 19.53402634 -19.79507291 14.81358096 -19 10 C-16.45728711 5.13870393 -12.8440165 2.05205853 -7.8125 -0.0625 C-4.2409846 -0.94074149 -3.27348319 -1.0379337 0 0 Z " fill="#090909" transform="translate(667,526)"/>
<path d="M0 0 C0.66 0.33 1.32 0.66 2 1 C-0.38481222 3.76136152 -2.62461563 4.71413929 -6 6 C-9.5315923 7.72272795 -10.85964527 8.76909384 -12.9375 12.1875 C-13.618125 13.115625 -14.29875 14.04375 -15 15 C-18.0625 15.375 -18.0625 15.375 -21 15 C-21.99 15 -22.98 15 -24 15 C-24.99 15 -25.98 15 -27 15 C-27.33 15.66 -27.66 16.32 -28 17 C-28.66 17 -29.32 17 -30 17 C-31.11423145 37.75727364 -31.11423145 37.75727364 -28 58 C-28 59.32 -28 60.64 -28 62 C-26.15274948 62.69159401 -26.15274948 62.69159401 -24 63 C-20.95252093 61.3511243 -20.95252093 61.3511243 -20.125 59.0625 C-18.5691431 56.21009568 -16.94739512 55.30233738 -14 54 C-13.21238281 54.21269531 -12.42476562 54.42539062 -11.61328125 54.64453125 C-8.92151203 55.29889824 -8.92151203 55.29889824 -6.71875 53.53125 C-5.9865625 52.8609375 -5.254375 52.190625 -4.5 51.5 C-2.28125 49.46875 -2.28125 49.46875 0 48 C2.57421875 48.30859375 2.57421875 48.30859375 5 49 C8.22111592 48.61666338 8.22111592 48.61666338 11 48 C7.12106906 51.22201522 2.70178098 53.3772334 -1.75 55.6875 C-2.58748779 56.12449219 -3.42497559 56.56148437 -4.2878418 57.01171875 C-6.85542441 58.34731791 -9.4267285 59.67539795 -12 61 C-12.77746582 61.40041504 -13.55493164 61.80083008 -14.35595703 62.21337891 C-16.5047982 63.31564877 -18.65744701 64.40993222 -20.8125 65.5 C-21.4509082 65.82572998 -22.08931641 66.15145996 -22.74707031 66.48706055 C-26.48850311 68.36126151 -29.97984526 69.65994842 -34 71 C-34 52.52 -34 34.04 -34 15 C-13.85723641 3.48984938 -13.85723641 3.48984938 -2.71484375 1.39453125 C-0.9776745 1.15452891 -0.9776745 1.15452891 0 0 Z " fill="#D7575F" transform="translate(252,545)"/>
<path d="M0 0 C8.79148898 4.28523695 17.45193727 8.74585162 26 13.5 C34.54890586 18.25387702 43.21101865 22.70877412 52 27 C52.66 27.33 53.32 27.66 54 28 C54 55.39 54 82.78 54 111 C51 108 51 108 50 105 C50.33 104.34 50.66 103.68 51 103 C51.66 103 52.32 103 53 103 C52.67 79.9 52.34 56.8 52 33 C50.02 36.3 48.04 39.6 46 43 C45.01 42.505 45.01 42.505 44 42 C44.0721875 41.30132812 44.144375 40.60265625 44.21875 39.8828125 C44.35796875 38.51769531 44.35796875 38.51769531 44.5 37.125 C44.63921875 35.76761719 44.63921875 35.76761719 44.78125 34.3828125 C45.03047295 32.06686789 45.03047295 32.06686789 45 30 C43.68 30 42.36 30 41 30 C39.68 30 38.36 30 37 30 C36.4465236 27.92446352 36 26.15634036 36 24 C35.505 23.01 35.505 23.01 35 22 C32.52391899 21.25475806 32.52391899 21.25475806 30 21 C29.67 21.33 29.34 21.66 29 22 C26.30917128 21.82364548 23.67148554 21.38164079 21 21 C20.45627049 17.94152152 20 15.11227195 20 12 C19.071875 11.87625 18.14375 11.7525 17.1875 11.625 C14 11 14 11 11 9 C11 8.34 11 7.68 11 7 C9.9171875 7.0928125 9.9171875 7.0928125 8.8125 7.1875 C5.38531116 6.95902074 3.69892801 6.09916623 1 4 C0.359375 1.890625 0.359375 1.890625 0 0 Z " fill="#CC323E" transform="translate(284,442)"/>
<path d="M0 0 C1.52050781 1.98681641 1.52050781 1.98681641 2.953125 4.6015625 C3.48655518 5.5603833 4.01998535 6.5192041 4.56958008 7.50708008 C5.12411865 8.53599365 5.67865723 9.56490723 6.25 10.625 C6.82194092 11.66358154 7.39388184 12.70216309 7.9831543 13.7722168 C9.66843309 16.8412632 11.33540167 19.91970091 13 23 C13.87552904 24.59808001 14.75174431 26.19578443 15.62890625 27.79296875 C21 37.65687869 21 37.65687869 21 40 C5.00854538 48.34980266 -10.99235224 56.68128817 -27 65 C-27.33 64.34 -27.66 63.68 -28 63 C-26.6875 61.5 -26.6875 61.5 -25 60 C-24.01 60 -23.02 60 -22 60 C-21.71125 59.21625 -21.4225 58.4325 -21.125 57.625 C-20 55 -20 55 -18 53 C-17.0925 53.020625 -16.185 53.04125 -15.25 53.0625 C-11.44562111 52.98933887 -9.26878679 51.86787817 -6 50 C-6.66 49.34 -7.32 48.68 -8 48 C-3.75703716 46.47688513 0.43924835 45.42948103 4.8515625 44.5625 C7.10059548 43.97366227 8.96181264 43.10670807 11 42 C10.979375 40.88625 10.95875 39.7725 10.9375 38.625 C11 35 11 35 12 33 C11.56867761 30.3445116 11.56867761 30.3445116 10.75 27.4375 C10.37101562 25.95056641 10.37101562 25.95056641 9.984375 24.43359375 C9.49710937 23.22896484 9.49710937 23.22896484 9 22 C6.05270463 20.84188612 6.05270463 20.84188612 3 21 C3 17.7 3 14.4 3 11 C1.68 10.67 0.36 10.34 -1 10 C-1 8.35 -1 6.7 -1 5 C-3.31 5.33 -5.62 5.66 -8 6 C-8 4.02 -8 2.04 -8 0 C-4.93843922 -0.98407311 -3.01136817 -1.20066256 0 0 Z " fill="#881A26" transform="translate(317,515)"/>
<path d="M0 0 C3.65042642 0.67048649 4.7856399 1.69534284 7.0625 4.5625 C9.50865974 9.45481949 8.79483707 16.24397995 7.19140625 21.3203125 C6.00787177 23.73394675 4.91463411 25.61361261 3.0625 27.5625 C-0.50894694 28.65209398 -2.5477474 29.2573763 -5.9375 27.5625 C-6.02491124 24.00015572 -6.07802896 20.43808892 -6.125 16.875 C-6.15013672 15.86759766 -6.17527344 14.86019531 -6.20117188 13.82226562 C-6.32603225 1.21136788 -6.32603225 1.21136788 0 0 Z " fill="#F0F6F4" transform="translate(780.9375,906.4375)"/>
<path d="M0 0 C2.86977519 0.2265612 4.50950471 0.54337224 6.640625 2.52734375 C8.58614209 6.06617225 8.43580272 9.44309088 8.375 13.375 C8.38660156 14.1175 8.39820313 14.86 8.41015625 15.625 C8.38467446 20.4325635 7.73988598 23.88697768 5 28 C1.8125 28.875 1.8125 28.875 -1 29 C-4.76402798 24.25405168 -5.19936446 20.70750142 -5.3125 14.6875 C-5.34988281 13.39199219 -5.38726563 12.09648438 -5.42578125 10.76171875 C-4.90744645 6.18230212 -3.26223671 3.26223671 0 0 Z " fill="#F6F8F7" transform="translate(588,922)"/>
<path d="M0 0 C3.125 2.125 3.125 2.125 5 5 C5.3125 8.3125 5.3125 8.3125 5 11 C2.8001259 12.09993705 1.2991584 12.24995554 -1.140625 12.46484375 C-2.37619141 12.58182617 -2.37619141 12.58182617 -3.63671875 12.70117188 C-5.36305938 12.85729087 -7.08962141 13.01098285 -8.81640625 13.16210938 C-13.48154122 13.60830813 -17.59405467 14.27937756 -22 16 C-22.66 15.34 -23.32 14.68 -24 14 C-22.68 13.67 -21.36 13.34 -20 13 C-20.33 12.01 -20.66 11.02 -21 10 C-20.34 9.67 -19.68 9.34 -19 9 C-21.97 8.67 -24.94 8.34 -28 8 C-28 7.67 -28 7.34 -28 7 C-23.38 7 -18.76 7 -14 7 C-13.67 5.35 -13.34 3.7 -13 2 C-8.75711366 -0.82859089 -4.98033337 -0.76925531 0 0 Z " fill="#ECECEC" transform="translate(465,512)"/>
<path d="M0 0 C2.66838757 0.26683876 3.76395175 0.74614763 5.60546875 2.7265625 C8.14106259 6.86021969 7.59344476 11.31557432 7 16 C5.95800283 19.18231567 4.60522239 22.0667623 3 25 C2.67 25.66 2.34 26.32 2 27 C0.35 27 -1.3 27 -3 27 C-6.33823879 21.60540612 -5.57769158 15.0963453 -5 9 C-3.91019889 5.6418346 -2.54674471 2.54674471 0 0 Z " fill="#F2F7F5" transform="translate(430,921)"/>
<path d="M0 0 C-0.16344824 6.68651875 -1.09696866 10.33044634 -6 15 C-10.21349906 16.40449969 -14.15894163 16.67828466 -18.375 15.125 C-20 14 -20 14 -21 12 C-21.375 9.125 -21.375 9.125 -21 6 C-16.97472424 2.08065255 -14.04537732 0.89622679 -8.5625 0.4375 C-7.11037109 0.31181641 -7.11037109 0.31181641 -5.62890625 0.18359375 C-3.75616766 0.05280814 -1.87729984 0 0 0 Z " fill="#F5F5F5" transform="translate(470,532)"/>
<path d="M0 0 C0.29321709 4.98469052 0.18338925 8.04820644 -3 12 C-5.93580687 14.43252569 -8.32544524 15.22911405 -12.0625 15.4375 C-16 15 -16 15 -18.5 13.375 C-20.46942769 10.25673949 -20.67927401 8.62279473 -20 5 C-17.10520842 1.42975705 -14.39467361 0.72882265 -10 0.25 C-6.66246905 0.02054475 -3.34478427 -0.02389132 0 0 Z " fill="#F2F2F2" transform="translate(682,533)"/>
<path d="M0 0 C3.36281135 2.35396795 4.74645518 3.6371966 5.5 7.6875 C5 10 5 10 2 12 C-0.51121155 12.3542551 -2.91520782 12.60006509 -5.4375 12.75 C-6.44006836 12.83314453 -6.44006836 12.83314453 -7.46289062 12.91796875 C-11.28199423 13.16778128 -13.72199663 12.97433766 -17 11 C-19.66709069 10.83249586 -19.66709069 10.83249586 -22 11 C-22.33 9.68 -22.66 8.36 -23 7 C-20.36 7 -17.72 7 -15 7 C-14.731875 6.21625 -14.46375 5.4325 -14.1875 4.625 C-11.48789299 -1.34255234 -5.70361658 -0.89005482 0 0 Z " fill="#ECECEC" transform="translate(678,512)"/>
<path d="M0 0 C2.70813058 4.06219588 2.52980034 7.23179698 2 12 C0.96637171 15.54101046 -0.3582828 18.3582828 -3 21 C-5.625 21.125 -5.625 21.125 -8 21 C-10.7913233 16.3477945 -11.7837561 12.36254174 -11 7 C-10.22760038 4.4253346 -9.27408508 2.40116034 -8 0 C-5.06791253 -1.46604374 -3.11702298 -0.77925574 0 0 Z " fill="#F3F7F5" transform="translate(255,924)"/>
<path d="M0 0 C0.66 0.33 1.32 0.66 2 1 C-0.38481222 3.76136152 -2.62461563 4.71413929 -6 6 C-9.5315923 7.72272795 -10.85964527 8.76909384 -12.9375 12.1875 C-13.618125 13.115625 -14.29875 14.04375 -15 15 C-18.0625 15.375 -18.0625 15.375 -21 15 C-21.99 15 -22.98 15 -24 15 C-24.99 15 -25.98 15 -27 15 C-27.33 15.66 -27.66 16.32 -28 17 C-28.66 17 -29.32 17 -30 17 C-31.11423145 37.75727364 -31.11423145 37.75727364 -28 58 C-28 59.32 -28 60.64 -28 62 C-27.01 62.33 -26.02 62.66 -25 63 C-25.33 63.99 -25.66 64.98 -26 66 C-28.97 66.495 -28.97 66.495 -32 67 C-32 50.17 -32 33.34 -32 16 C-26.91952862 13.45976431 -21.99956406 11.09415867 -16.78515625 8.9296875 C-14.81948086 8.12789986 -14.81948086 8.12789986 -14 6 C-13.34 6 -12.68 6 -12 6 C-11.67 5.01 -11.34 4.02 -11 3 C-10.28972656 2.86722656 -9.57945312 2.73445312 -8.84765625 2.59765625 C-7.92855469 2.42105469 -7.00945312 2.24445312 -6.0625 2.0625 C-5.14597656 1.88847656 -4.22945312 1.71445312 -3.28515625 1.53515625 C-1.04710156 1.22285012 -1.04710156 1.22285012 0 0 Z " fill="#F23E44" transform="translate(252,545)"/>
<path d="M0 0 C0.598125 0.226875 1.19625 0.45375 1.8125 0.6875 C0.8225 1.1825 0.8225 1.1825 -0.1875 1.6875 C-0.5175 20.1675 -0.8475 38.6475 -1.1875 57.6875 C-1.8475 57.3575 -2.5075 57.0275 -3.1875 56.6875 C-3.1875 54.3775 -3.1875 52.0675 -3.1875 49.6875 C-3.8475 49.6875 -4.5075 49.6875 -5.1875 49.6875 C-5.26346686 43.04898394 -5.31606456 36.41057965 -5.35229492 29.77172852 C-5.36739602 27.51257132 -5.38787842 25.25344351 -5.41381836 22.99438477 C-5.45014308 19.75008907 -5.46721308 16.50618044 -5.48046875 13.26171875 C-5.49595261 12.24913498 -5.51143646 11.23655121 -5.52738953 10.19328308 C-5.52772942 8.78215996 -5.52772942 8.78215996 -5.52807617 7.3425293 C-5.53473801 6.51424118 -5.54139984 5.68595306 -5.54826355 4.83256531 C-4.98020928 1.45496933 -3.5325845 -0.50465493 0 0 Z " fill="#FDEEEA" transform="translate(219.1875,558.3125)"/>
<path d="M0 0 C-0.33 1.32 -0.66 2.64 -1 4 C1.31 4.33 3.62 4.66 6 5 C6 5.99 6 6.98 6 8 C7.32 8 8.64 8 10 8 C10 9.32 10 10.64 10 12 C8.68 12 7.36 12 6 12 C6 12.99 6 13.98 6 15 C6.66 15.33 7.32 15.66 8 16 C7.35933594 16.12117187 6.71867187 16.24234375 6.05859375 16.3671875 C-2.78431274 17.49157245 -2.78431274 17.49157245 -10.36328125 21.3671875 C-14.17069066 25.16551001 -19.96103707 28.48394969 -25.27734375 29.38671875 C-27.1875 29.375 -27.1875 29.375 -30 29 C-27.00685755 26.61006851 -23.97000778 24.87457126 -20.53515625 23.1875 C-18.96411133 22.41019531 -18.96411133 22.41019531 -17.36132812 21.6171875 C-16.27271484 21.08351563 -15.18410156 20.54984375 -14.0625 20 C-11.9066356 18.93936083 -9.75165527 17.87692238 -7.59765625 16.8125 C-6.64383057 16.34457031 -5.69000488 15.87664063 -4.70727539 15.39453125 C-1.95837017 14.02174411 -1.95837017 14.02174411 0.72485352 12.32421875 C3 11 3 11 5 11 C1.93320535 7.57590889 -1.11716523 5.72657315 -5.25 3.75 C-6.32765625 3.22921875 -7.4053125 2.7084375 -8.515625 2.171875 C-9.33546875 1.78515625 -10.1553125 1.3984375 -11 1 C-2.34560907 -1.17280453 -2.34560907 -1.17280453 0 0 Z " fill="#A03F49" transform="translate(303,503)"/>
<path d="M0 0 C1.32 0 2.64 0 4 0 C4.33 1.32 4.66 2.64 5 4 C4.01 4.495 4.01 4.495 3 5 C2.56320918 6.94840327 2.56320918 6.94840327 2.4375 9.3125 C2.3653125 10.20324219 2.293125 11.09398437 2.21875 12.01171875 C2.1465625 12.99785156 2.074375 13.98398437 2 15 C1.81359126 17.20842572 1.62610407 19.41676069 1.4375 21.625 C1.29083261 23.41659858 1.14469531 25.20824107 1 27 C1.66 27 2.32 27 3 27 C3 35.25 3 43.5 3 52 C1.68 51.34 0.36 50.68 -1 50 C-1.02529479 43.20069165 -1.04284349 36.40139537 -1.05493164 29.60205078 C-1.05996943 27.28759304 -1.06679981 24.9731385 -1.07543945 22.65869141 C-1.08752924 19.3375571 -1.09323375 16.01646475 -1.09765625 12.6953125 C-1.10281754 11.65569366 -1.10797882 10.61607483 -1.11329651 9.54495239 C-1.11337204 8.58410736 -1.11344757 7.62326233 -1.11352539 6.63330078 C-1.115746 5.78502716 -1.11796661 4.93675354 -1.12025452 4.06277466 C-1 2 -1 2 0 0 Z " fill="#F83D3E" transform="translate(221,413)"/>
<path d="M0 0 C4.17437899 1.39145966 7.19196096 2.50446237 10.875 4.625 C12.04675781 5.29402344 12.04675781 5.29402344 13.2421875 5.9765625 C14.11230469 6.48316406 14.11230469 6.48316406 15 7 C15 7.33 15 7.66 15 8 C13.02 8 11.04 8 9 8 C9 7.34 9 6.68 9 6 C6.03 5.505 6.03 5.505 3 5 C2.92412252 12.08407758 2.87147329 19.16805094 2.83520508 26.25244141 C2.82009055 28.66393957 2.79959847 31.07541014 2.77368164 33.48681641 C2.73741575 36.94700928 2.72030044 40.40683971 2.70703125 43.8671875 C2.69154739 44.95055389 2.67606354 46.03392029 2.66011047 47.15011597 C2.65988388 48.1510025 2.65965729 49.15188904 2.65942383 50.18310547 C2.65276199 51.06690887 2.64610016 51.95071228 2.63923645 52.86129761 C2.75828842 53.5670694 2.87734039 54.27284119 3 55 C3.99 55.66 4.98 56.32 6 57 C6 57.66 6 58.32 6 59 C4.02 58.34 2.04 57.68 0 57 C0 38.19 0 19.38 0 0 Z " fill="#E2444E" transform="translate(218,408)"/>
<path d="M0 0 C0.80050781 0.22816406 1.60101563 0.45632813 2.42578125 0.69140625 C5.64689717 0.30806963 5.64689717 0.30806963 8.42578125 -0.30859375 C5.7754146 1.76130527 3.14022508 3.47656122 0.16015625 5.03125 C-0.64808594 5.45470703 -1.45632812 5.87816406 -2.2890625 6.31445312 C-3.12566406 6.74822266 -3.96226562 7.18199219 -4.82421875 7.62890625 C-5.64535156 8.05880859 -6.46648437 8.48871094 -7.3125 8.93164062 C-9.72877528 10.19338818 -12.15091 11.44323215 -14.57421875 12.69140625 C-15.32896484 13.0869873 -16.08371094 13.48256836 -16.86132812 13.89013672 C-23.31816605 17.22341284 -23.31816605 17.22341284 -27.57421875 16.69140625 C-26.95546875 16.11390625 -26.33671875 15.53640625 -25.69921875 14.94140625 C-23.52839633 12.8864649 -23.52839633 12.8864649 -22.63671875 10.62890625 C-21.11502545 7.85405376 -19.43969656 6.95754761 -16.57421875 5.69140625 C-15.39279297 6.01044922 -15.39279297 6.01044922 -14.1875 6.3359375 C-11.49573078 6.99030449 -11.49573078 6.99030449 -9.29296875 5.22265625 C-8.56078125 4.55234375 -7.82859375 3.88203125 -7.07421875 3.19140625 C-3.17276553 -0.3803467 -3.17276553 -0.3803467 0 0 Z " fill="#D4464A" transform="translate(254.57421875,593.30859375)"/>
<path d="M0 0 C-3.44715563 2.80555948 -7.2297997 4.78730011 -11.171875 6.79296875 C-11.8542926 7.14386063 -12.53671021 7.4947525 -13.23980713 7.85627747 C-15.4080981 8.97018192 -17.57899066 10.0789046 -19.75 11.1875 C-21.22543544 11.94432035 -22.70069783 12.70147815 -24.17578125 13.45898438 C-27.78186199 15.30990337 -31.39028398 17.15618138 -35 19 C-35.33 18.34 -35.66 17.68 -36 17 C-34.6875 15.5 -34.6875 15.5 -33 14 C-32.01 14 -31.02 14 -30 14 C-29.71125 13.21625 -29.4225 12.4325 -29.125 11.625 C-28 9 -28 9 -26 7 C-24.63875 7.0309375 -24.63875 7.0309375 -23.25 7.0625 C-19.44562111 6.98933887 -17.26878679 5.86787817 -14 4 C-14.66 3.34 -15.32 2.68 -16 2 C-5.91008772 -1.51973684 -5.91008772 -1.51973684 0 0 Z " fill="#871F38" transform="translate(325,561)"/>
<path d="M0 0 C0.97066406 0.22945313 1.94132812 0.45890625 2.94140625 0.6953125 C5.4375 1.875 5.4375 1.875 6.95703125 4.16015625 C7.60465345 7.81948492 6.5963601 9.13670985 4.5625 12.1875 C3.98757813 13.07050781 3.41265625 13.95351563 2.8203125 14.86328125 C2.36398437 15.52714844 1.90765625 16.19101562 1.4375 16.875 C0.7775 16.545 0.1175 16.215 -0.5625 15.875 C-0.4903125 15.17632812 -0.418125 14.47765625 -0.34375 13.7578125 C-0.2509375 12.84773438 -0.158125 11.93765625 -0.0625 11 C0.0303125 10.09507812 0.123125 9.19015625 0.21875 8.2578125 C0.46797295 5.94186789 0.46797295 5.94186789 0.4375 3.875 C-0.8825 3.875 -2.2025 3.875 -3.5625 3.875 C-4.8825 3.875 -6.2025 3.875 -7.5625 3.875 C-7.8925 2.555 -8.2225 1.235 -8.5625 -0.125 C-5.03868533 -1.29960489 -3.55675446 -0.89984467 0 0 Z " fill="#C22E32" transform="translate(328.5625,468.125)"/>
<path d="M0 0 C0.33 0 0.66 0 1 0 C1 26.73 1 53.46 1 81 C-2 78 -2 78 -3 75 C-2.505 74.01 -2.505 74.01 -2 73 C-1.34 73 -0.68 73 0 73 C-0.01474869 72.10019913 -0.02949738 71.20039825 -0.04469299 70.27333069 C-0.18249037 61.81193043 -0.31546579 53.35047131 -0.4429636 44.88890934 C-0.50869018 40.53827786 -0.57631063 36.18769267 -0.64819336 31.8371582 C-0.71743764 27.64215862 -0.78179327 23.44711043 -0.84269524 19.25198174 C-0.86685387 17.6479054 -0.89280286 16.04385505 -0.92053413 14.4398365 C-0.95894257 12.20089917 -0.99110248 9.96195574 -1.02172852 7.72290039 C-1.04171402 6.44604874 -1.06169952 5.16919708 -1.08229065 3.85365295 C-1 1 -1 1 0 0 Z " fill="#C95642" transform="translate(337,472)"/>
<path d="M0 0 C3.69287153 0.90270193 5.55368289 1.40491051 7.875 4.5 C9 7 9 7 9 9 C7.2335343 10.0076952 5.46166177 11.00591714 3.6875 12 C2.20830078 12.8353125 2.20830078 12.8353125 0.69921875 13.6875 C-2 15 -2 15 -5 15 C-4.34 13.68 -3.68 12.36 -3 11 C-2.34 11 -1.68 11 -1 11 C-1.020625 9.9275 -1.04125 8.855 -1.0625 7.75 C-1.0142016 4.85209576 -0.86844115 2.71387859 0 0 Z " fill="#662339" transform="translate(329,546)"/>
<path d="M0 0 C1.9375 0.375 1.9375 0.375 4 1 C5.42662219 3.85324437 5.31033868 5.83454549 5 9 C3.25 11.875 3.25 11.875 1 14 C-0.32 14 -1.64 14 -3 14 C-3.32374517 8.49633208 -3.53286034 4.56327794 0 0 Z " fill="#EEF5F3" transform="translate(292,921)"/>
<path d="M0 0 C0.66 0.33 1.32 0.66 2 1 C-0.38481222 3.76136152 -2.62461563 4.71413929 -6 6 C-9.5315923 7.72272795 -10.85964527 8.76909384 -12.9375 12.1875 C-13.618125 13.115625 -14.29875 14.04375 -15 15 C-18.25 15.375 -18.25 15.375 -21 15 C-20.8125 12.625 -20.8125 12.625 -20 10 C-17.5 8.8125 -17.5 8.8125 -15 8 C-14.67 7.34 -14.34 6.68 -14 6 C-13.34 6 -12.68 6 -12 6 C-11.67 5.01 -11.34 4.02 -11 3 C-10.28972656 2.86722656 -9.57945312 2.73445312 -8.84765625 2.59765625 C-7.92855469 2.42105469 -7.00945312 2.24445312 -6.0625 2.0625 C-5.14597656 1.88847656 -4.22945312 1.71445312 -3.28515625 1.53515625 C-1.04710156 1.22285012 -1.04710156 1.22285012 0 0 Z " fill="#EB393C" transform="translate(252,545)"/>
<path d="M0 0 C2.5 2.5 2.5 2.5 4 5 C2.35 6.32 0.7 7.64 -1 9 C-1 8.01 -1 7.02 -1 6 C-1.66 6 -2.32 6 -3 6 C-3 5.34 -3 4.68 -3 4 C-3.7425 4.33 -4.485 4.66 -5.25 5 C-8 6 -8 6 -12 6 C-12 8.97 -12 11.94 -12 15 C-14.29207227 10.41585546 -14.30210403 8.86118839 -13 4 C-9.11214534 -0.59473733 -5.66379671 -0.80911382 0 0 Z " fill="#F0F0F0" transform="translate(619,513)"/>
<path d="M0 0 C0.66 0.33 1.32 0.66 2 1 C1.125 2.60416667 0.25 4.20833333 -0.625 5.8125 C-1.44097656 7.31103516 -1.44097656 7.31103516 -2.2734375 8.83984375 C-3.39778012 10.89774687 -4.52771303 12.95260874 -5.6640625 15.00390625 C-6.18742187 15.95136719 -6.71078125 16.89882813 -7.25 17.875 C-7.72953125 18.73867188 -8.2090625 19.60234375 -8.703125 20.4921875 C-9.97320931 22.94819391 -11.01856429 25.41678713 -12 28 C-12.66 27.67 -13.32 27.34 -14 27 C-14.73075648 24.6859378 -15.40138258 22.35171131 -16 20 C-15.01 20.33 -14.02 20.66 -13 21 C-12.3503125 19.63875 -12.3503125 19.63875 -11.6875 18.25 C-10 15 -10 15 -8.375 13 C-6.76386337 10.99652673 -6.76386337 10.99652673 -6.6875 8.0625 C-5.70423167 3.68248655 -3.57960132 2.58949882 0 0 Z " fill="#C7322F" transform="translate(327,487)"/>
<path d="M0 0 C0.33 0.99 0.66 1.98 1 3 C0.44570313 3.26554688 -0.10859375 3.53109375 -0.6796875 3.8046875 C-1.40414063 4.15789063 -2.12859375 4.51109375 -2.875 4.875 C-3.59429687 5.22304688 -4.31359375 5.57109375 -5.0546875 5.9296875 C-7.15135019 6.96557543 -7.15135019 6.96557543 -9 9 C-11.32275177 9.40047444 -13.65739357 9.7397104 -16 10 C-16.33 11.32 -16.66 12.64 -17 14 C-17.60328125 14.13277344 -18.2065625 14.26554688 -18.828125 14.40234375 C-19.62734375 14.57894531 -20.4265625 14.75554688 -21.25 14.9375 C-22.03890625 15.11152344 -22.8278125 15.28554688 -23.640625 15.46484375 C-25.76878703 15.947556 -27.88532842 16.46163178 -30 17 C-26.96472777 13.63174432 -23.98132406 11.75555101 -19.921875 9.765625 C-18.18164062 8.90517578 -18.18164062 8.90517578 -16.40625 8.02734375 C-15.18758589 7.43471919 -13.96883478 6.84227348 -12.75 6.25 C-11.51525898 5.64267067 -10.28087986 5.03460496 -9.046875 4.42578125 C-6.03472981 2.94324104 -3.01910232 1.46830659 0 0 Z " fill="#BD474C" transform="translate(272,532)"/>
<path d="M0 0 C0.33 0.66 0.66 1.32 1 2 C3.64 1.34 6.28 0.68 9 0 C9 0.99 9 1.98 9 3 C10.32 3.66 11.64 4.32 13 5 C11.906875 5.598125 10.81375 6.19625 9.6875 6.8125 C7.08925871 8.29044697 4.95650507 9.69822933 3 12 C3 9.69 3 7.38 3 5 C-1.95 5 -6.9 5 -12 5 C-12 4.67 -12 4.34 -12 4 C-6.06 3.505 -6.06 3.505 0 3 C0 2.01 0 1.02 0 0 Z " fill="#F1F1F1" transform="translate(507,497)"/>
<path d="M0 0 C0.66 0 1.32 0 2 0 C2.433125 1.11375 2.86625 2.2275 3.3125 3.375 C4.69911119 7.17512334 4.69911119 7.17512334 8 9 C9.16796875 11.3125 9.16796875 11.3125 10.1875 14 C10.53167969 14.886875 10.87585938 15.77375 11.23046875 16.6875 C12 19 12 19 12 21 C12.66 21.33 13.32 21.66 14 22 C13.67 22.66 13.34 23.32 13 24 C13.66 24 14.32 24 15 24 C15.12375 24.61875 15.2475 25.2375 15.375 25.875 C15.87197356 28.19120832 15.87197356 28.19120832 18 30 C17.34 30.66 16.68 31.32 16 32 C15.58637207 31.25838623 15.17274414 30.51677246 14.74658203 29.75268555 C13.20817918 26.99578642 11.668672 24.23950783 10.12841797 21.48364258 C9.46261118 20.29183222 8.79724231 19.0997771 8.13232422 17.9074707 C7.17531258 16.19157316 6.21658348 14.47663386 5.2578125 12.76171875 C4.6817627 11.73006592 4.10571289 10.69841309 3.51220703 9.63549805 C2.41061848 7.7156323 1.22780377 5.84170566 0 4 C0 2.68 0 1.36 0 0 Z " fill="#E66A57" transform="translate(318,515)"/>
<path d="M0 0 C8 4 16 8 24 12 C23.67 12.99 23.34 13.98 23 15 C22.34 15 21.68 15 21 15 C20.67 14.34 20.34 13.68 20 13 C16.69555033 11.97045037 13.36028516 11.13666883 10.00390625 10.29296875 C7 9 7 9 5.75390625 6.4453125 C5.50511719 5.63835937 5.25632812 4.83140625 5 4 C2.47627099 2.63921965 2.47627099 2.63921965 0 2 C0 1.34 0 0.68 0 0 Z " fill="#B0404C" transform="translate(314,458)"/>
<path d="M0 0 C-0.33 1.32 -0.66 2.64 -1 4 C1.31 4.33 3.62 4.66 6 5 C6 5.99 6 6.98 6 8 C7.32 8 8.64 8 10 8 C10 9.32 10 10.64 10 12 C7.625 12.625 7.625 12.625 5 13 C4.34 12.34 3.68 11.68 3 11 C3.66 11 4.32 11 5 11 C1.93320535 7.57590889 -1.11716523 5.72657315 -5.25 3.75 C-6.32765625 3.22921875 -7.4053125 2.7084375 -8.515625 2.171875 C-9.74539063 1.59179688 -9.74539063 1.59179688 -11 1 C-2.34560907 -1.17280453 -2.34560907 -1.17280453 0 0 Z " fill="#B5444D" transform="translate(303,503)"/>
<path d="M0 0 C0 1.32 0 2.64 0 4 C-6.625 6.875 -6.625 6.875 -10 8 C-10 8.66 -10 9.32 -10 10 C-13.63 10.33 -17.26 10.66 -21 11 C-18.54025024 8.54025024 -17.23122631 7.42711338 -14.27734375 5.95703125 C-13.22256836 5.43012695 -13.22256836 5.43012695 -12.14648438 4.89257812 C-11.41751953 4.53615234 -10.68855469 4.17972656 -9.9375 3.8125 C-9.20466797 3.44447266 -8.47183594 3.07644531 -7.71679688 2.69726562 C-2.26721939 0 -2.26721939 0 0 0 Z " fill="#F9E6E2" transform="translate(261,595)"/>
<path d="M0 0 C0.66 0.66 1.32 1.32 2 2 C4.89223503 2.46396693 4.89223503 2.46396693 8.125 2.625 C9.76855469 2.73714844 9.76855469 2.73714844 11.4453125 2.8515625 C12.70988281 2.92503906 12.70988281 2.92503906 14 3 C14 3.33 14 3.66 14 4 C12.51886719 4.07347656 12.51886719 4.07347656 11.0078125 4.1484375 C9.72648438 4.22320312 8.44515625 4.29796875 7.125 4.375 C5.21074219 4.47941406 5.21074219 4.47941406 3.2578125 4.5859375 C-0.08061699 4.67241106 -0.08061699 4.67241106 -2 7 C-2.64767793 9.57061311 -2.64767793 9.57061311 -3 12 C-8.625 14 -8.625 14 -12 14 C-11.04956626 12.66102417 -10.08940853 11.32894573 -9.125 10 C-8.32449219 8.88625 -8.32449219 8.88625 -7.5078125 7.75 C-7.01023437 7.1725 -6.51265625 6.595 -6 6 C-5.34 6 -4.68 6 -4 6 C-3.566875 5.071875 -3.566875 5.071875 -3.125 4.125 C-2 2 -2 2 0 0 Z " fill="#EAEAEA" transform="translate(761,498)"/>
<path d="M0 0 C9.76631564 4.82674136 19.44559123 9.76470752 29 15 C27.14453125 15.578125 27.14453125 15.578125 25 16 C22.6875 14.75 22.6875 14.75 20 13 C17.69243488 11.93112784 15.34969447 10.97534488 13 10 C12.34 9.67 11.68 9.34 11 9 C11 8.34 11 7.68 11 7 C9.9171875 7.0928125 9.9171875 7.0928125 8.8125 7.1875 C5.38531116 6.95902074 3.69892801 6.09916623 1 4 C0.359375 1.890625 0.359375 1.890625 0 0 Z " fill="#B0444B" transform="translate(284,442)"/>
<path d="M0 0 C0.02694851 1.95825873 0.04637218 3.91662226 0.0625 5.875 C0.07410156 6.96554687 0.08570313 8.05609375 0.09765625 9.1796875 C0 12 0 12 -1 14 C-4.875 13.125 -4.875 13.125 -6 12 C-6.375 8.75 -6.375 8.75 -6 5 C-1.85106383 0 -1.85106383 0 0 0 Z " fill="#EFF6F4" transform="translate(672,958)"/>
<path d="M0 0 C0.78375 0.268125 1.5675 0.53625 2.375 0.8125 C5.59611592 0.42916338 5.59611592 0.42916338 8.375 -0.1875 C4.95044124 2.60893618 1.19370229 4.55254289 -2.75 6.5 C-3.69939453 6.98049805 -3.69939453 6.98049805 -4.66796875 7.47070312 C-9.37153518 9.8125 -9.37153518 9.8125 -11.625 9.8125 C-11.07879735 6.12563211 -9.81378444 4.72618445 -6.875 2.5 C-3.05582603 -0.21827329 -3.05582603 -0.21827329 0 0 Z " fill="#C74349" transform="translate(254.625,593.1875)"/>
<path d="M0 0 C1.98 0.99 1.98 0.99 4 2 C3.01 2.495 3.01 2.495 2 3 C2 20.82 2 38.64 2 57 C1.34 57 0.68 57 0 57 C0 38.19 0 19.38 0 0 Z " fill="#CD626A" transform="translate(218,408)"/>
<path d="M0 0 C0.33 0.66 0.66 1.32 1 2 C3.02463255 2.65213292 3.02463255 2.65213292 5 3 C4.0925 3.5775 3.185 4.155 2.25 4.75 C-0.52022946 6.66785116 -2.71945499 8.54402845 -5 11 C-5 8.36 -5 5.72 -5 3 C-9.62 3 -14.24 3 -19 3 C-19 2.67 -19 2.34 -19 2 C-18.04738281 1.93941406 -17.09476563 1.87882812 -16.11328125 1.81640625 C-14.23189453 1.69072266 -14.23189453 1.69072266 -12.3125 1.5625 C-11.07113281 1.48128906 -9.82976563 1.40007812 -8.55078125 1.31640625 C-5.61819663 1.05508683 -2.86558383 0.65201621 0 0 Z " fill="#E5E5E5" transform="translate(576,499)"/>
<path d="M0 0 C0.52980469 0.27972656 1.05960937 0.55945313 1.60546875 0.84765625 C4.45298669 2.21799523 7.35578907 3.32221891 10.3125 4.4375 C14.9254499 6.19333003 19.48576278 8.00533704 24 10 C24 10.66 24 11.32 24 12 C21.57338685 12.87530062 20.39430918 13.14798868 17.94116211 12.22729492 C17.22710205 11.81584229 16.51304199 11.40438965 15.77734375 10.98046875 C14.99166016 10.53509766 14.20597656 10.08972656 13.39648438 9.63085938 C12.58501953 9.15455078 11.77355469 8.67824219 10.9375 8.1875 C10.12216797 7.72279297 9.30683594 7.25808594 8.46679688 6.77929688 C5.24333994 4.93315925 2.09199375 3.06132917 -1 1 C-0.67 0.67 -0.34 0.34 0 0 Z " fill="#C75557" transform="translate(255,482)"/>
<path d="M0 0 C3.12830756 1.45131349 6.25203426 2.91223157 9.375 4.375 C10.70917969 4.99375 10.70917969 4.99375 12.0703125 5.625 C12.92109375 6.02460938 13.771875 6.42421875 14.6484375 6.8359375 C15.43395996 7.20251465 16.21948242 7.5690918 17.02880859 7.94677734 C19 9 19 9 21 11 C15.555 10.505 15.555 10.505 10 10 C10 9.01 10 8.02 10 7 C9.0925 6.9175 8.185 6.835 7.25 6.75 C3.57991912 5.90305826 2.30133672 4.92092737 0 2 C0 1.34 0 0.68 0 0 Z " fill="#CE514F" transform="translate(245,422)"/>
<path d="M0 0 C-3.70249493 3.20743441 -7.34313573 5.26361588 -11.8125 7.25 C-12.97394531 7.77078125 -14.13539063 8.2915625 -15.33203125 8.828125 C-16.65267578 9.40820312 -16.65267578 9.40820312 -18 10 C-17.68359375 8.109375 -17.68359375 8.109375 -17 6 C-11.96428571 3 -11.96428571 3 -9 3 C-9 2.01 -9 1.02 -9 0 C-3.375 -1.125 -3.375 -1.125 0 0 Z " fill="#FCE9EB" transform="translate(277,529)"/>
<path d="M0 0 C0 0.66 0 1.32 0 2 C0.66 2.33 1.32 2.66 2 3 C1.28972656 3.13277344 0.57945312 3.26554688 -0.15234375 3.40234375 C-1.07144531 3.57894531 -1.99054688 3.75554688 -2.9375 3.9375 C-3.85402344 4.11152344 -4.77054687 4.28554688 -5.71484375 4.46484375 C-7.95289844 4.77714988 -7.95289844 4.77714988 -9 6 C-10.99958364 6.04080783 -13.00045254 6.04254356 -15 6 C-11.11782941 1.43274048 -5.9921963 -2.17898047 0 0 Z " fill="#952D42" transform="translate(309,516)"/>
<path d="M0 0 C0 0.66 0 1.32 0 2 C-0.66 2 -1.32 2 -2 2 C-2.33 2.99 -2.66 3.98 -3 5 C-5.765625 6.60546875 -5.765625 6.60546875 -9.25 8.1875 C-10.38953125 8.71730469 -11.5290625 9.24710938 -12.703125 9.79296875 C-15.77874893 10.91899694 -17.77500902 11.27279059 -21 11 C-17.39750049 8.0718145 -13.4592011 5.97587472 -9.375 3.8125 C-8.694375 3.44447266 -8.01375 3.07644531 -7.3125 2.69726562 C-2.24824617 0 -2.24824617 0 0 0 Z " fill="#D05459" transform="translate(240,549)"/>
<path d="M0 0 C0.99 0.66 1.98 1.32 3 2 C2.67 2.66 2.34 3.32 2 4 C3.25541557 6.51083114 4.50063488 6.87125446 7 8 C7 8.66 7 9.32 7 10 C0.83643195 8.3341708 -4.48259656 5.12194714 -10 2 C-6.34811918 0.92825237 -3.73567172 1.23588533 0 2 C0 1.34 0 0.68 0 0 Z " fill="#FBE2E1" transform="translate(247,416)"/>
<path d="M0 0 C-0.33 0.66 -0.66 1.32 -1 2 C-1.80824219 1.94199219 -2.61648438 1.88398438 -3.44921875 1.82421875 C-10.22789594 1.31913571 -10.22789594 1.31913571 -15.9375 4.4375 C-16.618125 5.283125 -17.29875 6.12875 -18 7 C-20.8125 7.8125 -20.8125 7.8125 -23 8 C-18.64505359 -2.66128957 -9.81402829 -0.78687087 0 0 Z " fill="#1C1C1C" transform="translate(757,502)"/>
<path d="M0 0 C0.90105469 0.00902344 1.80210937 0.01804687 2.73046875 0.02734375 C3.41753906 0.03894531 4.10460937 0.05054688 4.8125 0.0625 C4.62890625 1.953125 4.62890625 1.953125 3.8125 4.0625 C1.52734375 5.109375 1.52734375 5.109375 -1.25 5.8125 C-2.62865234 6.17601562 -2.62865234 6.17601562 -4.03515625 6.546875 C-4.74542969 6.71703125 -5.45570313 6.8871875 -6.1875 7.0625 C-5.8575 5.7425 -5.5275 4.4225 -5.1875 3.0625 C-6.1775 2.4025 -7.1675 1.7425 -8.1875 1.0625 C-5.17259443 0.05753148 -3.14568308 -0.04085303 0 0 Z " fill="#EEEEEE" transform="translate(452.1875,496.9375)"/>
<path d="M0 0 C0 0.66 0 1.32 0 2 C-2.64738916 3.4606285 -3.89448334 4 -7 4 C-7 4.66 -7 5.32 -7 6 C-7.66 6 -8.32 6 -9 6 C-9 6.99 -9 7.98 -9 9 C-10.98 9.66 -12.96 10.32 -15 11 C-15 10.34 -15 9.68 -15 9 C-15.66 8.67 -16.32 8.34 -17 8 C-14.54429825 6.66161267 -12.08570084 5.32913768 -9.625 4 C-8.92632812 3.6184375 -8.22765625 3.236875 -7.5078125 2.84375 C-2.2265625 0 -2.2265625 0 0 0 Z " fill="#F8DBDF" transform="translate(278,586)"/>
<path d="M0 0 C4 0 4 0 6 1 C6 1.99 6 2.98 6 4 C7.051875 4.2475 8.10375 4.495 9.1875 4.75 C12.8133541 5.76700786 15.19910772 7.45373429 18 10 C17.01 10.495 17.01 10.495 16 11 C14.12060547 10.28735352 14.12060547 10.28735352 11.8671875 9.12890625 C11.06152344 8.71962891 10.25585938 8.31035156 9.42578125 7.88867188 C8.58402344 7.45103516 7.74226563 7.01339844 6.875 6.5625 C6.02550781 6.12873047 5.17601562 5.69496094 4.30078125 5.24804688 C2.19677908 4.17240532 0.0968542 3.08949234 -2 2 C-1.34 1.34 -0.68 0.68 0 0 Z " fill="#FBE3E0" transform="translate(271,433)"/>
<path d="M0 0 C0.4122583 0.48895752 0.8245166 0.97791504 1.24926758 1.48168945 C3.37153625 3.32221224 4.24935371 3.35527774 7.01171875 3.29296875 C7.76904297 3.28330078 8.52636719 3.27363281 9.30664062 3.26367188 C10.09232422 3.23853516 10.87800781 3.21339844 11.6875 3.1875 C12.48478516 3.17396484 13.28207031 3.16042969 14.10351562 3.14648438 C16.06929967 3.11117089 18.03473582 3.05736447 20 3 C20 3.66 20 4.32 20 5 C15.05 5 10.1 5 5 5 C4.67 5.99 4.34 6.98 4 8 C2.02 7.34 0.04 6.68 -2 6 C-1.49396008 3.83125748 -1.00016187 2.00032373 0 0 Z " fill="#B9B9B9" transform="translate(739,552)"/>
<path d="M0 0 C5.27323808 -0.68041782 9.39388711 1.75213663 14 4 C14 4.66 14 5.32 14 6 C15.32 6.33 16.64 6.66 18 7 C17.67 7.99 17.34 8.98 17 10 C11.39 7.03 5.78 4.06 0 1 C0 0.67 0 0.34 0 0 Z " fill="#CF5354" transform="translate(235,473)"/>
<path d="M0 0 C1.2065625 0.0309375 1.2065625 0.0309375 2.4375 0.0625 C-0.98705876 2.85893618 -4.74379771 4.80254289 -8.6875 6.75 C-9.63689453 7.23049805 -9.63689453 7.23049805 -10.60546875 7.72070312 C-15.30903518 10.0625 -15.30903518 10.0625 -17.5625 10.0625 C-17.2325 9.0725 -16.9025 8.0825 -16.5625 7.0625 C-15.2425 7.0625 -13.9225 7.0625 -12.5625 7.0625 C-12.5625 6.4025 -12.5625 5.7425 -12.5625 5.0625 C-9.57187337 3.06874891 -6.95335683 2.16821418 -3.5625 1.0625 C-2.5625 0.0625 -2.5625 0.0625 0 0 Z " fill="#A73943" transform="translate(285.5625,579.9375)"/>
<path d="M0 0 C-1 3 -1 3 -4.37890625 4.82421875 C-5.76866196 5.45592589 -7.16346534 6.07661796 -8.5625 6.6875 C-9.27341797 7.00783203 -9.98433594 7.32816406 -10.71679688 7.65820312 C-12.47366662 8.44820496 -14.23631345 9.22533623 -16 10 C-16 8 -16 8 -14.6875 6.375 C-13 5 -13 5 -10 5 C-9.67 4.01 -9.34 3.02 -9 2 C-3.21052632 0 -3.21052632 0 0 0 Z " fill="#8B3546" transform="translate(305,570)"/>
<path d="M0 0 C0.33 0 0.66 0 1 0 C1 10.89 1 21.78 1 33 C1.99 33.33 2.98 33.66 4 34 C3.01 34.495 3.01 34.495 2 35 C1.67 35.66 1.34 36.32 1 37 C-0.55977064 33.88045872 -0.12104126 30.57040616 -0.09765625 27.1484375 C-0.0962413 26.37440582 -0.09482635 25.60037415 -0.09336853 24.80288696 C-0.08776403 22.32688558 -0.07521083 19.85097412 -0.0625 17.375 C-0.05748558 15.69791797 -0.05292257 14.02083453 -0.04882812 12.34375 C-0.03779315 8.22913194 -0.02052554 4.11458122 0 0 Z " fill="#DDDDDD" transform="translate(484,520)"/>
<path d="M0 0 C0.66 0 1.32 0 2 0 C2.25 2.8125 2.25 2.8125 2 6 C0.375 7.875 0.375 7.875 -2 9 C-5.25 9.1875 -5.25 9.1875 -8 9 C-8.33 8.34 -8.66 7.68 -9 7 C-8.071875 6.5875 -7.14375 6.175 -6.1875 5.75 C-3.07312814 4.04014879 -1.95780365 2.8388153 0 0 Z " fill="#DEDEDE" transform="translate(681,550)"/>
<path d="M0 0 C0.6875 1.8125 0.6875 1.8125 1 4 C0 5 -1 6 -2 7 C-3.09966665 9.16165652 -3.09966665 9.16165652 -4 11.5 C-5.26383692 14.6595923 -6.44130532 16.73206608 -9 19 C-8.37954537 14.76677156 -6.89476441 11.47709705 -4.9375 7.6875 C-4.38964844 6.61886719 -3.84179688 5.55023438 -3.27734375 4.44921875 C-2.64505859 3.23685547 -2.64505859 3.23685547 -2 2 C-1.34 2 -0.68 2 0 2 C0 1.34 0 0.68 0 0 Z " fill="#F5604C" transform="translate(331,484)"/>
<path d="M0 0 C4.62675657 1.3922459 8.64686231 3.29520984 12.875 5.625 C14.02742188 6.25664062 15.17984375 6.88828125 16.3671875 7.5390625 C17.67042969 8.26222656 17.67042969 8.26222656 19 9 C17 10 17 10 14.94140625 9.51171875 C14.15636719 9.23972656 13.37132812 8.96773438 12.5625 8.6875 C11.38880859 8.29111328 11.38880859 8.29111328 10.19140625 7.88671875 C8 7 8 7 5 5 C5 4.34 5 3.68 5 3 C3.35 2.67 1.7 2.34 0 2 C0 1.34 0 0.68 0 0 Z " fill="#FBDDD9" transform="translate(262,488)"/>
<path d="M0 0 C3.96 0 7.92 0 12 0 C8.41187594 2.69109304 6.30524344 4.10307428 2 5 C-0.375 3.625 -0.375 3.625 -2 2 C-1.34 2 -0.68 2 0 2 C0 1.34 0 0.68 0 0 Z " fill="#FAE8E4" transform="translate(219,553)"/>
<path d="M0 0 C-0.66 1.65 -1.32 3.3 -2 5 C-3.32 4.67 -4.64 4.34 -6 4 C-6 4.66 -6 5.32 -6 6 C-9.465 7.485 -9.465 7.485 -13 9 C-13.66 8.34 -14.32 7.68 -15 7 C-12.87767021 5.82823482 -10.75242209 4.66245215 -8.625 3.5 C-7.72007812 2.99919922 -7.72007812 2.99919922 -6.796875 2.48828125 C-2.2265625 0 -2.2265625 0 0 0 Z " fill="#F9E5E9" transform="translate(311,569)"/>
<path d="M0 0 C-3.1254959 2.64465038 -6.08788267 3.84414715 -10 5 C-10.33 3.68 -10.66 2.36 -11 1 C-6.87831311 -0.62950412 -4.29299643 -1.26264601 0 0 Z " fill="#7B2239" transform="translate(325,561)"/>
<path d="M0 0 C0.66 0.33 1.32 0.66 2 1 C-0.37115444 3.74554724 -2.53079925 4.95117186 -6 6 C-9.3125 6.125 -9.3125 6.125 -12 6 C-11.67 5.01 -11.34 4.02 -11 3 C-10.28972656 2.86722656 -9.57945312 2.73445312 -8.84765625 2.59765625 C-7.92855469 2.42105469 -7.00945312 2.24445312 -6.0625 2.0625 C-4.68771484 1.80146484 -4.68771484 1.80146484 -3.28515625 1.53515625 C-1.04710156 1.22285012 -1.04710156 1.22285012 0 0 Z " fill="#D83B41" transform="translate(252,545)"/>
<path d="M0 0 C2.26171875 0.4609375 2.26171875 0.4609375 4.6875 1.375 C5.49574219 1.67148437 6.30398437 1.96796875 7.13671875 2.2734375 C7.75160156 2.51320313 8.36648437 2.75296875 9 3 C9 4.32 9 5.64 9 7 C4.76570244 5.68938409 0.92592596 4.05643741 -3 2 C-2.01 1.34 -1.02 0.68 0 0 Z " fill="#FADFDD" transform="translate(228,410)"/>
<path d="M0 0 C0.33 0 0.66 0 1 0 C1 3.96 1 7.92 1 12 C1.9075 11.649375 2.815 11.29875 3.75 10.9375 C6.87758436 10.03531221 8.05208081 9.86618493 11 11 C6.79759598 13.34552782 4.98887899 14 0 14 C0 9.38 0 4.76 0 0 Z " fill="#D75156" transform="translate(219,600)"/>
<path d="M0 0 C2.125 0.9375 2.125 0.9375 4 2 C1.88002166 3.19733988 -0.24513676 4.38298713 -2.375 5.5625 C-2.97828125 5.90474609 -3.5815625 6.24699219 -4.203125 6.59960938 C-5.76978241 7.46127095 -7.38290862 8.23718183 -9 9 C-9.66 8.67 -10.32 8.34 -11 8 C-10.67 7.34 -10.34 6.68 -10 6 C-8.68 6 -7.36 6 -6 6 C-5.67 5.01 -5.34 4.02 -5 3 C-4.01 3 -3.02 3 -2 3 C-2 2.34 -2 1.68 -2 1 C-1.34 0.67 -0.68 0.34 0 0 Z " fill="#FCE0DE" transform="translate(250,540)"/>
<path d="M0 0 C2.25 1.8125 2.25 1.8125 4 4 C4 4.66 4 5.32 4 6 C1.36 6.33 -1.28 6.66 -4 7 C-4 5.02 -4 3.04 -4 1 C-2.25 0.25 -2.25 0.25 0 0 Z " fill="#8E1F34" transform="translate(313,514)"/>
<path d="M0 0 C0 1.65 0 3.3 0 5 C-5.875 4.125 -5.875 4.125 -7 3 C-9.32817964 2.63239269 -11.6618385 2.29758419 -14 2 C-14 1.67 -14 1.34 -14 1 C-12.22932584 0.83165067 -10.45845388 0.66538091 -8.6875 0.5 C-7.70136719 0.4071875 -6.71523438 0.314375 -5.69921875 0.21875 C-3 0 -3 0 0 0 Z " fill="#D4D4D4" transform="translate(470,532)"/>
<path d="M0 0 C3.69287153 0.90270193 5.55368289 1.40491051 7.875 4.5 C9 7 9 7 9 9 C8.01 9.33 7.02 9.66 6 10 C5.34 9.01 4.68 8.02 4 7 C4.33 6.67 4.66 6.34 5 6 C4.360625 5.7525 3.72125 5.505 3.0625 5.25 C1 4 1 4 0.25 1.875 C0.1675 1.25625 0.085 0.6375 0 0 Z " fill="#6A172A" transform="translate(329,546)"/>
<path d="M0 0 C4.85963179 0.60745397 8.7405518 2.72758967 13 5 C12.67 5.99 12.34 6.98 12 8 C11.34 8 10.68 8 10 8 C9.67 7.34 9.34 6.68 9 6 C7.02111039 5.27306096 5.02045442 4.60183749 3 4 C3 3.34 3 2.68 3 2 C2.01 1.67 1.02 1.34 0 1 C0 0.67 0 0.34 0 0 Z " fill="#9D373D" transform="translate(325,465)"/>
<path d="M0 0 C1.98 0 3.96 0 6 0 C6 1.32 6 2.64 6 4 C6.99 4.33 7.98 4.66 9 5 C7.375 5.75 7.375 5.75 5 6 C1.75 4.0625 1.75 4.0625 -1 2 C-0.67 1.34 -0.34 0.68 0 0 Z " fill="#E63F43" transform="translate(258,481)"/>
<path d="M0 0 C0.66 0.66 1.32 1.32 2 2 C-2.95 4.31 -7.9 6.62 -13 9 C-11.71708803 5.1512641 -10.54382857 4.84895404 -7 3 C-4.68359353 1.9497039 -2.35269608 0.96875721 0 0 Z " fill="#FDE2E2" transform="translate(291,520)"/>
<path d="M0 0 C3 1 3 1 4 3 C4.039992 4.99960012 4.04346799 7.00047242 4 9 C3.34 8.34 2.68 7.68 2 7 C1.01 7.495 1.01 7.495 0 8 C0.33 6.68 0.66 5.36 1 4 C-0.32 4.33 -1.64 4.66 -3 5 C-3 4.01 -3 3.02 -3 2 C-2.01 2 -1.02 2 0 2 C0 1.34 0 0.68 0 0 Z " fill="#DDDDDD" transform="translate(466,514)"/>
<path d="M0 0 C2.97 0.99 5.94 1.98 9 3 C9 3.66 9 4.32 9 5 C6.55492066 5.87324262 5.32299678 6.10151327 2.8125 5.3125 C1 4 1 4 0 0 Z " fill="#CA4B51" transform="translate(270,489)"/>
<path d="M0 0 C3.7910119 1.44950455 7.3874638 3.15172566 11 5 C9.375 6.1875 9.375 6.1875 7 7 C3.8125 5.875 3.8125 5.875 1 4 C0.125 1.8125 0.125 1.8125 0 0 Z " fill="#FCE4E1" transform="translate(230,471)"/>
<path d="M0 0 C0.99 0 1.98 0 3 0 C3 2.31 3 4.62 3 7 C3.99 7.33 4.98 7.66 6 8 C6 8.66 6 9.32 6 10 C3.03 9.505 3.03 9.505 0 9 C0 6.03 0 3.06 0 0 Z " fill="#F83938" transform="translate(221,600)"/>
<path d="M0 0 C-6.435 2.97 -6.435 2.97 -13 6 C-13.33 5.34 -13.66 4.68 -14 4 C-13.34 4 -12.68 4 -12 4 C-12 3.34 -12 2.68 -12 2 C-10.56656 1.46809459 -9.12804633 0.94984742 -7.6875 0.4375 C-6.48673828 0.00244141 -6.48673828 0.00244141 -5.26171875 -0.44140625 C-3 -1 -3 -1 0 0 Z " fill="#BF4D56" transform="translate(263,594)"/>
<path d="M0 0 C3.1875 -0.3125 3.1875 -0.3125 7 0 C9.9375 2.5 9.9375 2.5 12 5 C11.01 5.495 11.01 5.495 10 6 C7.6171875 5.00390625 7.6171875 5.00390625 4.875 3.5625 C3.96492188 3.08941406 3.05484375 2.61632812 2.1171875 2.12890625 C1.41851562 1.75636719 0.71984375 1.38382812 0 1 C0 0.67 0 0.34 0 0 Z " fill="#F9D8DF" transform="translate(326,464)"/>
<path d="M0 0 C4.455 1.98 4.455 1.98 9 4 C9 4.99 9 5.98 9 7 C4.71193127 6.52354792 2.73352513 5.34097516 0 2 C0 1.34 0 0.68 0 0 Z " fill="#D6454E" transform="translate(245,422)"/>
<path d="M0 0 C4.85963179 0.60745397 8.7405518 2.72758967 13 5 C13 5.33 13 5.66 13 6 C11.02 6 9.04 6 7 6 C7 5.34 7 4.68 7 4 C4.36 3.67 1.72 3.34 -1 3 C-0.67 2.01 -0.34 1.02 0 0 Z " fill="#CF5251" transform="translate(220,410)"/>
<path d="M0 0 C7.38461538 -0.36923077 7.38461538 -0.36923077 10.5 1.5 C10.995 1.995 11.49 2.49 12 3 C11.67 3.99 11.34 4.98 11 6 C10.01 6.33 9.02 6.66 8 7 C7.67 5.35 7.34 3.7 7 2 C4.69 1.67 2.38 1.34 0 1 C0 0.67 0 0.34 0 0 Z " fill="#DDDDDD" transform="translate(577,513)"/>
<path d="M0 0 C4.05606165 0.46800711 7.46588679 0.87953208 11 3 C11 3.66 11 4.32 11 5 C11.99 5.33 12.98 5.66 14 6 C9.83588785 6 8.33607747 5.38740919 4.75 3.5 C3.85796875 3.0359375 2.9659375 2.571875 2.046875 2.09375 C1.37140625 1.7328125 0.6959375 1.371875 0 1 C0 0.67 0 0.34 0 0 Z " fill="#BC4B4F" transform="translate(277,495)"/>
<path d="M0 0 C0.66 0 1.32 0 2 0 C0.94884855 3.15345436 0.00948999 4.26229578 -2.625 6.1875 C-6.26165309 7.43161816 -9.23193869 6.62801022 -13 6 C-13 5.67 -13 5.34 -13 5 C-11.96939453 4.83564453 -11.96939453 4.83564453 -10.91796875 4.66796875 C-10.01691406 4.50941406 -9.11585938 4.35085938 -8.1875 4.1875 C-6.84751953 3.96126953 -6.84751953 3.96126953 -5.48046875 3.73046875 C-2.78321371 2.936159 -1.85439811 2.03259853 0 0 Z " fill="#1E1E1E" transform="translate(408,541)"/>
<path d="M0 0 C1.32 0.66 2.64 1.32 4 2 C-1.445 4.475 -1.445 4.475 -7 7 C-6 3 -6 3 -3.1875 1.125 C-2.135625 0.75375 -1.08375 0.3825 0 0 Z " fill="#FADDDD" transform="translate(266,532)"/>
<path d="M0 0 C0.99 0.33 1.98 0.66 3 1 C2.01 2.485 2.01 2.485 1 4 C0.34 4 -0.32 4 -1 4 C-1.66 5.65 -2.32 7.3 -3 9 C-3.66 8.67 -4.32 8.34 -5 8 C-5 6.68 -5 5.36 -5 4 C-4.01 4 -3.02 4 -2 4 C-2 3.34 -2 2.68 -2 2 C-1.34 2 -0.68 2 0 2 C0 1.34 0 0.68 0 0 Z " fill="#E6E6E6" transform="translate(442,503)"/>
<path d="M0 0 C1.65 0 3.3 0 5 0 C5 1.98 5 3.96 5 6 C3.35 6 1.7 6 0 6 C-1.24546405 3.50907189 -0.7767578 2.58919267 0 0 Z " fill="#C9363C" transform="translate(291,497)"/>
<path d="M0 0 C3.63 1.65 7.26 3.3 11 5 C6.93890631 6.01527342 6.33033162 6.05430484 2.75 4.5625 C2.04359375 4.27503906 1.3371875 3.98757813 0.609375 3.69140625 C0.07828125 3.46324219 -0.4528125 3.23507812 -1 3 C-0.67 2.01 -0.34 1.02 0 0 Z " fill="#FEDCDA" transform="translate(219,465)"/>
<path d="M0 0 C1.32 0.33 2.64 0.66 4 1 C3.34 2.65 2.68 4.3 2 6 C-0.64 5.67 -3.28 5.34 -6 5 C-3 3 -3 3 -1 3 C-0.67 2.01 -0.34 1.02 0 0 Z " fill="#AC283E" transform="translate(294,522)"/>
<path d="M0 0 C1.98 0.66 3.96 1.32 6 2 C6 6 6 6 5 8 C3.02 6.35 1.04 4.7 -1 3 C-0.67 2.01 -0.34 1.02 0 0 Z " fill="#711F3E" transform="translate(329,549)"/>
<path d="M0 0 C0.33 0.99 0.66 1.98 1 3 C-5.5 6.125 -5.5 6.125 -10 5 C-6.7 3.35 -3.4 1.7 0 0 Z " fill="#AC404A" transform="translate(272,532)"/>
<path d="M0 0 C5.28497409 -0.44041451 5.28497409 -0.44041451 8 0 C10.5 2.5 10.5 2.5 12 5 C11.01 5.33 10.02 5.66 9 6 C7.5 4.625 7.5 4.625 6 3 C6 2.34 6 1.68 6 1 C4.02 1 2.04 1 0 1 C0 0.67 0 0.34 0 0 Z " fill="#DADADA" transform="translate(611,513)"/>
<path d="M0 0 C2 3.75 2 3.75 2 6 C1.01 6 0.02 6 -1 6 C-1 5.01 -1 4.02 -1 3 C-3.31 2.67 -5.62 2.34 -8 2 C-8 1.67 -8 1.34 -8 1 C-5.36 0.67 -2.72 0.34 0 0 Z " fill="#CC3741" transform="translate(310,505)"/>
<path d="M0 0 C2.31 0.33 4.62 0.66 7 1 C7 1.99 7 2.98 7 4 C5.02 4.33 3.04 4.66 1 5 C0.67 3.35 0.34 1.7 0 0 Z " fill="#EFEFEF" transform="translate(531,497)"/>
<path d="M0 0 C2.31 0 4.62 0 7 0 C6.67 0.66 6.34 1.32 6 2 C5.34 2 4.68 2 4 2 C4 2.66 4 3.32 4 4 C1.69 3.67 -0.62 3.34 -3 3 C-2.01 2.67 -1.02 2.34 0 2 C0 1.34 0 0.68 0 0 Z " fill="#A72B39" transform="translate(285,576)"/>
<path d="M0 0 C0 0.66 0 1.32 0 2 C-0.99 2 -1.98 2 -3 2 C-2.34 3.32 -1.68 4.64 -1 6 C-1.66 6 -2.32 6 -3 6 C-3.33 7.32 -3.66 8.64 -4 10 C-4.66 7.69 -5.32 5.38 -6 3 C-2.25 0 -2.25 0 0 0 Z " fill="#DFDFDF" transform="translate(394,513)"/>
<path d="M0 0 C1.65 0 3.3 0 5 0 C5 1.32 5 2.64 5 4 C2.625 4.625 2.625 4.625 0 5 C-0.66 4.34 -1.32 3.68 -2 3 C-1.34 3 -0.68 3 0 3 C0 2.01 0 1.02 0 0 Z " fill="#AB3C48" transform="translate(308,511)"/>
<path d="M0 0 C3.87302138 1.14430177 7.00263439 2.23320098 10 5 C10 5.66 10 6.32 10 7 C9.01 7.33 8.02 7.66 7 8 C6.6596875 7.071875 6.6596875 7.071875 6.3125 6.125 C4.62070165 3.38589791 3.00755839 2.94975528 0 2 C0 1.34 0 0.68 0 0 Z " fill="#FDD7D9" transform="translate(298,507)"/>
<path d="M0 0 C1.29409592 0.45142881 2.58521059 0.91141021 3.875 1.375 C4.95394531 1.75785156 4.95394531 1.75785156 6.0546875 2.1484375 C8 3 8 3 10 5 C3.9453125 5.1953125 3.9453125 5.1953125 2 5 C1.34 4.34 0.68 3.68 0 3 C0 2.01 0 1.02 0 0 Z " fill="#F63E45" transform="translate(232,418)"/>
<path d="M0 0 C0.33 0.99 0.66 1.98 1 3 C0.071875 3.1546875 0.071875 3.1546875 -0.875 3.3125 C-3.36526484 3.87525373 -3.36526484 3.87525373 -5 7 C-5.99 6.01 -6.98 5.02 -8 4 C-7.34 4 -6.68 4 -6 4 C-6.33 3.01 -6.66 2.02 -7 1 C-5.5459375 1.0309375 -5.5459375 1.0309375 -4.0625 1.0625 C-1.12534105 1.35618499 -1.12534105 1.35618499 0 0 Z " fill="#C63742" transform="translate(272,584)"/>
<path d="M0 0 C2.97 0.495 2.97 0.495 6 1 C4.8125 2.5 4.8125 2.5 3 4 C0.3125 4.1875 0.3125 4.1875 -2 4 C-1.34 2.68 -0.68 1.36 0 0 Z " fill="#9D253B" transform="translate(299,568)"/>
<path d="M0 0 C0.66 0.33 1.32 0.66 2 1 C1.67 1.99 1.34 2.98 1 4 C-4.41538462 4.36923077 -4.41538462 4.36923077 -7.375 2.5 C-7.91125 2.005 -8.4475 1.51 -9 1 C-7.700625 1.020625 -6.40125 1.04125 -5.0625 1.0625 C-3.70834367 1.08399454 -2.35243917 1.07148199 -1 1 C-0.67 0.67 -0.34 0.34 0 0 Z " fill="#C04148" transform="translate(301,502)"/>
<path d="M0 0 C3.37705625 0.53725895 6.696686 1.11064623 10 2 C10.33 3.32 10.66 4.64 11 6 C7.2089881 4.55049545 3.6125362 2.84827434 0 1 C0 0.67 0 0.34 0 0 Z " fill="#D55056" transform="translate(224,467)"/>
<path d="M0 0 C0.103125 0.639375 0.20625 1.27875 0.3125 1.9375 C0.539375 2.618125 0.76625 3.29875 1 4 C1.99 4.33 2.98 4.66 4 5 C4 5.66 4 6.32 4 7 C4.66 7.33 5.32 7.66 6 8 C4.68 8.33 3.36 8.66 2 9 C-0.29013653 5.5647952 -0.17842973 4.014669 0 0 Z " fill="#D4D4D4" transform="translate(449,538)"/>
<path d="M0 0 C0.99 0 1.98 0 3 0 C3 2.97 3 5.94 3 9 C1 8 1 8 -0.1875 5.625 C-1 3 -1 3 0 0 Z " fill="#FDFDFD" transform="translate(758,503)"/>
<path d="M0 0 C6.875 3.625 6.875 3.625 8 7 C5.125 6.3125 5.125 6.3125 2 5 C0.625 2.375 0.625 2.375 0 0 Z " fill="#C2474B" transform="translate(284,442)"/>
<path d="M0 0 C-3.41016497 2.86453858 -6.90694544 4.34703566 -11 6 C-10 3 -10 3 -7.75 1.3125 C-4.8635748 -0.06511203 -3.14826764 -0.26985151 0 0 Z " fill="#9D3E4C" transform="translate(288,580)"/>
<path d="M0 0 C0.99 0.99 1.98 1.98 3 3 C0.03 4.32 -2.94 5.64 -6 7 C-6 5 -6 5 -4.6875 3.375 C-3 2 -3 2 0 2 C0 1.34 0 0.68 0 0 Z " fill="#943B48" transform="translate(295,573)"/>
<path d="M0 0 C1.093125 0.226875 2.18625 0.45375 3.3125 0.6875 C1.3125 2.6875 1.3125 2.6875 -0.6328125 2.8828125 C-2.65104167 2.81770833 -4.66927083 2.75260417 -6.6875 2.6875 C-4.58035839 -0.41123767 -3.86755884 -0.32775922 0 0 Z " fill="#EDEDED" transform="translate(396.6875,498.3125)"/>
<path d="M0 0 C0.66 0 1.32 0 2 0 C1.5206753 4.31392226 0.2542015 6.16569547 -3 9 C-2.44271087 5.65626525 -1.64826111 2.96687001 0 0 Z " fill="#F96950" transform="translate(325,494)"/>
<path d="M0 0 C0.66 0.33 1.32 0.66 2 1 C1.34 2.65 0.68 4.3 0 6 C-1.65 6 -3.3 6 -5 6 C-3.35 4.02 -1.7 2.04 0 0 Z " fill="#ECECEC" transform="translate(743,518)"/>
<path d="M0 0 C2.875 -0.125 2.875 -0.125 6 0 C6.66 0.66 7.32 1.32 8 2 C5.01758453 2.77321882 2.02419525 3.41196203 -1 4 C-0.67 2.68 -0.34 1.36 0 0 Z " fill="#E6E6E6" transform="translate(574,515)"/>
<path d="M0 0 C1.98 0 3.96 0 6 0 C5.34 1.65 4.68 3.3 4 5 C2.68 4.67 1.36 4.34 0 4 C0 2.68 0 1.36 0 0 Z " fill="#F0F0F0" transform="translate(384,497)"/>
<path d="M0 0 C4.455 1.98 4.455 1.98 9 4 C8.34 4.66 7.68 5.32 7 6 C4.36 4.68 1.72 3.36 -1 2 C-0.67 1.34 -0.34 0.68 0 0 Z " fill="#C34F50" transform="translate(266,433)"/>
<path d="M0 0 C0.99 0.33 1.98 0.66 3 1 C3 1.66 3 2.32 3 3 C-2.75 4.125 -2.75 4.125 -5 3 C-2.6875 1.4375 -2.6875 1.4375 0 0 Z " fill="#F9DBD6" transform="translate(237,606)"/>
<path d="M0 0 C0.66 0.33 1.32 0.66 2 1 C1.67 1.66 1.34 2.32 1 3 C0.34 3 -0.32 3 -1 3 C-1 3.66 -1 4.32 -1 5 C-2.65 5.33 -4.3 5.66 -6 6 C-4 4 -2 2 0 0 Z " fill="#DE3641" transform="translate(252,593)"/>
<path d="M0 0 C-0.66 1.65 -1.32 3.3 -2 5 C-3.65 4.67 -5.3 4.34 -7 4 C-3.17391304 0 -3.17391304 0 0 0 Z " fill="#F3D9DC" transform="translate(311,569)"/>
<path d="M0 0 C-2.62198774 2.15377564 -4.64404172 3.40072174 -8 4 C-8 3.01 -8 2.02 -8 1 C-5.29120665 -0.35439668 -2.99066732 -0.06501451 0 0 Z " fill="#7B2938" transform="translate(313,567)"/>
<path d="M0 0 C1.5625 1.75 1.5625 1.75 3 4 C2.6875 6.25 2.6875 6.25 2 8 C0.68 6.02 -0.64 4.04 -2 2 C-1.34 1.34 -0.68 0.68 0 0 Z " fill="#EEEEEE" transform="translate(756,547)"/>
<path d="M0 0 C0.66 0 1.32 0 2 0 C2.33 2.64 2.66 5.28 3 8 C0.7522025 5.94766315 -0.0022242 4.99332739 -1 2 C-0.67 1.34 -0.34 0.68 0 0 Z " fill="#C85B54" transform="translate(335,545)"/>
<path d="M0 0 C0.33 1.32 0.66 2.64 1 4 C0.01 4.495 0.01 4.495 -1 5 C-1.33 5.66 -1.66 6.32 -2 7 C-2.99 6.34 -3.98 5.68 -5 5 C-3.35 3.35 -1.7 1.7 0 0 Z " fill="#181818" transform="translate(732,512)"/>
<path d="M0 0 C-0.66 0.66 -1.32 1.32 -2 2 C-2.33 2.66 -2.66 3.32 -3 4 C-5.475 3.01 -5.475 3.01 -8 2 C-8 1.34 -8 0.68 -8 0 C-4.71303767 -0.79953138 -3.28976808 -1.09658936 0 0 Z " fill="#EAEAEA" transform="translate(408,500)"/>
<path d="M0 0 C0.33 0 0.66 0 1 0 C1.103125 1.11375 1.20625 2.2275 1.3125 3.375 C1.539375 4.57125 1.76625 5.7675 2 7 C2.99 7.66 3.98 8.32 5 9 C5 9.66 5 10.32 5 11 C3.0625 10.625 3.0625 10.625 1 10 C-0.60725635 6.78548731 -0.05748185 3.56387464 0 0 Z " fill="#D94E57" transform="translate(219,456)"/>
<path d="M0 0 C4.455 1.98 4.455 1.98 9 4 C5.29847322 4.92538169 4.36541838 5.08174162 1 4 C0.67 2.68 0.34 1.36 0 0 Z " fill="#CF585B" transform="translate(234,416)"/>
<path d="M0 0 C0.99 0.99 1.98 1.98 3 3 C0.03 3.66 -2.94 4.32 -6 5 C-3.375 1.125 -3.375 1.125 0 0 Z " fill="#F4393F" transform="translate(238,599)"/>
<path d="M0 0 C-2.38573379 1.89213369 -4.07175348 3.02391783 -7 4 C-7.33 3.01 -7.66 2.02 -8 1 C-4.93251126 -0.86240388 -3.40254489 -1.2151946 0 0 Z " fill="#732F43" transform="translate(325,561)"/>
<path d="M0 0 C0.66 0 1.32 0 2 0 C2.33 2.31 2.66 4.62 3 7 C2.01 7 1.02 7 0 7 C0 4.69 0 2.38 0 0 Z " fill="#821E40" transform="translate(320,529)"/>
</svg>
