<?xml version="1.0" encoding="UTF-8"?>
<svg version="1.1" xmlns="http://www.w3.org/2000/svg" width="1024" height="1024">
<path d="M0 0 C337.92 0 675.84 0 1024 0 C1024 337.92 1024 675.84 1024 1024 C686.08 1024 348.16 1024 0 1024 C0 686.08 0 348.16 0 0 Z " fill="#141823" transform="translate(0,0)"/>
<path d="M0 0 C5.61 0 11.22 0 17 0 C17.33 19.47 17.66 38.94 18 59 C28.7642088 47.21107463 28.7642088 47.21107463 37.5234375 33.734375 C40 31 40 31 42.37841797 30.52294922 C45.35715816 30.40812483 48.27283567 30.47765303 51.25 30.625 C52.28125 30.65207031 53.3125 30.67914063 54.375 30.70703125 C56.9187875 30.77769201 59.45833099 30.87627922 62 31 C60.70686944 33.83016118 59.32800653 35.93448576 57.171875 38.171875 C56.62160645 38.75018066 56.07133789 39.32848633 55.50439453 39.92431641 C54.92544434 40.52679199 54.34649414 41.12926758 53.75 41.75 C46.87123858 48.96979186 46.87123858 48.96979186 41 57 C41.37625336 60.60896081 43.22306332 63.78088774 44.8125 67 C45.31394531 68.03125 45.81539062 69.0625 46.33203125 70.125 C47.97321703 72.95383545 49.68957416 74.72079613 52 77 C53.24365051 78.94437403 54.42913008 80.92684598 55.5625 82.9375 C56.14128906 83.95714844 56.72007812 84.97679687 57.31640625 86.02734375 C57.87199219 87.00832031 58.42757812 87.98929688 59 89 C59.84884766 90.36318359 59.84884766 90.36318359 60.71484375 91.75390625 C62 94 62 94 62 96 C62.66 96 63.32 96 64 96 C64 74.55 64 53.1 64 31 C69.28 31 74.56 31 80 31 C80.495 34.465 80.495 34.465 81 38 C81.680625 37.401875 82.36125 36.80375 83.0625 36.1875 C91.03241958 30.2524535 100.3011013 29.00947418 110 30 C115.25018409 31.60737749 119.21628492 34.18203159 122 39 C124.24137218 45.9231136 124.26491032 52.82689264 124.1953125 60.03515625 C124.1924826 61.15442001 124.18965271 62.27368378 124.18673706 63.42686462 C124.17561732 66.97218905 124.1505279 70.51725301 124.125 74.0625 C124.1149596 76.47851195 124.10583561 78.8945279 124.09765625 81.31054688 C124.07570486 87.20713033 124.0412319 93.10352113 124 99 C118.39 99 112.78 99 107 99 C106.9906543 97.63270752 106.98130859 96.26541504 106.97167969 94.85668945 C106.93177097 89.777909 106.866009 84.69973374 106.79248047 79.62133789 C106.7642761 77.42447694 106.74305893 75.22751461 106.72900391 73.03051758 C106.70756751 69.8700777 106.6609122 66.71085604 106.609375 63.55078125 C106.60814636 62.57039383 106.60691772 61.59000641 106.60565186 60.57991028 C106.5130008 56.25443567 106.40349858 53.67524795 104.14941406 49.90307617 C100.53937154 46.70676978 96.91594762 46.59596485 92.2890625 46.65625 C88.25540726 47.26198662 86.70257879 48.96783843 84 52 C81.73587782 57.15494714 81.65971552 62.02442346 81.5859375 67.5546875 C81.56657135 68.45623566 81.5472052 69.35778381 81.5272522 70.28665161 C81.46775704 73.14933996 81.42119183 76.01206918 81.375 78.875 C81.33679253 80.82293363 81.2977392 82.77085086 81.2578125 84.71875 C81.16208035 89.47903258 81.07793884 94.2393942 81 99 C75.84078257 99.22320235 70.68439491 99.38610225 65.52148438 99.49438477 C63.76740561 99.53953126 62.01366349 99.60086921 60.26074219 99.67895508 C45.71046952 100.31067804 45.71046952 100.31067804 41.59130859 97.15429688 C40.01647544 94.81766808 38.97970668 92.63540547 38 90 C37.41992188 88.99710938 36.83984375 87.99421875 36.2421875 86.9609375 C35.79101562 86.10757813 35.33984375 85.25421875 34.875 84.375 C32.64816527 80.20847501 30.36337431 76.09045553 28 72 C23.97372501 73.34209166 23.24830847 75.48701801 21 79 C20.2114563 79.71506714 20.2114563 79.71506714 19.40698242 80.44458008 C17.64968211 82.38727664 17.58556555 83.42395641 17.48828125 86.01171875 C17.45516846 86.69451904 17.42205566 87.37731934 17.38793945 88.08081055 C17.36304443 88.94101807 17.33814941 89.80122559 17.3125 90.6875 C17.209375 93.430625 17.10625 96.17375 17 99 C11.39 99 5.78 99 0 99 C0 66.33 0 33.66 0 0 Z " fill="#F5F6F7" transform="translate(555,454)"/>
<path d="M0 0 C7.8548531 -0.38630425 13.36460729 0.97454708 19.9609375 5.2734375 C20.4559375 5.7684375 20.4559375 5.7684375 20.9609375 6.2734375 C21.2909375 4.6234375 21.6209375 2.9734375 21.9609375 1.2734375 C27.5709375 1.2734375 33.1809375 1.2734375 38.9609375 1.2734375 C39.05188648 9.76737257 39.12502267 18.2609189 39.16818619 26.75521278 C39.18891923 30.70092721 39.21696937 34.64628666 39.26269531 38.59179688 C39.30667102 42.41088645 39.33018148 46.2296381 39.34044647 50.04896164 C39.34774641 51.49439172 39.36199647 52.93980669 39.38385773 54.38508987 C39.52880238 64.37978527 38.20824922 72.85057239 34.9609375 82.2734375 C34.3009375 82.2734375 33.6409375 82.2734375 32.9609375 82.2734375 C32.69925781 82.87027344 32.43757813 83.46710938 32.16796875 84.08203125 C29.28175272 89.32205453 22.79192874 94.11375339 17.10595703 95.83496094 C13.05922256 96.66217868 8.95236252 96.50044071 4.8359375 96.5234375 C3.93617188 96.5440625 3.03640625 96.5646875 2.109375 96.5859375 C-6.72127395 96.63668836 -14.29683373 94.55203761 -22.0390625 90.2734375 C-21.10804317 84.11775674 -20.24484457 78.66498007 -17.0390625 73.2734375 C-15.894375 73.7375 -15.894375 73.7375 -14.7265625 74.2109375 C-12.85116573 74.95237343 -10.95221598 75.63571967 -9.0390625 76.2734375 C-9.0390625 76.9334375 -9.0390625 77.5934375 -9.0390625 78.2734375 C-1.31562698 79.72158166 7.23455335 80.87963757 14.5859375 77.7109375 C20.47706578 71.66477953 21.63008402 66.49514637 21.9609375 58.2734375 C21.34605469 58.76714844 20.73117187 59.26085937 20.09765625 59.76953125 C19.28941406 60.41019531 18.48117187 61.05085937 17.6484375 61.7109375 C16.84792969 62.34902344 16.04742187 62.98710938 15.22265625 63.64453125 C9.13336353 68.03008404 -0.35757438 66.94327306 -7.5234375 65.91796875 C-13.60252993 64.10639921 -17.52229919 59.34194338 -21.0390625 54.2734375 C-26.74610471 43.3198637 -27.74520322 31.0559658 -24.0390625 19.2734375 C-21.45780136 11.88618185 -16.11996543 4.97006426 -9.1328125 1.26171875 C-6.12262763 0.3624898 -3.11982806 0.28070432 0 0 Z " fill="#F3F3F4" transform="translate(443.0390625,483.7265625)"/>
<path d="M0 0 C5.49107855 -0.33533304 9.28669248 0.45019647 13.80078125 3.6484375 C17.96935796 7.52058209 21.37551235 12.86984643 21.68557739 18.64736938 C21.68637299 19.57923065 21.68716858 20.51109192 21.68798828 21.47119141 C21.69114044 22.52883698 21.6942926 23.58648254 21.69754028 24.67617798 C21.69450394 26.38721207 21.69450394 26.38721207 21.69140625 28.1328125 C21.69236298 29.30258636 21.6933197 30.47236023 21.69430542 31.67758179 C21.6949862 34.15061497 21.693139 36.62364994 21.68896484 39.09667969 C21.68360563 42.89782689 21.68891824 46.69885644 21.6953125 50.5 C21.69465189 52.89843776 21.69337108 55.29687545 21.69140625 57.6953125 C21.69343048 58.84005035 21.69545471 59.98478821 21.69754028 61.16421509 C21.69281204 62.74122696 21.69281204 62.74122696 21.68798828 64.35009766 C21.68719269 65.28036774 21.68639709 66.21063782 21.68557739 67.1690979 C21.55859375 69.28125 21.55859375 69.28125 20.55859375 70.28125 C17.86204521 70.35444621 15.19167917 70.37367537 12.49609375 70.34375 C11.73748047 70.33923828 10.97886719 70.33472656 10.19726562 70.33007812 C8.31767504 70.3182568 6.43812476 70.30032078 4.55859375 70.28125 C4.55312531 69.41467522 4.55312531 69.41467522 4.54754639 68.53059387 C4.50570099 62.51176888 4.43634132 56.493705 4.35107422 50.4753418 C4.32286733 48.22997656 4.30165143 45.98451209 4.28759766 43.73901367 C4.26616483 40.50908611 4.21951104 37.28035144 4.16796875 34.05078125 C4.16674011 33.04852005 4.16551147 32.04625885 4.16424561 31.0136261 C4.071875 26.6074584 3.97769783 23.98001031 1.67504883 20.14086914 C-0.91845308 17.86209373 -2.09880101 17.7110856 -5.50390625 17.90625 C-6.36113281 17.93976563 -7.21835937 17.97328125 -8.1015625 18.0078125 C-10.59241072 18.21826527 -10.59241072 18.21826527 -13.44140625 19.28125 C-15.36980674 22.19549919 -15.70462403 24.60075233 -15.76025391 28.04980469 C-15.7801236 28.99047791 -15.79999329 29.93115112 -15.82046509 30.90032959 C-15.8377919 32.41146332 -15.8377919 32.41146332 -15.85546875 33.953125 C-15.8748349 34.99067932 -15.89420105 36.02823364 -15.91415405 37.097229 C-15.97389467 40.40848592 -16.02031355 43.71977771 -16.06640625 47.03125 C-16.10459107 49.27735884 -16.1436431 51.52345312 -16.18359375 53.76953125 C-16.27959186 59.2733191 -16.36364365 64.77717551 -16.44140625 70.28125 C-22.38140625 70.28125 -28.32140625 70.28125 -34.44140625 70.28125 C-34.47113525 68.12372192 -34.47113525 68.12372192 -34.50146484 65.92260742 C-34.57744449 60.59430204 -34.6661737 55.26627249 -34.75878906 49.93823242 C-34.79711041 47.63067056 -34.83195766 45.32304832 -34.86328125 43.01538086 C-34.90886307 39.70144037 -34.96686913 36.38791673 -35.02734375 33.07421875 C-35.03889496 32.0397612 -35.05044617 31.00530365 -35.06234741 29.9394989 C-35.0822171 28.9787294 -35.10208679 28.0179599 -35.12255859 27.02807617 C-35.13588226 26.18202316 -35.14920593 25.33597015 -35.16293335 24.46427917 C-35.31398914 21.99033991 -35.31398914 21.99033991 -37.44140625 19.28125 C-41.16344524 18.04057034 -44.57513933 17.73413676 -48.44140625 18.28125 C-52.69807324 20.52287425 -52.69807324 20.52287425 -55.44140625 24.28125 C-55.55927316 25.76137824 -55.61833563 27.24641466 -55.64672852 28.73095703 C-55.66667374 29.65176056 -55.68661896 30.57256409 -55.70716858 31.52127075 C-55.73223732 33.01507767 -55.73223732 33.01507767 -55.7578125 34.5390625 C-55.7785936 35.55725067 -55.79937469 36.57543884 -55.82078552 37.6244812 C-55.88630091 40.88500055 -55.94517527 44.14560206 -56.00390625 47.40625 C-56.04708957 49.61328983 -56.0907038 51.82032128 -56.13476562 54.02734375 C-56.24198435 59.44522775 -56.34324621 64.86319461 -56.44140625 70.28125 C-62.05140625 70.28125 -67.66140625 70.28125 -73.44140625 70.28125 C-73.44140625 47.84125 -73.44140625 25.40125 -73.44140625 2.28125 C-68.16140625 2.28125 -62.88140625 2.28125 -57.44140625 2.28125 C-57.11140625 4.59125 -56.78140625 6.90125 -56.44140625 9.28125 C-55.71953125 8.518125 -54.99765625 7.755 -54.25390625 6.96875 C-49.12471078 2.06751877 -45.19648083 0.69865629 -38.12890625 0.71875 C-37.372146 0.7182666 -36.61538574 0.7177832 -35.83569336 0.71728516 C-30.35221917 0.8818545 -26.8739315 1.92119202 -22.7890625 5.7734375 C-22.12197266 6.51980469 -22.12197266 6.51980469 -21.44140625 7.28125 C-20.78140625 7.94125 -20.12140625 8.60125 -19.44140625 9.28125 C-18.88453125 8.79914063 -18.32765625 8.31703125 -17.75390625 7.8203125 C-11.79064169 2.8845023 -7.57070438 0.87214514 0 0 Z " fill="#F2F3F3" transform="translate(328.44140625,482.71875)"/>
<path d="M0 0 C1.19363159 0.00966797 1.19363159 0.00966797 2.41137695 0.01953125 C10.98514944 0.28672006 15.96801184 3.05560409 21.9375 9.125 C29.67544651 18.56852637 30.125 29.73433508 30.125 41.5 C15.275 41.5 0.425 41.5 -14.875 41.5 C-13.885 43.81 -12.895 46.12 -11.875 48.5 C-11.545 49.49 -11.215 50.48 -10.875 51.5 C-5.17502362 54.34998819 2.15684774 54.5476496 8.28515625 52.9296875 C11.49612855 51.63439082 13.81822385 50.0495947 16.125 47.5 C16.785 47.5 17.445 47.5 18.125 47.5 C19.74609375 49.14453125 19.74609375 49.14453125 21.5625 51.3125 C24.09839332 54.32463265 24.09839332 54.32463265 26.84765625 57.13671875 C28.125 58.5 28.125 58.5 28.125 60.5 C25.9296875 62.375 25.9296875 62.375 23 64.5 C22.04867187 65.20125 21.09734375 65.9025 20.1171875 66.625 C11.42246776 72.07338835 -0.13492605 71.91051673 -9.9921875 69.84765625 C-16.73872254 67.39914743 -23.06803733 63.03863522 -26.375 56.5625 C-26.54 55.881875 -26.705 55.20125 -26.875 54.5 C-27.535 54.5 -28.195 54.5 -28.875 54.5 C-31.43605647 48.29553582 -32.17594553 42.45559681 -32.1875 35.8125 C-32.19265625 35.10037354 -32.1978125 34.38824707 -32.203125 33.65454102 C-32.08789205 24.78880606 -29.34846156 16.41877715 -23.4375 9.75 C-22.1690625 8.63625 -22.1690625 8.63625 -20.875 7.5 C-20.09125 6.79875 -19.3075 6.0975 -18.5 5.375 C-12.48646818 1.07962013 -7.24342967 -0.06109377 0 0 Z " fill="#F2F3F4" transform="translate(518.875,483.5)"/>
<path d="M0 0 C1.74609375 1.125 1.74609375 1.125 3.375 2.375 C3.98472656 2.7875 4.59445312 3.2 5.22265625 3.625 C12.22368721 8.85719299 14.972664 15.96098402 16.375 24.375 C16.375 29.325 16.375 34.275 16.375 39.375 C1.855 39.375 -12.665 39.375 -27.625 39.375 C-24.84993415 45.85015364 -23.63911545 48.36794228 -17.625 51.375 C-8.35668886 52.0964853 -3.11028251 50.98896189 4.375 45.375 C7.675 49.005 10.975 52.635 14.375 56.375 C12.28451309 60.55597383 11.47999934 61.26877311 7.625 63.5 C6.78453125 63.99757813 5.9440625 64.49515625 5.078125 65.0078125 C-3.91159181 69.55463459 -14.27714905 69.78131168 -24 67.3125 C-32.93073807 64.09328046 -38.33453084 58.49167543 -42.47265625 50.06640625 C-47.02923086 39.42410149 -46.58076217 29.31247914 -42.8828125 18.38671875 C-39.55576149 10.42039475 -32.93524872 2.65734186 -24.8984375 -0.796875 C-17.43508462 -2.68497859 -7.10257407 -3.3555468 0 0 Z " fill="#F3F4F4" transform="translate(793.625,485.625)"/>
<path d="M0 0 C0.86044922 -0.02900391 1.72089844 -0.05800781 2.60742188 -0.08789062 C9.37853239 -0.15422404 15.60471821 1.11695841 20.86938477 5.65429688 C27.36164808 12.89811873 27.73827009 19.89429839 27.60546875 29.15234375 C27.60122391 30.27443741 27.59697906 31.39653107 27.59260559 32.55262756 C27.57588097 36.11866767 27.53823922 39.68413215 27.5 43.25 C27.48494517 45.67512202 27.47125817 48.10025294 27.45898438 50.52539062 C27.42599764 56.45464716 27.37425737 62.38347615 27.3125 68.3125 C22.3625 68.3125 17.4125 68.3125 12.3125 68.3125 C12.3125 66.3325 12.3125 64.3525 12.3125 62.3125 C11.9 62.71082031 11.4875 63.10914063 11.0625 63.51953125 C4.29481187 69.72828085 -1.77517368 71.94566044 -11.00390625 71.6640625 C-16.44789639 70.95087602 -20.25006933 68.82762962 -24 64.875 C-24.8353125 63.6065625 -24.8353125 63.6065625 -25.6875 62.3125 C-26.20957031 61.56355469 -26.73164063 60.81460938 -27.26953125 60.04296875 C-30.41552876 53.98497355 -29.38689172 45.82067839 -27.625 39.375 C-25.78362101 34.67690221 -22.82490457 32.06241132 -18.6875 29.3125 C-18.10097656 28.89871094 -17.51445312 28.48492188 -16.91015625 28.05859375 C-10.24976587 24.0172998 -2.26316613 24.20955018 5.1484375 25.99609375 C7.23306783 26.68329839 9.27930083 27.48543593 11.3125 28.3125 C10.65656708 22.05391636 10.65656708 22.05391636 8.3125 16.3125 C1.65726888 14.49533255 -5.86644527 14.03478236 -12.125 17.1875 C-13.31945097 17.88404808 -14.50720238 18.59222929 -15.6875 19.3125 C-17.01565854 19.98941736 -18.34775171 20.65882061 -19.6875 21.3125 C-20.86270646 19.71457898 -22.02741247 18.10893092 -23.1875 16.5 C-23.8371875 15.60667969 -24.486875 14.71335937 -25.15625 13.79296875 C-26.6875 11.3125 -26.6875 11.3125 -26.6875 8.3125 C-24.6070946 7.16106175 -22.52348003 6.01625888 -20.4375 4.875 C-19.85097656 4.54951172 -19.26445312 4.22402344 -18.66015625 3.88867188 C-12.26673314 0.40461546 -7.1541105 0.0786166 0 0 Z " fill="#F5F6F6" transform="translate(383.6875,483.6875)"/>
<path d="M0 0 C5.64949171 3.36864102 7.89362824 7.64180219 9.8605957 13.72436523 C10.97177602 18.22212108 10.97270291 22.63841869 10.9375 27.25 C10.9674707 28.63735352 10.9674707 28.63735352 10.99804688 30.05273438 C10.99149615 39.40061462 8.00557396 48.40392588 1.5 55.3125 C-3.83615661 59.347155 -10.09481942 59.04522631 -16.5 58.3125 C-22.7730603 56.64533533 -26.99188496 53.88421213 -30.5 48.3125 C-35.79355532 36.69668225 -34.36303879 23.1513818 -30.5 11.3125 C-24.6100433 -0.2570578 -12.26428564 -5.72795262 0 0 Z " fill="#63C8A6" transform="translate(212.5,899.6875)"/>
<path d="M0 0 C0.77988281 0.00064453 1.55976562 0.00128906 2.36328125 0.00195312 C8.10942293 0.04692293 8.10942293 0.04692293 9.25 1.1875 C9.32313567 3.71799402 9.34247527 6.22054837 9.3125 8.75 C9.30798828 9.46091797 9.30347656 10.17183594 9.29882812 10.90429688 C9.28700864 12.66540013 9.26907263 14.42646036 9.25 16.1875 C8.47914063 16.17589844 7.70828125 16.16429687 6.9140625 16.15234375 C5.91117188 16.14332031 4.90828125 16.13429688 3.875 16.125 C2.37839844 16.10759766 2.37839844 16.10759766 0.8515625 16.08984375 C-1.73432453 16.00743398 -1.73432453 16.00743398 -3.75 17.1875 C-4.44227032 19.99730673 -4.44227032 19.99730673 -4.875 23.25 C-5.16375 25.209375 -5.4525 27.16875 -5.75 29.1875 C-1.13 29.1875 3.49 29.1875 8.25 29.1875 C8.25 34.1375 8.25 39.0875 8.25 44.1875 C3.63 44.1875 -0.99 44.1875 -5.75 44.1875 C-5.75 61.6775 -5.75 79.1675 -5.75 97.1875 C-11.36 97.1875 -16.97 97.1875 -22.75 97.1875 C-22.75 80.0275 -22.75 62.8675 -22.75 45.1875 C-26.05 45.1875 -29.35 45.1875 -32.75 45.1875 C-32.75 39.9075 -32.75 34.6275 -32.75 29.1875 C-29.45 29.1875 -26.15 29.1875 -22.75 29.1875 C-22.80220703 27.9190625 -22.80220703 27.9190625 -22.85546875 26.625 C-23.06136615 17.9969186 -22.93532618 11.3257887 -16.875 4.8125 C-11.92045071 -0.03375313 -6.55119099 -0.10495163 0 0 Z " fill="#F0F1F2" transform="translate(740.75,455.8125)"/>
<path d="M0 0 C1.56041016 -0.04253906 1.56041016 -0.04253906 3.15234375 -0.0859375 C6.0625 0.375 6.0625 0.375 8.39453125 1.6953125 C11.10101504 6.043434 10.74239934 10.60324338 10.8125 15.625 C10.84214844 16.65625 10.87179687 17.6875 10.90234375 18.75 C10.97294778 21.29174495 11.02569009 23.83257783 11.0625 26.375 C13.04159398 26.40186553 15.02078971 26.42133375 17 26.4375 C18.10214844 26.44910156 19.20429688 26.46070313 20.33984375 26.47265625 C22.97697634 26.68762571 22.97697634 26.68762571 24.0625 25.375 C24.11315885 23.68956122 24.09806007 22.00204827 24.0546875 20.31640625 C24.03792969 19.29095703 24.02117187 18.26550781 24.00390625 17.20898438 C23.95971117 15.03172663 23.90765413 12.85461397 23.84765625 10.67773438 C23.83347656 9.65099609 23.81929688 8.62425781 23.8046875 7.56640625 C23.7826123 6.61967041 23.76053711 5.67293457 23.73779297 4.69750977 C23.84494629 3.93108154 23.95209961 3.16465332 24.0625 2.375 C27.64532235 -0.01354824 29.37643033 0.10601198 33.625 0.125 C34.78128906 0.11984375 35.93757813 0.1146875 37.12890625 0.109375 C40.0625 0.375 40.0625 0.375 42.0625 2.375 C42.31646729 4.56944275 42.31646729 4.56944275 42.32128906 7.32788086 C42.32759338 8.35912582 42.33389771 9.39037079 42.34039307 10.4528656 C42.3363446 11.57056839 42.33229614 12.68827118 42.328125 13.83984375 C42.33099518 15.55621788 42.33099518 15.55621788 42.33392334 17.30726624 C42.33528632 19.73080668 42.33158203 22.15435439 42.32324219 24.57788086 C42.3125543 28.29362364 42.32312889 32.00888182 42.3359375 35.72460938 C42.33461573 38.0755219 42.33205299 40.42643413 42.328125 42.77734375 C42.33217346 43.89302231 42.33622192 45.00870087 42.34039307 46.15818787 C42.33408875 47.19258499 42.32778442 48.22698212 42.32128906 49.29272461 C42.31969788 50.20380478 42.31810669 51.11488495 42.31646729 52.05357361 C42.0625 54.375 42.0625 54.375 40.0625 57.375 C37.29058898 57.62349576 34.76362612 57.70183409 32 57.625 C30.88141602 57.61726562 30.88141602 57.61726562 29.74023438 57.609375 C24.21660426 57.52910426 24.21660426 57.52910426 23.0625 56.375 C22.90594973 54.88861008 22.81183057 53.39550873 22.74609375 51.90234375 C22.70419922 51.00322266 22.66230469 50.10410156 22.61914062 49.17773438 C22.57982422 48.23220703 22.54050781 47.28667969 22.5 46.3125 C22.45681641 45.36310547 22.41363281 44.41371094 22.36914062 43.43554688 C22.26270868 41.08221824 22.16206846 38.72862901 22.0625 36.375 C17.7725 36.045 13.4825 35.715 9.0625 35.375 C9.07410156 36.95152344 9.08570313 38.52804687 9.09765625 40.15234375 C9.10703243 42.20572799 9.11613282 44.2591135 9.125 46.3125 C9.13337891 47.35341797 9.14175781 48.39433594 9.15039062 49.46679688 C9.15522461 50.95083008 9.15522461 50.95083008 9.16015625 52.46484375 C9.16801147 53.83950806 9.16801147 53.83950806 9.17602539 55.24194336 C9.0625 57.375 9.0625 57.375 8.0625 58.375 C5.9403002 58.50069503 3.81338655 58.55076773 1.6875 58.5625 C-0.05660156 58.58376953 -0.05660156 58.58376953 -1.8359375 58.60546875 C-4.9375 58.375 -4.9375 58.375 -7.9375 56.375 C-8.35641479 54.09790039 -8.35641479 54.09790039 -8.41748047 51.22265625 C-8.46169632 49.61088501 -8.46169632 49.61088501 -8.50680542 47.96655273 C-8.52260651 46.80196533 -8.53840759 45.63737793 -8.5546875 44.4375 C-8.57975372 43.24648682 -8.60481995 42.05547363 -8.63064575 40.82836914 C-8.67968915 38.30660936 -8.72121477 35.78469401 -8.75585938 33.26269531 C-8.81227418 29.39049998 -8.90059505 25.5199422 -8.9921875 21.6484375 C-9.03577882 19.20315855 -9.07750832 16.75784556 -9.1171875 14.3125 C-9.14513397 13.1479126 -9.17308044 11.9833252 -9.20187378 10.78344727 C-9.21243805 9.70893311 -9.22300232 8.63441895 -9.23388672 7.52734375 C-9.24926483 6.57851318 -9.26464294 5.62968262 -9.28048706 4.65209961 C-9.16730133 3.90065674 -9.0541156 3.14921387 -8.9375 2.375 C-5.51828453 0.09552302 -4.03439823 0.04986895 0 0 Z " fill="#64CAA8" transform="translate(362.9375,898.625)"/>
<path d="M0 0 C0.7734375 -0.00515625 1.546875 -0.0103125 2.34375 -0.015625 C4.5 0.25 4.5 0.25 7.5 2.25 C7.5 3.57 7.5 4.89 7.5 6.25 C8.386875 5.425 9.27375 4.6 10.1875 3.75 C15.34686131 0.03610392 21.40830184 0.32467876 27.5 1.25 C30.3984375 2.65625 30.3984375 2.65625 32.5 4.25 C32.5 4.91 32.5 5.57 32.5 6.25 C32.99628906 5.96125 33.49257813 5.6725 34.00390625 5.375 C38.67623758 2.82161969 42.05375768 1.54400563 47.5 2.25 C51.34616512 3.58136485 53.02552379 4.45870919 55.13110352 7.97021484 C57.42156472 13.45800792 57.24165216 18.99334738 57.4375 24.875 C57.50517578 26.1021875 57.57285156 27.329375 57.64257812 28.59375 C57.68705078 29.77195312 57.73152344 30.95015625 57.77734375 32.1640625 C57.82109131 33.2360791 57.86483887 34.3080957 57.90991211 35.41259766 C57.39792763 38.95654265 56.27549843 40.07056019 53.5 42.25 C51.5 42.81640625 51.5 42.81640625 49.5 42.8125 C48.51 42.84537109 48.51 42.84537109 47.5 42.87890625 C44.13246799 41.81997529 43.23689889 40.31043102 41.5 37.25 C40.92420505 33.58622422 40.89439086 29.95365383 40.875 26.25 C40.84936573 24.29154182 40.81577627 22.33316827 40.7734375 20.375 C40.76747559 19.51132812 40.76151367 18.64765625 40.75537109 17.7578125 C40.47078461 14.96309704 39.650124 12.80049853 38.5 10.25 C36.11522671 11.96153709 34.6697593 13.33188697 34.12451172 16.28076172 C33.98879629 18.75408512 33.93937799 21.21043711 33.9375 23.6875 C33.87787136 34.87212864 33.87787136 34.87212864 29.5 39.25 C27.5390625 39.453125 27.5390625 39.453125 25.125 39.5 C24.33351563 39.52578125 23.54203125 39.5515625 22.7265625 39.578125 C20.5 39.25 20.5 39.25 18.89282227 38.14428711 C16.83896144 35.35096439 17.06332195 33.05014513 16.98828125 29.61328125 C16.93510742 27.66518555 16.93510742 27.66518555 16.88085938 25.67773438 C16.8577595 24.30599483 16.8349771 22.9342499 16.8125 21.5625 C16.77932458 20.17900393 16.74483469 18.79553871 16.70898438 17.41210938 C16.62636759 14.02482117 16.55725942 10.63779643 16.5 7.25 C11.67299511 11.82946618 10.41437794 14.36133566 10.21875 20.94140625 C10.18136719 22.05064453 10.14398437 23.15988281 10.10546875 24.30273438 C10.03503897 26.64648085 9.96472686 28.99023087 9.89453125 31.33398438 C9.85714844 32.44193359 9.81976562 33.54988281 9.78125 34.69140625 C9.73581055 36.21809937 9.73581055 36.21809937 9.68945312 37.77563477 C9.5 40.25 9.5 40.25 8.5 42.25 C5.38370851 43.28876383 3.1405571 43.38361625 -0.125 43.375 C-1.10726563 43.37757813 -2.08953125 43.38015625 -3.1015625 43.3828125 C-5.5 43.25 -5.5 43.25 -6.5 42.25 C-6.69755244 39.31817691 -6.83306007 36.408428 -6.921875 33.47265625 C-6.94977112 32.59097275 -6.97766724 31.70928925 -7.00640869 30.80088806 C-7.06290188 28.93220136 -7.11650759 27.06342551 -7.16748047 25.19458008 C-7.24956688 22.32762709 -7.35305553 19.4619344 -7.45703125 16.59570312 C-7.50914146 14.7838919 -7.55996564 12.97204314 -7.609375 11.16015625 C-7.64359558 10.2986647 -7.67781616 9.43717316 -7.71307373 8.54957581 C-7.76464844 6.13305664 -7.76464844 6.13305664 -7.5 2.25 C-4.377998 0.16866533 -3.56733011 -0.0237822 0 0 Z " fill="#64C9A7" transform="translate(504.5,913.75)"/>
<path d="M0 0 C5.1013239 0.01541185 9.90641087 0.39760863 14.9609375 1.1328125 C16.44044638 1.10591234 17.91972581 1.06332727 19.3984375 1.0078125 C25.59179428 0.95505818 30.11339285 2.56641595 34.8359375 6.5703125 C40.07521265 12.88826194 39.65304494 19.16043562 38.9609375 27.1328125 C37.52589403 33.16515092 34.91117192 36.87447724 29.7421875 40.2578125 C26.13068417 42.03188431 22.82649259 42.2697246 18.8359375 42.2578125 C17.53269531 42.26167969 17.53269531 42.26167969 16.203125 42.265625 C13.9609375 42.1328125 13.9609375 42.1328125 11.9609375 41.1328125 C12.2909375 41.7928125 12.6209375 42.4528125 12.9609375 43.1328125 C13.16042298 45.27300671 13.27366015 47.42174385 13.3359375 49.5703125 C13.38492188 50.72402344 13.43390625 51.87773438 13.484375 53.06640625 C12.9609375 56.1328125 12.9609375 56.1328125 10.69140625 58.01171875 C6.61141848 59.68690686 4.37053408 59.69276127 -0.0390625 59.1328125 C-3.30176005 56.23072889 -3.99452634 54.54671275 -4.46484375 50.17578125 C-4.4487096 48.55693164 -4.40921085 46.93821579 -4.3515625 45.3203125 C-4.33536865 44.43827148 -4.3191748 43.55623047 -4.30249023 42.64746094 C-4.23637605 39.47505078 -4.13663643 36.30440863 -4.0390625 33.1328125 C-3.98666583 31.04544402 -3.9376306 28.95801036 -3.8886261 26.87055969 C-3.80100745 23.20775498 -3.70211728 19.54528178 -3.6015625 15.8828125 C-3.58227692 15.15847015 -3.56299133 14.43412781 -3.54312134 13.68783569 C-3.48603399 11.62241024 -3.42194079 9.55732976 -3.35546875 7.4921875 C-3.31881104 6.29045898 -3.28215332 5.08873047 -3.24438477 3.85058594 C-2.96808602 0.19332361 -2.96808602 0.19332361 0 0 Z " fill="#64C9A7" transform="translate(764.0390625,898.8671875)"/>
<path d="M0 0 C1.08152344 -0.01417969 2.16304687 -0.02835938 3.27734375 -0.04296875 C6.0625 0.1875 6.0625 0.1875 8.0625 2.1875 C8.0390625 5.171875 8.0390625 5.171875 7.6875 8.9375 C7.05576742 16.3774009 6.95891382 23.71778516 7.0625 31.1875 C9.04741642 30.92073796 9.04741642 30.92073796 11.0625 30.1875 C12.01150644 27.34048068 12.21095968 25.43709403 12.2734375 22.4765625 C12.31597656 21.10371094 12.31597656 21.10371094 12.359375 19.703125 C12.41124204 17.78404443 12.45557708 15.86474474 12.4921875 13.9453125 C12.80925016 4.53912025 12.80925016 4.53912025 16.0625 1.1875 C18.69140625 0.62890625 18.69140625 0.62890625 21.625 0.75 C22.59566406 0.77191406 23.56632813 0.79382813 24.56640625 0.81640625 C27.0625 1.1875 27.0625 1.1875 29.0625 3.1875 C29.28523254 5.27909851 29.28523254 5.27909851 29.24536133 7.89331055 C29.23487259 8.87160324 29.22438385 9.84989594 29.21357727 10.85783386 C29.19079208 11.91924088 29.1680069 12.98064789 29.14453125 14.07421875 C29.11766487 15.7097747 29.11766487 15.7097747 29.09025574 17.37837219 C29.04899211 19.69106704 29.00239479 22.00367183 28.95092773 24.31616211 C28.87568539 27.84287482 28.82643132 31.36929795 28.77929688 34.89648438 C28.73596189 37.14326033 28.69108917 39.39000727 28.64453125 41.63671875 C28.63186722 42.68800461 28.61920319 43.73929047 28.6061554 44.82243347 C28.40965518 52.26377201 27.61238295 57.39477106 22.4375 63.0625 C18.28148166 65.67925229 14.96733882 66.64458175 10.0625 66.1875 C6.19331914 64.25290957 3.06400387 62.07931308 1.0625 58.1875 C0.40714494 53.84577272 0.78836064 51.10644821 3.1875 47.5 C5.69609903 44.3033281 8.5990847 42.31277757 12.0625 40.1875 C12.3925 39.5275 12.7225 38.8675 13.0625 38.1875 C12.2375 38.6825 11.4125 39.1775 10.5625 39.6875 C6.49274806 41.4316794 3.41774058 42.10713247 -0.9375 41.1875 C-5.79909296 38.12649702 -7.56268966 35.67412841 -8.9375 30.1875 C-9.21203706 27.09877889 -9.22208523 24.0367043 -9.1875 20.9375 C-9.18290771 20.09719238 -9.17831543 19.25688477 -9.17358398 18.39111328 C-8.9057311 0.05294727 -8.9057311 0.05294727 0 0 Z " fill="#64C9A7" transform="translate(658.9375,911.8125)"/>
<path d="M0 0 C1.45599609 0.00773438 1.45599609 0.00773438 2.94140625 0.015625 C3.90949219 0.01046875 4.87757813 0.0053125 5.875 0 C8.50390625 0.265625 8.50390625 0.265625 11.50390625 2.265625 C11.50390625 3.255625 11.50390625 4.245625 11.50390625 5.265625 C11.97699219 4.96527344 12.45007813 4.66492188 12.9375 4.35546875 C17.655964 1.64212201 21.05860005 0.72102358 26.4609375 1.66015625 C30.77079074 2.93745501 32.86965044 5.19309997 35.109375 8.98046875 C37.71353497 15.11519854 37.57653318 22.36901982 35.8125 28.77734375 C33.67447304 33.47384649 30.69408011 36.32358803 26.50390625 39.265625 C23.82746668 40.15777152 22.25006247 40.40102711 19.50390625 40.390625 C18.48296875 40.39449219 18.48296875 40.39449219 17.44140625 40.3984375 C15.50390625 40.265625 15.50390625 40.265625 12.50390625 39.265625 C12.52710938 40.31363281 12.5503125 41.36164062 12.57421875 42.44140625 C12.59297928 43.82030537 12.61117918 45.1992122 12.62890625 46.578125 C12.65404297 47.61356445 12.65404297 47.61356445 12.6796875 48.66992188 C12.71608419 52.43697896 12.64769489 54.04994204 10.50390625 57.265625 C8.04296875 57.6640625 8.04296875 57.6640625 5.12890625 57.640625 C4.17242187 57.64835938 3.2159375 57.65609375 2.23046875 57.6640625 C-0.96495081 57.19711007 -2.18420832 56.49396361 -4.49609375 54.265625 C-4.99057007 51.94419861 -4.99057007 51.94419861 -4.98193359 49.18334961 C-4.98808685 48.14895248 -4.99424011 47.11455536 -5.00057983 46.04881287 C-4.9862088 44.93313431 -4.97183777 43.81745575 -4.95703125 42.66796875 C-4.95611481 41.5227626 -4.95519836 40.37755646 -4.95425415 39.19764709 C-4.94820937 36.77584694 -4.93243735 34.35405456 -4.90771484 31.93237305 C-4.8712045 28.21440255 -4.86669539 24.49742789 -4.8671875 20.77929688 C-4.85735701 18.42967884 -4.8457003 16.08006759 -4.83203125 13.73046875 C-4.8298056 12.61276596 -4.82757996 11.49506317 -4.82528687 10.3434906 C-4.81252716 9.31224564 -4.79976746 8.28100067 -4.78662109 7.21850586 C-4.7789975 6.30822128 -4.7713739 5.39793671 -4.76351929 4.46006775 C-4.35920505 1.1423425 -3.26766293 0.34773252 0 0 Z " fill="#64CAA7" transform="translate(231.49609375,913.734375)"/>
<path d="M0 0 C1.12148438 0.00644531 2.24296875 0.01289062 3.3984375 0.01953125 C6.625 0.1875 6.625 0.1875 9.3203125 0.7421875 C11.82480137 1.37568542 11.82480137 1.37568542 15.125 0.5 C18.625 0.1875 18.625 0.1875 21.29077148 1.68530273 C24.33785452 4.95165082 24.42116116 7.64467175 24.47265625 11.91015625 C24.50956825 13.02299232 24.50956825 13.02299232 24.54722595 14.15830994 C24.59306516 15.72218073 24.6267917 17.28644767 24.64916992 18.85083008 C24.68745448 21.24715063 24.77355182 23.6383957 24.86523438 26.03320312 C24.90390261 27.55461748 24.93980452 29.07610519 24.97265625 30.59765625 C24.9994899 31.31333267 25.02632355 32.02900909 25.05397034 32.76637268 C25.07445499 36.03442682 25.06713435 37.72268168 22.7644043 40.14355469 C20.12894379 41.42955596 18.2936995 41.49021182 15.375 41.375 C14.03695312 41.33439453 14.03695312 41.33439453 12.671875 41.29296875 C11.99640625 41.25816406 11.3209375 41.22335937 10.625 41.1875 C9.965 39.2075 9.305 37.2275 8.625 35.1875 C8.15449219 35.60902344 7.68398438 36.03054688 7.19921875 36.46484375 C6.57660156 37.01269531 5.95398438 37.56054688 5.3125 38.125 C4.69761719 38.67027344 4.08273437 39.21554687 3.44921875 39.77734375 C-0.24877275 42.63596245 -3.86479867 42.63852013 -8.375 42.1875 C-12.54905933 40.35707234 -15.45116469 37.81081977 -17.3125 33.625 C-19.70786026 25.69036912 -19.36535862 17.54476986 -15.5859375 10.16015625 C-11.54946369 3.5846102 -8.03099785 -0.10107663 0 0 Z " fill="#64C8A6" transform="translate(427.375,914.8125)"/>
<path d="M0 0 C4.81026222 3.2615424 7.6652754 7.32215929 8.76953125 13.0546875 C9.93270622 30.67392799 9.93270622 30.67392799 4.76953125 37.0546875 C4.30675781 37.65023437 3.84398437 38.24578125 3.3671875 38.859375 C-0.13628328 42.57699436 -3.08649674 43.48745022 -8.16796875 43.6796875 C-14.39687619 43.33709759 -19.20029442 41.95311512 -23.7578125 37.59375 C-28.67329545 31.980126 -29.73895867 27.6923856 -29.61328125 20.3671875 C-28.86026929 13.85132888 -26.71585502 7.38807494 -21.8671875 2.8359375 C-15.51726911 -1.45378514 -7.28699376 -3.08835813 0 0 Z " fill="#63C7A6" transform="translate(593.23046875,914.9453125)"/>
<path d="M0 0 C1.17755859 -0.00773438 1.17755859 -0.00773438 2.37890625 -0.015625 C4.4375 0.25 4.4375 0.25 6.4375 2.25 C6.83514263 4.23821313 7.17525349 6.23944339 7.4375 8.25 C7.93378906 7.816875 8.43007813 7.38375 8.94140625 6.9375 C12.35969067 4.13541486 14.63836413 2.38778205 19.0625 1.625 C23.18644619 2.38869374 25.29492438 3.46453525 28.4375 6.25 C31.12205746 11.4195435 31.94501666 15.72345444 32.125 21.5 C32.15480957 22.24072754 32.18461914 22.98145508 32.21533203 23.74462891 C32.27161529 25.22503929 32.32189742 26.7056919 32.36572266 28.18652344 C32.42965385 30.02443665 32.5452244 31.86038852 32.66796875 33.6953125 C32.79679318 36.30661853 32.86955639 38.67239083 32.4375 41.25 C29.78651601 43.9789541 28.09045457 44.15672078 24.375 44.6875 C20.75941101 44.14900802 19.67733735 43.07053592 17.4375 40.25 C16.16164014 37.69828028 16.24483799 35.76405589 16.15625 32.91015625 C16.11886719 31.84732422 16.08148437 30.78449219 16.04296875 29.68945312 C16.00816406 28.57505859 15.97335937 27.46066406 15.9375 26.3125 C15.86865248 24.11575411 15.79591247 21.91912579 15.71875 19.72265625 C15.68845703 18.74562744 15.65816406 17.76859863 15.62695312 16.76196289 C15.53063063 14.12275056 15.53063063 14.12275056 14.4375 11.25 C13.4475 11.25 12.4575 11.25 11.4375 11.25 C8.12808577 18.5307113 8.20286708 26.32406504 7.875 34.1875 C7.83181641 35.15751953 7.78863281 36.12753906 7.74414062 37.12695312 C7.63887907 39.50118601 7.53674293 41.87550921 7.4375 44.25 C4.71207733 45.61271133 2.47662726 45.41923601 -0.5625 45.4375 C-1.635 45.45167969 -2.7075 45.46585938 -3.8125 45.48046875 C-6.5625 45.25 -6.5625 45.25 -8.5625 43.25 C-8.70411132 40.18408667 -8.72379614 37.21837986 -8.64453125 34.15625 C-8.62662033 33.2537854 -8.60870941 32.3513208 -8.59025574 31.42150879 C-8.54902452 29.51151776 -8.50243396 27.6016361 -8.45092773 25.69189453 C-8.37531281 22.76212023 -8.32632241 19.83269953 -8.27929688 16.90234375 C-8.23599399 15.04944062 -8.19112476 13.1965733 -8.14453125 11.34375 C-8.13186722 10.46352173 -8.11920319 9.58329346 -8.1061554 8.6763916 C-8.02661133 6.20898438 -8.02661133 6.20898438 -7.5625 2.25 C-4.42838698 0.16059132 -3.58799528 -0.02364412 0 0 Z " fill="#64C9A7" transform="translate(614.5625,912.75)"/>
<path d="M0 0 C1.17755859 -0.00773438 1.17755859 -0.00773438 2.37890625 -0.015625 C4.4375 0.25 4.4375 0.25 6.4375 2.25 C6.83514263 4.23821313 7.17525349 6.23944339 7.4375 8.25 C7.93378906 7.816875 8.43007813 7.38375 8.94140625 6.9375 C12.35969067 4.13541486 14.63836413 2.38778205 19.0625 1.625 C23.18644619 2.38869374 25.29492438 3.46453525 28.4375 6.25 C31.12205746 11.4195435 31.94501666 15.72345444 32.125 21.5 C32.15480957 22.24072754 32.18461914 22.98145508 32.21533203 23.74462891 C32.27161529 25.22503929 32.32189742 26.7056919 32.36572266 28.18652344 C32.42965385 30.02443665 32.5452244 31.86038852 32.66796875 33.6953125 C32.79679318 36.30661853 32.86955639 38.67239083 32.4375 41.25 C29.78651601 43.9789541 28.09045457 44.15672078 24.375 44.6875 C20.75941101 44.14900802 19.67733735 43.07053592 17.4375 40.25 C16.16164014 37.69828028 16.24483799 35.76405589 16.15625 32.91015625 C16.11886719 31.84732422 16.08148438 30.78449219 16.04296875 29.68945312 C16.00816406 28.57505859 15.97335937 27.46066406 15.9375 26.3125 C15.86865248 24.11575411 15.79591247 21.91912579 15.71875 19.72265625 C15.68845703 18.74562744 15.65816406 17.76859863 15.62695312 16.76196289 C15.53063063 14.12275056 15.53063063 14.12275056 14.4375 11.25 C13.4475 11.25 12.4575 11.25 11.4375 11.25 C8.12808577 18.5307113 8.20286708 26.32406504 7.875 34.1875 C7.83181641 35.15751953 7.78863281 36.12753906 7.74414062 37.12695312 C7.63887907 39.50118601 7.53674293 41.87550921 7.4375 44.25 C4.71207733 45.61271133 2.47662726 45.41923601 -0.5625 45.4375 C-1.635 45.45167969 -2.7075 45.46585938 -3.8125 45.48046875 C-6.5625 45.25 -6.5625 45.25 -8.5625 43.25 C-8.70411132 40.18408667 -8.72379614 37.21837986 -8.64453125 34.15625 C-8.62662033 33.2537854 -8.60870941 32.3513208 -8.59025574 31.42150879 C-8.54902452 29.51151776 -8.50243396 27.6016361 -8.45092773 25.69189453 C-8.37531281 22.76212023 -8.32632241 19.83269953 -8.27929688 16.90234375 C-8.23599399 15.04944062 -8.19112476 13.1965733 -8.14453125 11.34375 C-8.13186722 10.46352173 -8.11920319 9.58329346 -8.1061554 8.6763916 C-8.02661133 6.20898438 -8.02661133 6.20898438 -7.5625 2.25 C-4.42838698 0.16059132 -3.58799528 -0.02364412 0 0 Z " fill="#64C9A7" transform="translate(316.5625,912.75)"/>
<path d="M0 0 C4.08816751 1.579925 6.68260942 3.66127447 8.7265625 7.50390625 C9.04109887 10.86583593 8.96178936 14.13885533 8.7265625 17.50390625 C7.0765625 17.83390625 5.4265625 18.16390625 3.7265625 18.50390625 C3.4171875 17.41078125 3.1078125 16.31765625 2.7890625 15.19140625 C2.14318353 12.94982631 1.4642508 10.71697115 0.7265625 8.50390625 C-2.13464006 7.07330497 -4.11354335 7.11698044 -7.2734375 7.50390625 C-13.87450484 14.8122308 -12.72505467 27.3521491 -12.38720703 36.57177734 C-12.06041052 42.12170777 -11.25312664 47.34332215 -7.2734375 51.50390625 C-3.29470177 51.21971084 -1.04041123 50.54217798 1.8515625 47.87890625 C4.7265625 45.50390625 4.7265625 45.50390625 7.1015625 45.69140625 C7.6378125 45.95953125 8.1740625 46.22765625 8.7265625 46.50390625 C8.23726928 50.7444475 5.76263827 53.68863599 2.7265625 56.50390625 C-2.7769308 59.74125525 -8.03012187 60.39005428 -14.2734375 59.50390625 C-20.63118155 57.40134523 -25.06666001 52.36991494 -28.3125 46.68359375 C-32.32441404 37.12249019 -31.72414541 23.07722119 -28.18359375 13.4765625 C-22.51428967 1.18901502 -13.14428604 -2.86825486 0 0 Z " fill="#64C9A7" transform="translate(836.2734375,898.49609375)"/>
<path d="M0 0 C1.33278992 0.00303635 1.33278992 0.00303635 2.69250488 0.00613403 C3.5987561 0.00517731 4.50500732 0.00422058 5.4387207 0.00323486 C7.35876535 0.002553 9.27881229 0.00440771 11.19885254 0.00857544 C14.14861192 0.01392361 17.09821902 0.00863066 20.04797363 0.00222778 C21.90865105 0.00288856 23.76932838 0.00416972 25.63000488 0.00613403 C26.51853149 0.0041098 27.40705811 0.00208557 28.32250977 0 C34.546305 0.02399665 34.546305 0.02399665 35.66125488 1.13894653 C35.84875488 3.57644653 35.84875488 3.57644653 35.66125488 6.13894653 C33.66125488 8.13894653 33.66125488 8.13894653 30.84094238 8.33425903 C29.75039551 8.31105591 28.65984863 8.28785278 27.53625488 8.26394653 C26.44055176 8.24589966 25.34484863 8.22785278 24.21594238 8.20925903 C23.37289551 8.18605591 22.52984863 8.16285278 21.66125488 8.13894653 C21.66569611 8.72110428 21.67013733 9.30326202 21.67471313 9.90306091 C21.71890638 15.95358835 21.7491046 22.00407006 21.77111816 28.05471802 C21.78118546 30.31385154 21.79484026 32.57297201 21.81213379 34.83206177 C21.83634996 38.07631653 21.84773064 41.32039924 21.85656738 44.56472778 C21.86688995 45.57731155 21.87721252 46.58989532 21.8878479 47.63316345 C21.88799896 48.5739122 21.88815002 49.51466095 21.88830566 50.48391724 C21.89274689 51.31220535 21.89718811 52.14049347 21.90176392 52.99388123 C21.66125488 55.13894653 21.66125488 55.13894653 19.66125488 58.13894653 C16.87524265 59.06761728 15.05059399 59.30236871 12.16125488 59.32644653 C11.38781738 59.34062622 10.61437988 59.35480591 9.81750488 59.36941528 C7.66125488 59.13894653 7.66125488 59.13894653 4.66125488 57.13894653 C4.30049133 55.03820801 4.30049133 55.03820801 4.32067871 52.41384888 C4.3209053 51.43298309 4.3211319 50.45211731 4.32136536 49.44152832 C4.33684921 48.38003571 4.35233307 47.31854309 4.36828613 46.22488403 C4.37253098 45.14010773 4.37677582 44.05533142 4.38114929 42.93768311 C4.39798188 39.46285486 4.43564299 35.98860035 4.47375488 32.51394653 C4.48879577 30.16239239 4.50248521 27.81082919 4.51477051 25.45925903 C4.54790035 19.6856248 4.59814506 13.91232664 4.66125488 8.13894653 C3.87879395 8.1505481 3.09633301 8.16214966 2.29016113 8.17410278 C1.27824707 8.18312622 0.26633301 8.19214966 -0.77624512 8.20144653 C-1.78558105 8.2130481 -2.79491699 8.22464966 -3.83483887 8.23660278 C-6.33874512 8.13894653 -6.33874512 8.13894653 -7.33874512 7.13894653 C-7.46374512 4.13894653 -7.46374512 4.13894653 -7.33874512 1.13894653 C-5.41617337 -0.78362522 -2.55789404 0.00986229 0 0 Z " fill="#63C8A6" transform="translate(722.3387451171875,897.8610534667969)"/>
<path d="M0 0 C5.61 0 11.22 0 17 0 C17 22.44 17 44.88 17 68 C11.39 68 5.78 68 0 68 C0 45.56 0 23.12 0 0 Z " fill="#F3F4F6" transform="translate(688,485)"/>
<path d="M0 0 C5.61 0 11.22 0 17 0 C17 22.44 17 44.88 17 68 C11.39 68 5.78 68 0 68 C0 45.56 0 23.12 0 0 Z " fill="#F4F5F6" transform="translate(228,485)"/>
<path d="M0 0 C4.324855 2.20322802 7.60172751 4.75690252 10 9 C10.81656649 13.97438976 10.52819475 17.83797156 8.4375 22.4375 C5.50636391 25.51895076 3.03150784 26.7041582 -1 28 C-2.32 28 -3.64 28 -5 28 C-4.01 30.64 -3.02 33.28 -2 36 C1.63 36 5.26 36 9 36 C9.495 38.475 9.495 38.475 10 41 C3.13007283 45.31054254 -2.95471134 46.1349783 -11 45 C-16.07932896 43.25874505 -18.97264245 40.61242125 -21.4375 35.875 C-24.70887602 28.33469831 -25.21573662 21.45656692 -22.25 13.6875 C-19.63659986 7.86881467 -16.79487212 3.78123641 -10.9921875 0.73046875 C-7.30456233 -0.62166048 -3.84523894 -0.69466908 0 0 Z " fill="#64C8A6" transform="translate(295,913)"/>
<path d="M0 0 C4.0310441 1.05157672 5.89544582 2.83973778 8.875 5.75 C10.35194068 8.70388136 10.08430797 11.40161882 10.125 14.6875 C10.15078125 15.93402344 10.1765625 17.18054688 10.203125 18.46484375 C9.875 21.75 9.875 21.75 8.57421875 23.6640625 C5.65527009 25.52950555 3.22306714 25.16116614 -0.125 24.75 C-2.5625 23.4375 -2.5625 23.4375 -4.125 20.75 C-4.44896453 17.05892873 -4.35432784 13.44472631 -4.125 9.75 C-8.0876587 13.31639283 -9.89883829 16.31311271 -10.39624023 21.67260742 C-10.40856689 22.72295166 -10.42089355 23.7732959 -10.43359375 24.85546875 C-10.45873047 26.00337891 -10.48386719 27.15128906 -10.50976562 28.33398438 C-10.54509255 30.74799066 -10.57630342 33.16206048 -10.60351562 35.57617188 C-10.62994141 36.72021484 -10.65636719 37.86425781 -10.68359375 39.04296875 C-10.69704834 40.0899292 -10.71050293 41.13688965 -10.72436523 42.21557617 C-10.85657471 43.05193604 -10.98878418 43.8882959 -11.125 44.75 C-14.42304927 46.94869951 -15.75568003 47.09908812 -19.625 47.1875 C-21.06359375 47.24744141 -21.06359375 47.24744141 -22.53125 47.30859375 C-25.125 46.75 -25.125 46.75 -26.7644043 44.62231445 C-28.36166471 41.25038393 -28.49808339 38.9549492 -28.48828125 35.234375 C-28.48763672 33.98269531 -28.48699219 32.73101563 -28.48632812 31.44140625 C-28.47021484 30.14074219 -28.45410156 28.84007812 -28.4375 27.5 C-28.44072266 26.21480469 -28.44394531 24.92960938 -28.44726562 23.60546875 C-28.40835861 16.70831525 -28.13561715 10.37153775 -26.125 3.75 C-22.91207942 2.14353971 -19.5991348 2.12558572 -16.125 2.75 C-13.125 5.25 -13.125 5.25 -11.125 7.75 C-10.61710937 7.2446875 -10.10921875 6.739375 -9.5859375 6.21875 C-4.01899745 0.96455939 -4.01899745 0.96455939 0 0 Z " fill="#63C8A6" transform="translate(484.125,911.25)"/>
<path d="M0 0 C4.55056092 2.27528046 8.22501916 5.12529651 10 10 C10.265625 13.05859375 10.265625 13.05859375 10.25 16.4375 C10.25515625 17.54996094 10.2603125 18.66242187 10.265625 19.80859375 C10.00441051 22.947009 9.33378454 25.16835425 8 28 C7.34 28 6.68 28 6 28 C5.67 28.99 5.34 29.98 5 31 C2.9375 31.6875 2.9375 31.6875 1 32 C1 32.66 1 33.32 1 34 C-9.54157783 34.61407249 -9.54157783 34.61407249 -14.5625 32.5 C-18.77612908 28.17832915 -20.11412246 23.5293371 -20.4375 17.5625 C-20.19984199 11.31857596 -17.81564945 6.25580689 -13.9375 1.4375 C-9.30681253 -0.8285811 -5.04110215 -0.94344649 0 0 Z " fill="#151923" transform="translate(455,500)"/>
<path d="M0 0 C5.44736842 0.60526316 5.44736842 0.60526316 7.75 2.25 C11.04435629 6.8620988 11.35462757 11.48066938 11.3125 17 C11.30621582 18.12015503 11.30621582 18.12015503 11.29980469 19.26293945 C11.11549766 28.4498604 10.02328826 37.73051416 4 45 C0.75 45.0625 0.75 45.0625 -3 44 C-8.08838426 38.33972241 -7.53055668 30.08708525 -7.25390625 22.9453125 C-6.67630031 13.97020475 -5.47422313 7.29199952 0 0 Z " fill="#151B25" transform="translate(206,905)"/>
<path d="M0 0 C7.25003634 0.10414417 7.25003634 0.10414417 10.4375 2.6875 C14.43186133 7.43755131 15.28618786 10.11048321 14.75 16.4375 C13.48948341 20.56919326 12.32176203 22.8936288 9.1875 25.875 C4.58833768 27.96552833 0.72121754 28.38977868 -4.25 27.4375 C-7.84403273 25.50791686 -9.99436831 22.82094754 -12.25 19.4375 C-12.92702748 14.42277319 -13.26046409 9.22472945 -10.375 4.875 C-6.75975439 0.72810062 -5.53997077 0.10751085 0 0 Z " fill="#C6C9D1" transform="translate(812.25,452.5625)"/>
<path d="M0 0 C1.11375 0.495 1.11375 0.495 2.25 1 C1.85204028 7.2987417 1.40535374 12.14482372 -3.515625 16.59765625 C-7.6133791 19.16949842 -12.10120281 18.83210719 -16.75 18 C-19.66101362 16.30190872 -20.11152916 15.16394369 -21.75 12 C-22.53647207 8.84796741 -22.33878115 7.37211024 -21.75 4 C-16.39499368 -3.14000843 -7.99265709 -2.13137522 0 0 Z " fill="#151822" transform="translate(392.75,524)"/>
<path d="M0 0 C5.5 3 5.5 3 7 6 C7.42950108 14.87635575 7.42950108 14.87635575 5 18 C1.48811257 20.89214259 -1.6285962 21.58069049 -6.06640625 21.4296875 C-9.38193058 20.69290432 -10.97124207 18.58205555 -13 16 C-14.53214888 12.93570224 -14.22938548 10.3834358 -14 7 C-11.01642297 0.60662065 -6.87232279 -1.08919833 0 0 Z " fill="#F4F5F6" transform="translate(240,454)"/>
<path d="M0 0 C1.22589844 0.01353516 1.22589844 0.01353516 2.4765625 0.02734375 C3.41628906 0.04474609 3.41628906 0.04474609 4.375 0.0625 C4.375 0.7225 4.375 1.3825 4.375 2.0625 C5.014375 2.35125 5.65375 2.64 6.3125 2.9375 C8.375 4.0625 8.375 4.0625 9.375 6.0625 C9.79568924 9.12151174 9.86528455 12.01008326 9.375 15.0625 C6.9375 18.0625 6.9375 18.0625 4.375 20.0625 C4.045 20.3925 3.715 20.7225 3.375 21.0625 C0.29842996 21.56466742 -2.55202806 21.59466152 -5.625 21.0625 C-8.94968079 18.41632549 -10.2528746 16.9563525 -11.0625 12.8359375 C-11.28132258 8.74669062 -10.95345325 6.5880252 -8.75 3.0625 C-5.68929905 0.18184028 -4.09501886 -0.05850027 0 0 Z " fill="#F4F5F7" transform="translate(696.625,453.9375)"/>
<path d="M0 0 C3.65042642 0.67048649 4.7856399 1.69534284 7.0625 4.5625 C9.50865974 9.45481949 8.79483707 16.24397995 7.19140625 21.3203125 C6.00787177 23.73394675 4.91463411 25.61361261 3.0625 27.5625 C-0.50894694 28.65209398 -2.5477474 29.2573763 -5.9375 27.5625 C-6.02491124 24.00015572 -6.07802896 20.43808892 -6.125 16.875 C-6.15013672 15.86759766 -6.17527344 14.86019531 -6.20117188 13.82226562 C-6.32603225 1.21136788 -6.32603225 1.21136788 0 0 Z " fill="#18222A" transform="translate(780.9375,906.4375)"/>
<path d="M0 0 C0.33 0 0.66 0 1 0 C1 15.84 1 31.68 1 48 C-1.475 48.495 -1.475 48.495 -4 49 C-4.495 47.515 -4.495 47.515 -5 46 C-6.3153341 45.29848848 -7.65117592 44.63474075 -9 44 C-10.8125 42.75 -10.8125 42.75 -12 41 C-12 36.88402041 -11.24194899 35.28537573 -8.5625 32.125 C-6 30 -6 30 -4 30 C-4.0407666 29.35973877 -4.0815332 28.71947754 -4.12353516 28.05981445 C-4.30248453 25.14462891 -4.46390286 22.2287243 -4.625 19.3125 C-4.72167969 17.80139648 -4.72167969 17.80139648 -4.8203125 16.25976562 C-4.871875 15.28330078 -4.9234375 14.30683594 -4.9765625 13.30078125 C-5.02893066 12.40528564 -5.08129883 11.50979004 -5.13525391 10.5871582 C-4.98391432 7.69231059 -4.20867188 5.61741403 -3 3 C-2.34 4.32 -1.68 5.64 -1 7 C-0.67 4.69 -0.34 2.38 0 0 Z " fill="#11151F" transform="translate(553,496)"/>
<path d="M0 0 C2.86977519 0.2265612 4.50950471 0.54337224 6.640625 2.52734375 C8.58614209 6.06617225 8.43580272 9.44309088 8.375 13.375 C8.38660156 14.1175 8.39820313 14.86 8.41015625 15.625 C8.38467446 20.4325635 7.73988598 23.88697768 5 28 C1.8125 28.875 1.8125 28.875 -1 29 C-4.76402798 24.25405168 -5.19936446 20.70750142 -5.3125 14.6875 C-5.34988281 13.39199219 -5.38726563 12.09648438 -5.42578125 10.76171875 C-4.90744645 6.18230212 -3.26223671 3.26223671 0 0 Z " fill="#151B25" transform="translate(588,922)"/>
<path d="M0 0 C3.38497782 1.89060634 6.26265481 4.26265481 9 7 C9 8.98 9 10.96 9 13 C0.09 13 -8.82 13 -18 13 C-18 7 -18 7 -16.5390625 5.13671875 C-15.90742188 4.65847656 -15.27578125 4.18023437 -14.625 3.6875 C-13.99851562 3.19636719 -13.37203125 2.70523437 -12.7265625 2.19921875 C-8.68058992 -0.61099297 -4.80508568 -0.83898321 0 0 Z " fill="#141820" transform="translate(523,498)"/>
<path d="M0 0 C3.16113606 1.69170172 5.37154185 3.7430837 7 7 C7 8.98 7 10.96 7 13 C-1.58 13 -10.16 13 -19 13 C-19 7 -19 7 -17.63671875 4.8828125 C-12.11994575 -0.09223329 -7.37360377 -1.64107645 0 0 Z " fill="#10141D" transform="translate(786,498)"/>
<path d="M0 0 C8.9752527 -0.62739631 8.9752527 -0.62739631 13.0625 1.875 C16.12756436 5.23668349 16.11440966 7.16076886 16.0625 11.625 C16.05347656 12.62789063 16.04445313 13.63078125 16.03515625 14.6640625 C16.02355469 15.43492187 16.01195312 16.20578125 16 17 C14.02 17.99 14.02 17.99 12 19 C9.49328205 14.92658333 9.5293889 11.23540271 10.5 6.625 C10.665 6.08875 10.83 5.5525 11 5 C7.63019987 2.35284977 7.63019987 2.35284977 1 3 C0.67 8.28 0.34 13.56 0 19 C0.66 19 1.32 19 2 19 C2 16.69 2 14.38 2 12 C3.65 12 5.3 12 7 12 C10 17.75 10 17.75 10 20 C10.66 20.33 11.32 20.66 12 21 C8.27420911 23.48386059 6.41288598 23.3804212 2 23 C-1.5386994 21.34860695 -2.81070153 20.28394771 -5 17 C-5.1953125 14.08203125 -5.1953125 14.08203125 -5.125 10.8125 C-5.10695313 9.72582031 -5.08890625 8.63914062 -5.0703125 7.51953125 C-5.04710937 6.68808594 -5.02390625 5.85664063 -5 5 C-4.360625 4.731875 -3.72125 4.46375 -3.0625 4.1875 C-0.66868314 3.11332248 -0.66868314 3.11332248 0 0 Z " fill="#4D5058" transform="translate(808,455)"/>
<path d="M0 0 C2.69005168 0.26900517 3.76730322 0.7458409 5.609375 2.7578125 C8.01747937 6.64054257 7.49153344 10.57619906 7 15 C5.92979616 19.47290322 4.55533055 23.16700418 2 27 C-0.625 27.1875 -0.625 27.1875 -3 27 C-6.33823879 21.60540612 -5.57769158 15.0963453 -5 9 C-3.91019889 5.6418346 -2.54674471 2.54674471 0 0 Z " fill="#171F28" transform="translate(430,921)"/>
<path d="M0 0 C2.70813058 4.06219588 2.52980034 7.23179698 2 12 C0.96637171 15.54101046 -0.3582828 18.3582828 -3 21 C-5.625 21.125 -5.625 21.125 -8 21 C-10.7913233 16.3477945 -11.7837561 12.36254174 -11 7 C-10.22760038 4.4253346 -9.27408508 2.40116034 -8 0 C-5.06791253 -1.46604374 -3.11702298 -0.77925574 0 0 Z " fill="#171F28" transform="translate(255,924)"/>
<path d="M0 0 C5.28 0 10.56 0 16 0 C16.495 4.455 16.495 4.455 17 9 C16.34 9 15.68 9 15 9 C15 6.36 15 3.72 15 1 C10.38 1 5.76 1 1 1 C1 20.14 1 39.28 1 59 C1.66 59.33 2.32 59.66 3 60 C2.34 60 1.68 60 1 60 C1 62.31 1 64.62 1 67 C5.95 67 10.9 67 16 67 C16 53.8 16 40.6 16 27 C16.33 27 16.66 27 17 27 C17 40.53 17 54.06 17 68 C4.79 68 -7.42 68 -20 68 C-20 67.67 -20 67.34 -20 67 C-15.38 66.67 -10.76 66.34 -6 66 C-5.34 64.35 -4.68 62.7 -4 61 C-3.34 62.32 -2.68 63.64 -2 65 C-1.34 65 -0.68 65 0 65 C0 43.55 0 22.1 0 0 Z " fill="#C7C9CE" transform="translate(619,485)"/>
<path d="M0 0 C0.78246094 0.09023438 1.56492188 0.18046875 2.37109375 0.2734375 C4.5625 0.625 4.5625 0.625 7.5625 1.625 C7.5625 2.285 7.5625 2.945 7.5625 3.625 C8.67625 3.91375 9.79 4.2025 10.9375 4.5 C14.5625 5.625 14.5625 5.625 16.5625 7.625 C15.5625 10.625 15.5625 10.625 12.5625 12.625 C12.2325 11.635 11.9025 10.645 11.5625 9.625 C10.35851562 9.56441406 9.15453125 9.50382812 7.9140625 9.44140625 C6.33852923 9.35700268 4.76300904 9.27235459 3.1875 9.1875 C2.3934375 9.14818359 1.599375 9.10886719 0.78125 9.06835938 C-5.2109375 8.73828125 -5.2109375 8.73828125 -7.4375 7.625 C-7.086875 6.84125 -6.73625 6.0575 -6.375 5.25 C-6.065625 4.38375 -5.75625 3.5175 -5.4375 2.625 C-5.7675 1.965 -6.0975 1.305 -6.4375 0.625 C-3.9632021 -0.61214895 -2.72250667 -0.33081362 0 0 Z " fill="#11131E" transform="translate(233.4375,475.375)"/>
<path d="M0 0 C3.78517206 0.25662183 5.01775858 0.68704824 7.6875 3.25 C7.29606977 5.52029534 6.80008722 7.08408198 5.5 9 C2.90062784 10.79267046 0.76410784 10.45510719 -2.3125 10.25 C-2.3125 12.56 -2.3125 14.87 -2.3125 17.25 C-2.9725 17.25 -3.6325 17.25 -4.3125 17.25 C-4.33934679 14.60409986 -4.35926357 11.95846904 -4.375 9.3125 C-4.38337891 8.55775391 -4.39175781 7.80300781 -4.40039062 7.02539062 C-4.40902441 5.10005687 -4.36474333 3.17464419 -4.3125 1.25 C-3.3125 0.25 -3.3125 0.25 0 0 Z " fill="#DFE2E8" transform="translate(812.3125,456.75)"/>
<path d="M0 0 C0.33 0 0.66 0 1 0 C1.03738281 1.18078125 1.07476562 2.3615625 1.11328125 3.578125 C1.17895149 5.13544788 1.24539847 6.69273814 1.3125 8.25 C1.33505859 9.02730469 1.35761719 9.80460937 1.38085938 10.60546875 C1.41630859 11.35957031 1.45175781 12.11367188 1.48828125 12.890625 C1.51446533 13.58188477 1.54064941 14.27314453 1.56762695 14.98535156 C1.87311958 17.13189854 1.87311958 17.13189854 3.52734375 18.93164062 C5.41251161 21.57937638 5.27951732 22.99300198 5.07421875 26.203125 C5.01943359 27.1828125 4.96464844 28.1625 4.90820312 29.171875 C4.83537109 30.18765625 4.76253906 31.2034375 4.6875 32.25 C4.62626953 33.28125 4.56503906 34.3125 4.50195312 35.375 C4.3489076 37.91791028 4.18109518 40.45895864 4 43 C2.66666667 43 1.33333333 43 0 43 C0 28.81 0 14.62 0 0 Z " fill="#0C1017" transform="translate(482,487)"/>
<path d="M0 0 C0.33 0 0.66 0 1 0 C1.02578125 1.05960937 1.0515625 2.11921875 1.078125 3.2109375 C1.1343978 4.59900001 1.19174533 5.98701925 1.25 7.375 C1.26417969 8.07367187 1.27835937 8.77234375 1.29296875 9.4921875 C1.36035782 11.77717646 1.36035782 11.77717646 2 15 C3.32 15.66 4.64 16.32 6 17 C5.67 22.61 5.34 28.22 5 34 C4.67 34 4.34 34 4 34 C4 31.69 4 29.38 4 27 C3.34 27 2.68 27 2 27 C1.67 34.26 1.34 41.52 1 49 C0.34 48.67 -0.32 48.34 -1 48 C-0.67 32.16 -0.34 16.32 0 0 Z " fill="#24242E" transform="translate(350,504)"/>
<path d="M0 0 C0.33 0 0.66 0 1 0 C1.2475 1.0725 1.495 2.145 1.75 3.25 C3.00929634 7.02788902 3.96797052 8.53647604 7 11 C9.98594424 12.49297212 12.70853624 12.11755228 16 12 C16.66 11.67 17.32 11.34 18 11 C17.319375 10.0925 16.63875 9.185 15.9375 8.25 C14 5 14 5 14.125 2.6875 C15 1 15 1 17 0 C17.66 2.97 18.32 5.94 19 9 C20.32 9 21.64 9 23 9 C22 12 22 12 20.0625 13.6875 C15.66871244 15.57055181 11.70732257 15.82716531 7 15 C3.88113422 13.30904867 1.60981146 11.21962291 0 8 C-0.13415472 5.3276379 -0.04318541 2.67749512 0 0 Z " fill="#CBCED6" transform="translate(801,465)"/>
<path d="M0 0 C1.9375 0.375 1.9375 0.375 4 1 C5.42662219 3.85324437 5.31033868 5.83454549 5 9 C3.25 11.875 3.25 11.875 1 14 C-0.32 14 -1.64 14 -3 14 C-3.32374517 8.49633208 -3.53286034 4.56327794 0 0 Z " fill="#19242C" transform="translate(292,921)"/>
<path d="M0 0 C0.33 0 0.66 0 1 0 C1 15.84 1 31.68 1 48 C-0.98 48.495 -0.98 48.495 -3 49 C-2.67 48.01 -2.34 47.02 -2 46 C-1.67 46 -1.34 46 -1 46 C-0.67 34.78 -0.34 23.56 0 12 C-1.98 12.99 -1.98 12.99 -4 14 C-4.33 13.67 -4.66 13.34 -5 13 C-4.39655172 5.39655172 -4.39655172 5.39655172 -2 3 C-1.67 4.32 -1.34 5.64 -1 7 C-0.67 4.69 -0.34 2.38 0 0 Z " fill="#080C14" transform="translate(553,496)"/>
<path d="M0 0 C1.22589844 0.01353516 1.22589844 0.01353516 2.4765625 0.02734375 C3.41628906 0.04474609 3.41628906 0.04474609 4.375 0.0625 C4.375 0.3925 4.375 0.7225 4.375 1.0625 C1.075 1.3925 -2.225 1.7225 -5.625 2.0625 C-5.955 4.7025 -6.285 7.3425 -6.625 10.0625 C-7.285 10.0625 -7.945 10.0625 -8.625 10.0625 C-8.625 11.0525 -8.625 12.0425 -8.625 13.0625 C-10.275 13.0625 -11.925 13.0625 -13.625 13.0625 C-14.0625 10.4375 -14.0625 10.4375 -13.625 7.0625 C-9.7020093 2.58349487 -5.98445121 -0.08549216 0 0 Z " fill="#1C1D23" transform="translate(518.625,497.9375)"/>
<path d="M0 0 C0.66 0 1.32 0 2 0 C2 3.3 2 6.6 2 10 C1.34 9.34 0.68 8.68 0 8 C-0.99 8.33 -1.98 8.66 -3 9 C-3.33 9 -3.66 9 -4 9 C-4.99 10.485 -4.99 10.485 -6 12 C-6.33 11.01 -6.66 10.02 -7 9 C-12.28 9 -17.56 9 -23 9 C-23 8.67 -23 8.34 -23 8 C-22.14277344 7.97421875 -21.28554688 7.9484375 -20.40234375 7.921875 C-11.64294929 7.48736163 -6.18739716 6.51304964 0 0 Z " fill="#3A3B42" transform="translate(463,542)"/>
<path d="M0 0 C1.32 0 2.64 0 4 0 C7 5.75 7 5.75 7 8 C7.66 8.33 8.32 8.66 9 9 C5.3558226 11.4294516 3.28758728 11.16179575 -1 11 C-0.67 7.37 -0.34 3.74 0 0 Z " fill="#20222A" transform="translate(811,467)"/>
<path d="M0 0 C0.33 0 0.66 0 1 0 C1 18.48 1 36.96 1 56 C1.99 56.33 2.98 56.66 4 57 C2.68 57.99 1.36 58.98 0 60 C0 40.2 0 20.4 0 0 Z " fill="#383B41" transform="translate(572,454)"/>
<path d="M0 0 C0.33 0 0.66 0 1 0 C1 8.25 1 16.5 1 25 C1.99 25 2.98 25 4 25 C4 26.32 4 27.64 4 29 C-1.75 30.125 -1.75 30.125 -4 29 C-4 27.68 -4 26.36 -4 25 C-3.01 25 -2.02 25 -1 25 C-0.67 16.75 -0.34 8.5 0 0 Z " fill="#090F17" transform="translate(660,528)"/>
<path d="M0 0 C0.33 0 0.66 0 1 0 C1 2.31 1 4.62 1 7 C1.99 7 2.98 7 4 7 C6.1875 9 6.1875 9 8 11 C8 10.34 8 9.68 8 9 C9.65 8.67 11.3 8.34 13 8 C13.103125 8.639375 13.20625 9.27875 13.3125 9.9375 C13.539375 10.618125 13.76625 11.29875 14 12 C14.99 12.33 15.98 12.66 17 13 C15.27788662 14.72211338 13.1004671 14.33380292 10.75 14.4375 C5.65677808 14.37789142 5.65677808 14.37789142 3.16015625 12.94140625 C0.4692419 10.06329786 -0.27199118 7.41932605 -0.3125 3.625 C-0.209375 2.42875 -0.10625 1.2325 0 0 Z " fill="#3F434A" transform="translate(371,528)"/>
<path d="M0 0 C0.027193 1.58323688 0.04648306 3.16661062 0.0625 4.75 C0.07410156 5.63171875 0.08570313 6.5134375 0.09765625 7.421875 C0.00826198 9.7818838 -0.33087179 11.74498524 -1 14 C-4.875 13.125 -4.875 13.125 -6 12 C-6.375 8.75 -6.375 8.75 -6 5 C-1.85106383 0 -1.85106383 0 0 0 Z " fill="#172029" transform="translate(672,958)"/>
<path d="M0 0 C-1.1875 2.9375 -1.1875 2.9375 -3 6 C-5.6875 6.875 -5.6875 6.875 -8 7 C-7.34 7.33 -6.68 7.66 -6 8 C-7.65 7.67 -9.3 7.34 -11 7 C-10.649375 6.21625 -10.29875 5.4325 -9.9375 4.625 C-9.628125 3.75875 -9.31875 2.8925 -9 2 C-9.33 1.34 -9.66 0.68 -10 0 C-6.7169902 -1.6415049 -3.57454967 -0.51888624 0 0 Z " fill="#0A0F17" transform="translate(237,476)"/>
<path d="M0 0 C1.32 0.33 2.64 0.66 4 1 C4 3.97 4 6.94 4 10 C2.02 10.99 2.02 10.99 0 12 C-2.08901197 8.60535554 -2.34361606 5.95158471 -2 2 C-1.34 1.34 -0.68 0.68 0 0 Z " fill="#1B1E25" transform="translate(820,462)"/>
<path d="M0 0 C0.66 0 1.32 0 2 0 C2.06058594 1.20398438 2.12117187 2.40796875 2.18359375 3.6484375 C2.26799732 5.22397077 2.35264541 6.79949096 2.4375 8.375 C2.47681641 9.1690625 2.51613281 9.963125 2.55664062 10.78125 C2.68893404 15.02601221 2.68893404 15.02601221 4 19 C2.35 19 0.7 19 -1 19 C-1.09507063 12.56688704 -1.15316726 6.34241995 0 0 Z " fill="#0C1017" transform="translate(716,536)"/>
<path d="M0 0 C0.66 0 1.32 0 2 0 C3.36619736 3.26369368 4.17076673 5.24862639 3.375 8.75 C1.80567389 11.31798817 0.73697664 11.88810324 -2 13 C-2.66 13.66 -3.32 14.32 -4 15 C-4.66 14.34 -5.32 13.68 -6 13 C-5.53980469 12.61199219 -5.07960938 12.22398437 -4.60546875 11.82421875 C-2.63207401 9.58194298 -2.0950431 7.68182469 -1.3125 4.8125 C-1.06113281 3.91144531 -0.80976563 3.01039063 -0.55078125 2.08203125 C-0.36902344 1.39496094 -0.18726563 0.70789063 0 0 Z " fill="#EAEBEE" transform="translate(395,526)"/>
<path d="M0 0 C0 4.95 0 9.9 0 15 C-1.32 14.34 -2.64 13.68 -4 13 C-4.08121924 11.39667209 -4.13929134 9.79215974 -4.1875 8.1875 C-4.22230469 7.29417969 -4.25710938 6.40085937 -4.29296875 5.48046875 C-4 3 -4 3 -2.55078125 1.17578125 C-1 0 -1 0 0 0 Z " fill="#1E2128" transform="translate(807,459)"/>
<path d="M0 0 C0.66 0 1.32 0 2 0 C3.70159453 11.52164009 3.70159453 11.52164009 0 17 C-0.33 17 -0.66 17 -1 17 C-1.02691685 14.54159395 -1.04679802 12.08348118 -1.0625 9.625 C-1.07087891 8.92632813 -1.07925781 8.22765625 -1.08789062 7.5078125 C-1.11328125 2.2265625 -1.11328125 2.2265625 0 0 Z " fill="#0E1018" transform="translate(352,531)"/>
<path d="M0 0 C1.0326802 2.78823655 1.04509293 3.8677274 0.0625 6.75 C-0.288125 7.4925 -0.63875 8.235 -1 9 C-0.34 9.33 0.32 9.66 1 10 C0.67 10.66 0.34 11.32 0 12 C-1.65 11.67 -3.3 11.34 -5 11 C-5 10.34 -5 9.68 -5 9 C-7.31 8.67 -9.62 8.34 -12 8 C-12 7.67 -12 7.34 -12 7 C-10.01432292 6.51171875 -8.02864583 6.0234375 -6.04296875 5.53515625 C-4.34316798 5.08989295 -2.66698046 4.55566015 -1 4 C-0.26676204 1.98491642 -0.26676204 1.98491642 0 0 Z " fill="#262631" transform="translate(246,468)"/>
<path d="M0 0 C2.97 0.495 2.97 0.495 6 1 C6 3.31 6 5.62 6 8 C4.02 8 2.04 8 0 8 C0 7.34 0 6.68 0 6 C-0.99 6 -1.98 6 -3 6 C-2.67 5.34 -2.34 4.68 -2 4 C-1.34 4.33 -0.68 4.66 0 5 C0 3.35 0 1.7 0 0 Z " fill="#0D1116" transform="translate(712,476)"/>
<path d="M0 0 C0.66 0.474375 1.32 0.94875 2 1.4375 C5.7933028 3.41317854 8.75524068 3.64027463 13 4 C13 4.66 13 5.32 13 6 C11.87851562 5.96519531 11.87851562 5.96519531 10.734375 5.9296875 C9.74953125 5.91164063 8.7646875 5.89359375 7.75 5.875 C6.77546875 5.85179687 5.8009375 5.82859375 4.796875 5.8046875 C1.9803502 6.00137219 0.39050964 6.55431084 -2 8 C-2.66 6.68 -3.32 5.36 -4 4 C-2.68 2.68 -1.36 1.36 0 0 Z " fill="#E4E4E4" transform="translate(278,495)"/>
<path d="M0 0 C0.99 0.33 1.98 0.66 3 1 C4.1875 4.0625 4.1875 4.0625 5 7 C3.35 7 1.7 7 0 7 C0 7.66 0 8.32 0 9 C-0.99 8.67 -1.98 8.34 -3 8 C-2.25 2.25 -2.25 2.25 0 0 Z " fill="#25272C" transform="translate(581,525)"/>
<path d="M0 0 C0 0.66 0 1.32 0 2 C0.66 2.33 1.32 2.66 2 3 C0.35 2.67 -1.3 2.34 -3 2 C-3.33 2.99 -3.66 3.98 -4 5 C-5.98 5 -7.96 5 -10 5 C-9.67 3.35 -9.34 1.7 -9 0 C-5.52176885 -1.15941038 -3.54104422 -0.70820884 0 0 Z " fill="#0B0F16" transform="translate(522,500)"/>
<path d="M0 0 C0.37125 0.495 0.7425 0.99 1.125 1.5 C3.74694393 3.59755514 5.73842472 3.21743835 9 3 C6.47764868 4.68156755 3.96413358 6.16468006 1.3125 7.625 C0.50425781 8.07101562 -0.30398438 8.51703125 -1.13671875 8.9765625 C-1.75160156 9.31429688 -2.36648438 9.65203125 -3 10 C-3.33 9.34 -3.66 8.68 -4 8 C-3.36971413 6.31923769 -2.70211894 4.65204456 -2 3 C-2 2.34 -2 1.68 -2 1 C-1.34 0.67 -0.68 0.34 0 0 Z " fill="#1C2029" transform="translate(501,481)"/>
<path d="M0 0 C0.33 0.99 0.66 1.98 1 3 C-4.61 3 -10.22 3 -16 3 C-16 2.67 -16 2.34 -16 2 C-5.62642369 -1.62870159 -5.62642369 -1.62870159 0 0 Z " fill="#323740" transform="translate(571,451)"/>
<path d="M0 0 C1.98 0 3.96 0 6 0 C7.125 3.75 7.125 3.75 6 6 C4.02 6 2.04 6 0 6 C0 4.02 0 2.04 0 0 Z " fill="#84868E" transform="translate(810,459)"/>
<path d="M0 0 C1.21236328 0.02707031 1.21236328 0.02707031 2.44921875 0.0546875 C3.37154297 0.08949219 3.37154297 0.08949219 4.3125 0.125 C4.3125 0.785 4.3125 1.445 4.3125 2.125 C4.9725 2.455 5.6325 2.785 6.3125 3.125 C5.3225 3.125 4.3325 3.125 3.3125 3.125 C3.3125 2.465 3.3125 1.805 3.3125 1.125 C1.6625 1.125 0.0125 1.125 -1.6875 1.125 C-1.6875 2.775 -1.6875 4.425 -1.6875 6.125 C-2.3475 5.465 -3.0075 4.805 -3.6875 4.125 C-4.3475 4.785 -5.0075 5.445 -5.6875 6.125 C-6.6775 6.125 -7.6675 6.125 -8.6875 6.125 C-8.375 4.25 -8.375 4.25 -7.6875 2.125 C-4.48369983 -0.01086678 -3.66810033 -0.10632175 0 0 Z " fill="#DCDFE4" transform="translate(696.6875,453.875)"/>
<path d="M0 0 C2.31 0 4.62 0 7 0 C6.67 2.31 6.34 4.62 6 7 C1.25 5.125 1.25 5.125 -1 4 C-0.67 2.68 -0.34 1.36 0 0 Z " fill="#1B1D26" transform="translate(737,472)"/>
<path d="M0 0 C4.29454725 0.16205839 6.34643898 0.34643898 9.4375 3.4375 C11 6 11 6 11 8 C7.15199046 7.45028435 5.64690561 5.72962142 3 3 C0.86690808 1.76487921 0.86690808 1.76487921 -1 1 C-0.67 0.67 -0.34 0.34 0 0 Z " fill="#3A3B43" transform="translate(813,455)"/>
<path d="M0 0 C2.97 0 5.94 0 9 0 C9 0.66 9 1.32 9 2 C7.35 2.33 5.7 2.66 4 3 C4 3.99 4 4.98 4 6 C2.68 5.67 1.36 5.34 0 5 C0 3.35 0 1.7 0 0 Z " fill="#0F111A" transform="translate(767,526)"/>
<path d="M0 0 C-1.5830577 4.2742558 -4.50568404 6.26531794 -8 9 C-8.33 7.02 -8.66 5.04 -9 3 C-3.375 0 -3.375 0 0 0 Z " fill="#252A31" transform="translate(430,487)"/>
<path d="M0 0 C4.19736146 0.57894641 7.45655837 0.15817499 11.625 -0.5 C8.09346099 2.85451951 5.32839962 2.877649 0.5625 2.8125 C-0.66597656 2.80863281 -1.89445312 2.80476562 -3.16015625 2.80078125 C-6.375 2.5 -6.375 2.5 -9.375 0.5 C-5.99674585 -0.24156799 -3.44358934 -0.51016138 0 0 Z " fill="#33383D" transform="translate(446.375,561.5)"/>
<path d="M0 0 C7.75 -0.125 7.75 -0.125 10 1 C9.67 2.32 9.34 3.64 9 5 C4.545 4.01 4.545 4.01 0 3 C0 2.01 0 1.02 0 0 Z " fill="#10121A" transform="translate(384,506)"/>
<path d="M0 0 C0.66 0.33 1.32 0.66 2 1 C1.195625 1.45375 0.39125 1.9075 -0.4375 2.375 C-3.08856572 3.74725665 -3.08856572 3.74725665 -4 6 C-9.28 5.34 -14.56 4.68 -20 4 C-20 3.67 -20 3.34 -20 3 C-19.05898438 2.95101562 -18.11796875 2.90203125 -17.1484375 2.8515625 C-15.28058594 2.73941406 -15.28058594 2.73941406 -13.375 2.625 C-12.14523437 2.55539062 -10.91546875 2.48578125 -9.6484375 2.4140625 C-6.16372592 2.01858131 -3.30425959 1.11433974 0 0 Z " fill="#3F4248" transform="translate(796,551)"/>
<path d="M0 0 C0 0.99 0 1.98 0 3 C2.64 3 5.28 3 8 3 C8 3.33 8 3.66 8 4 C6.08458862 4.10841951 4.16740227 4.18578079 2.25 4.25 C0.64898437 4.31960938 0.64898437 4.31960938 -0.984375 4.390625 C-4.63802112 3.91735478 -5.72228105 2.80844958 -8 0 C-4.71023192 -1.09658936 -3.28696233 -0.79953138 0 0 Z " fill="#4F4F57" transform="translate(448,530)"/>
<path d="M0 0 C1.16144531 0.11988281 2.32289063 0.23976563 3.51953125 0.36328125 C4.39996094 0.47027344 5.28039062 0.57726562 6.1875 0.6875 C6.1875 1.0175 6.1875 1.3475 6.1875 1.6875 C5.47464844 1.72488281 4.76179688 1.76226562 4.02734375 1.80078125 C-1.9118423 2.20845082 -6.50371747 2.97412226 -11.8125 5.6875 C-11.8125 4.6975 -11.8125 3.7075 -11.8125 2.6875 C-7.86242023 -0.56331895 -4.95902621 -0.55100291 0 0 Z " fill="#292B34" transform="translate(377.8125,507.3125)"/>
<path d="M0 0 C0.99443769 2.98331306 1.02452065 4.20838759 0.66015625 7.23046875 C0.56669922 8.03291016 0.47324219 8.83535156 0.37695312 9.66210938 C0.27318359 10.49548828 0.16941406 11.32886719 0.0625 12.1875 C-0.03740234 13.03248047 -0.13730469 13.87746094 -0.24023438 14.74804688 C-0.48757108 16.83274197 -0.74301041 18.91647284 -1 21 C-1.33 21 -1.66 21 -2 21 C-2.25427918 17.8765076 -2.47412319 14.75153179 -2.6875 11.625 C-2.76033203 10.73554687 -2.83316406 9.84609375 -2.90820312 8.9296875 C-2.96298828 8.07890625 -3.01777344 7.228125 -3.07421875 6.3515625 C-3.13182373 5.56604004 -3.18942871 4.78051758 -3.2487793 3.97119141 C-3.12563354 2.99545166 -3.12563354 2.99545166 -3 2 C-2.01 1.34 -1.02 0.68 0 0 Z " fill="#2D313B" transform="translate(812,504)"/>
<path d="M0 0 C0.33 0 0.66 0 1 0 C1 7.26 1 14.52 1 22 C1.99 22.33 2.98 22.66 4 23 C2.68 23.99 1.36 24.98 0 26 C0 17.42 0 8.84 0 0 Z " fill="#30333A" transform="translate(572,488)"/>
<path d="M0 0 C10.395 0.99 10.395 0.99 21 2 C21 2.33 21 2.66 21 3 C11.595 3.495 11.595 3.495 2 4 C1.34 2.68 0.68 1.36 0 0 Z " fill="#090C12" transform="translate(768,553)"/>
<path d="M0 0 C0 0.33 0 0.66 0 1 C-3.3 1.33 -6.6 1.66 -10 2 C-10.33 4.31 -10.66 6.62 -11 9 C-11.28875 8.360625 -11.5775 7.72125 -11.875 7.0625 C-12.82823451 4.84793921 -12.82823451 4.84793921 -15 4 C-9.98010898 -0.11888494 -6.40141012 -0.51211281 0 0 Z " fill="#4A4B4E" transform="translate(523,498)"/>
<path d="M0 0 C2.475 0.495 2.475 0.495 5 1 C5 4.96 5 8.92 5 13 C2.53698577 10.53698577 2.23233479 8.72639964 1.375 5.375 C1.11460937 4.37210937 0.85421875 3.36921875 0.5859375 2.3359375 C0.39257812 1.56507813 0.19921875 0.79421875 0 0 Z " fill="#1B1E27" transform="translate(408,495)"/>
<path d="M0 0 C1.375 2.0625 1.375 2.0625 2 4 C1.15179687 3.68289063 0.30359375 3.36578125 -0.5703125 3.0390625 C-4.09477225 1.97128768 -7.20670957 1.59958921 -10.875 1.375 C-12.02742187 1.30023438 -13.17984375 1.22546875 -14.3671875 1.1484375 C-15.67042969 1.07496094 -15.67042969 1.07496094 -17 1 C-17 0.67 -17 0.34 -17 0 C-4.37912814 -1.45970938 -4.37912814 -1.45970938 0 0 Z " fill="#3B3F46" transform="translate(532,483)"/>
<path d="M0 0 C0.66 2.64 1.32 5.28 2 8 C0.35 8 -1.3 8 -3 8 C-3.6875 5.6875 -3.6875 5.6875 -4 3 C-1.72413793 0 -1.72413793 0 0 0 Z " fill="#0D0E15" transform="translate(395,548)"/>
<path d="M0 0 C3.31925764 2.80860262 4.85094546 4.41371879 5.9375 8.6875 C5.958125 9.780625 5.97875 10.87375 6 12 C5.34 12.66 4.68 13.32 4 14 C0.74031891 4.58997722 0.74031891 4.58997722 0 0 Z " fill="#CCCED2" transform="translate(672,488)"/>
<path d="M0 0 C0.66 0 1.32 0 2 0 C1.34 2.64 0.68 5.28 0 8 C-0.66 8 -1.32 8 -2 8 C-2.33 8.66 -2.66 9.32 -3 10 C-3.33 7.69 -3.66 5.38 -4 3 C-3.01 2.67 -2.02 2.34 -1 2 C-0.67 1.34 -0.34 0.68 0 0 Z " fill="#DFE3E4" transform="translate(478,558)"/>
<path d="M0 0 C0.33 0.99 0.66 1.98 1 3 C-1.97 6.3 -4.94 9.6 -8 13 C-8.66 12.67 -9.32 12.34 -10 12 C-8.52149287 10.18696196 -7.04217625 8.37458402 -5.5625 6.5625 C-4.32693359 5.04849609 -4.32693359 5.04849609 -3.06640625 3.50390625 C-1 1 -1 1 0 0 Z " fill="#D1D4D9" transform="translate(592,490)"/>
<path d="M0 0 C2.31 0.33 4.62 0.66 7 1 C5.625 3 5.625 3 4 5 C3.34 5 2.68 5 2 5 C1.67 5.99 1.34 6.98 1 8 C0.67 8 0.34 8 0 8 C0 5.36 0 2.72 0 0 Z " fill="#36373D" transform="translate(271,485)"/>
<path d="M0 0 C0 0.33 0 0.66 0 1 C-5.28 1 -10.56 1 -16 1 C-16 0.34 -16 -0.32 -16 -1 C-10.15659442 -2.24327778 -5.73303505 -1.57300962 0 0 Z " fill="#50545B" transform="translate(392,483)"/>
<path d="M0 0 C0 0.33 0 0.66 0 1 C-0.69867187 1.12117188 -1.39734375 1.24234375 -2.1171875 1.3671875 C-3.48230469 1.61855469 -3.48230469 1.61855469 -4.875 1.875 C-5.77992188 2.03742188 -6.68484375 2.19984375 -7.6171875 2.3671875 C-10.16505988 2.83044703 -10.16505988 2.83044703 -12 5 C-14.125 4.625 -14.125 4.625 -16 4 C-11.34158975 -1.14031476 -6.42886252 -0.40532233 0 0 Z " fill="#595A60" transform="translate(786,498)"/>
<path d="M0 0 C0.33 0.99 0.66 1.98 1 3 C1.66 2.34 2.32 1.68 3 1 C2.67 3.31 2.34 5.62 2 8 C0.68 8 -0.64 8 -2 8 C-2.125 5.125 -2.125 5.125 -2 2 C-1.34 1.34 -0.68 0.68 0 0 Z " fill="#262932" transform="translate(769,503)"/>
<path d="M0 0 C0.66 0.33 1.32 0.66 2 1 C1.01 2.485 1.01 2.485 0 4 C0.66 4 1.32 4 2 4 C2 4.66 2 5.32 2 6 C-2.455 6.495 -2.455 6.495 -7 7 C-6.34 6.01 -5.68 5.02 -5 4 C-4.34 4 -3.68 4 -3 4 C-2.67 3.01 -2.34 2.02 -2 1 C-1.34 0.67 -0.68 0.34 0 0 Z " fill="#090C15" transform="translate(372,501)"/>
<path d="M0 0 C1.65 0 3.3 0 5 0 C4.67 0.66 4.34 1.32 4 2 C3.01 2.33 2.02 2.66 1 3 C0.67 5.64 0.34 8.28 0 11 C-0.33 11 -0.66 11 -1 11 C-1.33 9.02 -1.66 7.04 -2 5 C-2.99 5.66 -3.98 6.32 -5 7 C-4.34 5.68 -3.68 4.36 -3 3 C-2.34 3 -1.68 3 -1 3 C-0.67 2.01 -0.34 1.02 0 0 Z " fill="#474A53" transform="translate(808,455)"/>
<path d="M0 0 C0.33 1.32 0.66 2.64 1 4 C-0.65 5.32 -2.3 6.64 -4 8 C-4.99 7.34 -5.98 6.68 -7 6 C-7 5.34 -7 4.68 -7 4 C-6.030625 3.525625 -5.06125 3.05125 -4.0625 2.5625 C-1.19522563 1.29806053 -1.19522563 1.29806053 0 0 Z " fill="#25262E" transform="translate(391,549)"/>
<path d="M0 0 C1.98 0.66 3.96 1.32 6 2 C6 2.99 6 3.98 6 5 C4.68 4.67 3.36 4.34 2 4 C1.67 4.66 1.34 5.32 1 6 C0.01 5.67 -0.98 5.34 -2 5 C-1.34 3.35 -0.68 1.7 0 0 Z " fill="#0D0E18" transform="translate(755,546)"/>
<path d="M0 0 C0.33 0.66 0.66 1.32 1 2 C0.22265625 3.7265625 0.22265625 3.7265625 -0.9375 5.625 C-1.618125 6.73875 -2.29875 7.8525 -3 9 C-3.99 8.67 -4.98 8.34 -6 8 C-4.55746343 4.63408134 -2.66735273 2.48952921 0 0 Z " fill="#383940" transform="translate(475,568)"/>
<path d="M0 0 C0.66 0.66 1.32 1.32 2 2 C2.33 1.34 2.66 0.68 3 0 C3.66 0 4.32 0 5 0 C5.6875 1.8125 5.6875 1.8125 6 4 C4.5625 5.75 4.5625 5.75 3 7 C1.5 5.625 1.5 5.625 0 4 C0 3.34 0 2.68 0 2 C-0.66 1.67 -1.32 1.34 -2 1 C-1.34 0.67 -0.68 0.34 0 0 Z " fill="#1F2229" transform="translate(537,529)"/>
<path d="M0 0 C0.66 0.33 1.32 0.66 2 1 C-0.10618315 3.94865641 -2.39391727 6.4837822 -5 9 C-5.99 8.67 -6.98 8.34 -8 8 C-5.36 5.36 -2.72 2.72 0 0 Z " fill="#E0E5E8" transform="translate(432,486)"/>
<path d="M0 0 C2.72286806 4.08430208 2.38524534 6.14590877 2 11 C1.01 11.66 0.02 12.32 -1 13 C-1.02696365 11.20841511 -1.04637917 9.41671527 -1.0625 7.625 C-1.07410156 6.62726563 -1.08570313 5.62953125 -1.09765625 4.6015625 C-1 2 -1 2 0 0 Z " fill="#A9ACB4" transform="translate(801,459)"/>
<path d="M0 0 C1.98 0 3.96 0 6 0 C5.01 1.98 4.02 3.96 3 6 C2.34 5.67 1.68 5.34 1 5 C0.375 2.4375 0.375 2.4375 0 0 Z " fill="#0B0D13" transform="translate(506,526)"/>
<path d="M0 0 C0.33 0 0.66 0 1 0 C1 4.29 1 8.58 1 13 C1.66 13 2.32 13 3 13 C2.67 14.65 2.34 16.3 2 18 C-0.95794567 13.56308149 -1.06455973 11.00045052 -0.5625 5.8125 C-0.46066406 4.72582031 -0.35882812 3.63914062 -0.25390625 2.51953125 C-0.17011719 1.68808594 -0.08632813 0.85664063 0 0 Z " fill="#21222B" transform="translate(749,488)"/>
<path d="M0 0 C0.66 0 1.32 0 2 0 C2 2.64 2 5.28 2 8 C1.01 7.67 0.02 7.34 -1 7 C-1.625 4.625 -1.625 4.625 -2 2 C-1.34 1.34 -0.68 0.68 0 0 Z " fill="#0F1017" transform="translate(616,487)"/>
<path d="M0 0 C0.66 0.99 1.32 1.98 2 3 C1.34 3 0.68 3 0 3 C0 3.66 0 4.32 0 5 C0.66 5.33 1.32 5.66 2 6 C1.01 6.66 0.02 7.32 -1 8 C-1.99 6.02 -2.98 4.04 -4 2 C-2.68 1.34 -1.36 0.68 0 0 Z " fill="#1B1E25" transform="translate(613,534)"/>
<path d="M0 0 C0 0.99 0 1.98 0 3 C-2.9105554 4.4552777 -4.95849052 3.63516661 -8.125 3.0625 C-9.22070312 2.86785156 -10.31640625 2.67320312 -11.4453125 2.47265625 C-12.28835938 2.31667969 -13.13140625 2.16070313 -14 2 C-14 1.67 -14 1.34 -14 1 C-4.58997722 -0.14806378 -4.58997722 -0.14806378 0 0 Z " fill="#B4B4B8" transform="translate(394,521)"/>
<path d="M0 0 C1.8871875 0.061875 1.8871875 0.061875 3.8125 0.125 C3.8125 0.455 3.8125 0.785 3.8125 1.125 C1.5025 1.455 -0.8075 1.785 -3.1875 2.125 C-3.8475 3.775 -4.5075 5.425 -5.1875 7.125 C-6.1775 6.465 -7.1675 5.805 -8.1875 5.125 C-6.68328007 0.61234022 -4.4443381 -0.145716 0 0 Z " fill="#D0D3D8" transform="translate(236.1875,453.875)"/>
<path d="M0 0 C1.33333333 2.66666667 2.66666667 5.33333333 4 8 C1.0625 7.1875 1.0625 7.1875 -2 6 C-2.33 5.01 -2.66 4.02 -3 3 C-2.01 2.01 -1.02 1.02 0 0 Z " fill="#292B33" transform="translate(510,529)"/>
<path d="M0 0 C0.66 0.33 1.32 0.66 2 1 C2.1875 3.875 2.1875 3.875 2 7 C1.01 7.66 0.02 8.32 -1 9 C-1 8.01 -1 7.02 -1 6 C-1.33 5.01 -1.66 4.02 -2 3 C-1.34 2.01 -0.68 1.02 0 0 Z " fill="#1E2228" transform="translate(315,502)"/>
<path d="M0 0 C0.12375 0.598125 0.2475 1.19625 0.375 1.8125 C0.95475985 4.26231348 0.95475985 4.26231348 3 7 C3 8.32 3 9.64 3 11 C2.34 11 1.68 11 1 11 C-1.08997373 7.60379269 -1.2632246 4.94836905 -1 1 C-0.67 0.67 -0.34 0.34 0 0 Z " fill="#2E3137" transform="translate(819,463)"/>
<path d="M0 0 C2 2 2 2 2.1953125 3.9453125 C2.13020833 5.96354167 2.06510417 7.98177083 2 10 C1.01 10 0.02 10 -1 10 C-0.67 6.7 -0.34 3.4 0 0 Z " fill="#DADCDF" transform="translate(245,458)"/>
<path d="M0 0 C0.66 1.32 1.32 2.64 2 4 C-0.25 6.5625 -0.25 6.5625 -3 9 C-5.3125 8.8125 -5.3125 8.8125 -7 8 C-6.21625 7.4225 -5.4325 6.845 -4.625 6.25 C-2.19952756 4.17102363 -1.14305583 2.90959667 0 0 Z " fill="#CAD0D6" transform="translate(463,554)"/>
<path d="M0 0 C0.66 0.33 1.32 0.66 2 1 C1.875 2.875 1.875 2.875 1 5 C-2.0625 6.25 -2.0625 6.25 -5 7 C-3.70700306 4.11562221 -2.34058637 2.12780579 0 0 Z " fill="#3D4049" transform="translate(643,501)"/>
<path d="M0 0 C0.99 0 1.98 0 3 0 C2.34 2.31 1.68 4.62 1 7 C0.34 7 -0.32 7 -1 7 C-1.625 4.625 -1.625 4.625 -2 2 C-1.34 1.34 -0.68 0.68 0 0 Z " fill="#1F2329" transform="translate(419,496)"/>
<path d="M0 0 C0.66 0.33 1.32 0.66 2 1 C0.35 2.98 -1.3 4.96 -3 7 C-3.99 6.34 -4.98 5.68 -6 5 C-5.67 3.68 -5.34 2.36 -5 1 C-4.34 1.66 -3.68 2.32 -3 3 C-2.01 2.01 -1.02 1.02 0 0 Z " fill="#DADBDE" transform="translate(312,489)"/>
<path d="M0 0 C1.98 0 3.96 0 6 0 C5.67 1.98 5.34 3.96 5 6 C4.34 6 3.68 6 3 6 C2.01 4.02 1.02 2.04 0 0 Z " fill="#252A34" transform="translate(823,456)"/>
<path d="M0 0 C1.2065625 0.0309375 1.2065625 0.0309375 2.4375 0.0625 C2.7675 1.3825 3.0975 2.7025 3.4375 4.0625 C1.7875 4.0625 0.1375 4.0625 -1.5625 4.0625 C-1.5625 3.4025 -1.5625 2.7425 -1.5625 2.0625 C-2.2225 1.7325 -2.8825 1.4025 -3.5625 1.0625 C-2.5625 0.0625 -2.5625 0.0625 0 0 Z " fill="#080E18" transform="translate(596.5625,552.9375)"/>
<path d="M0 0 C0.66 0 1.32 0 2 0 C3.95216435 1.95216435 4.84826645 3.53199953 6 6 C5.34 6.66 4.68 7.32 4 8 C0 2.25 0 2.25 0 0 Z " fill="#DFE0E3" transform="translate(751,534)"/>
<path d="M0 0 C1.32 0.33 2.64 0.66 4 1 C3.34 1.61875 2.68 2.2375 2 2.875 C-0.2284549 4.75637427 -0.2284549 4.75637427 0 7 C-0.66 7 -1.32 7 -2 7 C-2.33 5.68 -2.66 4.36 -3 3 C-2.34 3 -1.68 3 -1 3 C-0.67 2.01 -0.34 1.02 0 0 Z " fill="#0D1118" transform="translate(603,503)"/>
<path d="M0 0 C0.33 0.99 0.66 1.98 1 3 C-0.9375 5.6875 -0.9375 5.6875 -3 8 C-3.99 7.67 -4.98 7.34 -6 7 C-4.02 4.69 -2.04 2.38 0 0 Z " fill="#393B42" transform="translate(609,494)"/>
<path d="M0 0 C2.475 0.495 2.475 0.495 5 1 C5 1.99 5 2.98 5 4 C3.35 4 1.7 4 0 4 C0 2.68 0 1.36 0 0 Z " fill="#272A33" transform="translate(811,460)"/>
<path d="M0 0 C0.99 0.99 1.98 1.98 3 3 C1.35 4.32 -0.3 5.64 -2 7 C-2.6875 5.1875 -2.6875 5.1875 -3 3 C-1.5625 1.25 -1.5625 1.25 0 0 Z " fill="#1F232B" transform="translate(229,452)"/>
<path d="M0 0 C-1.28965176 1.37562854 -2.62689293 2.70766393 -4 4 C-4.66 4 -5.32 4 -6 4 C-6 2.68 -6 1.36 -6 0 C-3.50907189 -1.24546405 -2.58919267 -0.7767578 0 0 Z " fill="#1C2126" transform="translate(536,553)"/>
<path d="M0 0 C1.9375 0.6875 1.9375 0.6875 4 2 C4.75 4.625 4.75 4.625 5 7 C3.68 6.67 2.36 6.34 1 6 C0.67 4.02 0.34 2.04 0 0 Z " fill="#0A0F17" transform="translate(456,551)"/>
<path d="M0 0 C2.72869407 0.03287583 5.2966618 0.56397771 8 1 C5.38326241 2.40182371 2.9628331 3.60495559 0 4 C-0.66 3.34 -1.32 2.68 -2 2 C-1.34 1.34 -0.68 0.68 0 0 Z " fill="#DFE1E0" transform="translate(434,545)"/>
<path d="M0 0 C0.66 0.33 1.32 0.66 2 1 C1.67 1.66 1.34 2.32 1 3 C1.66 3.33 2.32 3.66 3 4 C2.01 4 1.02 4 0 4 C0 4.99 0 5.98 0 7 C-0.66 7 -1.32 7 -2 7 C-2.125 4.625 -2.125 4.625 -2 2 C-1.34 1.34 -0.68 0.68 0 0 Z " fill="#091018" transform="translate(293,553)"/>
<path d="M0 0 C1.32 1.32 2.64 2.64 4 4 C0.86650268 5.04449911 0.01031744 4.93423645 -3 4 C-2.01 2.68 -1.02 1.36 0 0 Z " fill="#CFD2D6" transform="translate(797,531)"/>
<path d="M0 0 C-0.61875 0.28875 -1.2375 0.5775 -1.875 0.875 C-4.41591419 2.22018987 -5.71125151 3.42250301 -7 6 C-7.66 4.68 -8.32 3.36 -9 2 C-5.5647952 -0.29013653 -4.014669 -0.17842973 0 0 Z " fill="#0A0D11" transform="translate(325,501)"/>
<path d="M0 0 C0.99 0.33 1.98 0.66 3 1 C1.35 2.98 -0.3 4.96 -2 7 C-2.6875 5.1875 -2.6875 5.1875 -3 3 C-1.5625 1.25 -1.5625 1.25 0 0 Z " fill="#2E2E37" transform="translate(756,492)"/>
<path d="M0 0 C1.32 0 2.64 0 4 0 C3.67 1.32 3.34 2.64 3 4 C1.68 3.67 0.36 3.34 -1 3 C-0.67 2.01 -0.34 1.02 0 0 Z " fill="#ECF0F2" transform="translate(611,486)"/>
<path d="M0 0 C0.33 0 0.66 0 1 0 C1.22174933 1.45635371 1.42698698 2.91522956 1.625 4.375 C1.74101563 5.18710937 1.85703125 5.99921875 1.9765625 6.8359375 C1.98429688 7.55007813 1.99203125 8.26421875 2 9 C1.34 9.66 0.68 10.32 0 11 C-0.66 10.34 -1.32 9.68 -2 9 C-1.67 8.67 -1.34 8.34 -1 8 C-0.76924918 6.65252916 -0.58846937 5.29622435 -0.4375 3.9375 C-0.293125 2.638125 -0.14875 1.33875 0 0 Z " fill="#AEB1B9" transform="translate(824,464)"/>
</svg>
