<?xml version="1.0" encoding="UTF-8"?>
<svg version="1.1" xmlns="http://www.w3.org/2000/svg" width="1024" height="1024">
<path d="M0 0 C337.92 0 675.84 0 1024 0 C1024 337.92 1024 675.84 1024 1024 C686.08 1024 348.16 1024 0 1024 C0 686.08 0 348.16 0 0 Z " fill="#F3DDDF" transform="translate(0,0)"/>
<path d="M0 0 C3.28509307 2.07646962 6.18561764 4.32506902 9 7 C9.57234375 7.52335937 10.1446875 8.04671875 10.734375 8.5859375 C12 10 12 10 12 12 C12.66 12 13.32 12 14 12 C14 7.38 14 2.76 14 -2 C25.22 -2 36.44 -2 48 -2 C48 36.94 48 75.88 48 116 C36.78 116 25.56 116 14 116 C13.67 111.71 13.34 107.42 13 103 C11.948125 104.0828125 11.948125 104.0828125 10.875 105.1875 C1.3567597 114.62575509 -8.62731856 119.41125717 -22.1875 119.375 C-36.67385437 119.30055667 -48.72390518 114.18830026 -59.25 104.1875 C-66.0020211 97.00655953 -70.95592066 89.38591131 -74 80 C-74.2990625 79.12085938 -74.598125 78.24171875 -74.90625 77.3359375 C-80.11966297 59.81307725 -77.67359787 39.70510576 -69.32397461 23.59741211 C-55.30636496 -1.71750201 -26.37410097 -12.54568741 0 0 Z " fill="#0C1012" transform="translate(713,486)"/>
<path d="M0 0 C20.79 0 41.58 0 63 0 C72 19 72 19 76 28 C76.495 28.804375 76.99 29.60875 77.5 30.4375 C78.82052247 32.69339256 79.74284907 34.76193341 80.6875 37.1875 C82.61185684 42.12741986 84.71862744 46.97073705 86.875 51.8125 C87.19041748 52.52237061 87.50583496 53.23224121 87.83081055 53.96362305 C90.82579816 60.67062337 93.91308616 67.33492568 97 74 C97.32162109 73.29617188 97.64324219 72.59234375 97.97460938 71.8671875 C108.75732111 48.30211707 108.75732111 48.30211707 112.9375 40.125 C118.53430183 29.17460337 123.56709185 17.9405453 128.70654297 6.77050781 C129.76822494 4.49644835 130.87763508 2.24472983 132 0 C152.46 0 172.92 0 194 0 C194 0.99 194 1.98 194 3 C193.34 3.33 192.68 3.66 192 4 C191.01050249 5.69172156 190.0232452 7.38576504 189.09765625 9.11328125 C188 11 188 11 186.5 12.96484375 C184.99578599 15.00571745 183.99480387 16.95046458 182.9375 19.25 C180.64079873 23.95408695 177.98780778 28.33656311 175.1875 32.75 C169.72288497 41.37131942 164.67014521 50.19041151 159.71484375 59.11328125 C156.13875841 65.53815046 152.55262245 71.83297611 148.37890625 77.89453125 C146.29386373 81.07820807 144.55426675 84.43059791 142.76171875 87.78515625 C140.60701408 91.71713395 138.34309801 95.57756764 136.0625 99.4375 C135.62929443 100.17129883 135.19608887 100.90509766 134.74975586 101.66113281 C133.5008554 103.77469285 132.25070334 105.88750643 131 108 C126.12823211 116.23328773 121.48366149 124.55054674 117 133 C116.34 133 115.68 133 115 133 C114.62875 134.28197266 114.62875 134.28197266 114.25 135.58984375 C112.89427524 139.28843035 111.12669256 142.25127096 109 145.5625 C106.60193242 149.30507238 104.49891884 152.80771138 103 157 C102.34 157 101.68 157 101 157 C100.731875 157.598125 100.46375 158.19625 100.1875 158.8125 C99.00913692 160.98316883 97.76939019 162.30817212 96 164 C89.48063781 154.77448747 89.48063781 154.77448747 88 149 C87.34 149 86.68 149 86 149 C85.72027344 148.48953125 85.44054687 147.9790625 85.15234375 147.453125 C82.14353996 141.99664482 79.03126615 136.60737337 75.8828125 131.23046875 C72.54867384 125.50986154 69.27808557 119.75283972 66 114 C64.56318121 111.47877748 63.12555263 108.95801892 61.6875 106.4375 C61.05199219 105.32246094 60.41648438 104.20742188 59.76171875 103.05859375 C58.63022453 101.09415921 57.46836114 99.14673762 56.26953125 97.22265625 C55 95 55 95 55 93 C54.34 93 53.68 93 53 93 C52.6596875 92.36835937 52.319375 91.73671875 51.96875 91.0859375 C47.24889443 82.37428918 42.50364752 73.62158276 37.26171875 65.2109375 C36 63 36 63 36 61 C35.34 61 34.68 61 34 61 C33.50693359 60.08734375 33.50693359 60.08734375 33.00390625 59.15625 C26.61508887 47.3828196 20.14157592 35.68673526 13.0546875 24.31640625 C10.30956387 19.88558883 7.6375338 15.41239043 4.96875 10.93530273 C3.3641149 8.24876551 1.73630477 5.60445716 0 3 C0 2.01 0 1.02 0 0 Z " fill="#E65127" transform="translate(112,437)"/>
<path d="M0 0 C11.55 0 23.1 0 35 0 C35.33 30.03 35.66 60.06 36 91 C54.54206693 72.72831809 54.54206693 72.72831809 71.11138916 52.29975891 C73.17508619 49.40939639 74.7649493 47.33526518 78.27651978 46.38201904 C81.01921346 46.19088251 83.68227359 46.21228807 86.4296875 46.31640625 C87.915186 46.3312632 87.915186 46.3312632 89.43069458 46.34642029 C92.58033066 46.38547101 95.72642539 46.47327596 98.875 46.5625 C101.01557451 46.59762588 103.15620389 46.62956265 105.296875 46.65820312 C110.53244938 46.73520067 115.76597171 46.85219235 121 47 C118.71893288 51.00497704 116.60090767 53.13564163 113 56 C111.922214 57.1940552 110.86701617 58.4086733 109.828125 59.63671875 C105.46022355 64.6897476 100.72628904 69.32593872 95.9609375 74 C91.97525798 77.93951335 88.21631755 81.98821549 84.5625 86.23681641 C82.05344098 89.06813269 79.2337095 91.53729102 76.40625 94.04296875 C74.75111181 95.93061707 74.75111181 95.93061707 75.0625 98.453125 C76.13982607 101.37986083 77.47738929 103.19074816 79.5 105.5625 C84.20842839 111.22772133 88.60260261 117.09170197 93 123 C94.49916844 125.0006234 95.99916488 127.00062661 97.5 129 C106.3125 140.75 106.3125 140.75 108.515625 143.6953125 C110.40875506 146.22105567 112.31959744 148.73282112 114.234375 151.2421875 C114.78569092 151.96825195 115.33700684 152.69431641 115.9050293 153.44238281 C116.99640762 154.87954914 118.09153377 156.31387828 119.19067383 157.74511719 C119.93353638 158.72593262 119.93353638 158.72593262 120.69140625 159.7265625 C121.13685791 160.31002441 121.58230957 160.89348633 122.04125977 161.49462891 C123 163 123 163 123 165 C117.00456026 165.22321213 111.01155825 165.38612382 105.01293945 165.49438477 C102.97475034 165.53952684 100.93685082 165.60085969 98.8996582 165.67895508 C82.01806794 166.30969581 82.01806794 166.30969581 77.23388672 163.20483398 C75.40557938 160.88056804 74.20354544 158.69352003 73 156 C72.19475339 154.78530064 71.36802951 153.584428 70.515625 152.40234375 C69.75730275 151.24943799 69.00213831 150.09444955 68.25 148.9375 C67.39931715 147.64785683 66.54771976 146.35881655 65.6953125 145.0703125 C65.25864258 144.4093457 64.82197266 143.74837891 64.37207031 143.06738281 C61.98143856 139.46527077 59.55951292 135.88506152 57.125 132.3125 C56.67286133 131.6414624 56.22072266 130.9704248 55.75488281 130.27905273 C53.41365882 126.85407424 51.07471899 123.82445117 48 121 C47.77425293 121.57186035 47.54850586 122.1437207 47.31591797 122.73291016 C45.64605017 125.60979186 43.50390901 127.1553269 40.9453125 129.2734375 C35.52928433 134.58032656 34.85455217 138.73238319 34.75732422 146.15478516 C34.79615723 147.62995605 34.83499023 149.10512695 34.875 150.625 C34.91625 155.36875 34.9575 160.1125 35 165 C23.45 165 11.9 165 0 165 C0 110.55 0 56.1 0 0 Z " fill="#0C0F11" transform="translate(512,437)"/>
<path d="M0 0 C11.88 0 23.76 0 36 0 C36.02578125 5.16527344 36.0515625 10.33054687 36.078125 15.65234375 C36.10331216 18.93819964 36.1296593 22.22396518 36.16015625 25.50976562 C36.2083792 30.71720643 36.25246574 35.92443791 36.27099609 41.13208008 C36.28621751 45.33392485 36.32075911 49.53521945 36.36830902 53.73681831 C36.38306658 55.33420574 36.39103777 56.93167175 36.39188385 58.52912712 C36.39789097 72.65191298 36.39789097 72.65191298 43.375 84.5625 C51.6460937 87.84241647 60.62918382 86.72113742 68.81640625 83.65625 C72.35377831 80.97316278 74.40278819 78.08449132 76 74 C76.75355029 68.34515624 76.72308481 62.72814686 76.70703125 57.03125 C76.72016102 55.38356713 76.73546916 53.73590031 76.75285339 52.08825684 C76.79256725 47.77444908 76.80288498 43.46106369 76.80688477 39.14709473 C76.81789034 33.95892393 76.86575411 28.77097549 76.90737152 23.58297729 C76.96634037 15.72179637 76.97876238 7.86178088 77 0 C88.88 0 100.76 0 113 0 C113 38.94 113 77.88 113 118 C101.78 118 90.56 118 79 118 C78.67 113.71 78.34 109.42 78 105 C77.05125 106.216875 76.1025 107.43375 75.125 108.6875 C68.88222098 115.81309626 60.14118756 119.28596006 50.7878418 120.22119141 C36.69574896 120.93406232 24.1556757 119.84040642 13.15234375 110.12109375 C6.1290892 103.19981023 3.46195605 96.54481423 1 87 C0.82163101 86.44560242 0.64326202 85.89120483 0.45948792 85.32000732 C-0.22404136 81.86878941 -0.13006113 78.43018006 -0.11352539 74.92675781 C-0.11374443 73.71156212 -0.11374443 73.71156212 -0.1139679 72.47181702 C-0.11327224 69.79889227 -0.10549606 67.12603755 -0.09765625 64.453125 C-0.09579084 62.59796181 -0.09436752 60.74279813 -0.09336853 58.88763428 C-0.08955305 54.00830726 -0.07973102 49.12901007 -0.06866455 44.24969482 C-0.05842961 39.2693319 -0.05386644 34.28896416 -0.04882812 29.30859375 C-0.03810789 19.53904729 -0.02051892 9.7695308 0 0 Z " fill="#0D1012" transform="translate(291,484)"/>
<path d="M0 0 C9.69834816 4.86700192 16.05435243 11.90616872 20 22 C20.24992203 22.58632706 20.49984406 23.17265411 20.75733948 23.77674866 C24.07714951 32.82611671 23.37492225 42.29860327 23.29296875 51.7890625 C23.28736505 53.70290798 23.28309861 55.61675779 23.28010559 57.53060913 C23.26871775 62.53818903 23.23930347 67.54550286 23.20599365 72.55297852 C23.17516132 77.67460533 23.16157226 82.79627564 23.14648438 87.91796875 C23.1144273 97.94544749 23.06170963 107.97265986 23 118 C11.45 118 -0.1 118 -12 118 C-12.02578125 112.7509375 -12.0515625 107.501875 -12.078125 102.09375 C-12.10330743 98.75776444 -12.12965095 95.42186828 -12.16015625 92.0859375 C-12.20840902 86.7971977 -12.25248444 81.508665 -12.27099609 76.21972656 C-12.28619971 71.95305102 -12.32071026 67.68691922 -12.36830902 63.42048645 C-12.38308479 61.79715211 -12.39103882 60.17374011 -12.39188385 58.55033875 C-12.25899989 46.66790488 -12.25899989 46.66790488 -17 36 C-21.65352801 31.45160845 -25.97302014 30.60398456 -32.4375 30.3125 C-38.43308689 30.52769554 -42.39809398 31.52305558 -47.265625 35.00390625 C-51.58183211 39.9714329 -52.37762395 45.18200226 -52.43237305 51.58764648 C-52.4425647 52.31043289 -52.45275635 53.0332193 -52.46325684 53.77790833 C-52.49320182 56.14238421 -52.50262396 58.50645378 -52.51171875 60.87109375 C-52.52857923 62.52020087 -52.54673131 64.16929525 -52.56611633 65.81837463 C-52.61347399 70.14028948 -52.64337512 74.46215264 -52.66955566 78.78424072 C-52.70469447 83.97988393 -52.76166648 89.17532873 -52.81494904 94.37081146 C-52.893296 102.24718194 -52.94402734 110.12329567 -53 118 C-64.88 118 -76.76 118 -89 118 C-89 79.06 -89 40.12 -89 0 C-77.78 0 -66.56 0 -55 0 C-54.505 6.435 -54.505 6.435 -54 13 C-52.96875 11.824375 -51.9375 10.64875 -50.875 9.4375 C-38.28259054 -3.26794725 -16.42083856 -7.74391818 0 0 Z " fill="#0B0F10" transform="translate(874,484)"/>
<path d="M0 0 C11.55 0 23.1 0 35 0 C35.0093457 3.78549316 35.01869141 7.57098633 35.02832031 11.47119141 C35.0620731 23.97229944 35.11741144 36.4732335 35.18390274 48.97420692 C35.22369234 56.55426 35.25608517 64.13420926 35.27099609 71.71435547 C35.2840131 78.32212822 35.31097875 84.92967257 35.35461307 91.53731668 C35.37722714 95.03525629 35.39291074 98.53291419 35.39188385 102.03093338 C35.39099836 105.93833798 35.42125778 109.84516762 35.45410156 113.75244141 C35.4490712 114.90906281 35.44404083 116.0656842 35.43885803 117.25735474 C35.5193345 123.43752797 35.76113151 127.3432088 40 132 C46.25692671 135.12846336 56.25088556 132.89988192 63 132 C64.60790623 138.86496136 66.18076564 145.73707151 67.6875 152.625 C67.93886719 153.77226563 68.19023437 154.91953125 68.44921875 156.1015625 C69 159 69 159 69 162 C67.16830682 162.48539869 65.33453941 162.96297186 63.5 163.4375 C62.4790625 163.70433594 61.458125 163.97117187 60.40625 164.24609375 C46.94589173 167.22527855 27.17098214 169.46604712 15 162 C8.2305889 157.4556649 3.48233265 151.56258319 1.36296272 143.60946178 C-0.04336304 136.15198176 -0.27159929 128.93441614 -0.22705078 121.35864258 C-0.22734283 120.04030426 -0.22763489 118.72196594 -0.22793579 117.36367798 C-0.22850462 113.78380898 -0.21682734 110.20407671 -0.20278788 106.62423921 C-0.19020131 102.8699987 -0.18910382 99.11575432 -0.18673706 95.36149597 C-0.18054541 88.26801415 -0.16416626 81.1745947 -0.14403808 74.08114022 C-0.1216066 65.9988228 -0.1106675 57.91650225 -0.10064721 49.8341614 C-0.07979771 33.2227321 -0.04315077 16.61138862 0 0 Z " fill="#0B0F11" transform="translate(428,437)"/>
<path d="M0 0 C0 3.71119094 -1.43962411 5.06117727 -3.59375 7.9453125 C-5.03271455 10.0477996 -6.10186225 12.13439706 -7.1875 14.4375 C-9.43110902 19.08699164 -12.05073018 23.39801038 -14.8125 27.75 C-20.27718447 36.37127208 -25.32985753 45.19041646 -30.28515625 54.11328125 C-33.86124159 60.53815046 -37.44737755 66.83297611 -41.62109375 72.89453125 C-43.70613627 76.07820807 -45.44573325 79.43059791 -47.23828125 82.78515625 C-49.39298592 86.71713395 -51.65690199 90.57756764 -53.9375 94.4375 C-54.37070557 95.17129883 -54.80391113 95.90509766 -55.25024414 96.66113281 C-56.4991446 98.77469285 -57.74929666 100.88750643 -59 103 C-63.87176789 111.23328773 -68.51633851 119.55054674 -73 128 C-73.66 128 -74.32 128 -75 128 C-75.2475 128.85464844 -75.495 129.70929688 -75.75 130.58984375 C-77.10572476 134.28843035 -78.87330744 137.25127096 -81 140.5625 C-83.39806758 144.30507238 -85.50108116 147.80771138 -87 152 C-87.66 152 -88.32 152 -89 152 C-89.268125 152.598125 -89.53625 153.19625 -89.8125 153.8125 C-90.98493467 155.97224808 -92.19369282 157.35790256 -94 159 C-95.44188937 156.11622127 -94.29283384 154.18100927 -93.49567032 151.20294189 C-92.73503016 147.82237623 -92.73711651 144.46812023 -92.77294922 141.0234375 C-92.77251114 139.89514778 -92.77251114 139.89514778 -92.77206421 138.74406433 C-92.77344416 136.28758721 -92.78894148 133.83142334 -92.8046875 131.375 C-92.80842239 129.66007655 -92.81126711 127.94515096 -92.81326294 126.23022461 C-92.82086191 121.73889163 -92.84047791 117.2476901 -92.8626709 112.75640869 C-92.88321022 108.16444679 -92.89228188 103.57246345 -92.90234375 98.98046875 C-92.92372765 89.98692174 -92.95781799 80.99347184 -93 72 C-92.34 72 -91.68 72 -91 72 C-90.8453125 71.0409375 -90.8453125 71.0409375 -90.6875 70.0625 C-90.460625 69.381875 -90.23375 68.70125 -90 68 C-88.515 67.505 -88.515 67.505 -87 67 C-86.195625 66.175 -85.39125 65.35 -84.5625 64.5 C-82.16304524 62.15906852 -81.22865886 61.35873987 -78 61 C-78 60.34 -78 59.68 -78 59 C-76.32479602 57.59946911 -74.58076908 56.28102288 -72.8125 55 C-71.71273887 54.19771388 -70.61381025 53.3942856 -69.515625 52.58984375 C-68.65227539 51.95925049 -68.65227539 51.95925049 -67.77148438 51.31591797 C-65.98587038 49.98950405 -64.23200807 48.6298994 -62.484375 47.25390625 C-61.91227295 46.80466797 -61.3401709 46.35542969 -60.75073242 45.89257812 C-59.6486687 45.02431448 -58.54971472 44.15208494 -57.4543457 43.27539062 C-54.43476698 40.91128725 -51.63838302 39.22619538 -48 38 C-48 37.34 -48 36.68 -48 36 C-46.12109375 34.4765625 -46.12109375 34.4765625 -43.4375 32.625 C-37.74074256 28.60463212 -32.3295433 24.29992748 -26.95288086 19.86181641 C-22.21349183 16 -22.21349183 16 -20 16 C-20 15.34 -20 14.68 -20 14 C-18.3828125 12.73828125 -18.3828125 12.73828125 -16.125 11.3125 C-12.53568512 8.99938597 -8.99799349 6.63710351 -5.5 4.1875 C-4.6646875 3.60355469 -3.829375 3.01960938 -2.96875 2.41796875 C-1.09467555 1.1481825 -1.09467555 1.1481825 0 0 Z " fill="#EC7F56" transform="translate(302,442)"/>
<path d="M0 0 C7.13074505 4.08969201 12.38378975 10.15136925 15 18 C15.80235534 30.32470417 15.35779693 39.88842409 7.375 49.875 C1.38062836 56.07796699 -4.42669747 58.07400881 -13.00390625 58.46679688 C-21.27694354 58.59630114 -26.99232642 57.7156755 -33.14453125 52.01171875 C-40.21689052 44.63352773 -42.58164265 37.75277038 -42.5 27.625 C-42.49355469 26.78936523 -42.48710938 25.95373047 -42.48046875 25.09277344 C-42.21698481 16.19325657 -39.71944832 10.30979259 -33.25 4.125 C-23.19507402 -3.82496951 -11.76305264 -5.70854025 0 0 Z " fill="#F1DCDE" transform="translate(713,515)"/>
<path d="M0 0 C20.46 0 40.92 0 62 0 C62 0.99 62 1.98 62 3 C59.98828125 4.9375 59.98828125 4.9375 57.3125 7 C56.44238281 7.680625 55.57226562 8.36125 54.67578125 9.0625 C52.1838609 10.8668686 49.64620078 12.43555231 47 14 C45.16029554 15.30880778 43.35544678 16.6552185 41.55078125 18.01171875 C40 19 40 19 38 19 C38 19.66 38 20.32 38 21 C36.34501189 22.37915676 34.62169626 23.67650388 32.875 24.9375 C27.30880929 28.99218934 21.89622423 33.20838087 16.54638672 37.54467773 C12.21812142 41 12.21812142 41 10 41 C10 41.66 10 42.32 10 43 C8.64544703 43.93776744 7.28255352 44.86475583 5.890625 45.74609375 C3.77515852 47.14912007 1.80476053 48.67697415 -0.1875 50.25 C-14.47753028 61.46404071 -14.47753028 61.46404071 -20 64 C-20 64.66 -20 65.32 -20 66 C-25.41176471 70 -25.41176471 70 -28 70 C-28.33 70.99 -28.66 71.98 -29 73 C-31.0625 73.6875 -31.0625 73.6875 -33 74 C-32.42199553 68.3300514 -30.30332385 63.73174116 -27.9375 58.625 C-27.53047852 57.73361328 -27.12345703 56.84222656 -26.70410156 55.92382812 C-24.02933604 50.10803444 -21.22547514 44.37042399 -18.31567383 38.66943359 C-14.12126713 30.38349994 -10.28180033 21.92576575 -6.39160156 13.49414062 C-5.58287598 11.74133789 -5.58287598 11.74133789 -4.7578125 9.953125 C-4.2745752 8.90286133 -3.79133789 7.85259766 -3.29345703 6.77050781 C-2.23177506 4.49644835 -1.12236492 2.24472983 0 0 Z " fill="#D63F25" transform="translate(244,437)"/>
<path d="M0 0 C5.66227713 3.37626462 7.89277173 7.65745295 9.86499023 13.7512207 C10.94369773 18.10213204 10.93344071 22.35152574 10.875 26.8125 C10.88660156 27.69808594 10.89820313 28.58367188 10.91015625 29.49609375 C10.86978584 38.66017795 8.39676469 47.15560477 2.5 54.3125 C-2.61495815 58.48797604 -6.95614897 58.94086737 -13.49609375 58.6953125 C-19.65571798 57.91034088 -23.9041704 55.83894571 -28.375 51.5625 C-35.25856435 41.0346957 -34.74912051 29.17503958 -32.25 17.1875 C-30.12284371 9.20081597 -26.18095252 4.07132233 -19.5 -0.6875 C-13.31444008 -2.74935331 -5.96260471 -2.78479467 0 0 Z " fill="#69CDAB" transform="translate(212.5,899.6875)"/>
<path d="M0 0 C1.051875 -0.00515625 2.10375 -0.0103125 3.1875 -0.015625 C6 0.25 6 0.25 9 2.25 C10.04994461 5.1230477 10.18002416 7.9762528 10.31640625 11.015625 C10.35830078 11.90507813 10.40019531 12.79453125 10.44335938 13.7109375 C10.48267578 14.63132812 10.52199219 15.55171875 10.5625 16.5 C10.60568359 17.43585937 10.64886719 18.37171875 10.69335938 19.3359375 C10.7991805 21.64048641 10.90126557 23.94513839 11 26.25 C12.97909398 26.27686553 14.95828971 26.29633375 16.9375 26.3125 C18.03964844 26.32410156 19.14179688 26.33570313 20.27734375 26.34765625 C22.91447634 26.56262571 22.91447634 26.56262571 24 25.25 C24.05065885 23.56456122 24.03556007 21.87704827 23.9921875 20.19140625 C23.97542969 19.16595703 23.95867187 18.14050781 23.94140625 17.08398438 C23.89721117 14.90672663 23.84515413 12.72961397 23.78515625 10.55273438 C23.77097656 9.52599609 23.75679688 8.49925781 23.7421875 7.44140625 C23.7201123 6.49467041 23.69803711 5.54793457 23.67529297 4.57250977 C23.78244629 3.80608154 23.88959961 3.03965332 24 2.25 C27.58282235 -0.13854824 29.31393033 -0.01898802 33.5625 0 C34.71878906 -0.00515625 35.87507813 -0.0103125 37.06640625 -0.015625 C40 0.25 40 0.25 42 2.25 C42.25396729 4.44444275 42.25396729 4.44444275 42.25878906 7.20288086 C42.26509338 8.23412582 42.27139771 9.26537079 42.27789307 10.3278656 C42.2738446 11.44556839 42.26979614 12.56327118 42.265625 13.71484375 C42.26849518 15.43121788 42.26849518 15.43121788 42.27142334 17.18226624 C42.27278632 19.60580668 42.26908203 22.02935439 42.26074219 24.45288086 C42.2500543 28.16862364 42.26062889 31.88388182 42.2734375 35.59960938 C42.27211573 37.9505219 42.26955299 40.30143413 42.265625 42.65234375 C42.26967346 43.76802231 42.27372192 44.88370087 42.27789307 46.03318787 C42.27158875 47.06758499 42.26528442 48.10198212 42.25878906 49.16772461 C42.25719788 50.07880478 42.25560669 50.98988495 42.25396729 51.92857361 C42 54.25 42 54.25 40 57.25 C37.22808898 57.49849576 34.70112612 57.57683409 31.9375 57.5 C30.81891602 57.49226562 30.81891602 57.49226562 29.67773438 57.484375 C24.15410426 57.40410426 24.15410426 57.40410426 23 56.25 C22.84344973 54.76361008 22.74933057 53.27050873 22.68359375 51.77734375 C22.64169922 50.87822266 22.59980469 49.97910156 22.55664062 49.05273438 C22.51732422 48.10720703 22.47800781 47.16167969 22.4375 46.1875 C22.39431641 45.23810547 22.35113281 44.28871094 22.30664062 43.31054688 C22.20020868 40.95721824 22.09956846 38.60362901 22 36.25 C17.71 35.92 13.42 35.59 9 35.25 C9.01160156 36.82652344 9.02320313 38.40304687 9.03515625 40.02734375 C9.04453243 42.08072799 9.05363282 44.1341135 9.0625 46.1875 C9.07087891 47.22841797 9.07925781 48.26933594 9.08789062 49.34179688 C9.09272461 50.82583008 9.09272461 50.82583008 9.09765625 52.33984375 C9.10551147 53.71450806 9.10551147 53.71450806 9.11352539 55.11694336 C9 57.25 9 57.25 8 58.25 C5.8778002 58.37569503 3.75088655 58.42576773 1.625 58.4375 C-0.11910156 58.45876953 -0.11910156 58.45876953 -1.8984375 58.48046875 C-5 58.25 -5 58.25 -8 56.25 C-8.41891479 53.97290039 -8.41891479 53.97290039 -8.47998047 51.09765625 C-8.52419632 49.48588501 -8.52419632 49.48588501 -8.56930542 47.84155273 C-8.58510651 46.67696533 -8.60090759 45.51237793 -8.6171875 44.3125 C-8.64225372 43.12148682 -8.66731995 41.93047363 -8.69314575 40.70336914 C-8.74218915 38.18160936 -8.78371477 35.65969401 -8.81835938 33.13769531 C-8.87477418 29.26549998 -8.96309505 25.3949422 -9.0546875 21.5234375 C-9.09827882 19.07815855 -9.14000832 16.63284556 -9.1796875 14.1875 C-9.20763397 13.0229126 -9.23558044 11.8583252 -9.26437378 10.65844727 C-9.27493805 9.58393311 -9.28550232 8.50941895 -9.29638672 7.40234375 C-9.31176483 6.45351318 -9.32714294 5.50468262 -9.34298706 4.52709961 C-9.22980133 3.77565674 -9.1166156 3.02421387 -9 2.25 C-5.53767506 -0.05821663 -4.08201684 -0.02000989 0 0 Z " fill="#67CDAA" transform="translate(363,898.75)"/>
<path d="M0 0 C0.7734375 -0.00515625 1.546875 -0.0103125 2.34375 -0.015625 C4.5 0.25 4.5 0.25 7.5 2.25 C7.5 3.57 7.5 4.89 7.5 6.25 C8.386875 5.425 9.27375 4.6 10.1875 3.75 C15.34686131 0.03610392 21.40830184 0.32467876 27.5 1.25 C30.3984375 2.65625 30.3984375 2.65625 32.5 4.25 C32.5 4.91 32.5 5.57 32.5 6.25 C32.99628906 5.96125 33.49257813 5.6725 34.00390625 5.375 C38.67623758 2.82161969 42.05375768 1.54400563 47.5 2.25 C51.34616512 3.58136485 53.02552379 4.45870919 55.13110352 7.97021484 C57.42156472 13.45800792 57.24165216 18.99334738 57.4375 24.875 C57.50517578 26.1021875 57.57285156 27.329375 57.64257812 28.59375 C57.68705078 29.77195312 57.73152344 30.95015625 57.77734375 32.1640625 C57.82109131 33.2360791 57.86483887 34.3080957 57.90991211 35.41259766 C57.39792408 38.95656722 56.2800352 40.07506156 53.5 42.25 C50.59215119 42.95882303 48.557461 42.58971789 45.5 42.25 C42.82568511 40.43836733 42.54079641 39.37238923 41.5 36.25 C41.37569532 34.68246728 41.29909752 33.11086663 41.25390625 31.5390625 C41.22103516 30.62382813 41.18816406 29.70859375 41.15429688 28.765625 C41.09335063 26.84646674 41.03602846 24.9271898 40.98242188 23.0078125 C40.75716931 16.41058795 40.75716931 16.41058795 38.5 10.25 C36.11522671 11.96153709 34.6697593 13.33188697 34.12451172 16.28076172 C33.98879629 18.75408512 33.93937799 21.21043711 33.9375 23.6875 C33.87787136 34.87212864 33.87787136 34.87212864 29.5 39.25 C28.02351124 39.34823996 26.54224583 39.37973519 25.0625 39.375 C24.25941406 39.37757813 23.45632813 39.38015625 22.62890625 39.3828125 C20.5 39.25 20.5 39.25 18.5 38.25 C17.3992924 34.9478772 17.29372928 32.30916721 17.18359375 28.83203125 C17.14169922 27.57841797 17.09980469 26.32480469 17.05664062 25.03320312 C17.01732422 23.72287109 16.97800781 22.41253906 16.9375 21.0625 C16.89429008 19.72720022 16.850675 18.39191348 16.80664062 17.05664062 C16.70043498 13.78786703 16.59839003 10.51901667 16.5 7.25 C11.67299511 11.82946618 10.41437794 14.36133566 10.21875 20.94140625 C10.18136719 22.05064453 10.14398437 23.15988281 10.10546875 24.30273438 C10.03503897 26.64648085 9.96472686 28.99023087 9.89453125 31.33398438 C9.85714844 32.44193359 9.81976562 33.54988281 9.78125 34.69140625 C9.73581055 36.21809937 9.73581055 36.21809937 9.68945312 37.77563477 C9.5 40.25 9.5 40.25 8.5 42.25 C5.38370851 43.28876383 3.1405571 43.38361625 -0.125 43.375 C-1.10726563 43.37757813 -2.08953125 43.38015625 -3.1015625 43.3828125 C-5.5 43.25 -5.5 43.25 -6.5 42.25 C-6.69755244 39.31817691 -6.83306007 36.408428 -6.921875 33.47265625 C-6.94977112 32.59097275 -6.97766724 31.70928925 -7.00640869 30.80088806 C-7.06290188 28.93220136 -7.11650759 27.06342551 -7.16748047 25.19458008 C-7.24956688 22.32762709 -7.35305553 19.4619344 -7.45703125 16.59570312 C-7.50914146 14.7838919 -7.55996564 12.97204314 -7.609375 11.16015625 C-7.64359558 10.2986647 -7.67781616 9.43717316 -7.71307373 8.54957581 C-7.76464844 6.13305664 -7.76464844 6.13305664 -7.5 2.25 C-4.377998 0.16866533 -3.56733011 -0.0237822 0 0 Z " fill="#68CDAB" transform="translate(504.5,913.75)"/>
<path d="M0 0 C5.1013239 0.01541185 9.90641087 0.39760863 14.9609375 1.1328125 C16.44044638 1.10591234 17.91972581 1.06332727 19.3984375 1.0078125 C25.59179428 0.95505818 30.11339285 2.56641595 34.8359375 6.5703125 C40.22291157 13.06636947 39.63189063 20.06438877 38.9609375 28.1328125 C37.5312076 33.80036457 34.52341346 37.01706157 29.7421875 40.22265625 C26.14840416 42.05895344 22.83236853 42.26974214 18.8359375 42.2578125 C17.53269531 42.26167969 17.53269531 42.26167969 16.203125 42.265625 C13.9609375 42.1328125 13.9609375 42.1328125 11.9609375 41.1328125 C12.11820313 41.67808594 12.27546875 42.22335937 12.4375 42.78515625 C13.42463747 47.21254146 13.5629291 51.63887517 12.9609375 56.1328125 C10.29775554 59.04566777 7.69226244 59.32788825 3.8984375 59.6328125 C-0.0390625 59.1328125 -0.0390625 59.1328125 -2.265625 57.15234375 C-4.60591292 53.1676685 -4.51114678 49.79905187 -4.3515625 45.3203125 C-4.33536865 44.43827148 -4.3191748 43.55623047 -4.30249023 42.64746094 C-4.23637605 39.47505078 -4.13663643 36.30440863 -4.0390625 33.1328125 C-3.98666583 31.04544402 -3.9376306 28.95801036 -3.8886261 26.87055969 C-3.80100745 23.20775498 -3.70211728 19.54528178 -3.6015625 15.8828125 C-3.58227692 15.15847015 -3.56299133 14.43412781 -3.54312134 13.68783569 C-3.48603399 11.62241024 -3.42194079 9.55732976 -3.35546875 7.4921875 C-3.31881104 6.29045898 -3.28215332 5.08873047 -3.24438477 3.85058594 C-2.96808602 0.19332361 -2.96808602 0.19332361 0 0 Z " fill="#69CDAB" transform="translate(764.0390625,898.8671875)"/>
<path d="M0 0 C1.08152344 -0.01417969 2.16304687 -0.02835938 3.27734375 -0.04296875 C6.0625 0.1875 6.0625 0.1875 8.0625 2.1875 C8.23905536 5.77745899 8.34834131 8.92540069 7.5546875 12.4296875 C6.89556525 16.12286458 6.95659267 19.76363027 7 23.5 C7.00451172 24.24056641 7.00902344 24.98113281 7.01367188 25.74414062 C7.02537825 27.55862899 7.04331102 29.37307534 7.0625 31.1875 C9.03786745 30.83963292 9.03786745 30.83963292 11.0625 30.1875 C12.31300267 27.68649467 12.22049146 25.89798757 12.2734375 23.1015625 C12.30179688 22.08835937 12.33015625 21.07515625 12.359375 20.03125 C12.41126455 17.8934005 12.45559297 15.7553535 12.4921875 13.6171875 C12.523125 12.60140625 12.5540625 11.585625 12.5859375 10.5390625 C12.60575684 9.60916504 12.62557617 8.67926758 12.64599609 7.72119141 C13.13465851 4.74854278 13.98238264 3.34373816 16.0625 1.1875 C18.69140625 0.7265625 18.69140625 0.7265625 21.625 0.8125 C22.59566406 0.82539062 23.56632813 0.83828125 24.56640625 0.8515625 C27.0625 1.1875 27.0625 1.1875 29.0625 3.1875 C29.31646729 4.98643494 29.31646729 4.98643494 29.32128906 7.18725586 C29.32759338 8.01249252 29.33389771 8.83772919 29.34039307 9.68797302 C29.3363446 10.58371536 29.33229614 11.4794577 29.328125 12.40234375 C29.33099518 13.79061119 29.33099518 13.79061119 29.33392334 15.20692444 C29.33528692 17.17319001 29.3315785 19.13946452 29.32324219 21.10571289 C29.31265386 24.081756 29.32307463 27.05718026 29.3359375 30.03320312 C29.35857852 56.07957428 29.35857852 56.07957428 22.63671875 62.8828125 C19.56824529 65.42591457 17.0201517 66.06524659 13.125 66.5625 C8.39972325 65.98389468 5.54485298 63.62044121 2.1875 60.375 C0.48219327 57.0591258 0.56288014 54.87219645 1.0625 51.1875 C3.59543961 46.01337549 7.18471235 43.18068788 12.0625 40.1875 C12.3925 39.5275 12.7225 38.8675 13.0625 38.1875 C12.2375 38.6825 11.4125 39.1775 10.5625 39.6875 C6.49274806 41.4316794 3.41774058 42.10713247 -0.9375 41.1875 C-5.80047013 38.12562992 -7.58779054 35.6853991 -8.9375 30.1875 C-9.21618494 26.72467587 -9.21684376 23.28484547 -9.1875 19.8125 C-9.19523438 18.905 -9.20296875 17.9975 -9.2109375 17.0625 C-9.16192301 0.05447041 -9.16192301 0.05447041 0 0 Z " fill="#6ACDAB" transform="translate(658.9375,911.8125)"/>
<path d="M0 0 C1.45599609 0.00773438 1.45599609 0.00773438 2.94140625 0.015625 C3.90949219 0.01046875 4.87757813 0.0053125 5.875 0 C8.50390625 0.265625 8.50390625 0.265625 11.50390625 2.265625 C11.50390625 3.255625 11.50390625 4.245625 11.50390625 5.265625 C11.97699219 4.96527344 12.45007813 4.66492188 12.9375 4.35546875 C17.655964 1.64212201 21.05860005 0.72102358 26.4609375 1.66015625 C30.77079074 2.93745501 32.86965044 5.19309997 35.109375 8.98046875 C37.71353497 15.11519854 37.57653318 22.36901982 35.8125 28.77734375 C33.67447304 33.47384649 30.69408011 36.32358803 26.50390625 39.265625 C23.82746668 40.15777152 22.25006247 40.40102711 19.50390625 40.390625 C18.48296875 40.39449219 18.48296875 40.39449219 17.44140625 40.3984375 C15.50390625 40.265625 15.50390625 40.265625 12.50390625 39.265625 C12.52710938 40.31363281 12.5503125 41.36164062 12.57421875 42.44140625 C12.59297928 43.82030537 12.61117918 45.1992122 12.62890625 46.578125 C12.65404297 47.61356445 12.65404297 47.61356445 12.6796875 48.66992188 C12.71608419 52.43697896 12.64769489 54.04994204 10.50390625 57.265625 C8.04296875 57.6640625 8.04296875 57.6640625 5.12890625 57.640625 C4.17242187 57.64835938 3.2159375 57.65609375 2.23046875 57.6640625 C-0.96495081 57.19711007 -2.18420832 56.49396361 -4.49609375 54.265625 C-4.99057007 51.94419861 -4.99057007 51.94419861 -4.98193359 49.18334961 C-4.98808685 48.14895248 -4.99424011 47.11455536 -5.00057983 46.04881287 C-4.9862088 44.93313431 -4.97183777 43.81745575 -4.95703125 42.66796875 C-4.95611481 41.5227626 -4.95519836 40.37755646 -4.95425415 39.19764709 C-4.94820937 36.77584694 -4.93243735 34.35405456 -4.90771484 31.93237305 C-4.8712045 28.21440255 -4.86669539 24.49742789 -4.8671875 20.77929688 C-4.85735701 18.42967884 -4.8457003 16.08006759 -4.83203125 13.73046875 C-4.8298056 12.61276596 -4.82757996 11.49506317 -4.82528687 10.3434906 C-4.81252716 9.31224564 -4.79976746 8.28100067 -4.78662109 7.21850586 C-4.7789975 6.30822128 -4.7713739 5.39793671 -4.76351929 4.46006775 C-4.35920505 1.1423425 -3.26766293 0.34773252 0 0 Z " fill="#68CDAA" transform="translate(231.49609375,913.734375)"/>
<path d="M0 0 C1.12148438 0.00644531 2.24296875 0.01289062 3.3984375 0.01953125 C6.625 0.1875 6.625 0.1875 9.3203125 0.7421875 C11.82480137 1.37568542 11.82480137 1.37568542 15.125 0.5 C18.625 0.1875 18.625 0.1875 21.30664062 1.66943359 C24.40260946 5.03209393 24.31528588 7.81478916 24.21875 12.1640625 C24.21879028 12.93052094 24.21883057 13.69697937 24.21887207 14.48666382 C24.21352242 16.10219552 24.19596295 17.71772704 24.16699219 19.33300781 C24.12501947 21.81135047 24.12593285 24.28698582 24.1328125 26.765625 C24.12232374 28.33595645 24.10938732 29.90627388 24.09375 31.4765625 C24.09354858 32.21927399 24.09334717 32.96198547 24.09313965 33.72720337 C24.04492188 35.81103516 24.04492188 35.81103516 23.625 39.1875 C20.31129 41.39664 19.2803979 41.41231553 15.4375 41.3125 C14.53644531 41.29445313 13.63539063 41.27640625 12.70703125 41.2578125 C12.01996094 41.23460937 11.33289063 41.21140625 10.625 41.1875 C9.965 39.2075 9.305 37.2275 8.625 35.1875 C8.15449219 35.60902344 7.68398438 36.03054688 7.19921875 36.46484375 C6.57660156 37.01269531 5.95398438 37.56054688 5.3125 38.125 C4.69761719 38.67027344 4.08273437 39.21554687 3.44921875 39.77734375 C-0.24666384 42.63433222 -3.86723298 42.56951415 -8.375 42.1875 C-12.77293364 39.90395754 -15.2485753 37.66418358 -17.375 33.1875 C-19.73927668 25.51192572 -19.23146797 17.28316083 -15.5859375 10.16015625 C-11.54946369 3.5846102 -8.03099785 -0.10107663 0 0 Z " fill="#69CDAB" transform="translate(427.375,914.8125)"/>
<path d="M0 0 C4.81026222 3.2615424 7.6652754 7.32215929 8.76953125 13.0546875 C9.94053743 30.79255158 9.94053743 30.79255158 4.76953125 37.0546875 C0.67560778 41.28756921 -3.02064302 43.1912861 -8.91796875 43.3671875 C-14.86902511 43.28911242 -19.41697852 41.73215658 -23.765625 37.59375 C-28.66537337 31.96546762 -29.73906139 27.69837284 -29.61328125 20.3671875 C-28.86026929 13.85132888 -26.71585502 7.38807494 -21.8671875 2.8359375 C-15.51726911 -1.45378514 -7.28699376 -3.08835813 0 0 Z " fill="#6ACDAB" transform="translate(593.23046875,914.9453125)"/>
<path d="M0 0 C1.17755859 -0.00773438 1.17755859 -0.00773438 2.37890625 -0.015625 C4.4375 0.25 4.4375 0.25 6.4375 2.25 C6.83514263 4.23821313 7.17525349 6.23944339 7.4375 8.25 C7.93378906 7.816875 8.43007813 7.38375 8.94140625 6.9375 C12.35969067 4.13541486 14.63836413 2.38778205 19.0625 1.625 C23.18644619 2.38869374 25.29492438 3.46453525 28.4375 6.25 C32.67532634 12.82593743 32.1739231 20.6439237 32.4375 28.25 C32.51355469 29.49007812 32.58960938 30.73015625 32.66796875 32.0078125 C32.71566406 33.16023437 32.76335937 34.31265625 32.8125 35.5 C32.86148438 36.53640625 32.91046875 37.5728125 32.9609375 38.640625 C32.4375 41.25 32.4375 41.25 30.10546875 43.08203125 C26.89156615 44.48899593 24.910327 44.76722955 21.4375 44.25 C19.13474444 42.3829009 17.75926129 40.89352259 16.4375 38.25 C16.29622229 36.46145335 16.21155411 34.66826517 16.15625 32.875 C16.11886719 31.80765625 16.08148438 30.7403125 16.04296875 29.640625 C15.97265625 27.38020833 15.90234375 25.11979167 15.83203125 22.859375 C15.79464844 21.79203125 15.75726563 20.7246875 15.71875 19.625 C15.68845703 18.64273438 15.65816406 17.66046875 15.62695312 16.6484375 C15.58747931 14.23713088 15.58747931 14.23713088 14.4375 12.25 C13.4475 11.92 12.4575 11.59 11.4375 11.25 C8.12808577 18.5307113 8.20286708 26.32406504 7.875 34.1875 C7.83181641 35.15751953 7.78863281 36.12753906 7.74414062 37.12695312 C7.63887907 39.50118601 7.53674293 41.87550921 7.4375 44.25 C4.71207733 45.61271133 2.47662726 45.41923601 -0.5625 45.4375 C-1.635 45.45167969 -2.7075 45.46585938 -3.8125 45.48046875 C-6.5625 45.25 -6.5625 45.25 -8.5625 43.25 C-8.70411132 40.18408667 -8.72379614 37.21837986 -8.64453125 34.15625 C-8.62662033 33.2537854 -8.60870941 32.3513208 -8.59025574 31.42150879 C-8.54902452 29.51151776 -8.50243396 27.6016361 -8.45092773 25.69189453 C-8.37531281 22.76212023 -8.32632241 19.83269953 -8.27929688 16.90234375 C-8.23599399 15.04944062 -8.19112476 13.1965733 -8.14453125 11.34375 C-8.13186722 10.46352173 -8.11920319 9.58329346 -8.1061554 8.6763916 C-8.02661133 6.20898438 -8.02661133 6.20898438 -7.5625 2.25 C-4.42838698 0.16059132 -3.58799528 -0.02364412 0 0 Z " fill="#68CDAB" transform="translate(316.5625,912.75)"/>
<path d="M0 0 C1.17755859 -0.00773438 1.17755859 -0.00773438 2.37890625 -0.015625 C4.4375 0.25 4.4375 0.25 6.4375 2.25 C6.83514263 4.23821313 7.17525349 6.23944339 7.4375 8.25 C7.93378906 7.816875 8.43007813 7.38375 8.94140625 6.9375 C12.35969067 4.13541486 14.63836413 2.38778205 19.0625 1.625 C23.26448179 2.40314478 25.29563623 3.32235422 28.4375 6.25 C32.5481716 13.38369468 32.14605214 22.27265568 32.4375 30.25 C32.51355469 31.34054687 32.58960938 32.43109375 32.66796875 33.5546875 C32.79830954 36.21082138 32.86282461 38.6255538 32.4375 41.25 C29.78651601 43.9789541 28.09045457 44.15672078 24.375 44.6875 C20.75941101 44.14900802 19.67733735 43.07053592 17.4375 40.25 C16.16164014 37.69828028 16.24483799 35.76405589 16.15625 32.91015625 C16.11886719 31.84732422 16.08148437 30.78449219 16.04296875 29.68945312 C16.00816406 28.57505859 15.97335937 27.46066406 15.9375 26.3125 C15.86865248 24.11575411 15.79591247 21.91912579 15.71875 19.72265625 C15.68845703 18.74562744 15.65816406 17.76859863 15.62695312 16.76196289 C15.53063063 14.12275056 15.53063063 14.12275056 14.4375 11.25 C13.4475 11.25 12.4575 11.25 11.4375 11.25 C8.12808577 18.5307113 8.20286708 26.32406504 7.875 34.1875 C7.83181641 35.15751953 7.78863281 36.12753906 7.74414062 37.12695312 C7.63887907 39.50118601 7.53674293 41.87550921 7.4375 44.25 C4.71207733 45.61271133 2.47662726 45.41923601 -0.5625 45.4375 C-1.635 45.45167969 -2.7075 45.46585938 -3.8125 45.48046875 C-6.5625 45.25 -6.5625 45.25 -8.5625 43.25 C-8.70411132 40.18408667 -8.72379614 37.21837986 -8.64453125 34.15625 C-8.62662033 33.2537854 -8.60870941 32.3513208 -8.59025574 31.42150879 C-8.54902452 29.51151776 -8.50243396 27.6016361 -8.45092773 25.69189453 C-8.37531281 22.76212023 -8.32632241 19.83269953 -8.27929688 16.90234375 C-8.23599399 15.04944062 -8.19112476 13.1965733 -8.14453125 11.34375 C-8.13186722 10.46352173 -8.11920319 9.58329346 -8.1061554 8.6763916 C-8.02661133 6.20898438 -8.02661133 6.20898438 -7.5625 2.25 C-4.42838698 0.16059132 -3.58799528 -0.02364412 0 0 Z " fill="#68CDAB" transform="translate(614.5625,912.75)"/>
<path d="M0 0 C4.08816751 1.579925 6.68260942 3.66127447 8.7265625 7.50390625 C9.04109887 10.86583593 8.96178936 14.13885533 8.7265625 17.50390625 C7.0765625 17.83390625 5.4265625 18.16390625 3.7265625 18.50390625 C3.4171875 17.41078125 3.1078125 16.31765625 2.7890625 15.19140625 C2.14318353 12.94982631 1.4642508 10.71697115 0.7265625 8.50390625 C-2.13464006 7.07330497 -4.11354335 7.11698044 -7.2734375 7.50390625 C-13.87450484 14.8122308 -12.72505467 27.3521491 -12.38720703 36.57177734 C-12.06041052 42.12170777 -11.25312664 47.34332215 -7.2734375 51.50390625 C-3.29470177 51.21971084 -1.04041123 50.54217798 1.8515625 47.87890625 C4.7265625 45.50390625 4.7265625 45.50390625 7.1015625 45.69140625 C7.6378125 45.95953125 8.1740625 46.22765625 8.7265625 46.50390625 C8.23726928 50.7444475 5.76263827 53.68863599 2.7265625 56.50390625 C-2.73480952 59.71647803 -8.06919625 60.53470495 -14.2734375 59.50390625 C-21.09903442 56.72134583 -26.21941645 51.54862281 -29.0859375 44.75390625 C-32.09898856 34.61283725 -31.70824755 21.11583361 -27.2734375 11.50390625 C-21.2163459 0.43404919 -12.21356343 -2.66515903 0 0 Z " fill="#68CDAB" transform="translate(836.2734375,898.49609375)"/>
<path d="M0 0 C1.33278992 0.00303635 1.33278992 0.00303635 2.69250488 0.00613403 C3.5987561 0.00517731 4.50500732 0.00422058 5.4387207 0.00323486 C7.35876535 0.002553 9.27881229 0.00440771 11.19885254 0.00857544 C14.14861192 0.01392361 17.09821902 0.00863066 20.04797363 0.00222778 C21.90865105 0.00288856 23.76932838 0.00416972 25.63000488 0.00613403 C26.51853149 0.0041098 27.40705811 0.00208557 28.32250977 0 C34.546305 0.02399665 34.546305 0.02399665 35.66125488 1.13894653 C35.84875488 3.57644653 35.84875488 3.57644653 35.66125488 6.13894653 C33.66125488 8.13894653 33.66125488 8.13894653 30.84094238 8.33425903 C29.75039551 8.31105591 28.65984863 8.28785278 27.53625488 8.26394653 C26.44055176 8.24589966 25.34484863 8.22785278 24.21594238 8.20925903 C23.37289551 8.18605591 22.52984863 8.16285278 21.66125488 8.13894653 C21.67013733 8.71888367 21.67901978 9.2988208 21.68817139 9.89633179 C21.77664517 15.93071642 21.8369891 21.96491691 21.88098145 27.99978638 C21.90110045 30.25214115 21.92839896 32.50444367 21.9630127 34.75662231 C22.01151698 37.99356984 22.03422093 41.229827 22.05187988 44.46707153 C22.07252502 45.47449402 22.09317017 46.4819165 22.11444092 47.51986694 C22.11668163 54.49638988 22.11668163 54.49638988 19.79138184 57.77713013 C17.19301507 59.43829802 15.66512972 59.61569653 12.59875488 59.51394653 C11.74152832 59.50105591 10.88430176 59.48816528 10.00109863 59.47488403 C7.66125488 59.13894653 7.66125488 59.13894653 4.66125488 57.13894653 C4.30049133 55.03820801 4.30049133 55.03820801 4.32067871 52.41384888 C4.3209053 51.43298309 4.3211319 50.45211731 4.32136536 49.44152832 C4.33684921 48.38003571 4.35233307 47.31854309 4.36828613 46.22488403 C4.37253098 45.14010773 4.37677582 44.05533142 4.38114929 42.93768311 C4.39798188 39.46285486 4.43564299 35.98860035 4.47375488 32.51394653 C4.48879577 30.16239239 4.50248521 27.81082919 4.51477051 25.45925903 C4.54790035 19.6856248 4.59814506 13.91232664 4.66125488 8.13894653 C3.87879395 8.1505481 3.09633301 8.16214966 2.29016113 8.17410278 C1.27824707 8.18312622 0.26633301 8.19214966 -0.77624512 8.20144653 C-1.78558105 8.2130481 -2.79491699 8.22464966 -3.83483887 8.23660278 C-6.33874512 8.13894653 -6.33874512 8.13894653 -7.33874512 7.13894653 C-7.46374512 4.13894653 -7.46374512 4.13894653 -7.33874512 1.13894653 C-5.41617337 -0.78362522 -2.55789404 0.00986229 0 0 Z " fill="#69CDAB" transform="translate(722.3387451171875,897.8610534667969)"/>
<path d="M0 0 C4.32625381 2.20394062 7.64014223 4.73410327 10 9 C10.72574325 13.43585128 11.01140665 17.82224781 9.08203125 21.9765625 C6.33480397 25.58618799 3.35011594 27.07444342 -1 28 C-2.32 28 -3.64 28 -5 28 C-4.01 30.64 -3.02 33.28 -2 36 C1.63 36 5.26 36 9 36 C9.495 38.475 9.495 38.475 10 41 C3.13007283 45.31054254 -2.95471134 46.1349783 -11 45 C-16.07932896 43.25874505 -18.97264245 40.61242125 -21.4375 35.875 C-24.70887602 28.33469831 -25.21573662 21.45656692 -22.25 13.6875 C-19.63659986 7.86881467 -16.79487212 3.78123641 -10.9921875 0.73046875 C-7.30456233 -0.62166048 -3.84523894 -0.69466908 0 0 Z " fill="#69CDAB" transform="translate(295,913)"/>
<path d="M0 0 C4.0310441 1.05157672 5.89544582 2.83973778 8.875 5.75 C10.35194068 8.70388136 10.08430797 11.40161882 10.125 14.6875 C10.15078125 15.93402344 10.1765625 17.18054688 10.203125 18.46484375 C9.875 21.75 9.875 21.75 8.57421875 23.6640625 C5.65527009 25.52950555 3.22306714 25.16116614 -0.125 24.75 C-2.5625 23.4375 -2.5625 23.4375 -4.125 20.75 C-4.44896453 17.05892873 -4.35432784 13.44472631 -4.125 9.75 C-8.10939227 12.14063536 -8.92878016 14.33673617 -10.125 18.75 C-10.43721989 21.80390546 -10.43721989 21.80390546 -10.43359375 24.953125 C-10.45873047 26.0978125 -10.48386719 27.2425 -10.50976562 28.421875 C-10.54515131 30.82285928 -10.5763481 33.22390867 -10.60351562 35.625 C-10.62994141 36.76453125 -10.65636719 37.9040625 -10.68359375 39.078125 C-10.70377563 40.63901855 -10.70377563 40.63901855 -10.72436523 42.23144531 C-10.85657471 43.06256836 -10.98878418 43.89369141 -11.125 44.75 C-14.42304927 46.94869951 -15.75568003 47.09908812 -19.625 47.1875 C-21.06359375 47.24744141 -21.06359375 47.24744141 -22.53125 47.30859375 C-25.125 46.75 -25.125 46.75 -26.7644043 44.62231445 C-28.36166471 41.25038393 -28.49808339 38.9549492 -28.48828125 35.234375 C-28.48763672 33.98269531 -28.48699219 32.73101563 -28.48632812 31.44140625 C-28.47021484 30.14074219 -28.45410156 28.84007812 -28.4375 27.5 C-28.44072266 26.21480469 -28.44394531 24.92960938 -28.44726562 23.60546875 C-28.40835861 16.70831525 -28.13561715 10.37153775 -26.125 3.75 C-23.10062661 2.2378133 -20.46258466 2.57736631 -17.125 2.75 C-13.74468411 3.93767855 -13.19283183 4.64825225 -11.125 7.75 C-10.61710937 7.2446875 -10.10921875 6.739375 -9.5859375 6.21875 C-4.01899745 0.96455939 -4.01899745 0.96455939 0 0 Z " fill="#69CDAB" transform="translate(484.125,911.25)"/>
<path d="M0 0 C5.44736842 0.60526316 5.44736842 0.60526316 7.75 2.25 C11.04435629 6.8620988 11.35462757 11.48066938 11.3125 17 C11.30621582 18.12015503 11.30621582 18.12015503 11.29980469 19.26293945 C11.12563595 27.94450964 10.43819066 38.56180934 4 45 C0.75 45.375 0.75 45.375 -2 45 C-8.30731262 34.21653004 -8.30295172 22.60356634 -5.77734375 10.41796875 C-4.51995246 6.5067868 -2.45397197 3.26884052 0 0 Z " fill="#F1DDDE" transform="translate(206,905)"/>
<path d="M0 0 C2.86977519 0.2265612 4.50950471 0.54337224 6.640625 2.52734375 C8.58614209 6.06617225 8.43580272 9.44309088 8.375 13.375 C8.38660156 14.1175 8.39820313 14.86 8.41015625 15.625 C8.38467446 20.4325635 7.73988598 23.88697768 5 28 C1.8125 28.875 1.8125 28.875 -1 29 C-4.76402798 24.25405168 -5.19936446 20.70750142 -5.3125 14.6875 C-5.34988281 13.39199219 -5.38726563 12.09648438 -5.42578125 10.76171875 C-4.90744645 6.18230212 -3.26223671 3.26223671 0 0 Z " fill="#F0DEDD" transform="translate(588,922)"/>
<path d="M0 0 C3.78696193 0.45443543 4.79426305 1.43999792 7.125 4.375 C9.57115974 9.26731949 8.85733707 16.05647995 7.25390625 21.1328125 C6.06963737 23.54794444 4.9808009 25.4270998 3.125 27.375 C-0.625 28.5 -0.625 28.5 -3.875 28.375 C-6.46455157 25.78544843 -5.06058792 18.42322397 -5.0625 14.9375 C-5.07474609 13.76638672 -5.08699219 12.59527344 -5.09960938 11.38867188 C-5.10154297 10.27169922 -5.10347656 9.15472656 -5.10546875 8.00390625 C-5.10957764 6.97338135 -5.11368652 5.94285645 -5.11791992 4.88110352 C-4.7541409 1.12814712 -3.66885011 0.47854567 0 0 Z " fill="#F0DDDE" transform="translate(780.875,906.625)"/>
<path d="M0 0 C2.10170504 2.10170504 2.80278296 3.60102755 3.9375 6.3125 C5.01806577 8.82451636 6.06465832 11.10506977 7.5 13.4375 C8.82052247 15.69339256 9.74284907 17.76193341 10.6875 20.1875 C15.55523591 32.68322053 21.33338246 44.85111542 27 57 C27.66 56.34 28.32 55.68 29 55 C29.33 55.99 29.66 56.98 30 58 C29.67 58.66 29.34 59.32 29 60 C28.34 60 27.68 60 27 60 C27.0169693 60.97639435 27.0339386 61.9527887 27.05142212 62.95877075 C27.21012625 72.1690539 27.35781532 81.3794569 27.49477577 90.5900898 C27.56553779 95.32514463 27.64015299 100.06007283 27.72363281 104.79492188 C27.80408173 109.36595938 27.87433227 113.93705117 27.93757248 118.508358 C27.96345713 120.2506778 27.99299015 121.99294741 28.02626419 123.73514175 C28.07231095 126.17902572 28.10527607 128.62276782 28.13525391 131.06689453 C28.1517952 131.78403122 28.16833649 132.50116791 28.18537903 133.24003601 C28.22167078 137.55139914 27.58632525 140.99368776 26 145 C22.3260401 141.62392874 19.94593446 138.60879214 18 134 C18 133.34 18 132.68 18 132 C17.34 132 16.68 132 16 132 C15.67 130.68 15.34 129.36 15 128 C18.42298577 129.14099526 19.14758766 130.00085621 21 133 C21 133.99 21 134.98 21 136 C21.99 136 22.98 136 24 136 C24 136.99 24 137.98 24 139 C24.66 139 25.32 139 26 139 C25.67 112.6 25.34 86.2 25 59 C23.515 58.505 23.515 58.505 22 58 C21.27129528 55.68529088 20.60760482 53.3494053 20 51 C19.34 50.01 18.68 49.02 18 48 C17.46083854 45.3397977 17.26629902 42.70737337 17 40 C15.515 39.505 15.515 39.505 14 39 C13.19024679 36.30082264 12.53763515 33.75021059 12 31 C11.79375 30.01 11.5875 29.02 11.375 28 C11.25125 27.34 11.1275 26.68 11 26 C10.34 26 9.68 26 9 26 C8.86979167 23.98177083 8.73958333 21.96354167 8.609375 19.9453125 C8.40828125 19.30335938 8.2071875 18.66140625 8 18 C7.35933594 17.68289063 6.71867188 17.36578125 6.05859375 17.0390625 C4 16 4 16 2.98828125 13.828125 C2.76527344 12.97734375 2.54226562 12.1265625 2.3125 11.25 C2.0753125 10.36054688 1.838125 9.47109375 1.59375 8.5546875 C0.93403469 5.71617558 0.38024837 2.88988764 0 0 Z " fill="#CF5D49" transform="translate(182,454)"/>
<path d="M0 0 C0.33 0 0.66 0 1 0 C1.00423194 0.54922874 1.00846388 1.09845749 1.01282406 1.66432953 C1.11630817 15.05288503 1.22503092 28.44138926 1.33933926 41.82985687 C1.39446154 48.30452313 1.44786421 54.77919399 1.49731445 61.25390625 C1.54511602 67.50441812 1.59746408 73.75487702 1.65294075 80.00532532 C1.6732929 82.38787005 1.69201746 84.77042927 1.70907402 87.15299988 C1.73327664 90.49463116 1.76330883 93.83616372 1.79467773 97.17773438 C1.8004332 98.15885193 1.80618866 99.13996948 1.81211853 100.15081787 C1.82190735 101.07054382 1.83169617 101.99026978 1.84178162 102.93786621 C1.84823417 103.72692101 1.85468672 104.5159758 1.8613348 105.32894135 C2.04679229 108.90134329 2.55630138 112.45041106 3 116 C13.23 116 23.46 116 34 116 C34.33 92.57 34.66 69.14 35 45 C35.33 45 35.66 45 36 45 C36 69.09 36 93.18 36 118 C24.12 118 12.24 118 0 118 C0 79.06 0 40.12 0 0 Z " fill="#433E40" transform="translate(785,484)"/>
<path d="M0 0 C2.3125 -0.25 2.3125 -0.25 5 0 C7.85607366 2.94447594 8.4316595 5.14003394 8.4375 9.1875 C8.3008126 14.85243353 6.6926213 19.07974822 4 24 C3.67 24.66 3.34 25.32 3 26 C1.35 26 -0.3 26 -2 26 C-5.33656379 20.60811291 -4.58356028 14.09345503 -4 8 C-2.97392642 4.92177926 -1.76258054 2.75403209 0 0 Z " fill="#EEDDDD" transform="translate(429,922)"/>
<path d="M0 0 C2.70813058 4.06219588 2.52980034 7.23179698 2 12 C0.96637171 15.54101046 -0.3582828 18.3582828 -3 21 C-5.625 21.125 -5.625 21.125 -8 21 C-10.7913233 16.3477945 -11.7837561 12.36254174 -11 7 C-10.22760038 4.4253346 -9.27408508 2.40116034 -8 0 C-5.06791253 -1.46604374 -3.11702298 -0.77925574 0 0 Z " fill="#EDDCDD" transform="translate(255,924)"/>
<path d="M0 0 C0.33 0 0.66 0 1 0 C1 4.62 1 9.24 1 14 C9.25 14 17.5 14 26 14 C26 14.33 26 14.66 26 15 C18.08 15.495 18.08 15.495 10 16 C10 16.33 10 16.66 10 17 C-1.96851852 17.38333333 -1.96851852 17.38333333 -7 15 C-7.33 14.34 -7.66 13.68 -8 13 C-8.99 13.99 -9.98 14.98 -11 16 C-11 15.34 -11 14.68 -11 14 C-12.98 14.99 -12.98 14.99 -15 16 C-15 15.34 -15 14.68 -15 14 C-15.66 13.67 -16.32 13.34 -17 13 C-16.38511719 12.67386719 -15.77023437 12.34773437 -15.13671875 12.01171875 C-14.32847656 11.57472656 -13.52023437 11.13773438 -12.6875 10.6875 C-11.88699219 10.25824219 -11.08648438 9.82898438 -10.26171875 9.38671875 C-7.97749619 8.10716154 -7.97749619 8.10716154 -6.33203125 6.33203125 C-5.89246094 5.89246094 -5.45289063 5.45289063 -5 5 C-4.34 5 -3.68 5 -3 5 C-2.690625 4.360625 -2.38125 3.72125 -2.0625 3.0625 C-1 1 -1 1 0 0 Z " fill="#E5D5D7" transform="translate(726,588)"/>
<path d="M0 0 C0.66 0 1.32 0 2 0 C2 24.09 2 48.18 2 73 C2.99 73.33 3.98 73.66 5 74 C3.68 74 2.36 74 1 74 C0.0178006 70.72373625 -0.11580914 67.77211881 -0.09765625 64.359375 C-0.09443359 63.28945313 -0.09121094 62.21953125 -0.08789062 61.1171875 C-0.07951172 60.00601563 -0.07113281 58.89484375 -0.0625 57.75 C-0.05798828 56.62335937 -0.05347656 55.49671875 -0.04882812 54.3359375 C-0.03705397 51.55723783 -0.0206084 48.77864591 0 46 C-0.33 46 -0.66 46 -1 46 C-1.54626191 34.58951853 -2.09131263 23.17465452 -2.1875 11.75 C-2.20039062 11.0192627 -2.21328125 10.28852539 -2.2265625 9.53564453 C-2.23357417 5.85364207 -2.03871134 3.12656126 0 0 Z " fill="#F5E7E9" transform="translate(859,530)"/>
<path d="M0 0 C20.79 0 41.58 0 63 0 C63 0.66 63 1.32 63 2 C34.785 2.495 34.785 2.495 6 3 C6.33 4.98 6.66 6.96 7 9 C6.34 9.66 5.68 10.32 5 11 C4.15841464 9.73461631 3.32700252 8.46246221 2.5 7.1875 C1.80390625 6.12595703 1.80390625 6.12595703 1.09375 5.04296875 C0 3 0 3 0 0 Z " fill="#CC6F57" transform="translate(112,437)"/>
<path d="M0 0 C7.34506852 -0.18561146 14.68962934 -0.32762784 22.03657055 -0.41449738 C25.4484831 -0.45619925 28.85878819 -0.51271956 32.26977539 -0.60351562 C36.19397515 -0.70731526 40.11753129 -0.74593142 44.04296875 -0.78125 C45.26396774 -0.82254028 46.48496674 -0.86383057 47.7429657 -0.90637207 C56.02473511 -0.91075866 56.02473511 -0.91075866 58.87002563 1.74633789 C60.17342122 3.79485968 61.13215812 5.73697769 62 8 C62.5878125 9.2375 62.5878125 9.2375 63.1875 10.5 C64.77896666 15.3968205 66 19.82459031 66 25 C65.34 25 64.68 25 64 25 C63.01 23.02 62.02 21.04 61 19 C60.34 19 59.68 19 59 19 C57.95117609 15.43928688 57.69613047 11.94472103 57.4375 8.25 C57.35371094 7.07953125 57.26992187 5.9090625 57.18359375 4.703125 C57.12300781 3.81109375 57.06242187 2.9190625 57 2 C56.0409375 2.2784375 56.0409375 2.2784375 55.0625 2.5625 C54.381875 2.706875 53.70125 2.85125 53 3 C52.505 2.505 52.505 2.505 52 2 C50.37420782 1.87718048 48.74322996 1.82217496 47.11303711 1.79467773 C46.07203354 1.77473251 45.03102997 1.75478729 43.95848083 1.73423767 C42.8262056 1.71752518 41.69393036 1.70081268 40.52734375 1.68359375 C39.37456436 1.66281265 38.22178497 1.64203156 37.03407288 1.62062073 C33.33527843 1.55500036 29.63641041 1.49618245 25.9375 1.4375 C23.43684121 1.39432665 20.93618999 1.35071276 18.43554688 1.30664062 C12.29044338 1.19930632 6.14526596 1.09756357 0 1 C0 0.67 0 0.34 0 0 Z " fill="#DC4B34" transform="translate(118,439)"/>
<path d="M0 0 C0 3.71119094 -1.43962411 5.06117727 -3.59375 7.9453125 C-5.03271455 10.0477996 -6.10186225 12.13439706 -7.1875 14.4375 C-10.51165652 21.32776114 -14.72233764 27.66766129 -18.81494141 34.1171875 C-21.28090949 38.03509971 -23.64375295 42.01545214 -26 46 C-27.36597768 41.90206695 -26.09482364 40.46399015 -24.25 36.625 C-23.71890625 35.50351562 -23.1878125 34.38203125 -22.640625 33.2265625 C-19.603125 27.2528125 -19.603125 27.2528125 -18 25 C-17.01 25 -16.02 25 -15 25 C-14.74476563 24.07380859 -14.74476563 24.07380859 -14.484375 23.12890625 C-11.55030334 12.87526221 -9.38587915 5.80922132 0 0 Z " fill="#DE856B" transform="translate(302,442)"/>
<path d="M0 0 C0.99 0.33 1.98 0.66 3 1 C2.34 1 1.68 1 1 1 C1.02545395 2.46459152 1.02545395 2.46459152 1.05142212 3.95877075 C1.21012625 13.1690539 1.35781532 22.3794569 1.49477577 31.5900898 C1.56553779 36.32514463 1.64015299 41.06007283 1.72363281 45.79492188 C1.80408173 50.36595938 1.87433227 54.93705117 1.93757248 59.508358 C1.96345713 61.2506778 1.99299015 62.99294741 2.02626419 64.73514175 C2.07231095 67.17902572 2.10527607 69.62276782 2.13525391 72.06689453 C2.1517952 72.78403122 2.16833649 73.50116791 2.18537903 74.24003601 C2.22167078 78.55139914 1.58632525 81.99368776 0 86 C-3.6739599 82.62392874 -6.05406554 79.60879214 -8 75 C-8 74.34 -8 73.68 -8 73 C-8.66 73 -9.32 73 -10 73 C-10.33 71.68 -10.66 70.36 -11 69 C-7.57701423 70.14099526 -6.85241234 71.00085621 -5 74 C-5 74.99 -5 75.98 -5 77 C-4.01 77 -3.02 77 -2 77 C-2 77.99 -2 78.98 -2 80 C-1.34 80 -0.68 80 0 80 C0 53.6 0 27.2 0 0 Z " fill="#EC6E46" transform="translate(208,513)"/>
<path d="M0 0 C0.33 0.66 0.66 1.32 1 2 C1.66 2 2.32 2 3 2 C2.67 2.99 2.34 3.98 2 5 C1.34 5 0.68 5 0 5 C-0.0825 5.721875 -0.165 6.44375 -0.25 7.1875 C-1.15732732 10.58997746 -2.79377658 12.27466519 -5 15 C-6.00484883 17.33124929 -7.00522247 19.66443537 -8 22 C-8.50402344 22.47179687 -9.00804687 22.94359375 -9.52734375 23.4296875 C-11.38839366 25.4141492 -11.57409722 26.83810762 -12 29.5 C-12.56295637 33.0184773 -13.25815054 34.6753885 -16 37 C-16.33 36.67 -16.66 36.34 -17 36 C-17.66 36.66 -18.32 37.32 -19 38 C-20 35 -20 35 -19.171875 32.93359375 C-18.70265625 32.10988281 -18.2334375 31.28617188 -17.75 30.4375 C-17.20214844 29.47328125 -16.65429688 28.5090625 -16.08984375 27.515625 C-13.08981354 22.42411946 -9.99241443 17.38931492 -6.87207031 12.37084961 C-4.36941559 8.33030738 -2.04384769 4.29959933 0 0 Z " fill="#FAD1C8" transform="translate(260,514)"/>
<path d="M0 0 C0.66 0.33 1.32 0.66 2 1 C1 4 1 4 0 7 C-0.2475 7.969375 -0.495 8.93875 -0.75 9.9375 C-2.16110339 13.39470332 -3.99481734 15.3534632 -6.48828125 18.0703125 C-8.15004723 20.19153315 -9.06037658 22.1924172 -10.0625 24.6875 C-11.6463205 28.60361313 -13.36638935 30.67852653 -17 33 C-17.33 32.01 -17.66 31.02 -18 30 C-16.66551549 27.45798416 -15.29157461 25.09826029 -13.75 22.6875 C-12.93019964 21.38021583 -12.11245978 20.07163707 -11.296875 18.76171875 C-10.70410767 17.81184082 -10.70410767 17.81184082 -10.09936523 16.84277344 C-8.58386169 14.30246237 -7.31456309 11.6484013 -6 9 C-4.68133728 7.321702 -3.34919532 5.65385233 -2 4 C-1.29114106 2.68861096 -0.60543548 1.36222983 0 0 Z " fill="#FBD9D0" transform="translate(304,440)"/>
<path d="M0 0 C0.33 0 0.66 0 1 0 C1 23.43 1 46.86 1 71 C0.01 70.34 -0.98 69.68 -2 69 C-2.30834961 66.65924072 -2.30834961 66.65924072 -2.21484375 63.72753906 C-2.1876123 62.64476685 -2.16038086 61.56199463 -2.13232422 60.44641113 C-2.08865723 59.30909546 -2.04499023 58.17177979 -2 57 C-1.9705127 55.91843628 -1.94102539 54.83687256 -1.91064453 53.72253418 C-1.81248729 50.2673229 -1.69003707 46.81362148 -1.5625 43.359375 C-1.51810791 42.11117981 -1.47371582 40.86298462 -1.42797852 39.57696533 C-1.28731329 35.63456905 -1.14370659 31.69228647 -1 27.75 C-0.90321013 25.05860929 -0.8070655 22.36719567 -0.7109375 19.67578125 C-0.47619444 13.11710553 -0.23904366 6.55852031 0 0 Z " fill="#F6E5E6" transform="translate(366,486)"/>
<path d="M0 0 C0.66 0.33 1.32 0.66 2 1 C0.97916667 2.75 -0.04166667 4.5 -1.0625 6.25 C-2.02349609 7.89935547 -2.02349609 7.89935547 -3.00390625 9.58203125 C-4.25712326 11.72795079 -5.51433681 13.87154656 -6.77734375 16.01171875 C-11.0381171 23.24827031 -15.06423363 30.58305425 -19 38 C-19.66 38 -20.32 38 -21 38 C-21.33 38.66 -21.66 39.32 -22 40 C-22.75 38.25 -22.75 38.25 -23 36 C-22.443125 35.46375 -21.88625 34.9275 -21.3125 34.375 C-18.34510233 31.32740239 -17.40184168 28.21820296 -16.02734375 24.2421875 C-15 22 -15 22 -12 20 C-11.27617533 17.94074861 -11.27617533 17.94074861 -11 16 C-10.34 16 -9.68 16 -9 16 C-8.67 14.35 -8.34 12.7 -8 11 C-7.34 11 -6.68 11 -6 11 C-5.7525 10.113125 -5.505 9.22625 -5.25 8.3125 C-3.96065232 4.89572865 -2.40019871 2.7202252 0 0 Z " fill="#DE896C" transform="translate(248,532)"/>
<path d="M0 0 C0.66 0.33 1.32 0.66 2 1 C2 1.99 2 2.98 2 4 C2.33 3.01 2.66 2.02 3 1 C4.98 0.67 6.96 0.34 9 0 C6 6 3 12 0 18 C-0.66 18 -1.32 18 -2 18 C-2.268125 18.598125 -2.53625 19.19625 -2.8125 19.8125 C-3.98493467 21.97224808 -5.19369282 23.35790256 -7 25 C-7.33 24.34 -7.66 23.68 -8 23 C-7.01 21.515 -7.01 21.515 -6 20 C-5.34 20 -4.68 20 -4 20 C-3.814375 18.081875 -3.814375 18.081875 -3.625 16.125 C-3.25 12.25 -3.25 12.25 -1 10 C-0.53837573 7.56747339 -0.53837573 7.56747339 -0.375 4.875 C-0.26285156 3.50988281 -0.26285156 3.50988281 -0.1484375 2.1171875 C-0.09945312 1.41851563 -0.05046875 0.71984375 0 0 Z " fill="#EF835C" transform="translate(215,576)"/>
<path d="M0 0 C2.55630493 -0.36076355 2.55630493 -0.36076355 5.82666016 -0.34057617 C7.04777496 -0.34034958 8.26888977 -0.34012299 9.52700806 -0.33988953 C10.86436323 -0.32456852 12.2017147 -0.30892051 13.5390625 -0.29296875 C14.90383438 -0.28737422 16.26861228 -0.28310344 17.63339233 -0.28010559 C21.22730107 -0.2686454 24.82084667 -0.23916871 28.41461182 -0.20599365 C32.0810454 -0.17531771 35.7475376 -0.16160559 39.4140625 -0.14648438 C46.60954064 -0.11429964 53.80471946 -0.06308972 61 0 C61 0.33 61 0.66 61 1 C41.53 1 22.06 1 2 1 C1.67 3.31 1.34 5.62 1 8 C-0.65 8.66 -2.3 9.32 -4 10 C-2.99806563 6.20696275 -2.18975773 3.28463659 0 0 Z " fill="#A83828" transform="translate(244,438)"/>
<path d="M0 0 C0.33 0 0.66 0 1 0 C1.34833144 4.87664009 0.41685712 7.77050005 -2 12 C-2.66 12 -3.32 12 -4 12 C-4.66 14.97 -5.32 17.94 -6 21 C-6.66 21 -7.32 21 -8 21 C-8 23.31 -8 25.62 -8 28 C-8.99 28 -9.98 28 -11 28 C-11.66 30.64 -12.32 33.28 -13 36 C-13.66 36 -14.32 36 -15 36 C-15.33 37.32 -15.66 38.64 -16 40 C-16.66 40 -17.32 40 -18 40 C-16.61396155 35.53805489 -14.86453645 31.44144001 -12.8125 27.24609375 C-12.35774292 26.31108788 -12.35774292 26.31108788 -11.89379883 25.35719299 C-10.93267864 23.38224254 -9.96668168 21.40973342 -9 19.4375 C-8.03401047 17.46137107 -7.06912123 15.48472184 -6.10620117 13.50709534 C-5.2332912 11.7150985 -4.35697366 9.92476271 -3.48046875 8.13452148 C-2.21335039 5.45171598 -1.0627939 2.76877252 0 0 Z " fill="#BD4D3E" transform="translate(233,460)"/>
<path d="M0 0 C1.9375 0.375 1.9375 0.375 4 1 C5.42662219 3.85324437 5.31033868 5.83454549 5 9 C3.25 11.875 3.25 11.875 1 14 C-0.32 14 -1.64 14 -3 14 C-3.32374517 8.49633208 -3.53286034 4.56327794 0 0 Z " fill="#E9DCDB" transform="translate(292,921)"/>
<path d="M0 0 C0.66 0.33 1.32 0.66 2 1 C0.71034824 2.37562854 -0.62689293 3.70766393 -2 5 C-2.66 5 -3.32 5 -4 5 C-4 5.66 -4 6.32 -4 7 C-9.41176471 11 -9.41176471 11 -12 11 C-12.33 11.99 -12.66 12.98 -13 14 C-15.0625 14.6875 -15.0625 14.6875 -17 15 C-16.44894091 11.0507432 -15.61064629 7.65079826 -14 4 C-13.113125 4.04125 -12.22625 4.0825 -11.3125 4.125 C-6.64017867 3.94868599 -3.85501692 2.57001128 0 0 Z " fill="#D0432A" transform="translate(228,496)"/>
<path d="M0 0 C0 3.74177856 -1.16181992 5.88201872 -2.73828125 9.27734375 C-3.16043159 10.18898033 -3.16043159 10.18898033 -3.59111023 11.11903381 C-4.18776166 12.40381134 -4.78726613 13.68726721 -5.3894043 14.96948242 C-6.30587219 16.92336967 -7.21117636 18.8821421 -8.11523438 20.84179688 C-8.69725288 22.0914552 -9.27991451 23.34081424 -9.86328125 24.58984375 C-10.39219971 25.72284912 -10.92111816 26.85585449 -11.46606445 28.02319336 C-12.79405634 30.60033884 -14.17400474 32.76032672 -16 35 C-16 30.56852276 -15.00860907 28.86270976 -13 25 C-12.30741771 23.00882592 -11.64252365 21.0078864 -11 19 C-10.53427035 17.57885925 -10.05449738 16.16226191 -9.5625 14.75 C-9.33691406 14.08484375 -9.11132812 13.4196875 -8.87890625 12.734375 C-8 11 -8 11 -5 9 C-4.3249014 6.93672991 -3.99597007 4.9142859 -3.625 2.77734375 C-3.41875 2.19082031 -3.2125 1.60429687 -3 1 C-2.01 0.67 -1.02 0.34 0 0 Z " fill="#FCCCC9" transform="translate(243,438)"/>
<path d="M0 0 C1.953125 0.8359375 1.953125 0.8359375 4 2 C4.75 4.625 4.75 4.625 5 7 C6.65 7 8.3 7 10 7 C10 9.64 10 12.28 10 15 C10.66 15 11.32 15 12 15 C12.66 17.64 13.32 20.28 14 23 C14.66 23 15.32 23 16 23 C16.33 24.98 16.66 26.96 17 29 C9.79174665 20.32806202 4.88959082 10.10157225 0 0 Z " fill="#D45F41" transform="translate(180,553)"/>
<path d="M0 0 C0.99 0 1.98 0 3 0 C3.40992188 0.92683594 3.81984375 1.85367187 4.2421875 2.80859375 C4.78101563 4.00613281 5.31984375 5.20367187 5.875 6.4375 C6.40867188 7.63246094 6.94234375 8.82742188 7.4921875 10.05859375 C8.67727235 13.08527631 8.67727235 13.08527631 11 14 C12.74839516 16.65756064 13.99127482 18.97382445 15 22 C15.99 22.33 16.98 22.66 18 23 C18 25.31 18 27.62 18 30 C17.67 29.34 17.34 28.68 17 28 C16.34 28 15.68 28 15 28 C14.50693359 27.08734375 14.50693359 27.08734375 14.00390625 26.15625 C11.56725757 21.66594891 9.1133498 17.1886684 6.59765625 12.7421875 C5.98458618 11.6584082 5.98458618 11.6584082 5.35913086 10.55273438 C4.54020219 9.10766142 3.71941757 7.66363858 2.89672852 6.22070312 C0 1.10904843 0 1.10904843 0 0 Z " fill="#D16246" transform="translate(131,470)"/>
<path d="M0 0 C0.99 0 1.98 0 3 0 C0.88576271 5.57729814 -2.04413137 10.58420129 -5 15.75 C-5.81984375 17.20599609 -5.81984375 17.20599609 -6.65625 18.69140625 C-7.1821875 19.61308594 -7.708125 20.53476562 -8.25 21.484375 C-8.72953125 22.32709961 -9.2090625 23.16982422 -9.703125 24.03808594 C-11 26 -11 26 -13 27 C-13.35099077 23.22684928 -13.36755366 21.51457512 -11.125 18.375 C-10.42375 17.59125 -9.7225 16.8075 -9 16 C-8.29114106 14.68861096 -7.60543548 13.36222983 -7 12 C-6.34 12 -5.68 12 -5 12 C-4.80664062 11.38511719 -4.61328125 10.77023437 -4.4140625 10.13671875 C-4.15367187 9.32847656 -3.89328125 8.52023437 -3.625 7.6875 C-3.36976563 6.88699219 -3.11453125 6.08648437 -2.8515625 5.26171875 C-2 3 -2 3 0 0 Z " fill="#DB866A" transform="translate(263,504)"/>
<path d="M0 0 C11.22 0.33 22.44 0.66 34 1 C34 1.66 34 2.32 34 3 C22.45 3 10.9 3 -1 3 C-0.67 2.01 -0.34 1.02 0 0 Z " fill="#1B1616" transform="translate(863,599)"/>
<path d="M0 0 C1.15722845 3.47168534 0.49482689 5.16062695 -0.453125 8.59375 C-1.45434024 12.99909706 -1.68577458 17.50161503 -2 22 C-2.33 21.34 -2.66 20.68 -3 20 C-3.99 20.33 -4.98 20.66 -6 21 C-6.33 19.68 -6.66 18.36 -7 17 C-6.01 17 -5.02 17 -4 17 C-4 14.69 -4 12.38 -4 10 C-4.99 10.495 -4.99 10.495 -6 11 C-6 9.68 -6 8.36 -6 7 C-6.66 7 -7.32 7 -8 7 C-6.95125002 4.37812506 -6.35068687 3.20628639 -3.875 1.75 C-3.25625 1.5025 -2.6375 1.255 -2 1 C-1.67 1.33 -1.34 1.66 -1 2 C-0.67 1.34 -0.34 0.68 0 0 Z " fill="#080A0B" transform="translate(672,527)"/>
<path d="M0 0 C0.99 0 1.98 0 3 0 C3 4.62 3 9.24 3 14 C2.34 14 1.68 14 1 14 C-0.40234375 12.57421875 -0.40234375 12.57421875 -1.9375 10.6875 C-3.86463171 8.33649789 -5.81719293 6.11764865 -8 4 C-7.21625 3.855625 -6.4325 3.71125 -5.625 3.5625 C-3.03578982 3.12201075 -3.03578982 3.12201075 -1 2 C-0.34 2.33 0.32 2.66 1 3 C0.67 2.01 0.34 1.02 0 0 Z " fill="#D7CBCD" transform="translate(724,484)"/>
<path d="M0 0 C3.48331435 3.01887244 4.79157144 5.56909529 6 10 C6.66 10 7.32 10 8 10 C9.06775224 11.96466413 10.06553465 13.96855359 11 16 C10.67 16.66 10.34 17.32 10 18 C9.236875 17.319375 8.47375 16.63875 7.6875 15.9375 C6.800625 15.298125 5.91375 14.65875 5 14 C4.01 14.33 3.02 14.66 2 15 C1.34 14.67 0.68 14.34 0 14 C0.185625 12.989375 0.37125 11.97875 0.5625 10.9375 C0.99768247 7.02085773 0.70853021 3.85755337 0 0 Z " fill="#F3DEDD" transform="translate(192,576)"/>
<path d="M0 0 C0.66 0.33 1.32 0.66 2 1 C0.71520959 2.50589388 -0.57804082 4.00457375 -1.875 5.5 C-2.59429687 6.3353125 -3.31359375 7.170625 -4.0546875 8.03125 C-4.69664062 8.6809375 -5.33859375 9.330625 -6 10 C-6.66 10 -7.32 10 -8 10 C-9.17506952 11.57253191 -9.17506952 11.57253191 -10.3125 13.5 C-11.625 15.44140625 -11.625 15.44140625 -13 17 C-15.8125 17.4375 -15.8125 17.4375 -18 17 C-18 16.01 -18 15.02 -18 14 C-15.91271178 12.13319997 -13.8673127 10.47058144 -11.625 8.8125 C-11.02171875 8.34908203 -10.4184375 7.88566406 -9.796875 7.40820312 C-5.27937454 4 -5.27937454 4 -3 4 C-3 3.34 -3 2.68 -3 2 C-2.01 1.34 -1.02 0.68 0 0 Z " fill="#EF744F" transform="translate(285,454)"/>
<path d="M0 0 C0.02694851 1.95825873 0.04637218 3.91662226 0.0625 5.875 C0.07410156 6.96554687 0.08570313 8.05609375 0.09765625 9.1796875 C0 12 0 12 -1 14 C-4.875 13.125 -4.875 13.125 -6 12 C-6.375 8.75 -6.375 8.75 -6 5 C-1.85106383 0 -1.85106383 0 0 0 Z " fill="#EADCDB" transform="translate(672,958)"/>
<path d="M0 0 C1.5 1.375 1.5 1.375 3 3 C3 3.66 3 4.32 3 5 C2.236875 5.7425 1.47375 6.485 0.6875 7.25 C-2.04009313 10.04102553 -3.30377342 12.53044564 -5 16 C-8 18 -8 18 -10.6875 17.625 C-11.8321875 17.315625 -11.8321875 17.315625 -13 17 C-13.33 15.68 -13.66 14.36 -14 13 C-12.68 13.99 -11.36 14.98 -10 16 C-9.38125 15.01 -8.7625 14.02 -8.125 13 C-7.42375 12.01 -6.7225 11.02 -6 10 C-5.34 10 -4.68 10 -4 10 C-3.896875 9.278125 -3.79375 8.55625 -3.6875 7.8125 C-2.94013068 4.75508007 -1.71954811 2.61670365 0 0 Z " fill="#FAD2C6" transform="translate(219,584)"/>
<path d="M0 0 C0.66 0 1.32 0 2 0 C3.73959339 2.57157283 5.08143687 5.17768044 6.375 8 C7.85933672 11.13726731 7.85933672 11.13726731 10.625 13.375 C13.85924882 16.94969606 13.75901594 19.26064674 14 24 C13.67 23.34 13.34 22.68 13 22 C12.34 22 11.68 22 11 22 C10.62488281 21.31035156 10.24976563 20.62070312 9.86328125 19.91015625 C9.35152344 18.97042969 8.83976563 18.03070312 8.3125 17.0625 C7.76980469 16.06476562 7.22710937 15.06703125 6.66796875 14.0390625 C4.77829525 10.59605083 2.8406443 7.18200093 0.8828125 3.77734375 C0 2 0 2 0 0 Z " fill="#CC6040" transform="translate(154,508)"/>
<path d="M0 0 C0.33 0.66 0.66 1.32 1 2 C-0.07335699 4.76674582 -1.20260061 7.43194258 -2.4375 10.125 C-2.77587891 10.87910156 -3.11425781 11.63320313 -3.46289062 12.41015625 C-4.30160601 14.27659331 -5.14991393 16.1387143 -6 18 C-6.66 18 -7.32 18 -8 18 C-8 18.66 -8 19.32 -8 20 C-8.66 20 -9.32 20 -10 20 C-10.268125 20.969375 -10.53625 21.93875 -10.8125 22.9375 C-11.4003125 24.4534375 -11.4003125 24.4534375 -12 26 C-12.99 26.33 -13.98 26.66 -15 27 C-13.71543674 23.58052879 -12.23064027 20.54331068 -10.3125 17.4375 C-6.79123897 11.67306527 -3.39223374 5.84106519 0 0 Z " fill="#F9C9C0" transform="translate(276,487)"/>
<path d="M0 0 C0 0.66 0 1.32 0 2 C0.99 2.66 1.98 3.32 3 4 C1.6905332 5.33631236 0.37734515 6.66897925 -0.9375 8 C-2.03384766 9.11375 -2.03384766 9.11375 -3.15234375 10.25 C-5 12 -5 12 -6 12 C-6 8.04 -6 4.08 -6 0 C-3.50907189 -1.24546405 -2.58919267 -0.7767578 0 0 Z " fill="#E8DFDF" transform="translate(825,486)"/>
<path d="M0 0 C3.23015926 2.789683 4.81633442 5.68609628 5.15869141 9.99926758 C5.19641671 12.27360016 5.17456063 14.53842966 5.125 16.8125 C5.11597656 17.60076172 5.10695313 18.38902344 5.09765625 19.20117188 C5.07422504 21.13424666 5.03835838 23.0671638 5 25 C4.67 25 4.34 25 4 25 C4 23.02 4 21.04 4 19 C2.68 19 1.36 19 0 19 C0.33 16.36 0.66 13.72 1 11 C1.99 12.485 1.99 12.485 3 14 C3 11.36 3 8.72 3 6 C1.35 6 -0.3 6 -2 6 C-1.34 4.02 -0.68 2.04 0 0 Z " fill="#DDCED0" transform="translate(723,525)"/>
<path d="M0 0 C0.33 0 0.66 0 1 0 C1 4.62 1 9.24 1 14 C0.01 14.495 0.01 14.495 -1 15 C-1.2475 14.38125 -1.495 13.7625 -1.75 13.125 C-3.20628639 10.64931313 -4.37812506 10.04874998 -7 9 C-6.34 7.68 -5.68 6.36 -5 5 C-4.34 5 -3.68 5 -3 5 C-2.690625 4.360625 -2.38125 3.72125 -2.0625 3.0625 C-1 1 -1 1 0 0 Z " fill="#D4CCCE" transform="translate(726,588)"/>
<path d="M0 0 C2.63648615 2.49186877 4.69988681 4.77572198 6.375 8 C6.91253906 8.99 6.91253906 8.99 7.4609375 10 C8 12 8 12 7.1015625 14.25 C6.73804688 14.8275 6.37453125 15.405 6 16 C3 15 3 15 1 13 C0.5859375 9.9609375 0.5859375 9.9609375 0.375 6.375 C0.30023438 5.18648437 0.22546875 3.99796875 0.1484375 2.7734375 C0.09945312 1.85820313 0.05046875 0.94296875 0 0 Z " fill="#F9D4CD" transform="translate(169,536)"/>
<path d="M0 0 C2.39521208 3.11009076 4.56495939 6.32327016 6.6875 9.625 C7.31011719 10.58664062 7.93273437 11.54828125 8.57421875 12.5390625 C10 15 10 15 10 17 C8.02 17.33 6.04 17.66 4 18 C3.67 14.7 3.34 11.4 3 8 C2.34 8 1.68 8 1 8 C-0.35439668 5.29120665 -0.06501451 2.99066732 0 0 Z " fill="#F5DED4" transform="translate(182,558)"/>
<path d="M0 0 C3.05595634 3.05595634 2.98445111 5.48518143 3.11352539 9.75878906 C3.11336789 11.26107701 3.10776769 12.76337107 3.09765625 14.265625 C3.0962413 15.05902283 3.09482635 15.85242065 3.09336853 16.66986084 C3.08778415 19.19661272 3.07523454 21.72327504 3.0625 24.25 C3.05748298 25.96614455 3.05292043 27.68229049 3.04882812 29.3984375 C3.03781984 33.59899269 3.02056596 37.79948117 3 42 C2.67 42 2.34 42 2 42 C1.67 31.44 1.34 20.88 1 10 C0.67 10 0.34 10 0 10 C0 6.7 0 3.4 0 0 Z " fill="#1C1315" transform="translate(894,510)"/>
<path d="M0 0 C0.66 0.33 1.32 0.66 2 1 C1.33333333 3 0.66666667 5 0 7 C-0.268125 8.010625 -0.53625 9.02125 -0.8125 10.0625 C-2.23669292 13.58550353 -4.19173179 15.48733897 -7 18 C-6.28950666 10.89506656 -3.7010743 5.99221554 0 0 Z " fill="#F8DAD5" transform="translate(304,440)"/>
<path d="M0 0 C12.66970387 -0.3690205 12.66970387 -0.3690205 18 2 C17.67 2.66 17.34 3.32 17 4 C14.66666667 4 12.33333333 4 10 4 C10 3.01 10 2.02 10 1 C9.01 1.66 8.02 2.32 7 3 C3.66657937 3.91669067 2.34350146 4.11450049 -1 3 C-0.67 2.01 -0.34 1.02 0 0 Z M8 4 C10 5 10 5 10 5 Z " fill="#F5E5E7" transform="translate(836,515)"/>
<path d="M0 0 C0.99 0.33 1.98 0.66 3 1 C3.33 1.99 3.66 2.98 4 4 C4.66 4.33 5.32 4.66 6 5 C8.39715444 8.41133516 9 9.70612989 9 14 C9.66 14 10.32 14 11 14 C11.33 16.31 11.66 18.62 12 21 C6.613398 14.991867 2.85530569 7.50537495 0 0 Z " fill="#CE6142" transform="translate(168,532)"/>
<path d="M0 0 C3.42298577 1.14099526 4.14758766 2.00085621 6 5 C6 5.99 6 6.98 6 8 C6.99 8 7.98 8 9 8 C9 8.99 9 9.98 9 11 C9.66 11 10.32 11 11 11 C11 12.98 11 14.96 11 17 C7.3260401 13.62392874 4.94593446 10.60879214 3 6 C3 5.34 3 4.68 3 4 C2.34 4 1.68 4 1 4 C0.67 2.68 0.34 1.36 0 0 Z " fill="#D06645" transform="translate(197,582)"/>
<path d="M0 0 C0.33 0.66 0.66 1.32 1 2 C1.66 2 2.32 2 3 2 C4.76171875 4.5546875 4.76171875 4.5546875 6.6875 7.875 C7.33074219 8.96554687 7.97398437 10.05609375 8.63671875 11.1796875 C9.08660156 12.11039062 9.53648437 13.04109375 10 14 C9.67 14.66 9.34 15.32 9 16 C8.34 16 7.68 16 7 16 C4 11.61538462 4 11.61538462 4 9 C3.01 8.67 2.02 8.34 1 8 C0.67 5.36 0.34 2.72 0 0 Z " fill="#F9CABB" transform="translate(145,496)"/>
<path d="M0 0 C1.05859375 1.81640625 1.05859375 1.81640625 2 4 C0.17799101 9.70896151 -3.1636457 11.89743309 -8 15 C-6.62712658 11.30123909 -4.93644547 8.0485524 -2.875 4.6875 C-2.33617187 3.80449219 -1.79734375 2.92148437 -1.2421875 2.01171875 C-0.83226562 1.34785156 -0.42234375 0.68398438 0 0 Z " fill="#FACFBF" transform="translate(285,472)"/>
<path d="M0 0 C4 5 4 5 8 10 C7.34 11.32 6.68 12.64 6 14 C4.62437146 12.71034824 3.29233607 11.37310707 2 10 C2 9.34 2 8.68 2 8 C1.34 7.67 0.68 7.34 0 7 C0 4.69 0 2.38 0 0 Z " fill="#E1D3D3" transform="translate(569,569)"/>
<path d="M0 0 C2.9552728 2.61778794 4.75832727 5.67583335 6.75 9.0625 C7.38421875 10.12597656 8.0184375 11.18945312 8.671875 12.28515625 C9.11015625 13.18105469 9.5484375 14.07695312 10 15 C9.67 15.66 9.34 16.32 9 17 C4.92979062 14.18216273 3.87848333 12.76890953 3 8 C1.03241727 6.63979849 1.03241727 6.63979849 -1 6 C-0.34 5.67 0.32 5.34 1 5 C0.67 3.35 0.34 1.7 0 0 Z " fill="#F8C5BB" transform="translate(117,448)"/>
<path d="M0 0 C0 4.62 0 9.24 0 14 C-0.99 12.68 -1.98 11.36 -3 10 C-3.99 10.33 -4.98 10.66 -6 11 C-6.6796875 9.234375 -6.6796875 9.234375 -7 7 C-5.8203125 5.078125 -5.8203125 5.078125 -4.125 3.25 C-3.57070313 2.63640625 -3.01640625 2.0228125 -2.4453125 1.390625 C-1 0 -1 0 0 0 Z " fill="#CDC4C9" transform="translate(370,588)"/>
<path d="M0 0 C3 3.625 3 3.625 3 7 C3.66 7 4.32 7 5 7 C5.33 8.98 5.66 10.96 6 13 C1.79609368 11.49860488 0.10889262 8.82724957 -2 5 C-1 2 -1 2 0 0 Z " fill="#151415" transform="translate(585,585)"/>
<path d="M0 0 C0.66 0.33 1.32 0.66 2 1 C0.50829734 5.9723422 -1.60457417 10.41845739 -4 15 C-5.0390625 13.11328125 -5.0390625 13.11328125 -6 11 C-5.375 9.1875 -5.375 9.1875 -4 7 C-3.28833641 5.75189302 -2.58021727 4.50176065 -1.875 3.25 C-0.946875 1.64125 -0.946875 1.64125 0 0 Z " fill="#FDCCC6" transform="translate(218,487)"/>
<path d="M0 0 C1.65 0 3.3 0 5 0 C4.71125 0.515625 4.4225 1.03125 4.125 1.5625 C2.71219973 4.62356725 1.8751483 7.74944918 1 11 C-0.32 9.35 -1.64 7.7 -3 6 C-2 4 -1 2 0 0 Z " fill="#E2552A" transform="translate(152,496)"/>
<path d="M0 0 C0.66 0 1.32 0 2 0 C2.64910154 1.58199631 3.29414694 3.16565724 3.9375 4.75 C4.29714844 5.63171875 4.65679687 6.5134375 5.02734375 7.421875 C5.85356576 9.61186104 6.49369943 11.71898271 7 14 C6.01 14.66 5.02 15.32 4 16 C3.67 13.36 3.34 10.72 3 8 C2.01 7.67 1.02 7.34 0 7 C0 4.69 0 2.38 0 0 Z " fill="#CF543E" transform="translate(196,486)"/>
<path d="M0 0 C0.33 0 0.66 0 1 0 C1 3.63 1 7.26 1 11 C0.34 11 -0.32 11 -1 11 C-1 10.01 -1 9.02 -1 8 C-1.99 8 -2.98 8 -4 8 C-4.28875 7.38125 -4.5775 6.7625 -4.875 6.125 C-5.93720042 3.86674235 -5.93720042 3.86674235 -8 2 C-5.36 2.33 -2.72 2.66 0 3 C0 2.01 0 1.02 0 0 Z " fill="#E1582F" transform="translate(207,582)"/>
<path d="M0 0 C0 3 0 3 -1 6 C-1.66 6 -2.32 6 -3 6 C-3 6.66 -3 7.32 -3 8 C-2.34 8.33 -1.68 8.66 -1 9 C-2.25 10.5 -2.25 10.5 -4 12 C-5.32 12 -6.64 12 -8 12 C-6.49087042 7.01987239 -3.44338151 3.75740058 0 0 Z " fill="#DECFD3" transform="translate(681,518)"/>
<path d="M0 0 C0.66 0 1.32 0 2 0 C2 0.66 2 1.32 2 2 C3.98 1.67 5.96 1.34 8 1 C6.81323934 5.10801767 6.10551666 6.89448334 3 10 C2.01 6.7 1.02 3.4 0 0 Z " fill="#FCC6BC" transform="translate(205,502)"/>
<path d="M0 0 C0.33 0 0.66 0 1 0 C1.33 4.29 1.66 8.58 2 13 C3.98 11.35 5.96 9.7 8 8 C8 9.32 8 10.64 8 12 C6.0625 13.625 6.0625 13.625 4 15 C3.67 15.66 3.34 16.32 3 17 C2.01 16.34 1.02 15.68 0 15 C-0.22137393 12.37302936 -0.28162025 9.99106036 -0.1875 7.375 C-0.17396484 6.66859375 -0.16042969 5.9621875 -0.14648438 5.234375 C-0.1111104 3.48925872 -0.05730221 1.74453392 0 0 Z " fill="#3B393A" transform="translate(818,484)"/>
<path d="M0 0 C4.6167388 4.6167388 6.41608808 11.79634498 8 18 C5.31317099 17.00282635 4.22161371 16.47574218 2.98828125 13.828125 C2.76527344 12.97734375 2.54226562 12.1265625 2.3125 11.25 C2.0753125 10.36054688 1.838125 9.47109375 1.59375 8.5546875 C0.93403469 5.71617558 0.38024837 2.88988764 0 0 Z " fill="#C85642" transform="translate(182,454)"/>
<path d="M0 0 C2.375 0.625 2.375 0.625 5 2 C6.93118369 6.04628965 7.21151257 9.55823606 7 14 C3.94998169 10.33997803 0 4.92148529 0 0 Z " fill="#FCC5BD" transform="translate(198,488)"/>
<path d="M0 0 C6.27 0 12.54 0 19 0 C19 0.33 19 0.66 19 1 C17.55367187 1.19916016 17.55367187 1.19916016 16.078125 1.40234375 C14.18320312 1.66724609 14.18320312 1.66724609 12.25 1.9375 C10.99703125 2.11152344 9.7440625 2.28554688 8.453125 2.46484375 C5.90017407 2.86049338 3.4813709 3.30446422 1 4 C0.67 2.68 0.34 1.36 0 0 Z " fill="#090808" transform="translate(846,482)"/>
<path d="M0 0 C2.0234375 3.734375 2.0234375 3.734375 1.8125 6.125 C1 8 1 8 -2 10 C-2.66 10.99 -3.32 11.98 -4 13 C-5 10 -5 10 -4.00390625 7.51953125 C-3.52824219 6.62621094 -3.05257812 5.73289062 -2.5625 4.8125 C-2.08941406 3.91144531 -1.61632812 3.01039063 -1.12890625 2.08203125 C-0.75636719 1.39496094 -0.38382813 0.70789063 0 0 Z " fill="#BD4F40" transform="translate(239,448)"/>
<path d="M0 0 C1.4606285 2.64738916 2 3.89448334 2 7 C0.02 7.33 -1.96 7.66 -4 8 C-4.33 6.68 -4.66 5.36 -5 4 C-4.34 4 -3.68 4 -3 4 C-2.67 3.01 -2.34 2.02 -2 1 C-1.67 1.33 -1.34 1.66 -1 2 C-0.67 1.34 -0.34 0.68 0 0 Z " fill="#201D1D" transform="translate(495,592)"/>
<path d="M0 0 C1.32 1.32 2.64 2.64 4 4 C4.66 3.67 5.32 3.34 6 3 C5.67 4.32 5.34 5.64 5 7 C3.02 7.33 1.04 7.66 -1 8 C-1.33 6.02 -1.66 4.04 -2 2 C-1.34 2 -0.68 2 0 2 C0 1.34 0 0.68 0 0 Z " fill="#141715" transform="translate(641,560)"/>
<path d="M0 0 C0.66 0 1.32 0 2 0 C2.33 1.98 2.66 3.96 3 6 C3.99 5.67 4.98 5.34 6 5 C6.33 5.33 6.66 5.66 7 6 C6.71269945 8.33944736 6.38063221 10.6739143 6 13 C3.12744934 10.57804552 2.29161081 8.40257297 1.3125 4.8125 C1.06113281 3.91144531 0.80976563 3.01039063 0.55078125 2.08203125 C0.36902344 1.39496094 0.18726563 0.70789063 0 0 Z " fill="#FAC6BC" transform="translate(183,454)"/>
<path d="M0 0 C0 2.92849051 -0.43409485 4.85914993 -1.3125 7.625 C-1.55613281 8.42164063 -1.79976563 9.21828125 -2.05078125 10.0390625 C-2.52064453 11.00972656 -2.52064453 11.00972656 -3 12 C-3.99 12.33 -4.98 12.66 -6 13 C-7.20882096 15.00016466 -7.20882096 15.00016466 -8 17 C-8 13.14468966 -6.38903075 10.64917254 -4.5625 7.375 C-4.23701172 6.776875 -3.91152344 6.17875 -3.57617188 5.5625 C-1.16171288 1.16171288 -1.16171288 1.16171288 0 0 Z " fill="#F9C5B6" transform="translate(299,448)"/>
<path d="M0 0 C2.97 0.495 2.97 0.495 6 1 C6.625 4.375 6.625 4.375 7 8 C6.34 8.66 5.68 9.32 5 10 C4.16121545 8.71186658 3.32913217 7.41936744 2.5 6.125 C2.0359375 5.40570313 1.571875 4.68640625 1.09375 3.9453125 C0 2 0 2 0 0 Z " fill="#D16448" transform="translate(112,438)"/>
<path d="M0 0 C0.99 0.33 1.98 0.66 3 1 C2.34 2.65 1.68 4.3 1 6 C0.34 6 -0.32 6 -1 6 C-1.268125 6.598125 -1.53625 7.19625 -1.8125 7.8125 C-2.98493467 9.97224808 -4.19369282 11.35790256 -6 13 C-6.33 12.34 -6.66 11.68 -7 11 C-6.34 10.01 -5.68 9.02 -5 8 C-4.34 8 -3.68 8 -3 8 C-3 6.68 -3 5.36 -3 4 C-2.01 4 -1.02 4 0 4 C0 2.68 0 1.36 0 0 Z " fill="#D3876F" transform="translate(214,588)"/>
<path d="M0 0 C1.13115234 0.07831055 1.13115234 0.07831055 2.28515625 0.15820312 C4.1487937 0.28795004 6.01194996 0.42457488 7.875 0.5625 C7.875 0.8925 7.875 1.2225 7.875 1.5625 C5.62652519 1.92622387 3.37613812 2.27814096 1.125 2.625 C-0.75445312 2.92083984 -0.75445312 2.92083984 -2.671875 3.22265625 C-5.62516589 3.51330818 -7.3852414 3.55185727 -10.125 2.5625 C-10.125 1.9025 -10.125 1.2425 -10.125 0.5625 C-6.91158631 -1.04420684 -3.49541032 -0.26260855 0 0 Z " fill="#18161A" transform="translate(342.125,570.4375)"/>
<path d="M0 0 C0.66 0.66 1.32 1.32 2 2 C0.59546357 2.89434157 -0.82421869 3.76493192 -2.25 4.625 C-3.03890625 5.11226563 -3.8278125 5.59953125 -4.640625 6.1015625 C-7 7 -7 7 -9.296875 6.1484375 C-9.85890625 5.76945312 -10.4209375 5.39046875 -11 5 C-7.63576723 2.03947516 -4.30840713 1.07710178 0 0 Z " fill="#DFD3D4" transform="translate(837,482)"/>
<path d="M0 0 C0.66 1.32 1.32 2.64 2 4 C0.3125 6.0625 0.3125 6.0625 -2 8 C-4.75 7.75 -4.75 7.75 -7 7 C-7.33 5.68 -7.66 4.36 -8 3 C-6.68 3.99 -5.36 4.98 -4 6 C-2.68 4.02 -1.36 2.04 0 0 Z " fill="#F2C3B3" transform="translate(213,594)"/>
<path d="M0 0 C1.8125 0.1875 1.8125 0.1875 4 1 C5.8125 3.4375 5.8125 3.4375 7 6 C6.67 6.66 6.34 7.32 6 8 C5.34 8 4.68 8 4 8 C4 8.66 4 9.32 4 10 C3.34 10 2.68 10 2 10 C2.33 8.02 2.66 6.04 3 4 C2.01 4 1.02 4 0 4 C0 2.68 0 1.36 0 0 Z " fill="#E7D7D8" transform="translate(297,588)"/>
<path d="M0 0 C0 3.55157911 -0.99418238 5.48763755 -2.5 8.6875 C-3.19609375 10.17830078 -3.19609375 10.17830078 -3.90625 11.69921875 C-4.2671875 12.45847656 -4.628125 13.21773438 -5 14 C-6.13508688 10.6484259 -5.87309359 8.64324324 -4.75 5.3125 C-4.49734375 4.52488281 -4.2446875 3.73726563 -3.984375 2.92578125 C-3 1 -3 1 0 0 Z " fill="#F9C2C1" transform="translate(243,438)"/>
<path d="M0 0 C2.66735273 2.48952921 4.55746343 4.63408134 6 8 C3.69 8.33 1.38 8.66 -1 9 C-0.649375 8.2575 -0.29875 7.515 0.0625 6.75 C1.04509293 3.8677274 1.0326802 2.78823655 0 0 Z " fill="#191517" transform="translate(628,592)"/>
<path d="M0 0 C1.79453113 3.58906225 2.29343623 4.80693713 2.3125 8.5625 C2.33763672 9.70912109 2.33763672 9.70912109 2.36328125 10.87890625 C2 13 2 13 -1 16 C-0.67 10.72 -0.34 5.44 0 0 Z " fill="#080508" transform="translate(729,536)"/>
<path d="M0 0 C0.99 0 1.98 0 3 0 C1.4169423 4.2742558 -1.50568404 6.26531794 -5 9 C-5 7.35 -5 5.7 -5 4 C-4.0409375 3.8453125 -4.0409375 3.8453125 -3.0625 3.6875 C-2.381875 3.460625 -1.70125 3.23375 -1 3 C-0.67 2.01 -0.34 1.02 0 0 Z " fill="#21201F" transform="translate(598,517)"/>
<path d="M0 0 C3.48331435 3.01887244 4.79157144 5.56909529 6 10 C4.68 9.34 3.36 8.68 2 8 C2 7.01 2 6.02 2 5 C1.01 5 0.02 5 -1 5 C-0.67 3.35 -0.34 1.7 0 0 Z " fill="#FACBBE" transform="translate(128,467)"/>
<path d="M0 0 C1.9375 0.6875 1.9375 0.6875 4 2 C4.75 4.625 4.75 4.625 5 7 C5.99 6.67 6.98 6.34 8 6 C8.625 7.875 8.625 7.875 9 10 C8.34 10.66 7.68 11.32 7 12 C5.82767315 10.3790787 4.6622923 8.75313167 3.5 7.125 C2.8503125 6.22007812 2.200625 5.31515625 1.53125 4.3828125 C0 2 0 2 0 0 Z " fill="#1D1B1C" transform="translate(643,574)"/>
<path d="M0 0 C0.99 0 1.98 0 3 0 C2.34 2.31 1.68 4.62 1 7 C-0.32 7.33 -1.64 7.66 -3 8 C-2.25 2.25 -2.25 2.25 0 0 Z " fill="#C2472E" transform="translate(214,503)"/>
<path d="M0 0 C1.11375 0.598125 2.2275 1.19625 3.375 1.8125 C4.00148438 2.14894531 4.62796875 2.48539062 5.2734375 2.83203125 C7 4 7 4 9 7 C6.625 7.625 6.625 7.625 4 8 C3.34 7.34 2.68 6.68 2 6 C2.33 5.67 2.66 5.34 3 5 C2.2575 4.319375 2.2575 4.319375 1.5 3.625 C0 2 0 2 0 0 Z " fill="#181516" transform="translate(712,486)"/>
<path d="M0 0 C0.99 0.33 1.98 0.66 3 1 C3.33 1.99 3.66 2.98 4 4 C1.28605338 5.80929775 0.01212543 6.26978778 -3 7 C-4.34159786 7.64987492 -5.67619564 8.31460651 -7 9 C-6.02180976 7.68677212 -5.0424189 6.37443848 -4.0625 5.0625 C-3.51722656 4.33160156 -2.97195313 3.60070312 -2.41015625 2.84765625 C-1 1 -1 1 0 0 Z " fill="#232021" transform="translate(588,484)"/>
<path d="M0 0 C0.99 0.495 0.99 0.495 2 1 C2.66666667 3 3.33333333 5 4 7 C4.66 7.33 5.32 7.66 6 8 C6.625 11.0625 6.625 11.0625 7 14 C4 13 4 13 2.83203125 10.8203125 C2.49558594 9.93085938 2.15914062 9.04140625 1.8125 8.125 C1.29623047 6.79855469 1.29623047 6.79855469 0.76953125 5.4453125 C0 3 0 3 0 0 Z " fill="#DA462C" transform="translate(184,464)"/>
<path d="M0 0 C-0.33 2.31 -0.66 4.62 -1 7 C-2.65 7.66 -4.3 8.32 -6 9 C-3.83333333 0 -3.83333333 0 0 0 Z " fill="#BD4331" transform="translate(246,439)"/>
<path d="M0 0 C0.33 1.32 0.66 2.64 1 4 C-1.35438733 5.42944945 -2.48032433 6.08661261 -5.25 5.625 C-5.8275 5.41875 -6.405 5.2125 -7 5 C-2.25 0 -2.25 0 0 0 Z " fill="#141417" transform="translate(565,512)"/>
<path d="M0 0 C1.4540625 0.0309375 1.4540625 0.0309375 2.9375 0.0625 C2.2775 2.0425 1.6175 4.0225 0.9375 6.0625 C-0.0525 6.0625 -1.0425 6.0625 -2.0625 6.0625 C-2.7225 4.4125 -3.3825 2.7625 -4.0625 1.0625 C-3.0625 0.0625 -3.0625 0.0625 0 0 Z " fill="#D85B34" transform="translate(132.0625,463.9375)"/>
<path d="M0 0 C-1 3 -1 3 -4 5 C-6.6875 5.125 -6.6875 5.125 -9 5 C-7.68 4.34 -6.36 3.68 -5 3 C-7.31 3 -9.62 3 -12 3 C-8.06769671 0.37846447 -4.67664739 0 0 0 Z " fill="#D2C5C7" transform="translate(497,599)"/>
<path d="M0 0 C0.99 0 1.98 0 3 0 C1.18690997 3.77727089 -0.9073259 7.37269822 -3 11 C-4 8 -4 8 -3.22265625 5.95703125 C-2.83980469 5.24933594 -2.45695313 4.54164063 -2.0625 3.8125 C-1.68222656 3.09707031 -1.30195313 2.38164063 -0.91015625 1.64453125 C-0.60980469 1.10183594 -0.30945313 0.55914063 0 0 Z " fill="#DD8A6E" transform="translate(221,576)"/>
<path d="M0 0 C3 1 3 1 5 3 C5.66 3.33 6.32 3.66 7 4 C7 4.66 7 5.32 7 6 C5.68 6.33 4.36 6.66 3 7 C1.68 5.35 0.36 3.7 -1 2 C-0.67 1.34 -0.34 0.68 0 0 Z " fill="#E5DADD" transform="translate(465,563)"/>
<path d="M0 0 C0.33 0 0.66 0 1 0 C1.25 2.8125 1.25 2.8125 1 6 C-0.875 7.875 -0.875 7.875 -3 9 C-3.66 9 -4.32 9 -5 9 C-3.75471468 5.55151758 -2.38532951 2.80016942 0 0 Z " fill="#FBCCC0" transform="translate(239,551)"/>
<path d="M0 0 C2.72647685 2.35468455 3.98756342 4.5408417 5 8 C4.625 10.3125 4.625 10.3125 4 12 C3.67 10.02 3.34 8.04 3 6 C1.35 6 -0.3 6 -2 6 C-1.34 4.02 -0.68 2.04 0 0 Z " fill="#BEB3B4" transform="translate(723,525)"/>
<path d="M0 0 C0.66 0 1.32 0 2 0 C-2.0625 10.625 -2.0625 10.625 -6 14 C-5.67 12.35 -5.34 10.7 -5 9 C-4.34 9 -3.68 9 -3 9 C-2.80083984 8.15115234 -2.80083984 8.15115234 -2.59765625 7.28515625 C-2.33275391 6.18494141 -2.33275391 6.18494141 -2.0625 5.0625 C-1.88847656 4.33160156 -1.71445312 3.60070312 -1.53515625 2.84765625 C-1 1 -1 1 0 0 Z " fill="#DA8A6E" transform="translate(273,488)"/>
<path d="M0 0 C1.875 0.125 1.875 0.125 4 1 C5.25 4.0625 5.25 4.0625 6 7 C3.5625 6.3125 3.5625 6.3125 1 5 C0.1875 2.375 0.1875 2.375 0 0 Z " fill="#1C191B" transform="translate(308,593)"/>
<path d="M0 0 C1.875 0.1875 1.875 0.1875 4 1 C5.25 3.5625 5.25 3.5625 6 6 C5.34 6 4.68 6 4 6 C3.67 6.66 3.34 7.32 3 8 C0 2.25 0 2.25 0 0 Z " fill="#1E1C1E" transform="translate(295,579)"/>
<path d="M0 0 C3.13269705 3.13269705 3.05494397 5.97328423 3.0625 10.25 C3.041875 11.4875 3.02125 12.725 3 14 C0.19954377 10.85408067 -0.35261589 8.932936 -0.1875 4.75 C-0.16042969 3.85796875 -0.13335938 2.9659375 -0.10546875 2.046875 C-0.07066406 1.37140625 -0.03585937 0.6959375 0 0 Z " fill="#3D393A" transform="translate(894,510)"/>
<path d="M0 0 C1.66666667 1.66666667 3.33333333 3.33333333 5 5 C2.69 6.98 0.38 8.96 -2 11 C-1.67 9.68 -1.34 8.36 -1 7 C-0.34 7 0.32 7 1 7 C0.67 4.69 0.34 2.38 0 0 Z " fill="#DCD1D2" transform="translate(823,485)"/>
<path d="M0 0 C0 2 0 4 0 6 C-3.50776784 7.60355101 -6.14354879 8.22036864 -10 8 C-9.195625 7.4121875 -9.195625 7.4121875 -8.375 6.8125 C-5.50791468 4.6244612 -2.76035432 2.32120704 0 0 Z " fill="#272324" transform="translate(720,564)"/>
<path d="M0 0 C-3.20336822 2.83374881 -5.78087253 3.5205537 -10 4 C-10 3.01 -10 2.02 -10 1 C-6.78548731 -0.60725635 -3.56387464 -0.05748185 0 0 Z " fill="#E4D7DB" transform="translate(714,569)"/>
<path d="M0 0 C1.74627478 2.61941217 2.38722388 4.03824877 3 7 C1.68 6.67 0.36 6.34 -1 6 C-1 5.34 -1 4.68 -1 4 C-2.32 4.33 -3.64 4.66 -5 5 C-3.35 3.35 -1.7 1.7 0 0 Z " fill="#E9D5DB" transform="translate(829,517)"/>
<path d="M0 0 C2.1875 0.3125 2.1875 0.3125 4 1 C4.33 2.32 4.66 3.64 5 5 C4.01 5.495 4.01 5.495 3 6 C0.96855359 5.06553465 -1.03533587 4.06775224 -3 3 C-1.75 1.4375 -1.75 1.4375 0 0 Z " fill="#E6D8D8" transform="translate(875,481)"/>
<path d="M0 0 C0.66 0.33 1.32 0.66 2 1 C1.1875 3.4375 1.1875 3.4375 0 6 C-0.99 6.33 -1.98 6.66 -3 7 C-3 8.65 -3 10.3 -3 12 C-3.99 12.33 -4.98 12.66 -6 13 C-4.75696561 7.82069003 -3.14512215 4.29833361 0 0 Z " fill="#FDD3C7" transform="translate(304,440)"/>
<path d="M0 0 C3.00617269 3.00617269 2.59585316 5.82381598 3 10 C3.66 10 4.32 10 5 10 C4.67 10.99 4.34 11.98 4 13 C1.81006393 10.81006393 1.27802011 9.4012702 0.3125 6.5 C0.04050781 5.7059375 -0.23148438 4.911875 -0.51171875 4.09375 C-1 2 -1 2 0 0 Z " fill="#FDD0C7" transform="translate(179,441)"/>
<path d="M0 0 C0.66 0 1.32 0 2 0 C2.33 1.32 2.66 2.64 3 4 C4.65 4 6.3 4 8 4 C7.67 5.32 7.34 6.64 7 8 C4.13792848 6.71700242 1.9754912 5.469364 0 3 C0 2.01 0 1.02 0 0 Z " fill="#1F1C1C" transform="translate(435,589)"/>
<path d="M0 0 C3.875 4.75 3.875 4.75 5 7 C2.69 6.34 0.38 5.68 -2 5 C-1.34 3.35 -0.68 1.7 0 0 Z " fill="#E4D6D9" transform="translate(580,585)"/>
<path d="M0 0 C0.66 0 1.32 0 2 0 C2.66 2.97 3.32 5.94 4 9 C3.01 9 2.02 9 1 9 C-1.09230769 4.56923077 -1.09230769 4.56923077 -0.625 1.6875 C-0.41875 1.130625 -0.2125 0.57375 0 0 Z " fill="#E1D5D7" transform="translate(291,571)"/>
<path d="M0 0 C2.76223278 2.76223278 2.57856291 5.20706617 3 9 C2.01 9 1.02 9 0 9 C-0.66 6.69 -1.32 4.38 -2 2 C-1.34 2 -0.68 2 0 2 C0 1.34 0 0.68 0 0 Z " fill="#E7DBDC" transform="translate(330,556)"/>
<path d="M0 0 C4 2 4 2 5.3125 4.375 C6 7 6 7 5 11 C3.35 7.37 1.7 3.74 0 0 Z " fill="#CF644C" transform="translate(180,553)"/>
<path d="M0 0 C0.68964844 -0.01224609 1.37929688 -0.02449219 2.08984375 -0.03710938 C3.89477494 -0.04238695 5.69917842 0.06565542 7.5 0.1875 C8.16 0.8475 8.82 1.5075 9.5 2.1875 C7.91058594 2.17009766 7.91058594 2.17009766 6.2890625 2.15234375 C4.90104342 2.14296524 3.51302245 2.13386511 2.125 2.125 C1.07699219 2.11243164 1.07699219 2.11243164 0.0078125 2.09960938 C-3.87295376 2.0039558 -3.87295376 2.0039558 -7.5 3.1875 C-8.16 2.5275 -8.82 1.8675 -9.5 1.1875 C-6.46576019 -0.3296199 -3.32495206 0.00310743 0 0 Z " fill="#C5BABB" transform="translate(841.5,513.8125)"/>
<path d="M0 0 C1.65 0.33 3.3 0.66 5 1 C5 1.99 5 2.98 5 4 C3.02 4.99 3.02 4.99 1 6 C1 5.34 1 4.68 1 4 C0.01 4.33 -0.98 4.66 -2 5 C-2.33 3.68 -2.66 2.36 -3 1 C-2.01 1 -1.02 1 0 1 C0 0.67 0 0.34 0 0 Z " fill="#1B1A1D" transform="translate(827,512)"/>
<path d="M0 0 C3.0916909 2.52956528 3.90931332 5.22454612 5 9 C4.34 9 3.68 9 3 9 C3 8.34 3 7.68 3 7 C2.01 7 1.02 7 0 7 C0 4.69 0 2.38 0 0 Z " fill="#F9C8BC" transform="translate(140,487)"/>
<path d="M0 0 C2.96052484 3.36423277 3.92289822 6.69159287 5 11 C3.046875 10.2890625 3.046875 10.2890625 1 9 C0.390625 6.8359375 0.390625 6.8359375 0.25 4.375 C0.19328125 3.55773437 0.1365625 2.74046875 0.078125 1.8984375 C0.05234375 1.27195312 0.0265625 0.64546875 0 0 Z " fill="#CC6353" transform="translate(177,443)"/>
<path d="M0 0 C2.475 0.99 2.475 0.99 5 2 C5 2.66 5 3.32 5 4 C5.99 4.33 6.98 4.66 8 5 C8 5.66 8 6.32 8 7 C3.25 5.125 3.25 5.125 1 4 C0.375 1.9375 0.375 1.9375 0 0 Z " fill="#1D181A" transform="translate(661,593)"/>
<path d="M0 0 C1.8125 0.1875 1.8125 0.1875 4 1 C5.75 3.5625 5.75 3.5625 7 6 C6.01 6.33 5.02 6.66 4 7 C0 2.25 0 2.25 0 0 Z " fill="#E4D7DA" transform="translate(630,593)"/>
<path d="M0 0 C0.99 0 1.98 0 3 0 C3.66 0.99 4.32 1.98 5 3 C5.66 3 6.32 3 7 3 C7 5.31 7 7.62 7 10 C3.72713318 7.2180632 2.03572303 3.72045933 0 0 Z " fill="#181717" transform="translate(573,574)"/>
<path d="M0 0 C-3 2 -3 2 -5.69921875 1.7578125 C-6.68535156 1.54898438 -7.67148437 1.34015625 -8.6875 1.125 C-9.68136719 0.92132812 -10.67523437 0.71765625 -11.69921875 0.5078125 C-12.45847656 0.34023438 -13.21773437 0.17265625 -14 0 C-14 -0.33 -14 -0.66 -14 -1 C-12.41870971 -1.22331199 -10.83478911 -1.42804644 -9.25 -1.625 C-8.36828125 -1.74101563 -7.4865625 -1.85703125 -6.578125 -1.9765625 C-3.77140122 -2.00207817 -2.36615134 -1.44843844 0 0 Z " fill="#E7D9D9" transform="translate(766,603)"/>
<path d="M0 0 C0.99 0.66 1.98 1.32 3 2 C0.03 4.475 0.03 4.475 -3 7 C-3.33 5.35 -3.66 3.7 -4 2 C-2.68 1.34 -1.36 0.68 0 0 Z " fill="#231F21" transform="translate(363,591)"/>
<path d="M0 0 C2.79872437 2.52788007 4.45773019 4.20411134 5 8 C3.68 7.67 2.36 7.34 1 7 C0.67 4.69 0.34 2.38 0 0 Z " fill="#F6BCB3" transform="translate(169,536)"/>
<path d="M0 0 C0.99 0.33 1.98 0.66 3 1 C3.33 1.99 3.66 2.98 4 4 C4.66 4.33 5.32 4.66 6 5 C6.625 7.0625 6.625 7.0625 7 9 C3.17475764 7.549046 1.80909034 5.61818068 0 2 C0 1.34 0 0.68 0 0 Z " fill="#C65A3E" transform="translate(168,532)"/>
<path d="M0 0 C0 0.99 0 1.98 0 3 C-0.66 3 -1.32 3 -2 3 C-2.268125 3.61875 -2.53625 4.2375 -2.8125 4.875 C-4 7 -4 7 -7 9 C-6.875 6.75 -6.875 6.75 -6 4 C-2.9375 1.6875 -2.9375 1.6875 0 0 Z " fill="#F36E4D" transform="translate(222,503)"/>
<path d="M0 0 C0.66 0.99 1.32 1.98 2 3 C0.33333333 4.66666667 -1.33333333 6.33333333 -3 8 C-3.99 7.34 -4.98 6.68 -6 6 C-4.02 4.02 -2.04 2.04 0 0 Z " fill="#232021" transform="translate(574,500)"/>
<path d="M0 0 C0.99 0 1.98 0 3 0 C1.87548273 2.9719385 0.77706209 5.33440687 -1 8 C-1.625 5.6875 -1.625 5.6875 -2 3 C-1.34 2.01 -0.68 1.02 0 0 Z " fill="#F9C9BF" transform="translate(221,480)"/>
<path d="M0 0 C0.66 0 1.32 0 2 0 C3.06775224 1.96466413 4.06553465 3.96855359 5 6 C4.67 6.66 4.34 7.32 4 8 C2 6.25 2 6.25 0 4 C0 2.68 0 1.36 0 0 Z " fill="#F9C1B9" transform="translate(198,586)"/>
<path d="M0 0 C0.33 0 0.66 0 1 0 C1.20086443 3.71599191 1.1519437 4.77208445 -1 8 C-1.99 8 -2.98 8 -4 8 C-2.87548273 5.0280615 -1.77706209 2.66559313 0 0 Z " fill="#F9CEC1" transform="translate(224,576)"/>
<path d="M0 0 C3.48331435 3.01887244 4.79157144 5.56909529 6 10 C5.01 9.67 4.02 9.34 3 9 C3 7.68 3 6.36 3 5 C2.34 5 1.68 5 1 5 C0.67 3.35 0.34 1.7 0 0 Z " fill="#FCC9BC" transform="translate(192,576)"/>
<path d="M0 0 C2.4375 0.6875 2.4375 0.6875 5 2 C5.79912616 4.45884972 6 6.43090798 6 9 C5.34 9 4.68 9 4 9 C3.67 7.02 3.34 5.04 3 3 C2.34 3 1.68 3 1 3 C0.67 2.01 0.34 1.02 0 0 Z " fill="#DA5730" transform="translate(193,573)"/>
<path d="M0 0 C2.54845496 2.45539341 4.3743846 4.83004997 6 8 C5.67 8.66 5.34 9.32 5 10 C4.01 9.67 3.02 9.34 2 9 C1.26953125 6.93359375 1.26953125 6.93359375 0.8125 4.4375 C0.65394531 3.61121094 0.49539062 2.78492188 0.33203125 1.93359375 C0.16767578 0.97646484 0.16767578 0.97646484 0 0 Z " fill="#F4C1AE" transform="translate(186,565)"/>
<path d="M0 0 C2.29013653 3.4352048 2.17842973 4.985331 2 9 C0 8 0 8 -1.125 4.9375 C-1.41375 3.968125 -1.7025 2.99875 -2 2 C-1.34 1.34 -0.68 0.68 0 0 Z " fill="#F5E7E8" transform="translate(725,531)"/>
<path d="M0 0 C0.66 0.33 1.32 0.66 2 1 C1.6875 2.875 1.6875 2.875 1 5 C0.01 5.66 -0.98 6.32 -2 7 C-3.125 3.25 -3.125 3.25 -2 1 C-1.34 0.67 -0.68 0.34 0 0 Z " fill="#E0D6D4" transform="translate(552,519)"/>
<path d="M0 0 C1.65 0.33 3.3 0.66 5 1 C4.01 1.495 4.01 1.495 3 2 C3 2.99 3 3.98 3 5 C2.34 5 1.68 5 1 5 C0.67 5.66 0.34 6.32 0 7 C-1.125 2.25 -1.125 2.25 0 0 Z " fill="#191719" transform="translate(643,511)"/>
<path d="M0 0 C0.99 0.99 1.98 1.98 3 3 C1.35 4.32 -0.3 5.64 -2 7 C-2.66 6.67 -3.32 6.34 -4 6 C-2.89131683 3.78263366 -1.50559539 1.96382007 0 0 Z " fill="#141516" transform="translate(608,505)"/>
<path d="M0 0 C1.65 0 3.3 0 5 0 C5.33 1.65 5.66 3.3 6 5 C3.69 4.34 1.38 3.68 -1 3 C-0.67 2.01 -0.34 1.02 0 0 Z " fill="#D7CACB" transform="translate(706,481)"/>
<path d="M0 0 C1.32 0.33 2.64 0.66 4 1 C4.33 3.64 4.66 6.28 5 9 C1.9083091 6.47043472 1.09068668 3.77545388 0 0 Z " fill="#FDD4D3" transform="translate(195,480)"/>
<path d="M0 0 C0.33 0 0.66 0 1 0 C1 3.3 1 6.6 1 10 C0.34 10 -0.32 10 -1 10 C-2.15837626 5.94568308 -1.83691257 3.78187881 0 0 Z " fill="#F4E6E6" transform="translate(635,542)"/>
<path d="M0 0 C1.2065625 0.0309375 1.2065625 0.0309375 2.4375 0.0625 C2.1075 1.0525 1.7775 2.0425 1.4375 3.0625 C0.7775 3.0625 0.1175 3.0625 -0.5625 3.0625 C-0.8925 4.0525 -1.2225 5.0425 -1.5625 6.0625 C-2.2225 4.4125 -2.8825 2.7625 -3.5625 1.0625 C-2.5625 0.0625 -2.5625 0.0625 0 0 Z " fill="#191A1C" transform="translate(557.5625,519.9375)"/>
<path d="M0 0 C4 4.75 4 4.75 4 7 C3.01 7.33 2.02 7.66 1 8 C0 7 0 7 -0.0625 3.4375 C-0.041875 2.303125 -0.02125 1.16875 0 0 Z " fill="#F9C8B9" transform="translate(155,512)"/>
<path d="M0 0 C2.6875 0.875 2.6875 0.875 5 2 C2.36095629 3.41377341 -0.07120629 4.37240135 -3 5 C-3 4.01 -3 3.02 -3 2 C-2.01 1.34 -1.02 0.68 0 0 Z " fill="#DFD2D3" transform="translate(710,514)"/>
<path d="M0 0 C2.79872437 2.52788007 4.45773019 4.20411134 5 8 C3.68 7.67 2.36 7.34 1 7 C0.67 4.69 0.34 2.38 0 0 Z " fill="#F9C4B7" transform="translate(134,477)"/>
<path d="M0 0 C3 1 3 1 4.75 3.8125 C6.05483179 7.13982105 6.02866653 7.79584277 5 11 C4.16151196 9.54462432 3.32936066 8.08559627 2.5 6.625 C1.80390625 5.40683594 1.80390625 5.40683594 1.09375 4.1640625 C0 2 0 2 0 0 Z " fill="#CB5E44" transform="translate(120,451)"/>
<path d="M0 0 C1.32 0 2.64 0 4 0 C2.70700306 2.88437779 1.34058637 4.87219421 -1 7 C-1.66 6.67 -2.32 6.34 -3 6 C-2.34 5.34 -1.68 4.68 -1 4 C-0.3574765 1.93125966 -0.3574765 1.93125966 0 0 Z " fill="#CA553F" transform="translate(300,439)"/>
<path d="M0 0 C2.15377564 2.62198774 3.40072174 4.64404172 4 8 C3.01 8 2.02 8 1 8 C-0.35439668 5.29120665 -0.06501451 2.99066732 0 0 Z " fill="#FCD2C2" transform="translate(182,558)"/>
<path d="M0 0 C2.25 0.25 2.25 0.25 4 1 C2.02 2.32 0.04 3.64 -2 5 C-2.66 4.67 -3.32 4.34 -4 4 C-2.25 1.9375 -2.25 1.9375 0 0 Z " fill="#C94322" transform="translate(236,489)"/>
<path d="M0 0 C1.65 0 3.3 0 5 0 C3.75453595 3.73639216 2.36595047 4.18756513 -1 6 C-0.67 4.02 -0.34 2.04 0 0 Z " fill="#E4D8DA" transform="translate(657,488)"/>
<path d="M0 0 C0.66 0.33 1.32 0.66 2 1 C2.38218767 2.65614657 2.71395102 4.32457024 3 6 C3.33 6.66 3.66 7.32 4 8 C3.34 8.66 2.68 9.32 2 10 C1.01 7.03 0.02 4.06 -1 1 C-0.67 0.67 -0.34 0.34 0 0 Z " fill="#FCCAC6" transform="translate(190,466)"/>
<path d="M0 0 C0.99 0.33 1.98 0.66 3 1 C2.01 1.33 1.02 1.66 0 2 C0 2.66 0 3.32 0 4 C-2.5 5.625 -2.5 5.625 -5 7 C-4.6189482 4.23737447 -4.16402868 3.15856106 -2.125 1.1875 C-1.42375 0.795625 -0.7225 0.40375 0 0 Z " fill="#D14928" transform="translate(282,454)"/>
<path d="M0 0 C2.64 0.66 5.28 1.32 8 2 C7.34 2.66 6.68 3.32 6 4 C3.375 3.625 3.375 3.625 1 3 C0.67 2.01 0.34 1.02 0 0 Z " fill="#C3BBBB" transform="translate(314,600)"/>
<path d="M0 0 C0.66 0 1.32 0 2 0 C2 0.99 2 1.98 2 3 C1.01 3 0.02 3 -1 3 C-1 4.32 -1 5.64 -1 7 C-1.66 7 -2.32 7 -3 7 C-2.25 2.25 -2.25 2.25 0 0 Z " fill="#E18362" transform="translate(215,585)"/>
<path d="M0 0 C1.98 1.65 3.96 3.3 6 5 C4.02 5.99 4.02 5.99 2 7 C0 5 0 5 -0.125 2.375 C-0.08375 1.59125 -0.0425 0.8075 0 0 Z " fill="#1E1D20" transform="translate(464,565)"/>
<path d="M0 0 C1.32 1.65 2.64 3.3 4 5 C2.35 5.33 0.7 5.66 -1 6 C-1.33 5.34 -1.66 4.68 -2 4 C-1.34 4 -0.68 4 0 4 C0 2.68 0 1.36 0 0 Z " fill="#19191A" transform="translate(676,562)"/>
<path d="M0 0 C1.65 0 3.3 0 5 0 C4.67 1.98 4.34 3.96 4 6 C3.34 5.01 2.68 4.02 2 3 C1.01 3 0.02 3 -1 3 C-0.67 2.01 -0.34 1.02 0 0 Z " fill="#F7E5E6" transform="translate(465,561)"/>
<path d="M0 0 C2.79872437 2.52788007 4.45773019 4.20411134 5 8 C3.0625 7.375 3.0625 7.375 1 6 C0.25 2.875 0.25 2.875 0 0 Z " fill="#FBC3B9" transform="translate(177,550)"/>
<path d="M0 0 C0.66 0.99 1.32 1.98 2 3 C1.01 3.66 0.02 4.32 -1 5 C-1.72965366 7.56282742 -1.72965366 7.56282742 -2 10 C-2.66 9.67 -3.32 9.34 -4 9 C-2.94124926 5.59687262 -1.99097846 2.98646769 0 0 Z " fill="#F9CBBD" transform="translate(244,542)"/>
<path d="M0 0 C0.33 0.66 0.66 1.32 1 2 C1.66 2 2.32 2 3 2 C3 3.98 3 5.96 3 8 C0.9375 5.6875 0.9375 5.6875 -1 3 C-0.67 2.01 -0.34 1.02 0 0 Z " fill="#D16044" transform="translate(150,499)"/>
<path d="M0 0 C5.75 1.75 5.75 1.75 8 4 C4.37673261 5.2077558 3.35853631 4.54311128 0 3 C0 2.01 0 1.02 0 0 Z " fill="#221C1B" transform="translate(870,483)"/>
<path d="M0 0 C1.65 0 3.3 0 5 0 C3.515 2.475 3.515 2.475 2 5 C1.01 4.01 0.02 3.02 -1 2 C-0.67 1.34 -0.34 0.68 0 0 Z " fill="#221A1A" transform="translate(628,484)"/>
<path d="M0 0 C2 0.3125 2 0.3125 4 1 C4.33 1.66 4.66 2.32 5 3 C1.7 3 -1.6 3 -5 3 C-3.68 2.34 -2.36 1.68 -1 1 C-0.67 0.67 -0.34 0.34 0 0 Z " fill="#171516" transform="translate(697,482)"/>
<path d="M0 0 C0.93065133 2.60582371 1.14917407 3.64198224 0.0625 6.25 C-0.4634375 7.11625 -0.4634375 7.11625 -1 8 C-1.66 7.67 -2.32 7.34 -3 7 C-1.125 1.125 -1.125 1.125 0 0 Z " fill="#F8C9B9" transform="translate(289,465)"/>
<path d="M0 0 C2 2 2 2 2.1953125 3.9453125 C2.13020833 5.96354167 2.06510417 7.98177083 2 10 C-0.58787727 7.41212273 -0.62709152 5.57992139 -1 2 C-0.67 1.34 -0.34 0.68 0 0 Z " fill="#D75932" transform="translate(126,455)"/>
<path d="M0 0 C1.38111722 2.2747813 2.05694702 3.50171361 1.75 6.1875 C1 8 1 8 -1 9 C-1.125 2.25 -1.125 2.25 0 0 Z " fill="#BE4732" transform="translate(239,448)"/>
</svg>
