<?xml version="1.0" encoding="UTF-8"?>
<!DOCTYPE svg PUBLIC "-//W3C//DTD SVG 1.1//EN" "http://www.w3.org/Graphics/SVG/1.1/DTD/svg11.dtd">
<svg xmlns="http://www.w3.org/2000/svg" version="1.1" width="1024px" height="1024px" style="shape-rendering:geometricPrecision; text-rendering:geometricPrecision; image-rendering:optimizeQuality; fill-rule:evenodd; clip-rule:evenodd" xmlns:xlink="http://www.w3.org/1999/xlink">
<g><path style="opacity:1" fill="#e2f4fe" d="M -0.5,-0.5 C 340.833,-0.5 682.167,-0.5 1023.5,-0.5C 1023.5,4.83333 1023.5,10.1667 1023.5,15.5C 1022.88,15.3893 1022.38,15.056 1022,14.5C 1020.42,9.75955 1020.59,5.25955 1022.5,1C 681.833,0.166668 341.166,0.333334 0.5,1.5C 0.916924,4.92993 1.41692,8.5966 2,12.5C 2.00255,9.28403 3.16922,6.61736 5.5,4.5C 5.29069,3.91395 4.95735,3.41395 4.5,3C 8.82056,2.50098 13.1539,2.33432 17.5,2.5C 17.3505,3.55198 17.5172,4.55198 18,5.5C 19.3985,4.94915 20.7318,4.61581 22,4.5C 23.7337,5.24888 25.567,5.74888 27.5,6C 26.3333,6.5 25.5,7.33333 25,8.5C 22.5027,6.52185 19.6693,6.02185 16.5,7C 17.1667,7.33333 17.8333,7.66667 18.5,8C 16.5,8.66667 15.1667,10 14.5,12C 15.364,13.1369 16.364,14.4702 17.5,16C 17.1225,19.9133 16.1225,23.58 14.5,27C 15.6841,28.1803 16.3507,29.6803 16.5,31.5C 16.3507,33.3197 15.6841,34.8197 14.5,36C 16.2297,39.8515 17.0631,44.0182 17,48.5C 17.3333,44.5 17.6667,40.5 18,36.5C 18.5205,44.8339 19.1872,45.1672 20,37.5C 20.9195,37.9302 21.7528,38.2635 22.5,38.5C 21.2008,45.8337 20.5341,53.3337 20.5,61C 20.6667,68.1667 20.8333,75.3333 21,82.5C 21.3333,76.1667 21.6667,69.8333 22,63.5C 22.3333,67.5 22.6667,71.5 23,75.5C 23.3333,73.5 23.6667,71.5 24,69.5C 23.9291,76.0257 23.4291,82.1924 22.5,88C 22.6804,92.9172 23.347,97.7505 24.5,102.5C 24.3333,103.5 24.1667,104.5 24,105.5C 23.6667,103.833 23.3333,102.167 23,100.5C 22.6667,100.833 22.3333,101.167 22,101.5C 21.6667,97.1667 21.3333,92.8333 21,88.5C 20.3333,94.5 20.3333,100.5 21,106.5C 21.3333,105.167 21.6667,103.833 22,102.5C 22.3333,105.5 22.6667,108.5 23,111.5C 23.3333,110.833 23.6667,110.167 24,109.5C 24.3095,110.766 24.8095,111.933 25.5,113C 25.6141,115.811 25.2808,118.478 24.5,121C 25.3081,121.308 25.9747,121.808 26.5,122.5C 25.1667,123.833 25.1667,125.167 26.5,126.5C 25.8333,127.5 25.1667,128.5 24.5,129.5C 25.0023,137.508 25.0023,145.008 24.5,152C 25.3567,152.689 26.0233,153.522 26.5,154.5C 25.3595,155.425 25.3595,156.259 26.5,157C 23.972,158.316 23.972,159.483 26.5,160.5C 24.3404,164.288 24.3404,167.788 26.5,171C 23.972,172.316 23.972,173.483 26.5,174.5C 26.0233,175.478 25.3567,176.311 24.5,177C 24.7523,179.468 25.0856,181.968 25.5,184.5C 24.7868,186.776 24.2868,189.109 24,191.5C 23.6667,189.833 23.3333,188.167 23,186.5C 22.6667,191.167 22.3333,195.833 22,200.5C 21.6667,197.5 21.3333,194.5 21,191.5C 20.3333,199.167 20.3333,206.833 21,214.5C 21.3333,212.167 21.6667,209.833 22,207.5C 22.3333,218.167 22.6667,228.833 23,239.5C 23.3333,236.167 23.6667,232.833 24,229.5C 24.2069,233.089 24.7069,236.589 25.5,240C 24.9781,240.561 24.6448,241.228 24.5,242C 25.0629,244.727 25.7295,247.393 26.5,250C 24.8122,252.825 23.9789,255.991 24,259.5C 23.6667,258.167 23.3333,256.833 23,255.5C 22.6667,261.833 22.3333,268.167 22,274.5C 21.6667,270.833 21.3333,267.167 21,263.5C 20.3333,272.167 20.3333,280.833 21,289.5C 21.3333,288.167 21.6667,286.833 22,285.5C 22.3333,288.833 22.6667,292.167 23,295.5C 23.3333,291.833 23.6667,288.167 24,284.5C 23.9481,288.656 24.7815,292.49 26.5,296C 25.2405,298.213 24.5738,300.713 24.5,303.5C 24.6101,311.338 24.6101,319.171 24.5,327C 24.2742,329.671 24.9409,332.004 26.5,334C 25.1977,338.582 24.531,343.415 24.5,348.5C 24.5778,353.805 25.2444,358.971 26.5,364C 26.0946,364.945 25.428,365.612 24.5,366C 25.773,369.016 26.773,372.016 27.5,375C 26.8333,376 26.1667,377 25.5,378C 25.1946,388.039 25.528,397.373 26.5,406C 23.8333,406.667 23.8333,407.333 26.5,408C 23.9199,410.12 23.9199,412.287 26.5,414.5C 24.7683,420.287 23.935,426.287 24,432.5C 23.6667,430.167 23.3333,427.833 23,425.5C 22.3333,433.833 22.3333,442.167 23,450.5C 23.3333,446.5 23.6667,442.5 24,438.5C 24.3333,443.167 24.6667,447.833 25,452.5C 25.3742,453.416 25.8742,454.25 26.5,455C 25.9983,461.828 25.9983,468.828 26.5,476C 25.0835,478.983 24.2501,482.15 24,485.5C 23.3333,481.5 22.6667,481.5 22,485.5C 21.6667,484.5 21.3333,483.5 21,482.5C 19.5306,484.759 18.5306,487.759 18,491.5C 17.6667,489.167 17.3333,486.833 17,484.5C 16.9355,487.763 16.1022,490.763 14.5,493.5C 15.002,495.658 15.002,497.991 14.5,500.5C 14.6132,502.641 15.2799,504.475 16.5,506C 16.1667,506.333 15.8333,506.667 15.5,507C 16.3089,512.417 16.8089,517.917 17,523.5C 17.3333,517.5 17.6667,511.5 18,505.5C 18.3333,509.833 18.6667,514.167 19,518.5C 19.3333,515.167 19.6667,511.833 20,508.5C 20.3333,514.833 20.6667,521.167 21,527.5C 21.6667,512.833 22.3333,512.833 23,527.5C 23.3333,524.5 23.6667,521.5 24,518.5C 24.3333,521.167 24.6667,523.833 25,526.5C 25.5,527 26,527.5 26.5,528C 24.1517,529.688 23.9851,531.522 26,533.5C 26.1911,539.083 26.6911,544.583 27.5,550C 26.5168,558.415 26.1834,566.915 26.5,575.5C 28.288,575.215 29.9547,575.548 31.5,576.5C 28.7019,578.566 29.0352,580.066 32.5,581C 31.1667,581.667 31.1667,582.333 32.5,583C 29.0536,583.704 29.0536,585.037 32.5,587C 30.8622,591.202 28.8622,595.535 26.5,600C 26.6448,600.772 26.9781,601.439 27.5,602C 26.8508,605.195 26.0175,608.361 25,611.5C 24.5842,619.341 24.4175,627.007 24.5,634.5C 26.6791,636.717 26.6791,638.717 24.5,640.5C 25.5522,642.11 25.5522,643.777 24.5,645.5C 24.9186,646.672 25.5853,647.672 26.5,648.5C 23.9557,649.937 23.9557,651.437 26.5,653C 25.3962,661.78 25.3962,670.947 26.5,680.5C 27.8734,680.343 29.2068,680.51 30.5,681C 29.8333,681.333 29.1667,681.667 28.5,682C 29.5171,683.049 29.6838,684.216 29,685.5C 28.3333,682.833 27.6667,682.833 27,685.5C 26.5065,687.134 26.3398,688.801 26.5,690.5C 30.5,690.833 30.5,691.167 26.5,691.5C 26.3433,692.873 26.51,694.207 27,695.5C 27.3076,694.692 27.8076,694.025 28.5,693.5C 29.3816,694.76 30.3816,695.926 31.5,697C 28.999,698.418 29.3323,699.418 32.5,700C 31.8333,703.333 31.1667,706.667 30.5,710C 31.6341,711.016 31.3008,711.683 29.5,712C 30.5171,713.049 30.6838,714.216 30,715.5C 29.6667,715.167 29.3333,714.833 29,714.5C 28.5518,716.224 27.7185,716.891 26.5,716.5C 28.2744,717.187 29.9411,718.02 31.5,719C 31.1667,719.333 30.8333,719.667 30.5,720C 33.4155,722.071 33.0822,723.405 29.5,724C 31.1247,724.853 31.4581,725.853 30.5,727C 31.3279,727.915 32.3279,728.581 33.5,729C 29.5443,730.114 29.5443,730.947 33.5,731.5C 33.3601,733.124 34.0267,734.29 35.5,735C 34.6919,735.308 34.0253,735.808 33.5,736.5C 36.3581,740.13 36.0248,743.463 32.5,746.5C 33.0253,747.192 33.6919,747.692 34.5,748C 31.8947,752.112 31.228,756.445 32.5,761C 30.968,761.7 29.968,762.866 29.5,764.5C 29.6225,766.378 29.6225,768.211 29.5,770C 28.376,770.249 27.376,770.749 26.5,771.5C 26.4371,777.66 26.6038,783.994 27,790.5C 28.016,791.634 28.6827,791.301 29,789.5C 29.0299,792.615 30.1965,795.115 32.5,797C 31.6217,799.077 31.6217,801.41 32.5,804C 31.6721,804.915 30.6721,805.581 29.5,806C 32.4031,810.406 31.7365,811.573 27.5,809.5C 26.2717,811.898 26.9384,813.732 29.5,815C 28.552,815.483 27.552,815.649 26.5,815.5C 26.1245,823.017 26.1245,830.684 26.5,838.5C 30.5,838.833 30.5,839.167 26.5,839.5C 26.1878,842.888 27.5211,845.388 30.5,847C 29.2161,847.684 28.0495,847.517 27,846.5C 26.8369,850.989 26.6703,855.323 26.5,859.5C 31.5867,859.284 32.5867,861.118 29.5,865C 30.1667,865.667 30.8333,866.333 31.5,867C 30.234,869.57 28.5673,871.07 26.5,871.5C 27.1027,872.635 27.4361,873.635 27.5,874.5C 28.2508,873.624 28.7508,872.624 29,871.5C 29.2734,873.101 29.7734,874.601 30.5,876C 29.6198,877.356 29.2865,878.856 29.5,880.5C 28.448,880.351 27.448,880.517 26.5,881C 26.6158,882.268 26.9491,883.602 27.5,885C 25.6652,885.928 25.3318,887.094 26.5,888.5C 25.8333,889.833 25.1667,891.167 24.5,892.5C 26.4224,893.96 27.0891,895.627 26.5,897.5C 25.9747,898.192 25.3081,898.692 24.5,899C 25.3081,899.308 25.9747,899.808 26.5,900.5C 26.4003,902.993 26.067,905.493 25.5,908C 26.2883,911.076 26.7883,914.242 27,917.5C 27.9147,916.672 28.5814,915.672 29,914.5C 30.6883,915.325 30.8549,916.325 29.5,917.5C 31.9913,918.541 31.9913,919.374 29.5,920C 29.4205,921.907 29.7539,923.907 30.5,926C 29.8095,927.067 29.3095,928.234 29,929.5C 28.7104,927.956 28.0437,926.623 27,925.5C 27.379,927.075 27.2123,928.575 26.5,930C 28.7254,930.561 30.7254,931.561 32.5,933C 31.8333,933.333 31.1667,933.667 30.5,934C 31.9603,935.582 33.627,936.915 35.5,938C 35.9426,939.518 35.2759,940.685 33.5,941.5C 33.8457,942.696 34.3457,942.696 35,941.5C 34.8516,942.825 35.0183,943.992 35.5,945C 31.8342,945.39 31.6676,946.557 35,948.5C 35.7429,950.441 35.5762,952.274 34.5,954C 35.3279,954.915 36.3279,955.581 37.5,956C 37.1119,957.808 37.1119,959.475 37.5,961C 38.1667,961.333 38.8333,961.667 39.5,962C 38.8641,964.394 38.8641,966.894 39.5,969.5C 38.448,969.351 37.448,969.517 36.5,970C 37.2961,972.514 39.1294,974.681 42,976.5C 43.2975,975.216 44.4642,975.383 45.5,977C 43.913,977.862 42.2464,978.529 40.5,979C 42.9913,979.626 42.9913,980.459 40.5,981.5C 41.376,982.251 42.376,982.751 43.5,983C 41.5035,983.76 39.8368,984.26 38.5,984.5C 40.1128,985.427 41.7795,986.261 43.5,987C 43.1667,987.333 42.8333,987.667 42.5,988C 47.1903,988.503 51.857,989.17 56.5,990C 58.1844,991.74 60.0177,992.906 62,993.5C 62.6891,992.643 63.5224,991.977 64.5,991.5C 64.2964,992.529 64.7964,993.529 66,994.5C 66.3333,994.167 66.6667,993.833 67,993.5C 69.4699,995.487 72.3033,995.987 75.5,995C 72.6253,994.105 72.2919,993.272 74.5,992.5C 75.938,992.719 77.2713,993.219 78.5,994C 77.8333,994.333 77.1667,994.667 76.5,995C 79.146,995.497 81.8127,995.664 84.5,995.5C 84.0889,992.724 84.9223,992.057 87,993.5C 91.1024,992.599 91.2691,991.766 87.5,991C 92.2161,989.525 97.0495,988.359 102,987.5C 104.167,989.464 106.501,989.798 109,988.5C 111.734,989.362 111.901,990.195 109.5,991C 111.333,991.167 113.167,991.333 115,991.5C 117.302,991.4 119.302,990.733 121,989.5C 123.686,994.074 125.353,994.074 126,989.5C 130.926,990.777 135.592,992.777 140,995.5C 140.333,994.833 140.667,994.167 141,993.5C 142.698,994.733 144.698,995.4 147,995.5C 149.094,995.464 151.094,995.131 153,994.5C 159.419,995.313 165.919,995.813 172.5,996C 171.5,996.5 170.5,997 169.5,997.5C 168.232,996.572 166.899,996.405 165.5,997C 167.553,998.08 169.72,998.914 172,999.5C 184.617,999.036 197.45,998.536 210.5,998C 209.5,997.5 208.5,997 207.5,996.5C 203.184,996.535 198.851,996.535 194.5,996.5C 206.5,995.167 218.5,995.167 230.5,996.5C 230.291,997.086 229.957,997.586 229.5,998C 232.426,998.218 235.26,998.718 238,999.5C 243.016,998.436 247.849,998.436 252.5,999.5C 254.115,998.846 255.782,998.346 257.5,998C 257,997.5 256.5,997 256,996.5C 254.627,996.404 253.127,996.57 251.5,997C 252.6,995.977 253.933,995.477 255.5,995.5C 257.967,996.605 260.134,996.605 262,995.5C 262.374,996.416 262.874,997.25 263.5,998C 265.556,998.311 267.556,998.811 269.5,999.5C 272.977,999.261 276.643,998.761 280.5,998C 279.376,997.751 278.376,997.251 277.5,996.5C 281.167,995.167 284.833,995.167 288.5,996.5C 288.291,997.086 287.957,997.586 287.5,998C 289.433,998.251 291.266,998.751 293,999.5C 293.75,998.874 294.584,998.374 295.5,998C 293.423,997.808 291.423,997.308 289.5,996.5C 292.913,995.177 296.247,995.344 299.5,997C 298.833,997.333 298.167,997.667 297.5,998C 301.178,998.418 304.845,998.918 308.5,999.5C 320.976,998.563 333.309,998.063 345.5,998C 343.616,997.784 341.949,997.117 340.5,996C 344.753,995.8 348.92,995.3 353,994.5C 364.439,995.157 375.939,995.823 387.5,996.5C 385.647,997.76 383.814,997.76 382,996.5C 381.5,997 381,997.5 380.5,998C 384.755,998.796 388.921,998.629 393,997.5C 393.667,998.167 394.333,998.833 395,999.5C 398.346,998.191 401.679,998.191 405,999.5C 406.763,999.025 408.43,998.358 410,997.5C 413.698,999.009 417.365,999.675 421,999.5C 423.122,998.78 423.622,997.613 422.5,996C 431.078,995.818 439.578,995.318 448,994.5C 450.957,995.814 453.79,995.48 456.5,993.5C 457.308,993.808 457.975,994.308 458.5,995C 467.833,995.333 477.167,995.667 486.5,996C 486.043,996.414 485.709,996.914 485.5,997.5C 487.146,998.66 488.979,999.327 491,999.5C 496.51,998.951 502.01,998.285 507.5,997.5C 503.497,997.132 499.164,996.798 494.5,996.5C 502.145,995.335 509.812,995.169 517.5,996C 516.166,997.166 514.5,997.333 512.5,996.5C 510.933,996.477 509.6,996.977 508.5,998C 516.974,999.365 525.641,999.531 534.5,998.5C 534.351,999.552 534.517,1000.55 535,1001.5C 537.858,999.822 541.024,998.822 544.5,998.5C 546.059,999.074 547.559,999.74 549,1000.5C 555.333,999.833 561.667,999.167 568,998.5C 579.886,998.751 592.052,999.085 604.5,999.5C 608.173,999.047 611.84,998.547 615.5,998C 614.04,997.189 613.707,996.355 614.5,995.5C 620.045,995.756 626.045,995.756 632.5,995.5C 632.833,999.5 633.167,999.5 633.5,995.5C 636.045,996.427 638.378,996.427 640.5,995.5C 641.281,996.729 641.781,998.062 642,999.5C 648.631,999.151 655.465,998.485 662.5,997.5C 660.773,996.306 658.94,996.306 657,997.5C 656.5,997 656,996.5 655.5,996C 660.167,995.333 664.833,995.333 669.5,996C 667.956,996.29 666.623,996.956 665.5,998C 668.426,998.218 671.26,998.718 674,999.5C 681.346,998.191 688.679,998.191 696,999.5C 703.807,999.072 711.474,997.739 719,995.5C 721.833,995.667 724.667,995.833 727.5,996C 726.833,996.667 726.167,997.333 725.5,998C 730.454,998.196 735.787,998.863 741.5,1000C 739.065,1001 739.398,1001.5 742.5,1001.5C 746.424,1001.3 746.424,1000.8 742.5,1000C 744.112,999.28 745.612,999.446 747,1000.5C 749.911,998.571 752.745,998.404 755.5,1000C 755.167,1000.33 754.833,1000.67 754.5,1001C 755.448,1001.48 756.448,1001.65 757.5,1001.5C 757.351,1000.45 757.517,999.448 758,998.5C 760.432,999.293 762.766,999.626 765,999.5C 771.085,998.688 777.252,998.188 783.5,998C 781.899,997.727 780.399,997.227 779,996.5C 778.667,996.833 778.333,997.167 778,997.5C 777.409,996.517 777.743,995.85 779,995.5C 782.236,994.926 785.403,995.593 788.5,997.5C 789.308,997.192 789.975,996.692 790.5,996C 794.486,995.501 798.486,995.334 802.5,995.5C 802.5,996.5 802.5,997.5 802.5,998.5C 813.086,998.841 823.586,998.841 834,998.5C 836.734,999.362 836.901,1000.19 834.5,1001C 835,1001.17 835.5,1001.33 836,1001.5C 838.175,1000.37 840.509,999.708 843,999.5C 846.642,1000.16 850.142,1000.16 853.5,999.5C 855.808,999.365 857.808,1000.03 859.5,1001.5C 860.425,1000.36 861.259,1000.36 862,1001.5C 862.667,1000.83 863.333,1000.17 864,999.5C 867.13,1002.11 870.296,1002.11 873.5,999.5C 874.541,1001.99 875.374,1001.99 876,999.5C 876.725,1001.16 877.892,1001.66 879.5,1001C 876.879,1000.09 877.046,999.594 880,999.5C 882.954,999.594 883.121,1000.09 880.5,1001C 882.108,1001.66 883.275,1001.16 884,999.5C 885.444,1001.16 887.278,1001.82 889.5,1001.5C 889.5,1000.5 889.5,999.5 889.5,998.5C 893.395,998.777 897.062,999.11 900.5,999.5C 902.608,999.14 904.608,998.473 906.5,997.5C 905.471,997.704 904.471,997.204 903.5,996C 907.5,995.667 911.5,995.333 915.5,995C 913.099,994.195 913.266,993.362 916,992.5C 917.487,993.253 917.654,994.086 916.5,995C 923.157,995.052 929.99,995.219 937,995.5C 942.58,995.473 947.914,994.806 953,993.5C 955.201,994.996 957.701,995.996 960.5,996.5C 959.494,997.396 959.494,998.062 960.5,998.5C 961.86,994.66 963.36,994.66 965,998.5C 965.401,996.479 966.568,995.145 968.5,994.5C 970.098,995.485 971.765,995.651 973.5,995C 974.641,994.259 974.641,993.425 973.5,992.5C 976.02,989.173 979.02,987.506 982.5,987.5C 981.624,986.749 980.624,986.249 979.5,986C 982.401,984.686 985.401,983.52 988.5,982.5C 987.895,980.519 986.895,980.185 985.5,981.5C 982.891,980.77 980.224,980.27 977.5,980C 978.167,979.333 978.833,978.667 979.5,978C 977.048,977.71 974.715,977.044 972.5,976C 975.5,975.667 978.5,975.333 981.5,975C 983.333,974.5 984.5,973.333 985,971.5C 985.497,974.146 985.664,976.813 985.5,979.5C 987.527,979.338 989.527,979.505 991.5,980C 990.692,980.308 990.025,980.808 989.5,981.5C 990.833,982.5 990.833,983.5 989.5,984.5C 991.353,985.76 993.186,985.76 995,984.5C 997.158,988.392 997.992,988.392 997.5,984.5C 999.012,983.138 1000.51,982.804 1002,983.5C 1002.67,982.5 1002.67,981.5 1002,980.5C 1001.09,981.654 1000.25,981.487 999.5,980C 1000.25,978.513 1001.09,978.346 1002,979.5C 1002.51,977.122 1003.18,974.788 1004,972.5C 1004.67,973.167 1005.33,973.833 1006,974.5C 1006.05,971.139 1007.05,968.139 1009,965.5C 1009.97,967.878 1010.64,967.544 1011,964.5C 1012.89,966.026 1013.89,968.026 1014,970.5C 1014.18,967.044 1014.85,963.711 1016,960.5C 1016.67,968.5 1017.33,968.5 1018,960.5C 1018.33,976.833 1018.67,993.167 1019,1009.5C 1019.33,1006.83 1019.67,1004.17 1020,1001.5C 1020.33,1003.83 1020.67,1006.17 1021,1008.5C 1021.17,988.927 1021.67,969.427 1022.5,950C 1021.55,670.756 1021.22,391.423 1021.5,112C 1021.67,89.1667 1021.83,66.3333 1022,43.5C 1022.19,41.2922 1022.69,39.2922 1023.5,37.5C 1023.5,366.167 1023.5,694.833 1023.5,1023.5C 682.167,1023.5 340.833,1023.5 -0.5,1023.5C -0.5,682.167 -0.5,340.833 -0.5,-0.5 Z"/></g>
<g><path style="opacity:1" fill="#e1f2fd" d="M 1023.5,15.5 C 1023.5,22.8333 1023.5,30.1667 1023.5,37.5C 1022.69,39.2922 1022.19,41.2922 1022,43.5C 1021.83,66.3333 1021.67,89.1667 1021.5,112C 1021.22,391.423 1021.55,670.756 1022.5,950C 1021.67,969.427 1021.17,988.927 1021,1008.5C 1020.67,1006.17 1020.33,1003.83 1020,1001.5C 1019.67,1004.17 1019.33,1006.83 1019,1009.5C 1018.67,993.167 1018.33,976.833 1018,960.5C 1017.33,968.5 1016.67,968.5 1016,960.5C 1014.85,963.711 1014.18,967.044 1014,970.5C 1013.89,968.026 1012.89,966.026 1011,964.5C 1010.64,967.544 1009.97,967.878 1009,965.5C 1007.05,968.139 1006.05,971.139 1006,974.5C 1005.33,973.833 1004.67,973.167 1004,972.5C 1003.18,974.788 1002.51,977.122 1002,979.5C 1001.09,978.346 1000.25,978.513 999.5,980C 1000.25,981.487 1001.09,981.654 1002,980.5C 1002.67,981.5 1002.67,982.5 1002,983.5C 1000.51,982.804 999.012,983.138 997.5,984.5C 997.992,988.392 997.158,988.392 995,984.5C 993.186,985.76 991.353,985.76 989.5,984.5C 990.833,983.5 990.833,982.5 989.5,981.5C 990.025,980.808 990.692,980.308 991.5,980C 989.527,979.505 987.527,979.338 985.5,979.5C 985.664,976.813 985.497,974.146 985,971.5C 984.5,973.333 983.333,974.5 981.5,975C 978.5,975.333 975.5,975.667 972.5,976C 974.715,977.044 977.048,977.71 979.5,978C 978.833,978.667 978.167,979.333 977.5,980C 980.224,980.27 982.891,980.77 985.5,981.5C 986.895,980.185 987.895,980.519 988.5,982.5C 985.401,983.52 982.401,984.686 979.5,986C 980.624,986.249 981.624,986.749 982.5,987.5C 979.02,987.506 976.02,989.173 973.5,992.5C 974.641,993.425 974.641,994.259 973.5,995C 971.765,995.651 970.098,995.485 968.5,994.5C 966.568,995.145 965.401,996.479 965,998.5C 963.36,994.66 961.86,994.66 960.5,998.5C 959.494,998.062 959.494,997.396 960.5,996.5C 957.701,995.996 955.201,994.996 953,993.5C 947.914,994.806 942.58,995.473 937,995.5C 929.99,995.219 923.157,995.052 916.5,995C 917.654,994.086 917.487,993.253 916,992.5C 913.266,993.362 913.099,994.195 915.5,995C 911.5,995.333 907.5,995.667 903.5,996C 904.471,997.204 905.471,997.704 906.5,997.5C 904.608,998.473 902.608,999.14 900.5,999.5C 897.062,999.11 893.395,998.777 889.5,998.5C 889.5,999.5 889.5,1000.5 889.5,1001.5C 887.278,1001.82 885.444,1001.16 884,999.5C 883.275,1001.16 882.108,1001.66 880.5,1001C 883.121,1000.09 882.954,999.594 880,999.5C 877.046,999.594 876.879,1000.09 879.5,1001C 877.892,1001.66 876.725,1001.16 876,999.5C 875.374,1001.99 874.541,1001.99 873.5,999.5C 870.296,1002.11 867.13,1002.11 864,999.5C 863.333,1000.17 862.667,1000.83 862,1001.5C 861.259,1000.36 860.425,1000.36 859.5,1001.5C 857.808,1000.03 855.808,999.365 853.5,999.5C 850.142,1000.16 846.642,1000.16 843,999.5C 840.509,999.708 838.175,1000.37 836,1001.5C 835.5,1001.33 835,1001.17 834.5,1001C 836.901,1000.19 836.734,999.362 834,998.5C 823.586,998.841 813.086,998.841 802.5,998.5C 802.5,997.5 802.5,996.5 802.5,995.5C 798.486,995.334 794.486,995.501 790.5,996C 789.975,996.692 789.308,997.192 788.5,997.5C 785.403,995.593 782.236,994.926 779,995.5C 777.743,995.85 777.409,996.517 778,997.5C 778.333,997.167 778.667,996.833 779,996.5C 780.399,997.227 781.899,997.727 783.5,998C 777.252,998.188 771.085,998.688 765,999.5C 762.766,999.626 760.432,999.293 758,998.5C 757.517,999.448 757.351,1000.45 757.5,1001.5C 756.448,1001.65 755.448,1001.48 754.5,1001C 754.833,1000.67 755.167,1000.33 755.5,1000C 752.745,998.404 749.911,998.571 747,1000.5C 745.612,999.446 744.112,999.28 742.5,1000C 746.424,1000.8 746.424,1001.3 742.5,1001.5C 739.398,1001.5 739.065,1001 741.5,1000C 735.787,998.863 730.454,998.196 725.5,998C 726.167,997.333 726.833,996.667 727.5,996C 724.667,995.833 721.833,995.667 719,995.5C 711.474,997.739 703.807,999.072 696,999.5C 688.679,998.191 681.346,998.191 674,999.5C 671.26,998.718 668.426,998.218 665.5,998C 666.623,996.956 667.956,996.29 669.5,996C 664.833,995.333 660.167,995.333 655.5,996C 656,996.5 656.5,997 657,997.5C 658.94,996.306 660.773,996.306 662.5,997.5C 655.465,998.485 648.631,999.151 642,999.5C 641.781,998.062 641.281,996.729 640.5,995.5C 638.378,996.427 636.045,996.427 633.5,995.5C 633.167,999.5 632.833,999.5 632.5,995.5C 626.045,995.756 620.045,995.756 614.5,995.5C 613.707,996.355 614.04,997.189 615.5,998C 611.84,998.547 608.173,999.047 604.5,999.5C 592.052,999.085 579.886,998.751 568,998.5C 561.667,999.167 555.333,999.833 549,1000.5C 547.559,999.74 546.059,999.074 544.5,998.5C 541.024,998.822 537.858,999.822 535,1001.5C 534.517,1000.55 534.351,999.552 534.5,998.5C 525.641,999.531 516.974,999.365 508.5,998C 509.6,996.977 510.933,996.477 512.5,996.5C 514.5,997.333 516.166,997.166 517.5,996C 509.812,995.169 502.145,995.335 494.5,996.5C 499.164,996.798 503.497,997.132 507.5,997.5C 502.01,998.285 496.51,998.951 491,999.5C 488.979,999.327 487.146,998.66 485.5,997.5C 485.709,996.914 486.043,996.414 486.5,996C 477.167,995.667 467.833,995.333 458.5,995C 457.975,994.308 457.308,993.808 456.5,993.5C 453.79,995.48 450.957,995.814 448,994.5C 439.578,995.318 431.078,995.818 422.5,996C 423.622,997.613 423.122,998.78 421,999.5C 417.365,999.675 413.698,999.009 410,997.5C 408.43,998.358 406.763,999.025 405,999.5C 401.679,998.191 398.346,998.191 395,999.5C 394.333,998.833 393.667,998.167 393,997.5C 388.921,998.629 384.755,998.796 380.5,998C 381,997.5 381.5,997 382,996.5C 383.814,997.76 385.647,997.76 387.5,996.5C 375.939,995.823 364.439,995.157 353,994.5C 348.92,995.3 344.753,995.8 340.5,996C 341.949,997.117 343.616,997.784 345.5,998C 333.309,998.063 320.976,998.563 308.5,999.5C 304.845,998.918 301.178,998.418 297.5,998C 298.167,997.667 298.833,997.333 299.5,997C 296.247,995.344 292.913,995.177 289.5,996.5C 291.423,997.308 293.423,997.808 295.5,998C 294.584,998.374 293.75,998.874 293,999.5C 291.266,998.751 289.433,998.251 287.5,998C 287.957,997.586 288.291,997.086 288.5,996.5C 284.833,995.167 281.167,995.167 277.5,996.5C 278.376,997.251 279.376,997.751 280.5,998C 276.643,998.761 272.977,999.261 269.5,999.5C 267.556,998.811 265.556,998.311 263.5,998C 262.874,997.25 262.374,996.416 262,995.5C 260.134,996.605 257.967,996.605 255.5,995.5C 253.933,995.477 252.6,995.977 251.5,997C 253.127,996.57 254.627,996.404 256,996.5C 256.5,997 257,997.5 257.5,998C 255.782,998.346 254.115,998.846 252.5,999.5C 247.849,998.436 243.016,998.436 238,999.5C 235.26,998.718 232.426,998.218 229.5,998C 229.957,997.586 230.291,997.086 230.5,996.5C 218.5,995.167 206.5,995.167 194.5,996.5C 198.851,996.535 203.184,996.535 207.5,996.5C 208.5,997 209.5,997.5 210.5,998C 197.45,998.536 184.617,999.036 172,999.5C 169.72,998.914 167.553,998.08 165.5,997C 166.899,996.405 168.232,996.572 169.5,997.5C 170.5,997 171.5,996.5 172.5,996C 165.919,995.813 159.419,995.313 153,994.5C 151.094,995.131 149.094,995.464 147,995.5C 144.698,995.4 142.698,994.733 141,993.5C 140.667,994.167 140.333,994.833 140,995.5C 135.592,992.777 130.926,990.777 126,989.5C 125.353,994.074 123.686,994.074 121,989.5C 119.302,990.733 117.302,991.4 115,991.5C 113.167,991.333 111.333,991.167 109.5,991C 111.901,990.195 111.734,989.362 109,988.5C 106.501,989.798 104.167,989.464 102,987.5C 97.0495,988.359 92.2161,989.525 87.5,991C 91.2691,991.766 91.1024,992.599 87,993.5C 84.9223,992.057 84.0889,992.724 84.5,995.5C 81.8127,995.664 79.146,995.497 76.5,995C 77.1667,994.667 77.8333,994.333 78.5,994C 77.2713,993.219 75.938,992.719 74.5,992.5C 72.2919,993.272 72.6253,994.105 75.5,995C 72.3033,995.987 69.4699,995.487 67,993.5C 66.6667,993.833 66.3333,994.167 66,994.5C 64.7964,993.529 64.2964,992.529 64.5,991.5C 63.5224,991.977 62.6891,992.643 62,993.5C 60.0177,992.906 58.1844,991.74 56.5,990C 51.857,989.17 47.1903,988.503 42.5,988C 42.8333,987.667 43.1667,987.333 43.5,987C 41.7795,986.261 40.1128,985.427 38.5,984.5C 39.8368,984.26 41.5035,983.76 43.5,983C 42.376,982.751 41.376,982.251 40.5,981.5C 42.9913,980.459 42.9913,979.626 40.5,979C 42.2464,978.529 43.913,977.862 45.5,977C 44.4642,975.383 43.2975,975.216 42,976.5C 39.1294,974.681 37.2961,972.514 36.5,970C 37.448,969.517 38.448,969.351 39.5,969.5C 38.8641,966.894 38.8641,964.394 39.5,962C 38.8333,961.667 38.1667,961.333 37.5,961C 37.1119,959.475 37.1119,957.808 37.5,956C 36.3279,955.581 35.3279,954.915 34.5,954C 35.5762,952.274 35.7429,950.441 35,948.5C 31.6676,946.557 31.8342,945.39 35.5,945C 35.0183,943.992 34.8516,942.825 35,941.5C 34.3457,942.696 33.8457,942.696 33.5,941.5C 35.2759,940.685 35.9426,939.518 35.5,938C 33.627,936.915 31.9603,935.582 30.5,934C 31.1667,933.667 31.8333,933.333 32.5,933C 30.7254,931.561 28.7254,930.561 26.5,930C 27.2123,928.575 27.379,927.075 27,925.5C 28.0437,926.623 28.7104,927.956 29,929.5C 29.3095,928.234 29.8095,927.067 30.5,926C 29.7539,923.907 29.4205,921.907 29.5,920C 31.9913,919.374 31.9913,918.541 29.5,917.5C 30.8549,916.325 30.6883,915.325 29,914.5C 28.5814,915.672 27.9147,916.672 27,917.5C 26.7883,914.242 26.2883,911.076 25.5,908C 26.067,905.493 26.4003,902.993 26.5,900.5C 25.9747,899.808 25.3081,899.308 24.5,899C 25.3081,898.692 25.9747,898.192 26.5,897.5C 27.0891,895.627 26.4224,893.96 24.5,892.5C 25.1667,891.167 25.8333,889.833 26.5,888.5C 25.3318,887.094 25.6652,885.928 27.5,885C 26.9491,883.602 26.6158,882.268 26.5,881C 27.448,880.517 28.448,880.351 29.5,880.5C 29.2865,878.856 29.6198,877.356 30.5,876C 29.7734,874.601 29.2734,873.101 29,871.5C 28.7508,872.624 28.2508,873.624 27.5,874.5C 27.4361,873.635 27.1027,872.635 26.5,871.5C 28.5673,871.07 30.234,869.57 31.5,867C 30.8333,866.333 30.1667,865.667 29.5,865C 32.5867,861.118 31.5867,859.284 26.5,859.5C 26.6703,855.323 26.8369,850.989 27,846.5C 28.0495,847.517 29.2161,847.684 30.5,847C 27.5211,845.388 26.1878,842.888 26.5,839.5C 30.5,839.167 30.5,838.833 26.5,838.5C 26.1245,830.684 26.1245,823.017 26.5,815.5C 27.552,815.649 28.552,815.483 29.5,815C 26.9384,813.732 26.2717,811.898 27.5,809.5C 31.7365,811.573 32.4031,810.406 29.5,806C 30.6721,805.581 31.6721,804.915 32.5,804C 31.6217,801.41 31.6217,799.077 32.5,797C 30.1965,795.115 29.0299,792.615 29,789.5C 28.6827,791.301 28.016,791.634 27,790.5C 26.6038,783.994 26.4371,777.66 26.5,771.5C 27.376,770.749 28.376,770.249 29.5,770C 29.6225,768.211 29.6225,766.378 29.5,764.5C 29.968,762.866 30.968,761.7 32.5,761C 31.228,756.445 31.8947,752.112 34.5,748C 33.6919,747.692 33.0253,747.192 32.5,746.5C 36.0248,743.463 36.3581,740.13 33.5,736.5C 34.0253,735.808 34.6919,735.308 35.5,735C 34.0267,734.29 33.3601,733.124 33.5,731.5C 29.5443,730.947 29.5443,730.114 33.5,729C 32.3279,728.581 31.3279,727.915 30.5,727C 31.4581,725.853 31.1247,724.853 29.5,724C 33.0822,723.405 33.4155,722.071 30.5,720C 30.8333,719.667 31.1667,719.333 31.5,719C 29.9411,718.02 28.2744,717.187 26.5,716.5C 27.7185,716.891 28.5518,716.224 29,714.5C 29.3333,714.833 29.6667,715.167 30,715.5C 30.6838,714.216 30.5171,713.049 29.5,712C 31.3008,711.683 31.6341,711.016 30.5,710C 31.1667,706.667 31.8333,703.333 32.5,700C 29.3323,699.418 28.999,698.418 31.5,697C 30.3816,695.926 29.3816,694.76 28.5,693.5C 27.8076,694.025 27.3076,694.692 27,695.5C 26.51,694.207 26.3433,692.873 26.5,691.5C 30.5,691.167 30.5,690.833 26.5,690.5C 26.3398,688.801 26.5065,687.134 27,685.5C 27.6667,682.833 28.3333,682.833 29,685.5C 29.6838,684.216 29.5171,683.049 28.5,682C 29.1667,681.667 29.8333,681.333 30.5,681C 29.2068,680.51 27.8734,680.343 26.5,680.5C 25.3962,670.947 25.3962,661.78 26.5,653C 23.9557,651.437 23.9557,649.937 26.5,648.5C 25.5853,647.672 24.9186,646.672 24.5,645.5C 25.5522,643.777 25.5522,642.11 24.5,640.5C 26.6791,638.717 26.6791,636.717 24.5,634.5C 24.4175,627.007 24.5842,619.341 25,611.5C 26.0175,608.361 26.8508,605.195 27.5,602C 26.9781,601.439 26.6448,600.772 26.5,600C 28.8622,595.535 30.8622,591.202 32.5,587C 29.0536,585.037 29.0536,583.704 32.5,583C 31.1667,582.333 31.1667,581.667 32.5,581C 29.0352,580.066 28.7019,578.566 31.5,576.5C 29.9547,575.548 28.288,575.215 26.5,575.5C 26.1834,566.915 26.5168,558.415 27.5,550C 26.6911,544.583 26.1911,539.083 26,533.5C 23.9851,531.522 24.1517,529.688 26.5,528C 26,527.5 25.5,527 25,526.5C 24.6667,523.833 24.3333,521.167 24,518.5C 23.6667,521.5 23.3333,524.5 23,527.5C 22.3333,512.833 21.6667,512.833 21,527.5C 20.6667,521.167 20.3333,514.833 20,508.5C 19.6667,511.833 19.3333,515.167 19,518.5C 18.6667,514.167 18.3333,509.833 18,505.5C 17.6667,511.5 17.3333,517.5 17,523.5C 16.8089,517.917 16.3089,512.417 15.5,507C 15.8333,506.667 16.1667,506.333 16.5,506C 15.2799,504.475 14.6132,502.641 14.5,500.5C 15.002,497.991 15.002,495.658 14.5,493.5C 16.1022,490.763 16.9355,487.763 17,484.5C 17.3333,486.833 17.6667,489.167 18,491.5C 18.5306,487.759 19.5306,484.759 21,482.5C 21.3333,483.5 21.6667,484.5 22,485.5C 22.6667,481.5 23.3333,481.5 24,485.5C 24.2501,482.15 25.0835,478.983 26.5,476C 25.9983,468.828 25.9983,461.828 26.5,455C 25.8742,454.25 25.3742,453.416 25,452.5C 24.6667,447.833 24.3333,443.167 24,438.5C 23.6667,442.5 23.3333,446.5 23,450.5C 22.3333,442.167 22.3333,433.833 23,425.5C 23.3333,427.833 23.6667,430.167 24,432.5C 23.935,426.287 24.7683,420.287 26.5,414.5C 23.9199,412.287 23.9199,410.12 26.5,408C 23.8333,407.333 23.8333,406.667 26.5,406C 25.528,397.373 25.1946,388.039 25.5,378C 26.1667,377 26.8333,376 27.5,375C 26.773,372.016 25.773,369.016 24.5,366C 25.428,365.612 26.0946,364.945 26.5,364C 25.2444,358.971 24.5778,353.805 24.5,348.5C 24.531,343.415 25.1977,338.582 26.5,334C 24.9409,332.004 24.2742,329.671 24.5,327C 24.6101,319.171 24.6101,311.338 24.5,303.5C 24.5738,300.713 25.2405,298.213 26.5,296C 24.7815,292.49 23.9481,288.656 24,284.5C 23.6667,288.167 23.3333,291.833 23,295.5C 22.6667,292.167 22.3333,288.833 22,285.5C 21.6667,286.833 21.3333,288.167 21,289.5C 20.3333,280.833 20.3333,272.167 21,263.5C 21.3333,267.167 21.6667,270.833 22,274.5C 22.3333,268.167 22.6667,261.833 23,255.5C 23.3333,256.833 23.6667,258.167 24,259.5C 23.9789,255.991 24.8122,252.825 26.5,250C 25.7295,247.393 25.0629,244.727 24.5,242C 24.6448,241.228 24.9781,240.561 25.5,240C 24.7069,236.589 24.2069,233.089 24,229.5C 23.6667,232.833 23.3333,236.167 23,239.5C 22.6667,228.833 22.3333,218.167 22,207.5C 21.6667,209.833 21.3333,212.167 21,214.5C 20.3333,206.833 20.3333,199.167 21,191.5C 21.3333,194.5 21.6667,197.5 22,200.5C 22.3333,195.833 22.6667,191.167 23,186.5C 23.3333,188.167 23.6667,189.833 24,191.5C 24.2868,189.109 24.7868,186.776 25.5,184.5C 25.0856,181.968 24.7523,179.468 24.5,177C 25.3567,176.311 26.0233,175.478 26.5,174.5C 23.972,173.483 23.972,172.316 26.5,171C 24.3404,167.788 24.3404,164.288 26.5,160.5C 23.972,159.483 23.972,158.316 26.5,157C 25.3595,156.259 25.3595,155.425 26.5,154.5C 26.0233,153.522 25.3567,152.689 24.5,152C 25.0023,145.008 25.0023,137.508 24.5,129.5C 25.1667,128.5 25.8333,127.5 26.5,126.5C 25.1667,125.167 25.1667,123.833 26.5,122.5C 25.9747,121.808 25.3081,121.308 24.5,121C 25.2808,118.478 25.6141,115.811 25.5,113C 24.8095,111.933 24.3095,110.766 24,109.5C 23.6667,110.167 23.3333,110.833 23,111.5C 22.6667,108.5 22.3333,105.5 22,102.5C 21.6667,103.833 21.3333,105.167 21,106.5C 20.3333,100.5 20.3333,94.5 21,88.5C 21.3333,92.8333 21.6667,97.1667 22,101.5C 22.3333,101.167 22.6667,100.833 23,100.5C 23.3333,102.167 23.6667,103.833 24,105.5C 24.1667,104.5 24.3333,103.5 24.5,102.5C 23.347,97.7505 22.6804,92.9172 22.5,88C 23.4291,82.1924 23.9291,76.0257 24,69.5C 23.6667,71.5 23.3333,73.5 23,75.5C 22.6667,71.5 22.3333,67.5 22,63.5C 21.6667,69.8333 21.3333,76.1667 21,82.5C 20.8333,75.3333 20.6667,68.1667 20.5,61C 20.5341,53.3337 21.2008,45.8337 22.5,38.5C 21.7528,38.2635 20.9195,37.9302 20,37.5C 19.1872,45.1672 18.5205,44.8339 18,36.5C 17.6667,40.5 17.3333,44.5 17,48.5C 17.0631,44.0182 16.2297,39.8515 14.5,36C 15.6841,34.8197 16.3507,33.3197 16.5,31.5C 16.3507,29.6803 15.6841,28.1803 14.5,27C 16.1225,23.58 17.1225,19.9133 17.5,16C 16.364,14.4702 15.364,13.1369 14.5,12C 15.1667,10 16.5,8.66667 18.5,8C 17.8333,7.66667 17.1667,7.33333 16.5,7C 19.6693,6.02185 22.5027,6.52185 25,8.5C 25.5,7.33333 26.3333,6.5 27.5,6C 25.567,5.74888 23.7337,5.24888 22,4.5C 20.7318,4.61581 19.3985,4.94915 18,5.5C 17.5172,4.55198 17.3505,3.55198 17.5,2.5C 13.1539,2.33432 8.82056,2.50098 4.5,3C 4.95735,3.41395 5.29069,3.91395 5.5,4.5C 3.16922,6.61736 2.00255,9.28403 2,12.5C 1.41692,8.5966 0.916924,4.92993 0.5,1.5C 341.166,0.333334 681.833,0.166668 1022.5,1C 1020.59,5.25955 1020.42,9.75955 1022,14.5C 1022.38,15.056 1022.88,15.3893 1023.5,15.5 Z"/></g>
<g><path style="opacity:1" fill="#2c3543" d="M 497.5,354.5 C 529.756,351.262 557.923,360.262 582,381.5C 586.575,376.254 591.742,371.754 597.5,368C 607.961,366.9 613.961,371.567 615.5,382C 615.385,384.732 614.552,387.232 613,389.5C 597.833,404.667 582.667,419.833 567.5,435C 560.401,438.843 553.901,438.01 548,432.5C 543.853,426.676 543.52,420.676 547,414.5C 552.348,409.319 557.515,403.985 562.5,398.5C 528.02,373.381 493.353,373.214 458.5,398C 435.277,416.943 422.443,441.443 420,471.5C 410.795,479.301 403.462,477.968 398,467.5C 398.65,434.365 411.15,406.532 435.5,384C 453.24,367.963 473.907,358.129 497.5,354.5 Z"/></g>
<g><path style="opacity:1" fill="#2d3745" d="M 607.5,428.5 C 611.747,428.178 615.747,429.011 619.5,431C 625.338,438.165 628.171,446.332 628,455.5C 622.837,463.736 616.003,465.569 607.5,461C 602.572,453.552 600.072,445.386 600,436.5C 602.028,433.308 604.528,430.641 607.5,428.5 Z"/></g>
<g><path style="opacity:1" fill="#2c3644" d="M 409.5,491.5 C 414.121,490.993 418.454,491.826 422.5,494C 428.013,500.179 430.846,507.346 431,515.5C 425.929,524.447 418.762,526.613 409.5,522C 407.206,517.912 405.039,513.745 403,509.5C 399.423,501.254 401.589,495.254 409.5,491.5 Z"/></g>
<g><path style="opacity:1" fill="#2b3543" d="M 610.5,478.5 C 618.514,476.761 624.347,479.428 628,486.5C 628.624,491.223 628.29,495.89 627,500.5C 607.432,561.365 565.599,589.865 501.5,586C 484.509,582.667 469.176,575.834 455.5,565.5C 451.682,568.818 448.015,572.318 444.5,576C 435.695,583.783 427.529,583.283 420,574.5C 418.068,569.806 418.068,565.139 420,560.5C 437.167,544 454.333,527.5 471.5,511C 482.915,509.705 489.582,514.705 491.5,526C 491.385,528.732 490.552,531.232 489,533.5C 484.492,537.877 479.992,542.21 475.5,546.5C 489.673,558.277 506.007,563.11 524.5,561C 559.206,557.227 583.706,539.393 598,507.5C 600.379,500.607 602.379,493.607 604,486.5C 605.305,483.039 607.471,480.372 610.5,478.5 Z"/></g>
<g><path style="opacity:1" fill="#2b3747" d="M 451.5,623.5 C 447.03,622.514 442.363,622.181 437.5,622.5C 437.17,638.342 437.504,654.009 438.5,669.5C 434.274,675.028 430.44,674.694 427,668.5C 426.5,653.837 426.333,639.17 426.5,624.5C 421.821,624.666 417.155,624.499 412.5,624C 406.401,620.324 406.068,616.324 411.5,612C 425.167,611.333 438.833,611.333 452.5,612C 457.992,614.942 458.658,618.609 454.5,623C 453.552,623.483 452.552,623.649 451.5,623.5 Z"/></g>
<g><path style="opacity:1" fill="#32404f" d="M 368.5,606.5 C 372.888,605.943 376.055,607.61 378,611.5C 378.667,629.833 378.667,648.167 378,666.5C 377.679,670.821 375.345,673.155 371,673.5C 368.849,673.357 367.182,672.357 366,670.5C 364.487,650.858 364.153,631.191 365,611.5C 365.997,609.677 367.164,608.01 368.5,606.5 Z"/></g>
<g><path style="opacity:1" fill="#293343" d="M 390.5,606.5 C 393.652,605.959 396.152,606.959 398,609.5C 398.667,629.833 398.667,650.167 398,670.5C 394.021,674.644 390.355,674.31 387,669.5C 386.333,649.833 386.333,630.167 387,610.5C 387.69,608.65 388.856,607.316 390.5,606.5 Z"/></g>
<g><path style="opacity:1" fill="#2d3744" d="M 466.5,629.5 C 488.849,628.346 497.682,638.679 493,660.5C 485.48,672.118 475.313,675.284 462.5,670C 450.628,661.203 448.461,650.369 456,637.5C 459.299,634.449 462.799,631.782 466.5,629.5 Z"/></g>
<g><path style="opacity:1" fill="#2a3643" d="M 635.5,628.5 C 642.718,627.566 646.218,630.566 646,637.5C 644.478,640.224 642.311,642.224 639.5,643.5C 633.346,641.16 629.513,643.16 628,649.5C 627.667,656.5 627.333,663.5 627,670.5C 622.498,674.867 618.832,674.201 616,668.5C 615.333,656.5 615.333,644.5 616,632.5C 617.128,630.01 619.128,629.01 622,629.5C 625.089,629.114 627.589,630.114 629.5,632.5C 631.565,631.143 633.565,629.81 635.5,628.5 Z"/></g>
<g><path style="opacity:1" fill="#2a3542" d="M 657.5,629.5 C 672.685,627.536 681.351,634.036 683.5,649C 683.695,651.352 683.028,653.352 681.5,655C 672.833,655.333 664.167,655.667 655.5,656C 657.704,659.102 660.704,660.602 664.5,660.5C 668.276,659.579 671.942,658.745 675.5,658C 681.172,662.931 680.839,667.265 674.5,671C 662.155,675.218 652.322,672.051 645,661.5C 639.478,646.908 643.645,636.241 657.5,629.5 Z"/></g>
<g><path style="opacity:1" fill="#2d3845" d="M 721.5,606.5 C 725.684,605.704 728.85,607.037 731,610.5C 731.169,617.524 731.669,624.524 732.5,631.5C 744.956,626.317 753.456,629.983 758,642.5C 758.667,651.5 758.667,660.5 758,669.5C 754.74,674.285 751.073,674.619 747,670.5C 745.73,662.603 745.063,654.603 745,646.5C 740.667,639.833 736.333,639.833 732,646.5C 731.937,654.603 731.27,662.603 730,670.5C 726.021,674.644 722.355,674.31 719,669.5C 718.333,649.833 718.333,630.167 719,610.5C 719.662,609.016 720.496,607.683 721.5,606.5 Z"/></g>
<g><path style="opacity:1" fill="#293644" d="M 600.5,607.5 C 604.182,607.335 607.848,607.501 611.5,608C 617.661,610.929 618.661,614.929 614.5,620C 606.602,618.053 602.602,621.22 602.5,629.5C 610.774,628.436 613.44,631.769 610.5,639.5C 607.914,640.48 605.247,640.813 602.5,640.5C 602.666,649.839 602.5,659.173 602,668.5C 600.713,672.729 597.88,674.229 593.5,673C 591.513,671.681 590.346,669.848 590,667.5C 589.5,658.506 589.334,649.506 589.5,640.5C 584.61,641.113 581.944,638.946 581.5,634C 582.532,629.972 585.199,628.138 589.5,628.5C 588.724,619.048 592.391,612.048 600.5,607.5 Z"/></g>
<g><path style="opacity:1" fill="#2a3543" d="M 559.5,628.5 C 576.101,629.271 583.434,637.771 581.5,654C 573.221,655.075 564.887,655.908 556.5,656.5C 557.949,659.778 560.449,661.112 564,660.5C 567.4,660.63 570.4,659.63 573,657.5C 582.152,663.759 581.318,668.592 570.5,672C 557.421,674.587 548.254,669.754 543,657.5C 540.784,643.25 546.284,633.583 559.5,628.5 Z"/></g>
<g><path style="opacity:1" fill="#e2ecf7" d="M 560.5,640.5 C 564.688,640.094 568.021,641.594 570.5,645C 565.798,645.828 561.131,645.662 556.5,644.5C 557.549,642.784 558.882,641.451 560.5,640.5 Z"/></g>
<g><path style="opacity:1" fill="#08191c" d="M 451.5,623.5 C 447.167,623.5 442.833,623.5 438.5,623.5C 438.5,638.167 438.5,652.833 438.5,667.5C 438.5,668.167 438.5,668.833 438.5,669.5C 437.504,654.009 437.17,638.342 437.5,622.5C 442.363,622.181 447.03,622.514 451.5,623.5 Z"/></g>
<g><path style="opacity:1" fill="#e3effa" d="M 470.5,641.5 C 475.925,641.071 479.758,643.404 482,648.5C 482.802,657.031 478.969,660.865 470.5,660C 464.831,657.185 462.998,652.685 465,646.5C 466.73,644.598 468.563,642.931 470.5,641.5 Z"/></g>
<g><path style="opacity:1" fill="#edf2f9" d="M 661.5,640.5 C 665.688,640.094 669.021,641.594 671.5,645C 666.167,645.667 660.833,645.667 655.5,645C 657.389,643.236 659.389,641.736 661.5,640.5 Z"/></g>
<g><path style="opacity:1" fill="#2f3946" d="M 504.5,611.5 C 512.903,611.13 521.236,611.63 529.5,613C 540.527,618.22 544.694,626.72 542,638.5C 539.442,642.373 536.942,646.206 534.5,650C 536.869,655.382 539.702,660.549 543,665.5C 543.621,671.878 540.788,674.378 534.5,673C 529.5,666.667 524.5,660.333 519.5,654C 517.19,653.503 514.857,653.337 512.5,653.5C 512.666,659.176 512.499,664.843 512,670.5C 505.524,675.269 501.524,673.603 500,665.5C 499.333,649.167 499.333,632.833 500,616.5C 501.025,614.313 502.525,612.646 504.5,611.5 Z"/></g>
<g><path style="opacity:1" fill="#dbe9f6" d="M 513.5,624.5 C 517.967,624.133 522.3,624.633 526.5,626C 532.133,631.487 531.466,636.154 524.5,640C 520.775,640.76 517.108,640.593 513.5,639.5C 512.904,634.551 512.904,629.551 513.5,624.5 Z"/></g>
<g><path style="opacity:1" fill="#758d8f" d="M 451.5,623.5 C 447.702,624.483 443.702,624.817 439.5,624.5C 439.829,639.01 439.496,653.343 438.5,667.5C 438.5,652.833 438.5,638.167 438.5,623.5C 442.833,623.5 447.167,623.5 451.5,623.5 Z"/></g>
<g><path style="opacity:1" fill="#2c3845" d="M 318.5,629.5 C 321.97,628.875 324.804,629.875 327,632.5C 327.093,640.909 327.76,649.243 329,657.5C 334.471,662.666 339.471,661.999 344,655.5C 344.333,647.5 344.667,639.5 345,631.5C 348.943,628.634 352.61,628.968 356,632.5C 356.667,644.5 356.667,656.5 356,668.5C 352.513,674.285 348.18,674.952 343,670.5C 330.556,675.915 321.556,672.582 316,660.5C 315.333,651.167 315.333,641.833 316,632.5C 317.045,631.627 317.878,630.627 318.5,629.5 Z"/></g>
<g><path style="opacity:1" fill="#2a3542" d="M 697.5,628.5 C 704.476,627.929 710.142,630.263 714.5,635.5C 712.247,642.798 707.747,644.465 701,640.5C 697.251,641.077 696.751,642.577 699.5,645C 717.106,648.851 720.106,657.518 708.5,671C 701.665,673.268 694.998,672.935 688.5,670C 683.34,666.431 683.34,662.764 688.5,659C 689.833,658.333 691.167,658.333 692.5,659C 695.605,661.964 698.772,662.13 702,659.5C 702.483,658.552 702.649,657.552 702.5,656.5C 687.96,656.023 682.793,649.023 687,635.5C 689.998,632.262 693.498,629.929 697.5,628.5 Z"/></g>
<g><path style="opacity:1" fill="#2e3845" d="M 292.5,653.5 C 289.167,653.5 285.833,653.5 282.5,653.5C 282.5,658.167 282.5,662.833 282.5,667.5C 281.707,672.776 278.707,674.609 273.5,673C 272.299,672.097 271.465,670.931 271,669.5C 270.333,651.5 270.333,633.5 271,615.5C 272.167,614.333 273.333,613.167 274.5,612C 284.476,610.599 294.142,611.599 303.5,615C 312.512,622.299 315.012,631.466 311,642.5C 306.903,649.633 300.736,653.299 292.5,653.5 Z"/></g>
<g><path style="opacity:1" fill="#e2effa" d="M 283.5,624.5 C 287.967,624.133 292.3,624.633 296.5,626C 299.428,629.257 300.262,633.091 299,637.5C 294.909,641.305 290.076,642.472 284.5,641C 283.527,635.593 283.193,630.093 283.5,624.5 Z"/></g>
<g><path style="opacity:1" fill="#7f97a3" d="M 292.5,653.5 C 289.713,654.477 286.713,654.81 283.5,654.5C 283.818,659.032 283.485,663.366 282.5,667.5C 282.5,662.833 282.5,658.167 282.5,653.5C 285.833,653.5 289.167,653.5 292.5,653.5 Z"/></g>
</svg>
