<?xml version="1.0" encoding="UTF-8"?>
<!DOCTYPE svg PUBLIC "-//W3C//DTD SVG 1.1//EN" "http://www.w3.org/Graphics/SVG/1.1/DTD/svg11.dtd">
<svg xmlns="http://www.w3.org/2000/svg" version="1.1" width="1024px" height="1024px" style="shape-rendering:geometricPrecision; text-rendering:geometricPrecision; image-rendering:optimizeQuality; fill-rule:evenodd; clip-rule:evenodd" xmlns:xlink="http://www.w3.org/1999/xlink">
<g><path style="opacity:1" fill="#ebf7fe" d="M -0.5,-0.5 C 340.833,-0.5 682.167,-0.5 1023.5,-0.5C 1023.5,339.833 1023.5,680.167 1023.5,1020.5C 1022.71,1020.78 1022.04,1021.28 1021.5,1022C 683.167,1022.5 344.833,1022.67 6.5,1022.5C 7.7898,1021.07 9.45647,1020.07 11.5,1019.5C 10.3118,1019.69 8.97849,1019.19 7.5,1018C 11.0016,1017.34 11.0016,1016.01 7.5,1014C 8.37573,1012.42 9.70906,1011.42 11.5,1011C 11.7375,1008.48 11.4042,1005.81 10.5,1003C 11.7702,997.815 13.1035,992.649 14.5,987.5C 12.4721,982.555 12.6387,977.889 15,973.5C 15.1667,970.833 15.3333,968.167 15.5,965.5C 13.9205,943.229 12.5871,920.229 11.5,896.5C 12.8731,883.704 13.5398,870.871 13.5,858C 12.4348,838.793 12.4348,819.793 13.5,801C 11.2282,776.713 11.5616,752.713 14.5,729C 13.5309,722.417 12.8642,715.75 12.5,709C 12.8486,613.937 13.1819,518.104 13.5,421.5C 12.9346,406.995 12.2679,392.495 11.5,378C 12.0858,371.157 12.7525,364.324 13.5,357.5C 12.177,337.275 12.177,317.109 13.5,297C 12.1765,269.863 11.5098,243.529 11.5,218C 12.2715,209.231 12.9382,200.397 13.5,191.5C 12.1709,168.948 12.5042,146.281 14.5,123.5C 13.6406,120.037 12.974,116.537 12.5,113C 12.7047,89.164 13.038,65.4973 13.5,42C 12.5,37 11.5,32 10.5,27C 10.8333,26.6667 11.1667,26.3333 11.5,26C 10.572,25.6121 9.90536,24.9454 9.5,24C 11.9627,18.0543 13.296,12.221 13.5,6.5C 11.5275,4.67869 9.19417,4.51203 6.5,6C 4.74096,7.00803 3.57429,8.50803 3,10.5C 2.66667,8.83333 2.33333,7.16667 2,5.5C 1.66667,8.83333 1.33333,12.1667 1,15.5C 0.617425,14.944 0.117425,14.6107 -0.5,14.5C -0.5,9.5 -0.5,4.5 -0.5,-0.5 Z"/></g>
<g><path style="opacity:1" fill="#eef9fe" d="M 6.5,1022.5 C 4.26465,1022.21 2.26465,1022.54 0.5,1023.5C 0.166667,1023.5 -0.166667,1023.5 -0.5,1023.5C -0.5,687.167 -0.5,350.833 -0.5,14.5C 0.117425,14.6107 0.617425,14.944 1,15.5C 1.33333,12.1667 1.66667,8.83333 2,5.5C 2.33333,7.16667 2.66667,8.83333 3,10.5C 3.57429,8.50803 4.74096,7.00803 6.5,6C 9.19417,4.51203 11.5275,4.67869 13.5,6.5C 13.296,12.221 11.9627,18.0543 9.5,24C 9.90536,24.9454 10.572,25.6121 11.5,26C 11.1667,26.3333 10.8333,26.6667 10.5,27C 11.5,32 12.5,37 13.5,42C 13.038,65.4973 12.7047,89.164 12.5,113C 12.974,116.537 13.6406,120.037 14.5,123.5C 12.5042,146.281 12.1709,168.948 13.5,191.5C 12.9382,200.397 12.2715,209.231 11.5,218C 11.5098,243.529 12.1765,269.863 13.5,297C 12.177,317.109 12.177,337.275 13.5,357.5C 12.7525,364.324 12.0858,371.157 11.5,378C 12.2679,392.495 12.9346,406.995 13.5,421.5C 13.1819,518.104 12.8486,613.937 12.5,709C 12.8642,715.75 13.5309,722.417 14.5,729C 11.5616,752.713 11.2282,776.713 13.5,801C 12.4348,819.793 12.4348,838.793 13.5,858C 13.5398,870.871 12.8731,883.704 11.5,896.5C 12.5871,920.229 13.9205,943.229 15.5,965.5C 15.3333,968.167 15.1667,970.833 15,973.5C 12.6387,977.889 12.4721,982.555 14.5,987.5C 13.1035,992.649 11.7702,997.815 10.5,1003C 11.4042,1005.81 11.7375,1008.48 11.5,1011C 9.70906,1011.42 8.37573,1012.42 7.5,1014C 11.0016,1016.01 11.0016,1017.34 7.5,1018C 8.97849,1019.19 10.3118,1019.69 11.5,1019.5C 9.45647,1020.07 7.7898,1021.07 6.5,1022.5 Z"/></g>
<g><path style="opacity:1" fill="#11192c" d="M 332.5,232.5 C 342.898,232.101 353.232,232.601 363.5,234C 365.013,236.454 364.346,238.121 361.5,239C 362.833,239.667 362.833,240.333 361.5,241C 362.833,241.667 364.167,242.333 365.5,243C 364.72,244.073 364.887,245.24 366,246.5C 366.333,245.833 366.667,245.167 367,244.5C 368,245.5 369,246.5 370,247.5C 371.893,248.327 374.059,248.327 376.5,247.5C 377.382,248.76 378.382,249.926 379.5,251C 379.167,251.333 378.833,251.667 378.5,252C 380.129,252.585 381.629,253.419 383,254.5C 386.64,252.269 387.307,253.269 385,257.5C 384.667,257.167 384.333,256.833 384,256.5C 382.601,257.227 381.101,257.727 379.5,258C 380.552,259.716 379.886,260.716 377.5,261C 379.657,262.085 379.824,263.251 378,264.5C 377.333,261.833 376.667,261.833 376,264.5C 375.63,267.949 375.797,271.116 376.5,274C 372.79,277.057 372.623,280.891 376,285.5C 377.31,283.868 377.81,282.201 377.5,280.5C 378.489,283.438 379.156,286.438 379.5,289.5C 377.058,289.119 376.391,289.786 377.5,291.5C 375.973,293.193 374.64,295.027 373.5,297C 374.416,297.278 375.082,297.778 375.5,298.5C 367.13,305.706 359.63,305.039 353,296.5C 351.524,291.924 351.19,287.257 352,282.5C 363.102,274.959 365.435,265.292 359,253.5C 353.729,248.908 347.563,246.575 340.5,246.5C 339.677,244.545 339.51,242.545 340,240.5C 340.333,240.833 340.667,241.167 341,241.5C 342.067,240.809 343.234,240.309 344.5,240C 340.997,238.127 337.497,237.294 334,237.5C 333.621,239.57 334.455,241.07 336.5,242C 335.151,242.772 334.318,243.939 334,245.5C 333.667,244.833 333.333,244.167 333,243.5C 331.992,243.982 330.825,244.148 329.5,244C 329.018,245.008 328.852,246.175 329,247.5C 326.197,248.813 324.03,250.813 322.5,253.5C 321.604,252.494 320.938,252.494 320.5,253.5C 322.469,255.421 323.969,255.421 325,253.5C 325.1,256.437 325.933,259.104 327.5,261.5C 326.833,261.833 326.167,262.167 325.5,262.5C 327.389,265.221 327.555,267.887 326,270.5C 324.887,269.24 324.72,268.073 325.5,267C 324.89,265.053 324.057,263.219 323,261.5C 321.58,264.817 319.246,267.817 316,270.5C 315.667,269.5 315.333,268.5 315,267.5C 314.697,269.888 313.863,272.055 312.5,274C 313.543,276.902 312.876,279.902 310.5,283C 311.167,283.333 311.833,283.667 312.5,284C 307.236,286.058 304.236,289.558 303.5,294.5C 302.5,294.167 301.833,293.5 301.5,292.5C 302.052,290.997 302.052,289.331 301.5,287.5C 300.178,287.67 299.011,287.337 298,286.5C 297.833,284.5 297.667,282.5 297.5,280.5C 299.097,274.36 299.764,268.027 299.5,261.5C 306.439,247.228 317.439,237.562 332.5,232.5 Z"/></g>
<g><path style="opacity:1" fill="#131b29" d="M 406.5,274.5 C 431.353,275.204 456.353,275.871 481.5,276.5C 455.243,276.531 428.909,276.531 402.5,276.5C 402.167,276.167 401.833,275.833 401.5,275.5C 402.642,272.601 403.308,269.601 403.5,266.5C 401.176,266.338 399.509,265.172 398.5,263C 399.747,261.542 399.747,260.042 398.5,258.5C 397.726,257.289 396.893,257.289 396,258.5C 395.157,263.181 393.49,267.514 391,271.5C 391.114,278.314 390.614,282.314 389.5,283.5C 389.575,277.131 389.742,270.798 390,264.5C 387,260.5 384,260.5 381,264.5C 380.143,267.551 380.81,270.217 383,272.5C 384.334,280.2 383.334,287.533 380,294.5C 378.629,296.041 377.129,297.375 375.5,298.5C 375.082,297.778 374.416,297.278 373.5,297C 374.64,295.027 375.973,293.193 377.5,291.5C 376.391,289.786 377.058,289.119 379.5,289.5C 379.156,286.438 378.489,283.438 377.5,280.5C 377.81,282.201 377.31,283.868 376,285.5C 372.623,280.891 372.79,277.057 376.5,274C 375.797,271.116 375.63,267.949 376,264.5C 376.667,261.833 377.333,261.833 378,264.5C 379.824,263.251 379.657,262.085 377.5,261C 379.886,260.716 380.552,259.716 379.5,258C 381.101,257.727 382.601,257.227 384,256.5C 384.333,256.833 384.667,257.167 385,257.5C 387.307,253.269 386.64,252.269 383,254.5C 381.629,253.419 380.129,252.585 378.5,252C 378.833,251.667 379.167,251.333 379.5,251C 378.382,249.926 377.382,248.76 376.5,247.5C 374.059,248.327 371.893,248.327 370,247.5C 369,246.5 368,245.5 367,244.5C 366.667,245.167 366.333,245.833 366,246.5C 364.887,245.24 364.72,244.073 365.5,243C 364.167,242.333 362.833,241.667 361.5,241C 362.833,240.333 362.833,239.667 361.5,239C 364.346,238.121 365.013,236.454 363.5,234C 353.232,232.601 342.898,232.101 332.5,232.5C 365.852,224.925 390.019,236.592 405,267.5C 405.977,269.74 406.477,272.073 406.5,274.5 Z"/></g>
<g><path style="opacity:1" fill="#ebf6fb" d="M 715.5,320.5 C 714.834,322.506 714.834,324.34 715.5,326C 711.183,328.501 707.183,331.501 703.5,335C 705.513,336.791 705.513,338.125 703.5,339C 704.167,339.333 704.833,339.667 705.5,340C 704.009,341.91 702.509,343.077 701,343.5C 700.641,340.456 699.974,340.122 699,342.5C 697.927,341.72 696.76,341.887 695.5,343C 696.167,343.333 696.833,343.667 697.5,344C 695.744,344.202 694.078,344.702 692.5,345.5C 692.931,346.293 693.265,347.127 693.5,348C 691.654,349.091 690.987,350.424 691.5,352C 694.07,353.349 694.07,354.516 691.5,355.5C 685.454,352.277 679.954,352.943 675,357.5C 674.209,358.745 673.709,360.078 673.5,361.5C 672.662,361.842 672.328,362.508 672.5,363.5C 671.698,364.952 671.198,366.618 671,368.5C 670.667,367.167 670.333,365.833 670,364.5C 669.667,365.167 669.333,365.833 669,366.5C 667.559,365.13 665.892,364.13 664,363.5C 661.739,367.717 660.572,372.717 660.5,378.5C 659.448,378.351 658.448,378.517 657.5,379C 658.167,381.333 658.833,383.667 659.5,386C 658.567,388.848 657.067,389.014 655,386.5C 654.25,387.126 653.416,387.626 652.5,388C 654.324,389.989 656.324,391.823 658.5,393.5C 674.486,394.499 690.486,394.833 706.5,394.5C 690.005,395.662 673.338,395.828 656.5,395C 649.284,386.607 641.117,385.441 632,391.5C 627.693,398.238 627.36,405.238 631,412.5C 632.543,414.378 634.376,415.878 636.5,417C 644.47,419.224 650.804,417.058 655.5,410.5C 672.153,409.501 688.82,409.167 705.5,409.5C 706.939,411.36 708.605,413.027 710.5,414.5C 712.675,416.579 715.342,417.579 718.5,417.5C 721.913,417.146 725.246,416.479 728.5,415.5C 728.5,416.5 728.5,417.5 728.5,418.5C 725.774,418.264 723.441,419.097 721.5,421C 723.285,422.163 725.285,422.83 727.5,423C 726.833,423.333 726.167,423.667 725.5,424C 728.577,425.662 730.577,428.162 731.5,431.5C 725.563,427.489 719.229,426.656 712.5,429C 709.833,430.333 707.833,432.333 706.5,435C 684.167,435.333 661.833,435.667 639.5,436C 638.333,437.167 637.167,438.333 636,439.5C 635.667,454.5 635.333,469.5 635,484.5C 627.435,489.889 625.602,496.889 629.5,505.5C 629.081,508.325 630.081,510.491 632.5,512C 630.519,512.605 630.185,513.605 631.5,515C 630.062,515.219 628.729,515.719 627.5,516.5C 628.491,518.123 627.824,519.123 625.5,519.5C 624.238,522.757 622.238,525.423 619.5,527.5C 620.611,528.611 621.278,529.945 621.5,531.5C 621.289,535.079 621.289,538.579 621.5,542C 620.37,548.891 616.536,554.391 610,558.5C 609.333,557.5 609.333,556.5 610,555.5C 610.333,555.833 610.667,556.167 611,556.5C 614.377,552.58 616.543,548.08 617.5,543C 616.787,540.484 616.453,538.151 616.5,536C 615.99,534.174 615.156,534.007 614,535.5C 613.392,533.934 612.558,532.6 611.5,531.5C 611.667,471.166 611.5,410.832 611,350.5C 606.699,336.096 597.199,327.262 582.5,324C 533.833,323.333 485.167,323.333 436.5,324C 424.604,326.688 416.104,333.521 411,344.5C 409.511,406.775 409.011,469.108 409.5,531.5C 408.175,532.953 407.342,532.619 407,530.5C 406.667,527.5 406.333,524.5 406,521.5C 404.805,524.187 404.638,526.854 405.5,529.5C 405.023,530.931 404.357,532.264 403.5,533.5C 403.167,533.333 402.833,533.167 402.5,533C 402.807,531.318 403.14,529.652 403.5,528C 402.107,526.699 401.607,525.199 402,523.5C 405.199,524.236 405.365,523.403 402.5,521C 402.623,519.211 402.623,517.378 402.5,515.5C 400.667,517.167 398.833,518.833 397,520.5C 396.577,519.044 395.744,518.544 394.5,519C 395.5,520.667 396.833,522 398.5,523C 396.193,523.354 395.859,524.354 397.5,526C 397.223,527.892 396.223,529.225 394.5,530C 395.167,530.333 395.833,530.667 396.5,531C 395.687,532.314 394.687,533.481 393.5,534.5C 394.106,536.64 393.773,538.807 392.5,541C 393.624,541.249 394.624,541.749 395.5,542.5C 394.431,542.64 393.264,542.64 392,542.5C 391.316,543.784 391.483,544.951 392.5,546C 391.285,548.096 390.451,547.929 390,545.5C 386.877,547.098 386.044,546.431 387.5,543.5C 391.973,528.14 386.306,521.64 370.5,524C 363.276,529.056 361.61,535.556 365.5,543.5C 366.963,545.598 366.796,547.598 365,549.5C 364.667,547.833 364.333,546.167 364,544.5C 363.316,548.093 361.816,548.427 359.5,545.5C 358.522,545.977 357.689,546.643 357,547.5C 356.667,547.167 356.333,546.833 356,546.5C 354.933,547.191 353.766,547.691 352.5,548C 353.167,548.333 353.833,548.667 354.5,549C 352.061,549.774 350.227,551.274 349,553.5C 347.636,552.304 346.136,551.304 344.5,550.5C 341.336,552.194 338.002,552.694 334.5,552C 336.382,551.802 338.048,551.302 339.5,550.5C 342.541,549.625 344.375,547.625 345,544.5C 345.667,524.5 345.667,504.5 345,484.5C 343.745,483.789 342.579,482.956 341.5,482C 332.167,481.667 322.833,481.333 313.5,481C 309.138,475.488 303.471,473.321 296.5,474.5C 299.358,473.834 302.358,473.167 305.5,472.5C 306.167,471.833 306.833,471.167 307.5,470.5C 305.462,469.246 303.796,467.579 302.5,465.5C 300.726,464.813 299.059,463.98 297.5,463C 298.167,462.333 298.833,461.667 299.5,461C 297.19,460.503 294.857,460.337 292.5,460.5C 292.263,459.209 292.596,458.209 293.5,457.5C 301.094,458.803 307.427,456.636 312.5,451C 322.167,450.667 331.833,450.333 341.5,450C 342.931,449.535 344.097,448.701 345,447.5C 345.667,417.833 345.667,388.167 345,358.5C 341.74,353.483 337.573,352.483 332.5,355.5C 331.658,353.235 331.991,350.902 333.5,348.5C 332.975,347.808 332.308,347.308 331.5,347C 337.627,346.915 337.96,345.748 332.5,343.5C 332.667,343.167 332.833,342.833 333,342.5C 335.027,342.986 337.193,342.986 339.5,342.5C 379.005,345.44 401.672,327.44 407.5,288.5C 433.175,288.167 458.842,288.5 484.5,289.5C 495.75,305.815 510.084,308.982 527.5,299C 530.888,296.469 533.221,293.302 534.5,289.5C 560.833,289.5 587.167,289.5 613.5,289.5C 615.753,315.255 629.086,332.421 653.5,341C 671.726,344.796 688.726,341.796 704.5,332C 708.398,328.271 712.065,324.438 715.5,320.5 Z"/></g>
<g><path style="opacity:1" fill="#121a2c" d="M 715.5,320.5 C 712.065,324.438 708.398,328.271 704.5,332C 688.726,341.796 671.726,344.796 653.5,341C 629.086,332.421 615.753,315.255 613.5,289.5C 587.167,289.5 560.833,289.5 534.5,289.5C 533.221,293.302 530.888,296.469 527.5,299C 510.084,308.982 495.75,305.815 484.5,289.5C 458.842,288.5 433.175,288.167 407.5,288.5C 401.672,327.44 379.005,345.44 339.5,342.5C 302.376,330.947 287.876,305.947 296,267.5C 296.941,265.273 298.108,263.273 299.5,261.5C 299.764,268.027 299.097,274.36 297.5,280.5C 297.667,282.5 297.833,284.5 298,286.5C 299.011,287.337 300.178,287.67 301.5,287.5C 302.052,289.331 302.052,290.997 301.5,292.5C 301.833,293.5 302.5,294.167 303.5,294.5C 304.236,289.558 307.236,286.058 312.5,284C 311.833,283.667 311.167,283.333 310.5,283C 312.876,279.902 313.543,276.902 312.5,274C 313.863,272.055 314.697,269.888 315,267.5C 315.333,268.5 315.667,269.5 316,270.5C 319.246,267.817 321.58,264.817 323,261.5C 324.057,263.219 324.89,265.053 325.5,267C 324.72,268.073 324.887,269.24 326,270.5C 327.555,267.887 327.389,265.221 325.5,262.5C 326.167,262.167 326.833,261.833 327.5,261.5C 325.933,259.104 325.1,256.437 325,253.5C 323.969,255.421 322.469,255.421 320.5,253.5C 320.938,252.494 321.604,252.494 322.5,253.5C 324.03,250.813 326.197,248.813 329,247.5C 328.852,246.175 329.018,245.008 329.5,244C 330.825,244.148 331.992,243.982 333,243.5C 333.333,244.167 333.667,244.833 334,245.5C 334.318,243.939 335.151,242.772 336.5,242C 334.455,241.07 333.621,239.57 334,237.5C 337.497,237.294 340.997,238.127 344.5,240C 343.234,240.309 342.067,240.809 341,241.5C 340.667,241.167 340.333,240.833 340,240.5C 339.51,242.545 339.677,244.545 340.5,246.5C 340.5,248.167 340.5,249.833 340.5,251.5C 354.604,251.423 359.771,258.09 356,271.5C 349.895,277.197 342.729,280.363 334.5,281C 330.658,274.818 332.324,271.985 339.5,272.5C 339.714,270.856 339.38,269.356 338.5,268C 328.412,267.336 324.912,271.836 328,281.5C 329.167,282.667 330.333,283.833 331.5,285C 336.488,285.742 341.322,285.242 346,283.5C 344.856,301.36 353.023,309.194 370.5,307C 381.537,302.812 387.871,294.978 389.5,283.5C 390.614,282.314 391.114,278.314 391,271.5C 393.49,267.514 395.157,263.181 396,258.5C 396.893,257.289 397.726,257.289 398.5,258.5C 399.747,260.042 399.747,261.542 398.5,263C 399.509,265.172 401.176,266.338 403.5,266.5C 403.308,269.601 402.642,272.601 401.5,275.5C 401.833,275.833 402.167,276.167 402.5,276.5C 428.909,276.531 455.243,276.531 481.5,276.5C 482.451,275.081 482.784,273.415 482.5,271.5C 485.18,256.651 494.014,248.651 509,247.5C 525.633,248.963 535.467,257.963 538.5,274.5C 563.833,274.5 589.167,274.5 614.5,274.5C 619.05,255.439 630.383,241.939 648.5,234C 674.707,225.925 696.874,232.092 715,252.5C 730.081,275.045 730.248,297.712 715.5,320.5 Z"/></g>
<g><path style="opacity:1" fill="#eaf3f8" d="M 318.5,292.5 C 327.987,291.819 332.154,296.153 331,305.5C 329.7,309.987 326.7,311.987 322,311.5C 317.306,311.485 314.306,309.152 313,304.5C 312.333,302.5 312.333,300.5 313,298.5C 315.04,296.63 316.873,294.63 318.5,292.5 Z"/></g>
<g><path style="opacity:1" fill="#e7eef2" d="M 340.5,246.5 C 347.563,246.575 353.729,248.908 359,253.5C 365.435,265.292 363.102,274.959 352,282.5C 351.19,287.257 351.524,291.924 353,296.5C 359.63,305.039 367.13,305.706 375.5,298.5C 377.129,297.375 378.629,296.041 380,294.5C 383.334,287.533 384.334,280.2 383,272.5C 380.81,270.217 380.143,267.551 381,264.5C 384,260.5 387,260.5 390,264.5C 389.742,270.798 389.575,277.131 389.5,283.5C 387.871,294.978 381.537,302.812 370.5,307C 353.023,309.194 344.856,301.36 346,283.5C 341.322,285.242 336.488,285.742 331.5,285C 330.333,283.833 329.167,282.667 328,281.5C 324.912,271.836 328.412,267.336 338.5,268C 339.38,269.356 339.714,270.856 339.5,272.5C 332.324,271.985 330.658,274.818 334.5,281C 342.729,280.363 349.895,277.197 356,271.5C 359.771,258.09 354.604,251.423 340.5,251.5C 340.5,249.833 340.5,248.167 340.5,246.5 Z"/></g>
<g><path style="opacity:1" fill="#1f2f36" d="M 482.5,271.5 C 482.784,273.415 482.451,275.081 481.5,276.5C 456.353,275.871 431.353,275.204 406.5,274.5C 431.5,274.5 456.5,274.5 481.5,274.5C 481.263,273.209 481.596,272.209 482.5,271.5 Z"/></g>
<g><path style="opacity:1" fill="#e9f5f9" d="M 505.5,262.5 C 521.309,262.469 526.476,269.802 521,284.5C 515.069,289.97 508.569,290.804 501.5,287C 493.784,277.158 495.117,268.991 505.5,262.5 Z"/></g>
<g><path style="opacity:1" fill="#eef6fa" d="M 664.5,246.5 C 668.167,246.5 671.833,246.5 675.5,246.5C 675.223,249.448 675.556,252.281 676.5,255C 678.649,255.579 680.815,256.079 683,256.5C 685.075,255.692 686.742,254.358 688,252.5C 691.572,254.197 694.405,256.697 696.5,260C 695.201,261.326 693.868,262.66 692.5,264C 693.928,266.185 695.595,268.185 697.5,270C 698.167,270.667 698.833,270.667 699.5,270C 700.875,267.523 702.709,266.689 705,267.5C 706.17,270.505 707.336,273.505 708.5,276.5C 708.392,277.442 708.059,278.275 707.5,279C 705.866,279.494 704.199,279.66 702.5,279.5C 702.5,284.167 702.5,288.833 702.5,293.5C 704.827,293.247 706.827,293.914 708.5,295.5C 707.259,299.64 705.759,303.64 704,307.5C 702.414,306.624 700.914,305.624 699.5,304.5C 697.142,306.024 695.309,308.024 694,310.5C 694.216,313.015 694.883,315.349 696,317.5C 693.512,319.743 690.846,321.743 688,323.5C 686.907,321.651 685.574,319.984 684,318.5C 681.435,320.179 678.602,320.846 675.5,320.5C 675.5,323.5 675.5,326.5 675.5,329.5C 671.833,329.5 668.167,329.5 664.5,329.5C 664.5,326.833 664.5,324.167 664.5,321.5C 661.235,321.792 658.235,321.125 655.5,319.5C 653.853,320.278 652.52,321.444 651.5,323C 648.018,321.868 645.351,319.535 643.5,316C 644.861,314.038 646.028,312.204 647,310.5C 645.122,308.957 643.622,307.124 642.5,305C 640.062,304.318 637.895,304.818 636,306.5C 633.096,302.684 631.263,298.351 630.5,293.5C 632.604,293.799 634.604,293.466 636.5,292.5C 635.311,288.183 635.311,283.85 636.5,279.5C 634.5,279.5 632.5,279.5 630.5,279.5C 630.93,275.042 632.264,270.876 634.5,267C 635.5,266.333 636.5,266.333 637.5,267C 638.685,268.353 640.019,269.52 641.5,270.5C 642.815,268.684 644.315,267.017 646,265.5C 646.667,264.5 646.667,263.5 646,262.5C 643.631,261.073 643.131,259.239 644.5,257C 646.833,255.5 649.167,254 651.5,252.5C 652.54,254.375 654.04,255.708 656,256.5C 658.724,255.313 661.557,254.647 664.5,254.5C 664.5,251.833 664.5,249.167 664.5,246.5 Z"/></g>
<g><path style="opacity:1" fill="#47606a" d="M 673.5,300.5 C 672.432,301.434 671.099,301.768 669.5,301.5C 669.5,304.5 669.5,307.5 669.5,310.5C 671.167,310.5 672.833,310.5 674.5,310.5C 672.735,311.461 670.735,311.795 668.5,311.5C 668.5,307.833 668.5,304.167 668.5,300.5C 670.167,300.5 671.833,300.5 673.5,300.5 Z"/></g>
<g><path style="opacity:1" fill="#111c2c" d="M 674.5,310.5 C 672.833,310.5 671.167,310.5 669.5,310.5C 669.5,307.5 669.5,304.5 669.5,301.5C 671.099,301.768 672.432,301.434 673.5,300.5C 678.368,298.113 680.701,294.113 680.5,288.5C 678.664,279.168 672.998,275.002 663.5,276C 659.199,277.785 657.199,280.952 657.5,285.5C 653.397,284.769 649.897,285.769 647,288.5C 646.262,284.739 646.595,281.072 648,277.5C 656.896,265.485 668.062,262.651 681.5,269C 693.709,280.376 694.709,292.709 684.5,306C 681.264,307.786 677.93,309.286 674.5,310.5 Z"/></g>
<g><path style="opacity:1" fill="#131d2e" d="M 611.5,531.5 C 608.815,545.191 600.815,554.191 587.5,558.5C 591.037,555.58 594.371,552.246 597.5,548.5C 596.609,547.41 595.609,547.41 594.5,548.5C 592.539,547.152 592.372,545.819 594,544.5C 594.691,546.891 595.691,546.891 597,544.5C 597.08,542.531 596.914,540.531 596.5,538.5C 596.667,537.833 596.833,537.167 597,536.5C 597.333,537.5 597.667,538.5 598,539.5C 599.167,535.333 597.667,533.833 593.5,535C 595.107,536.049 595.773,537.549 595.5,539.5C 590.197,539.985 585.864,542.319 582.5,546.5C 535.874,545.339 489.208,545.172 442.5,546C 439.056,546.111 436.723,547.777 435.5,551C 426.728,552.407 426.394,554.74 434.5,558C 484.832,558.5 535.166,558.667 585.5,558.5C 535.002,559.665 484.335,559.832 433.5,559C 420.276,554.382 412.276,545.215 409.5,531.5C 409.011,469.108 409.511,406.775 411,344.5C 416.104,333.521 424.604,326.688 436.5,324C 485.167,323.333 533.833,323.333 582.5,324C 597.199,327.262 606.699,336.096 611,350.5C 611.5,410.832 611.667,471.166 611.5,531.5 Z"/></g>
<g><path style="opacity:1" fill="#131c30" d="M 596.5,378.5 C 596.5,377.167 596.5,375.833 596.5,374.5C 556.833,374.5 517.167,374.5 477.5,374.5C 473.178,369.948 473.511,365.781 478.5,362C 517.499,361.5 556.499,361.333 595.5,361.5C 595.5,359.5 595.5,357.5 595.5,355.5C 596.105,352.873 596.605,350.207 597,347.5C 597.979,351.12 600.145,353.787 603.5,355.5C 603.833,354.667 604.167,353.833 604.5,353C 603.778,349.671 602.778,346.504 601.5,343.5C 600.5,343.5 599.5,343.5 598.5,343.5C 598.233,340.225 599.233,339.392 601.5,341C 601.167,341.333 600.833,341.667 600.5,342C 601.993,343.368 603.493,343.535 605,342.5C 606.821,345.558 608.154,349.225 609,353.5C 609.667,378.167 609.667,402.833 609,427.5C 607.984,426.366 607.317,426.699 607,428.5C 606.667,427.5 606.333,426.5 606,425.5C 605.667,428.167 605.333,430.833 605,433.5C 604.667,422.5 604.333,411.5 604,400.5C 603.667,399.5 603.333,398.5 603,397.5C 602.833,398.167 602.667,398.833 602.5,399.5C 602.907,414.605 602.907,429.272 602.5,443.5C 603.025,444.192 603.692,444.692 604.5,445C 603.167,446 603.167,447 604.5,448C 603.833,448.333 603.167,448.667 602.5,449C 604.1,450.971 604.266,452.804 603,454.5C 602.893,457.131 602.727,459.631 602.5,462C 603.167,463 603.833,464 604.5,465C 603.426,465.739 602.759,466.739 602.5,468C 602.866,480.457 603.199,493.29 603.5,506.5C 602.845,512.82 602.345,519.153 602,525.5C 601.667,506.5 601.333,487.5 601,468.5C 600.808,470.577 600.308,472.577 599.5,474.5C 599.167,473.5 598.833,472.5 598.5,471.5C 599.631,451.518 599.798,431.518 599,411.5C 598.667,411.833 598.333,412.167 598,412.5C 597.833,411.667 597.667,410.833 597.5,410C 598.393,406.91 599.059,404.077 599.5,401.5C 597.266,397.718 596.933,393.718 598.5,389.5C 597.896,385.697 597.23,382.031 596.5,378.5 Z"/></g>
<g><path style="opacity:1" fill="#ebf6fc" d="M 595.5,355.5 C 595.5,357.5 595.5,359.5 595.5,361.5C 556.499,361.333 517.499,361.5 478.5,362C 473.511,365.781 473.178,369.948 477.5,374.5C 516.33,375.499 555.33,375.832 594.5,375.5C 594.667,427.168 594.5,478.834 594,530.5C 591.623,537.545 586.79,541.712 579.5,543C 532.167,543.667 484.833,543.667 437.5,543C 431.18,540.014 427.013,535.181 425,528.5C 424.333,470.167 424.333,411.833 425,353.5C 427.594,346.572 432.427,342.072 439.5,340C 486.167,339.333 532.833,339.333 579.5,340C 588.022,342.024 593.356,347.191 595.5,355.5 Z"/></g>
<g><path style="opacity:1" fill="#151d2f" d="M 371.5,353.5 C 387.217,353.027 391.884,359.861 385.5,374C 371.275,380.64 364.442,376.14 365,360.5C 366.694,357.642 368.861,355.309 371.5,353.5 Z"/></g>
<g><path style="opacity:1" fill="#141c2e" d="M 638.5,353.5 C 650.674,352.291 656.174,357.624 655,369.5C 651.441,376.108 645.941,378.608 638.5,377C 632.627,373.061 630.46,367.561 632,360.5C 633.694,357.642 635.861,355.309 638.5,353.5 Z"/></g>
<g><path style="opacity:1" fill="#131e2e" d="M 446.5,355.5 C 455.013,354.626 458.847,358.293 458,366.5C 454.025,372.895 449.025,373.895 443,369.5C 440.133,363.63 441.3,358.963 446.5,355.5 Z"/></g>
<g><path style="opacity:1" fill="#141c31" d="M 677.5,374.5 C 673.592,371.905 671.925,368.238 672.5,363.5C 672.328,362.508 672.662,361.842 673.5,361.5C 674.458,361.047 675.292,360.381 676,359.5C 676.333,360.5 676.667,361.5 677,362.5C 677.494,360.866 677.66,359.199 677.5,357.5C 679.787,357.276 681.953,356.609 684,355.5C 686.791,358.131 689.958,360.131 693.5,361.5C 694.97,364.319 694.804,366.986 693,369.5C 692.667,368.833 692.333,368.167 692,367.5C 691.506,369.134 691.34,370.801 691.5,372.5C 688.972,373.023 686.639,374.023 684.5,375.5C 682.5,375 680.5,374.5 678.5,374C 679.696,373.346 679.696,372.846 678.5,372.5C 677.702,372.957 677.369,373.624 677.5,374.5 Z"/></g>
<g><path style="opacity:1" fill="#17222c" d="M 691.5,355.5 C 699,366.742 696.167,374.075 683,377.5C 680.601,377.387 678.768,376.387 677.5,374.5C 677.369,373.624 677.702,372.957 678.5,372.5C 679.696,372.846 679.696,373.346 678.5,374C 680.5,374.5 682.5,375 684.5,375.5C 686.639,374.023 688.972,373.023 691.5,372.5C 691.34,370.801 691.506,369.134 692,367.5C 692.333,368.167 692.667,368.833 693,369.5C 694.804,366.986 694.97,364.319 693.5,361.5C 689.958,360.131 686.791,358.131 684,355.5C 681.953,356.609 679.787,357.276 677.5,357.5C 677.66,359.199 677.494,360.866 677,362.5C 676.667,361.5 676.333,360.5 676,359.5C 675.292,360.381 674.458,361.047 673.5,361.5C 673.709,360.078 674.209,358.745 675,357.5C 679.954,352.943 685.454,352.277 691.5,355.5 Z"/></g>
<g><path style="opacity:1" fill="#121b2b" d="M 706.5,394.5 C 708.506,391.645 711.172,389.479 714.5,388C 718.358,387.19 722.024,387.357 725.5,388.5C 717.652,388.21 711.486,391.21 707,397.5C 706.586,397.043 706.086,396.709 705.5,396.5C 692.545,397.315 679.545,397.815 666.5,398C 665.128,398.402 663.795,398.902 662.5,399.5C 660.008,396.869 657.674,397.035 655.5,400C 656.641,400.741 656.641,401.575 655.5,402.5C 657.059,404.469 658.726,406.302 660.5,408C 675.672,408.169 690.672,408.669 705.5,409.5C 688.82,409.167 672.153,409.501 655.5,410.5C 650.804,417.058 644.47,419.224 636.5,417C 634.376,415.878 632.543,414.378 631,412.5C 627.36,405.238 627.693,398.238 632,391.5C 641.117,385.441 649.284,386.607 656.5,395C 673.338,395.828 690.005,395.662 706.5,394.5 Z"/></g>
<g><path style="opacity:1" fill="#141e31" d="M 293.5,457.5 C 284.527,451.405 282.36,443.405 287,433.5C 293.568,426.923 301.068,425.756 309.5,430C 311.402,431.73 313.069,433.563 314.5,435.5C 319.975,436.489 325.642,436.822 331.5,436.5C 331.5,410.167 331.5,383.833 331.5,357.5C 331.833,356.833 332.167,356.167 332.5,355.5C 337.573,352.483 341.74,353.483 345,358.5C 345.667,388.167 345.667,417.833 345,447.5C 344.097,448.701 342.931,449.535 341.5,450C 331.833,450.333 322.167,450.667 312.5,451C 307.427,456.636 301.094,458.803 293.5,457.5 Z"/></g>
<g><path style="opacity:1" fill="#11192d" d="M 725.5,388.5 C 725.833,388.5 726.167,388.5 726.5,388.5C 729.862,392.277 732.362,396.277 734,400.5C 734.063,410.601 728.897,415.601 718.5,415.5C 715.824,415.163 713.157,414.83 710.5,414.5C 708.605,413.027 706.939,411.36 705.5,409.5C 690.672,408.669 675.672,408.169 660.5,408C 658.726,406.302 657.059,404.469 655.5,402.5C 656.641,401.575 656.641,400.741 655.5,400C 657.674,397.035 660.008,396.869 662.5,399.5C 663.795,398.902 665.128,398.402 666.5,398C 679.545,397.815 692.545,397.315 705.5,396.5C 706.086,396.709 706.586,397.043 707,397.5C 711.486,391.21 717.652,388.21 725.5,388.5 Z"/></g>
<g><path style="opacity:1" fill="#152126" d="M 726.5,388.5 C 735.166,393.185 737.666,400.185 734,409.5C 732.64,412.023 730.807,414.023 728.5,415.5C 725.246,416.479 721.913,417.146 718.5,417.5C 715.342,417.579 712.675,416.579 710.5,414.5C 713.157,414.83 715.824,415.163 718.5,415.5C 728.897,415.601 734.063,410.601 734,400.5C 732.362,396.277 729.862,392.277 726.5,388.5 Z"/></g>
<g><path style="opacity:1" fill="#141d2e" d="M 463.5,409.5 C 500.5,409.5 537.5,409.5 574.5,409.5C 574.667,447.168 574.5,484.835 574,522.5C 573.5,523 573,523.5 572.5,524C 570.5,524.167 568.5,524.333 566.5,524.5C 564.036,524.41 561.87,523.743 560,522.5C 559.5,489.502 559.333,456.502 559.5,423.5C 527.5,423.5 495.5,423.5 463.5,423.5C 463.5,418.833 463.5,414.167 463.5,409.5 Z"/></g>
<g><path style="opacity:1" fill="#101b34" d="M 465.5,411.5 C 501.173,411.167 536.84,411.5 572.5,412.5C 571.253,414.042 571.253,415.542 572.5,417C 571,418.167 569.5,419.333 568,420.5C 567.529,418.754 566.862,417.087 566,415.5C 565.374,417.991 564.541,417.991 563.5,415.5C 562.522,415.977 561.689,416.643 561,417.5C 558.74,415.003 557.407,415.67 557,419.5C 556.667,418.833 556.333,418.167 556,417.5C 555.51,418.793 555.343,420.127 555.5,421.5C 526.142,421.182 496.808,421.516 467.5,422.5C 466.353,422.182 465.519,421.516 465,420.5C 464.505,417.469 464.671,414.469 465.5,411.5 Z"/></g>
<g><path style="opacity:1" fill="#05111b" d="M 477.5,374.5 C 517.167,374.5 556.833,374.5 596.5,374.5C 596.5,375.833 596.5,377.167 596.5,378.5C 596.667,427.834 596.5,477.168 596,526.5C 595.833,475.998 595.333,425.665 594.5,375.5C 555.33,375.832 516.33,375.499 477.5,374.5 Z"/></g>
<g><path style="opacity:1" fill="#131c2e" d="M 372.5,387.5 C 383.355,387.041 389.688,392.041 391.5,402.5C 391.815,408.537 389.481,413.204 384.5,416.5C 383.167,439.167 383.167,461.833 384.5,484.5C 393.627,491.746 394.627,499.913 387.5,509C 369.63,516.799 361.463,510.966 363,491.5C 363.911,488.424 365.744,486.091 368.5,484.5C 369.666,462.174 369.833,439.841 369,417.5C 358.031,405.925 359.197,395.925 372.5,387.5 Z"/></g>
<g><path style="opacity:1" fill="#141d30" d="M 446.5,423.5 C 451.5,423.5 456.5,423.5 461.5,423.5C 461.169,452.671 461.502,481.671 462.5,510.5C 478.833,510.5 495.167,510.5 511.5,510.5C 511.666,514.514 511.499,518.514 511,522.5C 510.5,523 510,523.5 509.5,524C 489.158,524.833 468.825,524.666 448.5,523.5C 448.192,522.692 447.692,522.025 447,521.5C 446.5,488.835 446.333,456.168 446.5,423.5 Z"/></g>
<g><path style="opacity:1" fill="#889eaa" d="M 463.5,409.5 C 463.5,414.167 463.5,418.833 463.5,423.5C 462.502,452.329 462.169,481.329 462.5,510.5C 461.502,481.671 461.169,452.671 461.5,423.5C 456.5,423.5 451.5,423.5 446.5,423.5C 451.64,422.512 456.974,422.179 462.5,422.5C 462.182,417.968 462.515,413.634 463.5,409.5 Z"/></g>
<g><path style="opacity:1" fill="#768a92" d="M 331.5,357.5 C 331.5,383.833 331.5,410.167 331.5,436.5C 325.642,436.822 319.975,436.489 314.5,435.5C 319.833,435.5 325.167,435.5 330.5,435.5C 330.169,409.328 330.502,383.328 331.5,357.5 Z"/></g>
<g><path style="opacity:1" fill="#151d2f" d="M 731.5,431.5 C 739.361,448.276 734.028,457.109 715.5,458C 711.928,456.431 708.928,454.098 706.5,451C 687.503,450.5 668.503,450.333 649.5,450.5C 649.333,461.505 649.5,472.505 650,483.5C 659.279,491.964 659.779,500.798 651.5,510C 642.676,514.57 635.343,513.07 629.5,505.5C 625.602,496.889 627.435,489.889 635,484.5C 635.333,469.5 635.667,454.5 636,439.5C 637.167,438.333 638.333,437.167 639.5,436C 661.833,435.667 684.167,435.333 706.5,435C 707.833,432.333 709.833,430.333 712.5,429C 719.229,426.656 725.563,427.489 731.5,431.5 Z"/></g>
<g><path style="opacity:1" fill="#44646d" d="M 476.5,437.5 C 476.5,441.5 476.5,445.5 476.5,449.5C 498.833,449.5 521.167,449.5 543.5,449.5C 543.5,445.5 543.5,441.5 543.5,437.5C 544.485,441.634 544.818,445.968 544.5,450.5C 521.5,450.5 498.5,450.5 475.5,450.5C 475.182,445.968 475.515,441.634 476.5,437.5 Z"/></g>
<g><path style="opacity:1" fill="#101825" d="M 476.5,437.5 C 498.833,437.5 521.167,437.5 543.5,437.5C 543.5,441.5 543.5,445.5 543.5,449.5C 521.167,449.5 498.833,449.5 476.5,449.5C 476.5,445.5 476.5,441.5 476.5,437.5 Z"/></g>
<g><path style="opacity:1" fill="#11192f" d="M 493.5,439.5 C 505.691,440.487 517.858,440.487 530,439.5C 532.858,442.509 536.192,442.843 540,440.5C 542.023,442.769 542.856,445.436 542.5,448.5C 520.833,448.5 499.167,448.5 477.5,448.5C 477.047,445.348 478.047,442.848 480.5,441C 485.019,440.825 489.353,440.325 493.5,439.5 Z"/></g>
<g><path style="opacity:1" fill="#0f182b" d="M 476.5,461.5 C 495.833,461.5 515.167,461.5 534.5,461.5C 534.5,465.833 534.5,470.167 534.5,474.5C 526.167,474.5 517.833,474.5 509.5,474.5C 498.679,473.505 487.679,473.172 476.5,473.5C 476.5,469.5 476.5,465.5 476.5,461.5 Z"/></g>
<g><path style="opacity:1" fill="#3d525e" d="M 476.5,461.5 C 476.5,465.5 476.5,469.5 476.5,473.5C 487.679,473.172 498.679,473.505 509.5,474.5C 498.167,474.5 486.833,474.5 475.5,474.5C 475.182,469.968 475.515,465.634 476.5,461.5 Z"/></g>
<g><path style="opacity:1" fill="#121c2e" d="M 713.5,474.5 C 728.497,472.341 735.663,478.675 735,493.5C 731.013,503.071 723.847,506.571 713.5,504C 710.167,502 707.5,499.333 705.5,496C 700.177,495.501 694.844,495.334 689.5,495.5C 689.667,512.503 689.5,529.503 689,546.5C 684.884,551.249 680.551,551.582 676,547.5C 675.333,526.5 675.333,505.5 676,484.5C 676.833,483.667 677.667,482.833 678.5,482C 687.833,481.667 697.167,481.333 706.5,481C 708.729,478.6 711.063,476.433 713.5,474.5 Z"/></g>
<g><path style="opacity:1" fill="#131d2e" d="M 296.5,474.5 C 303.471,473.321 309.138,475.488 313.5,481C 322.833,481.333 332.167,481.667 341.5,482C 342.579,482.956 343.745,483.789 345,484.5C 345.667,504.5 345.667,524.5 345,544.5C 344.375,547.625 342.541,549.625 339.5,550.5C 335.254,551.239 332.587,549.573 331.5,545.5C 331.5,528.5 331.5,511.5 331.5,494.5C 325.642,494.178 319.975,494.511 314.5,495.5C 309.774,503.474 302.774,506.307 293.5,504C 286.447,499.39 283.614,492.89 285,484.5C 287.147,479.184 290.98,475.851 296.5,474.5 Z"/></g>
<g><path style="opacity:1" fill="#0f182b" d="M 476.5,484.5 C 485.833,484.5 495.167,484.5 504.5,484.5C 504.5,485.5 504.5,486.5 504.5,487.5C 503.523,490.287 503.19,493.287 503.5,496.5C 494.5,496.5 485.5,496.5 476.5,496.5C 476.5,492.5 476.5,488.5 476.5,484.5 Z"/></g>
<g><path style="opacity:1" fill="#3e6166" d="M 476.5,484.5 C 476.5,488.5 476.5,492.5 476.5,496.5C 485.5,496.5 494.5,496.5 503.5,496.5C 503.19,493.287 503.523,490.287 504.5,487.5C 504.5,490.833 504.5,494.167 504.5,497.5C 494.833,497.5 485.167,497.5 475.5,497.5C 475.182,492.968 475.515,488.634 476.5,484.5 Z"/></g>
<g><path style="opacity:1" fill="#475e69" d="M 314.5,495.5 C 319.975,494.511 325.642,494.178 331.5,494.5C 331.5,511.5 331.5,528.5 331.5,545.5C 330.503,529.008 330.17,512.342 330.5,495.5C 325.167,495.5 319.833,495.5 314.5,495.5 Z"/></g>
<g><path style="opacity:1" fill="#151d2f" d="M 637.5,523.5 C 644.644,521.992 650.477,523.992 655,529.5C 658.38,543.57 652.88,549.737 638.5,548C 636.376,546.878 634.543,545.378 633,543.5C 629.806,535.612 631.306,528.945 637.5,523.5 Z"/></g>
<g><path style="opacity:1" fill="#141d30" d="M 387.5,543.5 C 380.136,550.098 372.802,550.098 365.5,543.5C 361.61,535.556 363.276,529.056 370.5,524C 386.306,521.64 391.973,528.14 387.5,543.5 Z"/></g>
<g><path style="opacity:1" fill="#101a31" d="M 587.5,558.5 C 586.833,558.5 586.167,558.5 585.5,558.5C 535.166,558.667 484.832,558.5 434.5,558C 426.394,554.74 426.728,552.407 435.5,551C 436.723,547.777 439.056,546.111 442.5,546C 489.208,545.172 535.874,545.339 582.5,546.5C 585.864,542.319 590.197,539.985 595.5,539.5C 595.773,537.549 595.107,536.049 593.5,535C 597.667,533.833 599.167,535.333 598,539.5C 597.667,538.5 597.333,537.5 597,536.5C 596.833,537.167 596.667,537.833 596.5,538.5C 596.914,540.531 597.08,542.531 597,544.5C 595.691,546.891 594.691,546.891 594,544.5C 592.372,545.819 592.539,547.152 594.5,548.5C 595.609,547.41 596.609,547.41 597.5,548.5C 594.371,552.246 591.037,555.58 587.5,558.5 Z"/></g>
<g><path style="opacity:1" fill="#121a2d" d="M 700.5,571.5 C 699.694,572.997 699.028,574.664 698.5,576.5C 700.47,577.443 701.97,576.776 703,574.5C 703.333,575.833 703.667,577.167 704,578.5C 704.414,578.043 704.914,577.709 705.5,577.5C 707.764,578.229 709.097,579.396 709.5,581C 707.137,581.589 706.137,583.089 706.5,585.5C 710.1,586.179 709.767,587.013 705.5,588C 706.624,588.249 707.624,588.749 708.5,589.5C 704.821,589.484 704.654,590.817 708,593.5C 709.163,591.715 709.83,589.715 710,587.5C 710.667,590.167 711.333,590.167 712,587.5C 712.658,589.108 712.158,590.275 710.5,591C 711.849,591.772 712.682,592.939 713,594.5C 713.333,594.167 713.667,593.833 714,593.5C 714.182,596.226 714.682,598.893 715.5,601.5C 716.72,602.711 717.887,602.711 719,601.5C 719.317,603.301 719.984,603.634 721,602.5C 721.419,606.852 722.086,607.185 723,603.5C 726.285,614.184 726.285,624.85 723,635.5C 722,634.5 721,633.5 720,632.5C 719.667,633.167 719.333,633.833 719,634.5C 718.667,632.833 718.333,631.167 718,629.5C 716.375,630.881 715.208,632.548 714.5,634.5C 714.818,635.647 715.484,636.481 716.5,637C 714.892,637.658 713.725,637.158 713,635.5C 712.932,640.003 711.765,644.17 709.5,648C 711.932,649.087 711.598,649.587 708.5,649.5C 708.52,651.143 707.853,652.476 706.5,653.5C 707.167,653.833 707.833,654.167 708.5,654.5C 707.948,656.003 707.948,657.669 708.5,659.5C 706.176,659.662 704.509,660.828 703.5,663C 703.833,663.333 704.167,663.667 704.5,664C 699.582,669.125 693.582,672.125 686.5,673C 687.598,673.77 687.598,674.603 686.5,675.5C 658.603,682.36 636.27,674.36 619.5,651.5C 592.664,650.833 565.664,650.167 538.5,649.5C 535.972,648.184 535.972,647.017 538.5,646C 535.967,643.916 535.967,641.916 538.5,640C 558.294,639.25 577.461,639.75 596,641.5C 602.631,640.369 609.131,639.702 615.5,639.5C 613.598,631.273 613.098,622.94 614,614.5C 616.549,608.833 617.882,602.833 618,596.5C 623.942,585.068 632.109,575.735 642.5,568.5C 647.002,565.613 652.002,563.78 657.5,563C 665.167,562.333 672.833,562.333 680.5,563C 688.033,564.004 694.7,566.838 700.5,571.5 Z"/></g>
<g><path style="opacity:1" fill="#edf5f9" d="M 659.5,580.5 C 661.256,581.552 661.923,583.219 661.5,585.5C 666.167,585.5 670.833,585.5 675.5,585.5C 675.5,583.833 675.5,582.167 675.5,580.5C 680.061,581.907 684.728,582.907 689.5,583.5C 689.5,585.833 689.5,588.167 689.5,590.5C 691.262,590.357 692.929,590.691 694.5,591.5C 695.542,595.626 697.542,596.293 700.5,593.5C 704.238,598.309 706.904,603.642 708.5,609.5C 706.5,609.5 704.5,609.5 702.5,609.5C 702.5,615.833 702.5,622.167 702.5,628.5C 704.5,628.5 706.5,628.5 708.5,628.5C 707.009,634.485 704.676,640.152 701.5,645.5C 700.5,644.833 699.5,644.167 698.5,643.5C 696.493,645.008 694.826,646.842 693.5,649C 692.062,649.219 690.729,649.719 689.5,650.5C 690.681,652.198 690.681,653.865 689.5,655.5C 685.162,656.335 680.995,657.668 677,659.5C 676.505,657.527 676.338,655.527 676.5,653.5C 671.808,654.617 667.141,654.617 662.5,653.5C 661.833,655.167 661.167,656.833 660.5,658.5C 656.17,657.337 652.17,655.503 648.5,653C 646.438,651.468 645.104,649.468 644.5,647C 642.257,647.319 640.09,647.152 638,646.5C 634.679,641.526 632.179,636.193 630.5,630.5C 632.167,630.5 633.833,630.5 635.5,630.5C 635.007,628.194 634.674,625.861 634.5,623.5C 632.208,623.756 630.041,623.423 628,622.5C 627.503,619.854 627.336,617.187 627.5,614.5C 630.167,614.5 632.833,614.5 635.5,614.5C 635.662,612.473 635.495,610.473 635,608.5C 633.444,607.48 632.278,606.147 631.5,604.5C 633.025,600.145 635.192,596.145 638,592.5C 639.787,591.657 641.62,591.49 643.5,592C 648.019,586.919 653.352,583.085 659.5,580.5 Z"/></g>
<g><path style="opacity:1" fill="#192232" d="M 425.5,586.5 C 429.828,586.037 433.828,586.87 437.5,589C 484.833,589.667 532.167,589.667 579.5,589C 588.962,583.798 595.296,586.298 598.5,596.5C 596.516,606.153 590.849,609.653 581.5,607C 580.5,606 579.5,605 578.5,604C 531.833,603.333 485.167,603.333 438.5,604C 434.785,607.31 430.452,608.31 425.5,607C 418.855,600.095 418.855,593.262 425.5,586.5 Z"/></g>
<g><path style="opacity:1" fill="#11192e" d="M 440.5,591.5 C 479.87,591.875 518.537,592.042 556.5,592C 556.167,592.333 555.833,592.667 555.5,593C 557.134,593.494 558.801,593.66 560.5,593.5C 560.488,597.982 562.488,600.148 566.5,600C 565.167,600.667 565.167,601.333 566.5,602C 529.167,602.667 491.833,602.667 454.5,602C 449.103,601.773 443.769,601.106 438.5,600C 438.167,599.667 437.833,599.333 437.5,599C 439.592,598.047 439.925,596.714 438.5,595C 439.305,593.887 439.972,592.721 440.5,591.5 Z"/></g>
<g><path style="opacity:1" fill="#121b2c" d="M 676.5,631.5 C 676.44,630.957 676.107,630.624 675.5,630.5C 674.505,635.792 674.172,641.125 674.5,646.5C 671.167,646.5 667.833,646.5 664.5,646.5C 664.829,640.794 664.495,635.128 663.5,629.5C 658.894,632.717 654.394,636.05 650,639.5C 647.649,637.481 645.649,635.148 644,632.5C 643.316,631.216 643.483,630.049 644.5,629C 649.997,626.755 654.997,623.755 659.5,620C 653.796,616.154 648.13,612.32 642.5,608.5C 644.508,605 647.008,602 650,599.5C 654.394,602.95 658.894,606.283 663.5,609.5C 664.495,604.208 664.828,598.875 664.5,593.5C 667.833,593.5 671.167,593.5 674.5,593.5C 674.172,598.875 674.505,604.208 675.5,609.5C 680.738,606.93 685.072,603.264 688.5,598.5C 691.87,601.907 694.203,605.907 695.5,610.5C 689.644,612.994 683.977,615.994 678.5,619.5C 684.196,623.344 689.863,627.177 695.5,631C 693.962,633.909 692.296,636.742 690.5,639.5C 685.806,636.821 681.139,634.155 676.5,631.5 Z"/></g>
<g><path style="opacity:1" fill="#121b2c" d="M 484.5,637.5 C 484.369,638.239 484.536,638.906 485,639.5C 488.826,626.688 497.493,620.355 511,620.5C 519.424,620.962 526.258,624.462 531.5,631C 530.257,632.154 529.257,633.488 528.5,635C 526.833,635.667 525.167,635.667 523.5,635C 524.448,634.517 525.448,634.351 526.5,634.5C 526.349,631.282 525.516,630.949 524,633.5C 518.401,632.175 512.901,632.175 507.5,633.5C 506.833,633.5 506.167,633.5 505.5,633.5C 504.127,633.343 502.793,633.51 501.5,634C 499.957,635.878 498.124,637.378 496,638.5C 495.667,643.833 495.333,649.167 495,654.5C 494.667,653.833 494.333,653.167 494,652.5C 493.362,653.609 492.862,654.775 492.5,656C 493.3,657.788 493.634,659.455 493.5,661C 492.809,662.067 492.309,663.234 492,664.5C 490.259,663.242 488.426,662.242 486.5,661.5C 483.819,658.808 482.486,655.475 482.5,651.5C 454.831,651.333 427.165,651.5 399.5,652C 385.375,671.836 366.041,680.503 341.5,678C 310.491,670.473 294.158,650.64 292.5,618.5C 294.642,587.861 310.642,569.027 340.5,562C 377.036,559.66 399.536,576.16 408,611.5C 408.865,620.273 408.365,628.939 406.5,637.5C 432.5,637.5 458.5,637.5 484.5,637.5 Z"/></g>
<g><path style="opacity:1" fill="#eaf2f7" d="M 365.5,583.5 C 368.634,585.293 371.967,586.626 375.5,587.5C 372.288,598.555 365.288,606.388 354.5,611C 345.582,613.797 336.915,617.13 328.5,621C 324.051,626.063 320.217,631.563 317,637.5C 315.055,636.137 312.888,635.303 310.5,635C 310.241,625.163 313.908,616.83 321.5,610C 330.806,603.224 341.14,598.557 352.5,596C 357.996,593.003 362.329,588.837 365.5,583.5 Z"/></g>
<g><path style="opacity:1" fill="#ecf4f9" d="M 384.5,601.5 C 387.66,602.583 390.327,604.416 392.5,607C 389.931,617.888 383.931,626.222 374.5,632C 363.988,635.544 353.655,639.544 343.5,644C 339.246,647.747 335.579,651.914 332.5,656.5C 328.451,654.001 325.951,650.668 325,646.5C 329.95,636.885 337.45,630.051 347.5,626C 355.719,623.556 363.719,620.556 371.5,617C 376.9,612.684 381.233,607.517 384.5,601.5 Z"/></g>
<g><path style="opacity:1" fill="#9eb3c5" d="M 676.5,631.5 C 675.833,636.5 675.167,641.5 674.5,646.5C 674.172,641.125 674.505,635.792 675.5,630.5C 676.107,630.624 676.44,630.957 676.5,631.5 Z"/></g>
<g><path style="opacity:1" fill="#141d2a" d="M 700.5,571.5 C 721.184,585.222 729.684,604.555 726,629.5C 721.922,652.738 708.755,668.071 686.5,675.5C 687.598,674.603 687.598,673.77 686.5,673C 693.582,672.125 699.582,669.125 704.5,664C 704.167,663.667 703.833,663.333 703.5,663C 704.509,660.828 706.176,659.662 708.5,659.5C 707.948,657.669 707.948,656.003 708.5,654.5C 707.833,654.167 707.167,653.833 706.5,653.5C 707.853,652.476 708.52,651.143 708.5,649.5C 711.598,649.587 711.932,649.087 709.5,648C 711.765,644.17 712.932,640.003 713,635.5C 713.725,637.158 714.892,637.658 716.5,637C 715.484,636.481 714.818,635.647 714.5,634.5C 715.208,632.548 716.375,630.881 718,629.5C 718.333,631.167 718.667,632.833 719,634.5C 719.333,633.833 719.667,633.167 720,632.5C 721,633.5 722,634.5 723,635.5C 726.285,624.85 726.285,614.184 723,603.5C 722.086,607.185 721.419,606.852 721,602.5C 719.984,603.634 719.317,603.301 719,601.5C 717.887,602.711 716.72,602.711 715.5,601.5C 714.682,598.893 714.182,596.226 714,593.5C 713.667,593.833 713.333,594.167 713,594.5C 712.682,592.939 711.849,591.772 710.5,591C 712.158,590.275 712.658,589.108 712,587.5C 711.333,590.167 710.667,590.167 710,587.5C 709.83,589.715 709.163,591.715 708,593.5C 704.654,590.817 704.821,589.484 708.5,589.5C 707.624,588.749 706.624,588.249 705.5,588C 709.767,587.013 710.1,586.179 706.5,585.5C 706.137,583.089 707.137,581.589 709.5,581C 709.097,579.396 707.764,578.229 705.5,577.5C 704.914,577.709 704.414,578.043 704,578.5C 703.667,577.167 703.333,575.833 703,574.5C 701.97,576.776 700.47,577.443 698.5,576.5C 699.028,574.664 699.694,572.997 700.5,571.5 Z"/></g>
<g><path style="opacity:1" fill="#141d2b" d="M 642.5,568.5 C 632.109,575.735 623.942,585.068 618,596.5C 617.882,602.833 616.549,608.833 614,614.5C 613.098,622.94 613.598,631.273 615.5,639.5C 609.131,639.702 602.631,640.369 596,641.5C 577.461,639.75 558.294,639.25 538.5,640C 535.967,641.916 535.967,643.916 538.5,646C 535.972,647.017 535.972,648.184 538.5,649.5C 565.664,650.167 592.664,650.833 619.5,651.5C 592.167,651.5 564.833,651.5 537.5,651.5C 535.553,664.283 528.22,672.116 515.5,675C 502.744,676.953 493.077,672.453 486.5,661.5C 488.426,662.242 490.259,663.242 492,664.5C 492.309,663.234 492.809,662.067 493.5,661C 493.634,659.455 493.3,657.788 492.5,656C 492.862,654.775 493.362,653.609 494,652.5C 494.333,653.167 494.667,653.833 495,654.5C 495.333,649.167 495.667,643.833 496,638.5C 498.124,637.378 499.957,635.878 501.5,634C 502.793,633.51 504.127,633.343 505.5,633.5C 494.775,640.469 493.775,648.636 502.5,658C 517.572,662.937 524.405,657.437 523,641.5C 519.569,635.534 514.402,632.867 507.5,633.5C 512.901,632.175 518.401,632.175 524,633.5C 525.516,630.949 526.349,631.282 526.5,634.5C 525.448,634.351 524.448,634.517 523.5,635C 525.167,635.667 526.833,635.667 528.5,635C 529.257,633.488 530.257,632.154 531.5,631C 526.258,624.462 519.424,620.962 511,620.5C 497.493,620.355 488.826,626.688 485,639.5C 484.536,638.906 484.369,638.239 484.5,637.5C 488.362,625.822 496.529,619.489 509,618.5C 522.516,618.891 531.683,625.224 536.5,637.5C 562.167,637.5 587.833,637.5 613.5,637.5C 606.651,607.342 616.317,584.342 642.5,568.5 Z"/></g>
<g><path style="opacity:1" fill="#ebf6fa" d="M 505.5,633.5 C 506.167,633.5 506.833,633.5 507.5,633.5C 514.402,632.867 519.569,635.534 523,641.5C 524.405,657.437 517.572,662.937 502.5,658C 493.775,648.636 494.775,640.469 505.5,633.5 Z"/></g>
<g><path style="opacity:1" fill="#3b5556" d="M 256.5,716.5 C 256.5,716.167 256.5,715.833 256.5,715.5C 274.5,715.5 292.5,715.5 310.5,715.5C 310.818,720.032 310.485,724.366 309.5,728.5C 309.5,728.167 309.5,727.833 309.5,727.5C 309.5,723.833 309.5,720.167 309.5,716.5C 291.833,716.5 274.167,716.5 256.5,716.5 Z"/></g>
<g><path style="opacity:1" fill="#10192e" d="M 572.5,778.5 C 569.5,778.5 566.5,778.5 563.5,778.5C 563.5,777.167 563.5,775.833 563.5,774.5C 564.497,755.341 564.83,736.007 564.5,716.5C 567.518,716.335 570.518,716.502 573.5,717C 572.346,717.914 572.513,718.747 574,719.5C 574.167,729.167 574.333,738.833 574.5,748.5C 574.475,758.728 573.808,768.728 572.5,778.5 Z"/></g>
<g><path style="opacity:1" fill="#121b30" d="M 256.5,716.5 C 274.167,716.5 291.833,716.5 309.5,716.5C 309.5,720.167 309.5,723.833 309.5,727.5C 302.496,727.227 295.496,726.894 288.5,726.5C 288.5,743.5 288.5,760.5 288.5,777.5C 285.552,777.777 282.719,777.444 280,776.5C 279.5,760.17 279.333,743.837 279.5,727.5C 272.615,727.286 265.615,726.786 258.5,726C 256.656,723.196 255.989,720.03 256.5,716.5 Z"/></g>
<g><path style="opacity:1" fill="#eef6fa" d="M 563.5,779.5 C 562.749,780.573 561.749,780.74 560.5,780C 560.361,773.887 560.695,767.887 561.5,762C 560.773,760.601 560.273,759.101 560,757.5C 559.724,759.767 559.057,762.1 558,764.5C 557.667,762.833 557.333,761.167 557,759.5C 556.333,762.833 556.333,766.167 557,769.5C 557.333,768.167 557.667,766.833 558,765.5C 558.346,767.218 558.846,768.885 559.5,770.5C 558.609,771.59 557.609,771.59 556.5,770.5C 555.138,772.012 554.804,773.512 555.5,775C 554.422,775.674 553.755,776.674 553.5,778C 554.084,779.411 554.584,780.578 555,781.5C 551.239,783.697 547.739,783.53 544.5,781C 545.056,780.617 545.389,780.117 545.5,779.5C 545.5,768.5 545.5,757.5 545.5,746.5C 549.167,746.5 552.833,746.5 556.5,746.5C 556.818,741.968 556.485,737.634 555.5,733.5C 552.167,733.5 548.833,733.5 545.5,733.5C 545.829,727.794 545.495,722.128 544.5,716.5C 543.893,716.624 543.56,716.957 543.5,717.5C 539.824,718.754 536.324,720.421 533,722.5C 532.501,726.152 532.335,729.818 532.5,733.5C 525.445,732.111 519.612,734.111 515,739.5C 514.505,737.527 514.338,735.527 514.5,733.5C 510.298,733.183 506.298,733.517 502.5,734.5C 501.504,748.657 501.171,762.99 501.5,777.5C 498.215,778.089 497.882,779.256 500.5,781C 498.729,783.113 497.229,782.947 496,780.5C 495,780.833 494,781.167 493,781.5C 491.667,780.833 490.667,779.833 490,778.5C 487.861,778.778 485.695,778.778 483.5,778.5C 487.012,776.901 490.012,774.567 492.5,771.5C 489.681,768.925 486.681,766.592 483.5,764.5C 476.962,771.122 470.462,771.122 464,764.5C 463.51,763.207 463.343,761.873 463.5,760.5C 474.5,760.5 485.5,760.5 496.5,760.5C 496.111,740.95 486.111,732.117 466.5,734C 450.253,742 446.086,754.167 454,770.5C 456.775,773.78 459.942,776.446 463.5,778.5C 460.903,778.721 460.903,779.221 463.5,780C 462.667,780.167 461.833,780.333 461,780.5C 459.134,779.753 457.467,779.419 456,779.5C 453.667,783.133 452.167,782.467 451.5,777.5C 451.734,773.697 450.401,773.53 447.5,777C 448.956,777.423 449.456,778.256 449,779.5C 447.039,779.825 445.206,779.158 443.5,777.5C 445.838,776.318 447.838,774.652 449.5,772.5C 446.5,769.833 443.5,767.167 440.5,764.5C 431.522,771.197 424.688,769.53 420,759.5C 419.491,748.683 424.658,744.183 435.5,746C 437.305,746.972 438.972,748.139 440.5,749.5C 443.317,746.182 446.317,743.015 449.5,740C 440.644,733.704 430.977,732.037 420.5,735C 419.058,735.377 418.058,736.21 417.5,737.5C 410.241,742.006 406.574,748.673 406.5,757.5C 407.582,766.693 411.916,773.693 419.5,778.5C 413.587,779.387 407.92,780.053 402.5,780.5C 402.828,769.654 402.494,758.987 401.5,748.5C 401.06,745.62 400.06,742.954 398.5,740.5C 398.369,739.624 398.702,738.957 399.5,738.5C 401.337,742.213 402.837,742.213 404,738.5C 405.32,740.583 406.654,740.249 408,737.5C 408.561,738.022 409.228,738.355 410,738.5C 417.887,733.649 426.387,730.816 435.5,730C 437.615,730.557 439.615,731.391 441.5,732.5C 442.59,731.609 442.59,730.609 441.5,729.5C 442.76,728.618 443.926,727.618 445,726.5C 448.205,728.686 451.705,730.186 455.5,731C 456.833,731.667 456.833,732.333 455.5,733C 457.674,733.181 459.507,732.348 461,730.5C 463.868,733.181 467.035,733.015 470.5,730C 473.817,729.502 477.15,729.335 480.5,729.5C 480.5,728.167 480.5,726.833 480.5,725.5C 482.722,725.178 484.556,725.845 486,727.5C 487.147,726.542 488.147,726.875 489,728.5C 491,728.5 493,728.5 495,728.5C 495.667,729.167 496.333,729.833 497,730.5C 500,729.833 503,729.167 506,728.5C 507.667,729.167 509.333,729.833 511,730.5C 514.767,730.035 518.767,730.035 523,730.5C 525.524,729.822 527.691,728.488 529.5,726.5C 530.747,724.958 530.747,723.458 529.5,722C 530.167,721 530.833,720 531.5,719C 535.846,718.304 539.846,716.804 543.5,714.5C 544.716,715.002 545.883,715.335 547,715.5C 548.685,713.012 550.019,713.345 551,716.5C 552.049,715.483 553.216,715.316 554.5,716C 555.329,717.816 556.163,719.649 557,721.5C 557.333,720.5 557.667,719.5 558,718.5C 559.566,719.061 560.899,718.394 562,716.5C 562.168,737.671 562.668,758.671 563.5,779.5 Z"/></g>
<g><path style="opacity:1" fill="#9db1bf" d="M 543.5,717.5 C 543.56,716.957 543.893,716.624 544.5,716.5C 545.495,722.128 545.829,727.794 545.5,733.5C 544.833,728.167 544.167,722.833 543.5,717.5 Z"/></g>
<g><path style="opacity:1" fill="#eff7fb" d="M 660.5,741.5 C 658.402,749.948 661.569,752.948 670,750.5C 671.252,747.986 671.752,745.32 671.5,742.5C 671.647,738.682 673.314,737.349 676.5,738.5C 678.671,741.516 680.671,744.682 682.5,748C 684.807,747.358 687.141,746.358 689.5,745C 694.993,743.642 699.827,744.809 704,748.5C 704.844,750.463 704.344,751.796 702.5,752.5C 695.149,750.568 688.149,751.401 681.5,755C 677.452,758.6 675.785,763.1 676.5,768.5C 675.784,768.783 674.951,769.116 674,769.5C 673.667,771.5 673.333,773.5 673,775.5C 672.79,773.942 672.29,772.609 671.5,771.5C 671.489,769.983 670.823,768.816 669.5,768C 662.186,765.497 658.853,767.997 659.5,775.5C 658.883,775.611 658.383,775.944 658,776.5C 656.595,774.809 655.428,772.976 654.5,771C 652.284,770.607 650.284,771.107 648.5,772.5C 654.471,763.168 654.971,753.502 650,743.5C 642.878,734.423 633.711,731.589 622.5,735C 620.376,736.122 618.543,737.622 617,739.5C 616.5,731.173 616.334,722.84 616.5,714.5C 612.167,714.5 607.833,714.5 603.5,714.5C 603.5,736.833 603.5,759.167 603.5,781.5C 602.778,781.918 602.278,782.584 602,783.5C 601.506,781.866 601.34,780.199 601.5,778.5C 599.549,778.227 598.049,778.893 597,780.5C 596.601,780.272 596.435,779.938 596.5,779.5C 596.5,764.167 596.5,748.833 596.5,733.5C 591.968,733.182 587.634,733.515 583.5,734.5C 583.5,749.167 583.5,763.833 583.5,778.5C 583.842,779.338 584.508,779.672 585.5,779.5C 585.217,780.289 584.717,780.956 584,781.5C 582,780.167 580,780.167 578,781.5C 577.005,780.934 576.172,780.267 575.5,779.5C 576.497,759.34 576.83,739.007 576.5,718.5C 578.659,717.582 580.992,716.582 583.5,715.5C 581.603,714.332 581.436,712.665 583,710.5C 583.333,711.167 583.667,711.833 584,712.5C 586.946,712.585 589.946,711.918 593,710.5C 596.107,710.818 598.941,711.818 601.5,713.5C 602.48,712.019 603.647,710.685 605,709.5C 608.451,711.373 611.951,712.373 615.5,712.5C 616.345,710.238 617.678,709.571 619.5,710.5C 621.285,705.617 623.785,705.284 627,709.5C 627.333,709.167 627.667,708.833 628,708.5C 629.69,712.781 630.857,717.114 631.5,721.5C 633.201,721.966 634.701,721.966 636,721.5C 636.309,722.766 636.809,723.933 637.5,725C 636.742,726.364 637.242,727.531 639,728.5C 639.333,727.167 639.667,725.833 640,724.5C 642.237,725.056 644.237,726.056 646,727.5C 647.84,726.167 648.34,726.334 647.5,728C 648,728.5 648.5,729 649,729.5C 651,729.5 653,729.5 655,729.5C 656.751,731.49 657.751,733.823 658,736.5C 658.219,735.062 658.719,733.729 659.5,732.5C 660.506,732.938 660.506,733.604 659.5,734.5C 661.658,736.026 661.325,737.526 658.5,739C 659.756,739.417 660.423,740.25 660.5,741.5 Z"/></g>
<g><path style="opacity:1" fill="#151e2e" d="M 586.5,715.5 C 594.201,715.362 597.367,719.029 596,726.5C 591.912,731.701 587.912,731.701 584,726.5C 582.812,722.259 583.645,718.592 586.5,715.5 Z"/></g>
<g><path style="opacity:1" fill="#0c1724" d="M 256.5,715.5 C 256.5,715.833 256.5,716.167 256.5,716.5C 255.989,720.03 256.656,723.196 258.5,726C 265.615,726.786 272.615,727.286 279.5,727.5C 279.333,743.837 279.5,760.17 280,776.5C 282.719,777.444 285.552,777.777 288.5,777.5C 288.5,760.5 288.5,743.5 288.5,726.5C 295.496,726.894 302.496,727.227 309.5,727.5C 309.5,727.833 309.5,728.167 309.5,728.5C 303.167,728.5 296.833,728.5 290.5,728.5C 289.503,744.992 289.17,761.658 289.5,778.5C 285.5,778.5 281.5,778.5 277.5,778.5C 277.5,761.833 277.5,745.167 277.5,728.5C 270.167,728.5 262.833,728.5 255.5,728.5C 255.182,723.968 255.515,719.634 256.5,715.5 Z"/></g>
<g><path style="opacity:1" fill="#121c2e" d="M 324.5,733.5 C 343.55,732.553 353.217,741.553 353.5,760.5C 342.585,760.18 331.752,760.513 321,761.5C 322.807,767.598 326.973,770.098 333.5,769C 336.577,768.381 339.077,766.881 341,764.5C 344.24,766.875 347.406,769.375 350.5,772C 336.3,784.115 323.134,783.281 311,769.5C 304.07,753.051 308.57,741.051 324.5,733.5 Z"/></g>
<g><path style="opacity:1" fill="#8b9ab0" d="M 563.5,715.5 C 567.634,714.515 571.968,714.182 576.5,714.5C 576.5,715.833 576.5,717.167 576.5,718.5C 576.83,739.007 576.497,759.34 575.5,779.5C 571.5,779.5 567.5,779.5 563.5,779.5C 563.5,779.167 563.5,778.833 563.5,778.5C 566.5,778.5 569.5,778.5 572.5,778.5C 573.5,778.5 574.5,778.5 575.5,778.5C 575.5,757.5 575.5,736.5 575.5,715.5C 571.5,715.5 567.5,715.5 563.5,715.5 Z"/></g>
<g><path style="opacity:1" fill="#131d35" d="M 681.5,736.5 C 688.358,736.862 695.191,736.862 702,736.5C 702.5,736.667 703,736.833 703.5,737C 702.483,738.049 702.316,739.216 703,740.5C 704.333,739.833 705.667,739.167 707,738.5C 708.66,738.324 710.326,738.991 712,740.5C 711.382,743.842 711.882,747.175 713.5,750.5C 711.243,753.474 709.743,756.808 709,760.5C 708.667,760.167 708.333,759.833 708,759.5C 707.138,761.087 706.471,762.754 706,764.5C 705.667,763.5 705.333,762.5 705,761.5C 704.79,763.058 704.29,764.391 703.5,765.5C 703.714,763.856 703.38,762.356 702.5,761C 698.413,760.238 694.413,760.404 690.5,761.5C 688.224,761.756 687.057,763.09 687,765.5C 686.667,765.167 686.333,764.833 686,764.5C 685.667,765.833 685.333,767.167 685,768.5C 683.657,767.786 682.324,768.12 681,769.5C 680.026,767.122 679.359,767.456 679,770.5C 677.807,765.848 678.64,761.681 681.5,758C 689.616,753.182 697.616,753.349 705.5,758.5C 706.287,757.758 706.953,756.925 707.5,756C 706.045,754.374 704.378,753.208 702.5,752.5C 704.344,751.796 704.844,750.463 704,748.5C 699.827,744.809 694.993,743.642 689.5,745C 687.141,746.358 684.807,747.358 682.5,748C 680.671,744.682 678.671,741.516 676.5,738.5C 678.05,737.559 679.716,736.893 681.5,736.5 Z"/></g>
<g><path style="opacity:1" fill="#03131e" d="M 563.5,715.5 C 567.5,715.5 571.5,715.5 575.5,715.5C 575.5,736.5 575.5,757.5 575.5,778.5C 574.5,778.5 573.5,778.5 572.5,778.5C 573.808,768.728 574.475,758.728 574.5,748.5C 574.333,738.833 574.167,729.167 574,719.5C 572.513,718.747 572.346,717.914 573.5,717C 570.518,716.502 567.518,716.335 564.5,716.5C 564.83,736.007 564.497,755.341 563.5,774.5C 563.5,754.833 563.5,735.167 563.5,715.5 Z"/></g>
<g><path style="opacity:1" fill="#111926" d="M 671.5,742.5 C 671.752,745.32 671.252,747.986 670,750.5C 661.569,752.948 658.402,749.948 660.5,741.5C 664.441,738.656 668.107,738.989 671.5,742.5 Z"/></g>
<g><path style="opacity:1" fill="#eaf2f7" d="M 326.5,744.5 C 331.351,743.784 335.518,745.117 339,748.5C 339.49,749.793 339.657,751.127 339.5,752.5C 333.167,752.5 326.833,752.5 320.5,752.5C 321.345,748.985 323.345,746.319 326.5,744.5 Z"/></g>
<g><path style="opacity:1" fill="#111b2d" d="M 398.5,740.5 C 400.06,742.954 401.06,745.62 401.5,748.5C 401.5,758.833 401.5,769.167 401.5,779.5C 397.5,779.5 393.5,779.5 389.5,779.5C 389.666,770.494 389.5,761.494 389,752.5C 385.265,744.917 379.932,743.583 373,748.5C 371.991,750.025 371.491,751.692 371.5,753.5C 370.507,761.65 370.174,769.983 370.5,778.5C 366.833,778.5 363.167,778.5 359.5,778.5C 359.5,763.833 359.5,749.167 359.5,734.5C 363.167,734.5 366.833,734.5 370.5,734.5C 370.34,736.199 370.506,737.866 371,739.5C 376.773,733.502 383.606,732.002 391.5,735C 394.305,736.382 396.639,738.216 398.5,740.5 Z"/></g>
<g><path style="opacity:1" fill="#161f2e" d="M 443.5,777.5 C 439.033,779.32 434.366,780.32 429.5,780.5C 426.473,780.713 423.807,780.047 421.5,778.5C 423.5,778.5 425.5,778.5 427.5,778.5C 427.997,776.403 428.33,774.57 428.5,773C 427.531,771.242 426.364,770.742 425,771.5C 423.501,769.244 421.834,769.244 420,771.5C 418.131,770.631 417.631,769.465 418.5,768C 417.939,766.324 416.939,764.991 415.5,764C 416.022,763.439 416.355,762.772 416.5,762C 414.02,756.312 414.52,751.145 418,746.5C 419.131,747.604 419.965,747.271 420.5,745.5C 423.447,744.679 426.447,744.179 429.5,744C 429.167,743.667 428.833,743.333 428.5,743C 430.886,742.716 431.552,741.716 430.5,740C 432.384,739.784 434.051,739.117 435.5,738C 434.584,737.626 433.75,737.126 433,736.5C 428.228,736.229 423.061,736.562 417.5,737.5C 418.058,736.21 419.058,735.377 420.5,735C 430.977,732.037 440.644,733.704 449.5,740C 446.317,743.015 443.317,746.182 440.5,749.5C 438.972,748.139 437.305,746.972 435.5,746C 424.658,744.183 419.491,748.683 420,759.5C 424.688,769.53 431.522,771.197 440.5,764.5C 443.5,767.167 446.5,769.833 449.5,772.5C 447.838,774.652 445.838,776.318 443.5,777.5 Z"/></g>
<g><path style="opacity:1" fill="#131a2d" d="M 421.5,778.5 C 420.833,778.5 420.167,778.5 419.5,778.5C 411.916,773.693 407.582,766.693 406.5,757.5C 406.574,748.673 410.241,742.006 417.5,737.5C 423.061,736.562 428.228,736.229 433,736.5C 433.75,737.126 434.584,737.626 435.5,738C 434.051,739.117 432.384,739.784 430.5,740C 431.552,741.716 430.886,742.716 428.5,743C 428.833,743.333 429.167,743.667 429.5,744C 426.447,744.179 423.447,744.679 420.5,745.5C 419.965,747.271 419.131,747.604 418,746.5C 414.52,751.145 414.02,756.312 416.5,762C 416.355,762.772 416.022,763.439 415.5,764C 416.939,764.991 417.939,766.324 418.5,768C 417.631,769.465 418.131,770.631 420,771.5C 421.834,769.244 423.501,769.244 425,771.5C 426.364,770.742 427.531,771.242 428.5,773C 428.33,774.57 427.997,776.403 427.5,778.5C 425.5,778.5 423.5,778.5 421.5,778.5 Z"/></g>
<g><path style="opacity:1" fill="#111b2f" d="M 543.5,717.5 C 544.167,722.833 544.833,728.167 545.5,733.5C 548.833,733.5 552.167,733.5 555.5,733.5C 555.5,737.5 555.5,741.5 555.5,745.5C 551.833,745.5 548.167,745.5 544.5,745.5C 544.5,756.5 544.5,767.5 544.5,778.5C 540.5,778.5 536.5,778.5 532.5,778.5C 532.5,767.5 532.5,756.5 532.5,745.5C 528.154,745.334 523.821,745.501 519.5,746C 516.976,747.883 515.642,750.383 515.5,753.5C 514.507,761.65 514.174,769.983 514.5,778.5C 510.5,778.5 506.5,778.5 502.5,778.5C 502.5,763.833 502.5,749.167 502.5,734.5C 506.298,733.517 510.298,733.183 514.5,733.5C 514.338,735.527 514.505,737.527 515,739.5C 519.612,734.111 525.445,732.111 532.5,733.5C 532.335,729.818 532.501,726.152 533,722.5C 536.324,720.421 539.824,718.754 543.5,717.5 Z"/></g>
<g><path style="opacity:1" fill="#435765" d="M 583.5,734.5 C 587.634,733.515 591.968,733.182 596.5,733.5C 596.5,748.833 596.5,764.167 596.5,779.5C 592.833,779.5 589.167,779.5 585.5,779.5C 584.508,779.672 583.842,779.338 583.5,778.5C 587.5,778.5 591.5,778.5 595.5,778.5C 595.5,763.833 595.5,749.167 595.5,734.5C 591.5,734.5 587.5,734.5 583.5,734.5 Z"/></g>
<g><path style="opacity:1" fill="#101a28" d="M 583.5,734.5 C 587.5,734.5 591.5,734.5 595.5,734.5C 595.5,749.167 595.5,763.833 595.5,778.5C 591.5,778.5 587.5,778.5 583.5,778.5C 583.5,763.833 583.5,749.167 583.5,734.5 Z"/></g>
<g><path style="opacity:1" fill="#7a8f9e" d="M 660.5,758.5 C 663.625,757.521 666.958,757.187 670.5,757.5C 670.737,758.791 670.404,759.791 669.5,760.5C 667.012,758.612 664.012,757.945 660.5,758.5 Z"/></g>
<g><path style="opacity:1" fill="#162029" d="M 660.5,758.5 C 664.012,757.945 667.012,758.612 669.5,760.5C 669.389,761.117 669.056,761.617 668.5,762C 665.854,762.497 663.187,762.664 660.5,762.5C 660.5,761.167 660.5,759.833 660.5,758.5 Z"/></g>
<g><path style="opacity:1" fill="#a4b6bd" d="M 255.5,728.5 C 262.833,728.5 270.167,728.5 277.5,728.5C 277.5,745.167 277.5,761.833 277.5,778.5C 277.5,778.833 277.5,779.167 277.5,779.5C 276.503,763.008 276.17,746.342 276.5,729.5C 269.313,729.825 262.313,729.491 255.5,728.5 Z"/></g>
<g><path style="opacity:1" fill="#131d2b" d="M 648.5,772.5 C 641.661,778.342 633.994,780.675 625.5,779.5C 629.273,778.992 632.94,778.158 636.5,777C 635.624,775.414 634.624,773.914 633.5,772.5C 628.809,771.542 624.309,771.542 620,772.5C 619.228,771.151 618.061,770.318 616.5,770C 618.405,769.174 618.739,768.007 617.5,766.5C 616.914,766.709 616.414,767.043 616,767.5C 616.932,760.185 616.598,753.185 615,746.5C 613.992,746.018 612.825,745.852 611.5,746C 612.573,743.817 612.74,741.317 612,738.5C 612.317,740.301 612.984,740.634 614,739.5C 614.5,731.507 614.666,723.507 614.5,715.5C 611.167,715.5 607.833,715.5 604.5,715.5C 604.5,742.833 604.5,770.167 604.5,797.5C 607.833,797.5 611.167,797.5 614.5,797.5C 614.567,789.441 614.4,781.441 614,773.5C 614.383,774.056 614.883,774.389 615.5,774.5C 615.5,782.5 615.5,790.5 615.5,798.5C 611.5,798.5 607.5,798.5 603.5,798.5C 603.5,792.833 603.5,787.167 603.5,781.5C 603.5,759.167 603.5,736.833 603.5,714.5C 607.833,714.5 612.167,714.5 616.5,714.5C 616.334,722.84 616.5,731.173 617,739.5C 618.543,737.622 620.376,736.122 622.5,735C 633.711,731.589 642.878,734.423 650,743.5C 654.971,753.502 654.471,763.168 648.5,772.5 Z"/></g>
<g><path style="opacity:1" fill="#ecf4f9" d="M 623.5,745.5 C 630.331,744.051 635.831,746.051 640,751.5C 641.943,763.887 636.777,769.387 624.5,768C 618.636,764.434 616.47,759.267 618,752.5C 619.666,750.004 621.5,747.671 623.5,745.5 Z"/></g>
<g><path style="opacity:1" fill="#11192c" d="M 625.5,779.5 C 622.281,779.224 619.615,777.891 617.5,775.5C 617.158,774.662 616.492,774.328 615.5,774.5C 614.883,774.389 614.383,774.056 614,773.5C 614.4,781.441 614.567,789.441 614.5,797.5C 611.167,797.5 607.833,797.5 604.5,797.5C 604.5,770.167 604.5,742.833 604.5,715.5C 607.833,715.5 611.167,715.5 614.5,715.5C 614.666,723.507 614.5,731.507 614,739.5C 612.984,740.634 612.317,740.301 612,738.5C 612.74,741.317 612.573,743.817 611.5,746C 612.825,745.852 613.992,746.018 615,746.5C 616.598,753.185 616.932,760.185 616,767.5C 616.414,767.043 616.914,766.709 617.5,766.5C 618.739,768.007 618.405,769.174 616.5,770C 618.061,770.318 619.228,771.151 620,772.5C 624.309,771.542 628.809,771.542 633.5,772.5C 634.624,773.914 635.624,775.414 636.5,777C 632.94,778.158 629.273,778.992 625.5,779.5 Z"/></g>
<g><path style="opacity:1" fill="#3e5461" d="M 290.5,728.5 C 290.5,745.5 290.5,762.5 290.5,779.5C 286.167,779.5 281.833,779.5 277.5,779.5C 277.5,779.167 277.5,778.833 277.5,778.5C 281.5,778.5 285.5,778.5 289.5,778.5C 289.17,761.658 289.503,744.992 290.5,728.5 Z"/></g>
<g><path style="opacity:1" fill="#111c2e" d="M 483.5,778.5 C 477.167,779.833 470.833,779.833 464.5,778.5C 464.167,778.5 463.833,778.5 463.5,778.5C 459.942,776.446 456.775,773.78 454,770.5C 446.086,754.167 450.253,742 466.5,734C 486.111,732.117 496.111,740.95 496.5,760.5C 485.5,760.5 474.5,760.5 463.5,760.5C 463.343,761.873 463.51,763.207 464,764.5C 470.462,771.122 476.962,771.122 483.5,764.5C 486.681,766.592 489.681,768.925 492.5,771.5C 490.012,774.567 487.012,776.901 483.5,778.5 Z"/></g>
<g><path style="opacity:1" fill="#e5eef4" d="M 470.5,744.5 C 476.449,743.972 480.782,746.306 483.5,751.5C 476.866,752.497 470.2,752.83 463.5,752.5C 464.428,748.574 466.761,745.907 470.5,744.5 Z"/></g>
<g><path style="opacity:1" fill="#93a8b3" d="M 555.5,733.5 C 556.485,737.634 556.818,741.968 556.5,746.5C 552.833,746.5 549.167,746.5 545.5,746.5C 545.5,757.5 545.5,768.5 545.5,779.5C 540.968,779.818 536.634,779.485 532.5,778.5C 536.5,778.5 540.5,778.5 544.5,778.5C 544.5,767.5 544.5,756.5 544.5,745.5C 548.167,745.5 551.833,745.5 555.5,745.5C 555.5,741.5 555.5,737.5 555.5,733.5 Z"/></g>
<g><path style="opacity:1" fill="#131c2a" d="M 676.5,768.5 C 675.785,763.1 677.452,758.6 681.5,755C 688.149,751.401 695.149,750.568 702.5,752.5C 704.378,753.208 706.045,754.374 707.5,756C 706.953,756.925 706.287,757.758 705.5,758.5C 697.616,753.349 689.616,753.182 681.5,758C 678.64,761.681 677.807,765.848 679,770.5C 679.359,767.456 680.026,767.122 681,769.5C 682.324,768.12 683.657,767.786 685,768.5C 685.333,767.167 685.667,765.833 686,764.5C 686.333,764.833 686.667,765.167 687,765.5C 687.057,763.09 688.224,761.756 690.5,761.5C 688.536,770.344 691.87,772.844 700.5,769C 701.71,767.961 702.71,766.794 703.5,765.5C 704.29,764.391 704.79,763.058 705,761.5C 705.333,762.5 705.667,763.5 706,764.5C 706.471,762.754 707.138,761.087 708,759.5C 708.333,759.833 708.667,760.167 709,760.5C 709.743,756.808 711.243,753.474 713.5,750.5C 711.882,747.175 711.382,743.842 712,740.5C 710.326,738.991 708.66,738.324 707,738.5C 705.667,739.167 704.333,739.833 703,740.5C 702.316,739.216 702.483,738.049 703.5,737C 703,736.833 702.5,736.667 702,736.5C 695.191,736.862 688.358,736.862 681.5,736.5C 691.098,732.486 700.764,732.652 710.5,737C 713.433,739.264 715.6,742.098 717,745.5C 717.5,756.828 717.667,768.162 717.5,779.5C 713.5,779.5 709.5,779.5 705.5,779.5C 705.66,777.801 705.494,776.134 705,774.5C 699.72,780.17 693.22,782.004 685.5,780C 680.731,777.414 677.731,773.581 676.5,768.5 Z"/></g>
<g><path style="opacity:1" fill="#ecf4f8" d="M 703.5,765.5 C 702.71,766.794 701.71,767.961 700.5,769C 691.87,772.844 688.536,770.344 690.5,761.5C 694.413,760.404 698.413,760.238 702.5,761C 703.38,762.356 703.714,763.856 703.5,765.5 Z"/></g>
<g><path style="opacity:1" fill="#8998a1" d="M 502.5,734.5 C 502.5,749.167 502.5,763.833 502.5,778.5C 506.5,778.5 510.5,778.5 514.5,778.5C 514.174,769.983 514.507,761.65 515.5,753.5C 515.5,762.167 515.5,770.833 515.5,779.5C 510.381,780.103 505.715,779.436 501.5,777.5C 501.171,762.99 501.504,748.657 502.5,734.5 Z"/></g>
<g><path style="opacity:1" fill="#101823" d="M 671.5,771.5 C 671.484,778.512 668.15,780.845 661.5,778.5C 660.807,777.482 660.141,776.482 659.5,775.5C 658.853,767.997 662.186,765.497 669.5,768C 670.823,768.816 671.489,769.983 671.5,771.5 Z"/></g>
<g><path style="opacity:1" fill="#32444c" d="M 370.5,734.5 C 366.833,734.5 363.167,734.5 359.5,734.5C 359.5,749.167 359.5,763.833 359.5,778.5C 363.167,778.5 366.833,778.5 370.5,778.5C 370.174,769.983 370.507,761.65 371.5,753.5C 371.5,762.167 371.5,770.833 371.5,779.5C 367.167,779.5 362.833,779.5 358.5,779.5C 358.5,764.167 358.5,748.833 358.5,733.5C 362.702,733.183 366.702,733.517 370.5,734.5 Z"/></g>
<g><path style="opacity:1" fill="#9eb0b5" d="M 464.5,778.5 C 470.833,779.833 477.167,779.833 483.5,778.5C 480.644,780.006 477.477,780.672 474,780.5C 470.523,780.672 467.356,780.006 464.5,778.5 Z"/></g>
<g><path style="opacity:1" fill="#131c2d" d="M 738.5,733.5 C 746.295,732.487 753.128,734.487 759,739.5C 759.494,737.866 759.66,736.199 759.5,734.5C 763.5,734.5 767.5,734.5 771.5,734.5C 771.942,751.556 771.442,768.556 770,785.5C 764.817,795.181 756.65,799.847 745.5,799.5C 736.318,799.241 728.651,795.741 722.5,789C 725.646,786.688 728.646,784.188 731.5,781.5C 737.806,787.611 745.139,789.111 753.5,786C 757.576,782.774 759.076,778.607 758,773.5C 743.538,784.845 732.204,782.178 724,765.5C 719.968,750.577 724.801,739.911 738.5,733.5 Z"/></g>
<g><path style="opacity:1" fill="#eff6f9" d="M 741.5,745.5 C 754.491,743.992 759.658,749.659 757,762.5C 750.381,770.489 743.715,770.489 737,762.5C 734.376,755.746 735.876,750.079 741.5,745.5 Z"/></g>
<g><path style="opacity:1" fill="#3a4e59" d="M 615.5,774.5 C 616.492,774.328 617.158,774.662 617.5,775.5C 616.833,783.167 616.167,790.833 615.5,798.5C 615.5,790.5 615.5,782.5 615.5,774.5 Z"/></g>
<g><path style="opacity:1" fill="#eafcfe" d="M 1023.5,1020.5 C 1023.5,1021.5 1023.5,1022.5 1023.5,1023.5C 682.5,1023.5 341.5,1023.5 0.5,1023.5C 2.26465,1022.54 4.26465,1022.21 6.5,1022.5C 344.833,1022.67 683.167,1022.5 1021.5,1022C 1022.04,1021.28 1022.71,1020.78 1023.5,1020.5 Z"/></g>
</svg>
